M48
; DRILL file {KiCad 9.0.0} date 2026-07-07T19:13:43+0900
; FORMAT={-:-/ absolute / metric / decimal}
; #@! TF.CreationDate,2026-07-07T19:13:43+09:00
; #@! TF.GenerationSoftware,Kicad,Pcbnew,9.0.0
; #@! TF.FileFunction,Plated,1,2,PTH
FMAT,2
METRIC
; #@! TA.AperFunction,Plated,PTH,ComponentDrill
T1C0.200
; #@! TA.AperFunction,Plated,PTH,ViaDrill
T2C0.300
; #@! TA.AperFunction,Plated,PTH,ComponentDrill
T3C0.500
; #@! TA.AperFunction,Plated,PTH,ComponentDrill
T4C0.650
; #@! TA.AperFunction,Plated,PTH,ComponentDrill
T5C0.750
; #@! TA.AperFunction,Plated,PTH,ComponentDrill
T6C1.000
; #@! TA.AperFunction,Plated,PTH,ComponentDrill
T7C1.500
; #@! TA.AperFunction,Plated,PTH,ComponentDrill
T8C1.700
; #@! TA.AperFunction,Plated,PTH,ComponentDrill
T9C3.000
%
G90
G05
T1
X103.4Y-110.8
X103.4Y-112.2
X104.1Y-110.1
X104.1Y-111.5
X104.1Y-112.9
X104.8Y-110.8
X104.8Y-112.2
X105.5Y-110.1
X105.5Y-111.5
X105.5Y-112.9
X106.2Y-110.8
X106.2Y-112.2
T2
X90.9Y-138.7
X90.9Y-142.2
X91.0Y-106.2
X91.0Y-127.1
X91.0Y-131.4
X91.0Y-135.5
X91.1Y-110.3
X91.1Y-114.5
X91.1Y-120.9
X91.2Y-122.9
X91.3Y-103.3
X91.5Y-97.5
X92.1Y-100.4
X92.212Y-106.7
X92.4Y-108.1
X92.9Y-110.4
X93.3Y-105.4
X93.5Y-97.9
X93.8Y-102.2
X94.1Y-120.2
X94.5Y-114.8
X94.5Y-118.8
X94.6Y-142.1
X95.0Y-110.9
X95.1Y-113.1
X95.3Y-120.5
X95.6Y-103.6
X95.7Y-107.4
X95.8Y-121.8
X95.889Y-99.633
X96.475Y-124.2
X96.525Y-127.275
X96.6Y-97.1
X96.6Y-116.8
X96.7Y-118.9
X96.7Y-130.4
X96.8Y-133.9
X96.85Y-101.8
X97.1Y-105.6
X97.15Y-114.3
X97.4Y-103.5
X97.5Y-144.4
X97.7Y-90.8
X97.7Y-148.3
X98.1Y-93.6
X98.3Y-119.0
X98.3Y-121.8
X98.38Y-103.1
X98.5Y-120.4
X98.5Y-136.0
X98.6Y-99.7
X99.0Y-95.9
X99.2Y-105.5
X99.3Y-133.0
X100.1Y-90.8
X100.199Y-110.201
X100.2Y-148.8
X100.3Y-103.0
X100.4Y-94.4
X100.4Y-118.6
X100.5Y-112.5
X100.5Y-115.7
X100.925Y-105.45
X101.2Y-120.2
X101.4Y-126.6
X101.9Y-134.3
X102.0Y-124.4
X102.2Y-117.7
X102.2Y-136.9
X102.55Y-105.475
X103.0Y-94.4
X103.0Y-144.1
X103.1Y-102.1
X103.1Y-127.5
X103.1Y-145.6
X103.2Y-96.2
X103.489Y-120.911
X103.5Y-113.9
X103.6Y-141.0
X103.671Y-98.31
X103.9Y-100.5
X104.1Y-149.0
X104.2Y-99.4
X104.3Y-118.9
X104.325Y-105.5
X104.4Y-114.8
X104.4Y-139.8
X104.4Y-146.7
X104.7Y-121.0
X104.7Y-130.075
X104.8Y-108.9
X104.8Y-134.0
X105.3Y-123.3
X105.3Y-136.7
X105.6Y-138.8
X105.7Y-113.9
X105.8Y-97.4
X105.9Y-146.7
X105.97Y-121.75
X106.0Y-149.0
X106.3Y-91.0
X106.4Y-138.2
X106.4Y-143.6
X106.6Y-137.2
X106.8Y-144.6
X106.9Y-120.4
X106.9Y-145.8
X107.2Y-93.3
X107.2Y-133.8
X107.24Y-104.25
X107.5Y-96.5
X107.5Y-114.5
X107.5Y-126.3
X107.5Y-136.6
X107.78Y-109.5
X108.0Y-129.4
X108.3Y-118.5
X108.3Y-137.0
X108.51Y-104.25
X108.55Y-102.149
X108.6Y-91.0
X108.6Y-112.8
X108.6Y-137.9
X108.6Y-140.8
X108.7Y-138.8
X108.8Y-94.1
X109.0Y-149.0
X109.035Y-103.056
X109.1Y-130.8
X109.137Y-107.737
X109.6Y-114.3
X110.2Y-134.3
X110.254Y-139.694
X110.3Y-136.8
X110.382Y-94.1
X110.4Y-100.4
X110.4Y-102.345
X110.7Y-90.9
X110.8Y-108.2
X111.0Y-99.0
X111.0Y-149.0
X111.3Y-108.8
X111.325Y-105.6
X111.336Y-118.7
X111.581Y-97.719
X112.137Y-94.462
X112.2Y-105.6
X112.2Y-118.3
X112.2Y-120.4
X112.4Y-142.6
X112.6Y-124.1
X113.0Y-136.7
X113.2Y-111.9
X113.4Y-119.4
X113.4Y-122.95
X113.9Y-101.9
X114.0Y-98.3
X114.5Y-126.2
X114.5Y-140.9
X114.6Y-130.5
X114.6Y-148.9
X114.84Y-114.905
X114.84Y-116.15
X114.84Y-117.445
X114.89Y-104.9
X115.0Y-96.7
X115.1Y-134.4
X115.2Y-94.6
X115.3Y-132.2
X115.375Y-99.718
X115.4Y-98.0
X115.4Y-123.9
X115.517Y-110.725
X115.6Y-121.2
X115.7Y-95.15
X115.89Y-129.39
X116.2Y-90.8
X116.2Y-95.7
X116.289Y-103.466
X116.4Y-136.7
X116.45Y-107.501
X116.7Y-93.2
X116.8Y-100.7
X117.0Y-109.8
X117.0Y-143.5
X117.05Y-116.15
X117.3Y-125.8
X117.4Y-90.9
X117.5Y-133.1
X117.7Y-97.1
X117.7Y-140.8
X117.8Y-101.7
X117.8Y-129.5
X118.0Y-112.8
X118.0Y-148.9
X118.394Y-99.1
X118.4Y-108.4
X118.6Y-104.2
X118.662Y-103.037
X118.7Y-92.938
X118.776Y-100.725
X118.786Y-124.364
X119.0Y-105.2
X119.1Y-114.9
X119.15Y-115.7
X119.325Y-94.3
X119.5Y-136.6
X119.6Y-111.575
X119.7Y-131.2
X119.9Y-130.0
X120.0Y-122.5
X120.1Y-100.5
X120.3Y-92.69
X120.32Y-139.17
X120.5Y-120.4
X120.6Y-117.648
X120.65Y-121.5
X120.7Y-134.5
X120.7Y-145.6
X120.8Y-123.35
X120.8Y-125.06
X120.8Y-130.7
X121.15Y-115.75
X121.3Y-101.2
X121.5Y-117.4
X121.675Y-126.55
X121.7Y-129.6
X121.9Y-95.9
X121.9Y-103.7
X122.038Y-148.823
X122.1Y-93.2
X122.1Y-135.5
X122.2Y-116.2
X122.3Y-90.8
X122.587Y-124.887
X122.7Y-126.5
X122.8Y-99.6
X122.9Y-131.4
X122.911Y-98.717
X123.0Y-133.9
X123.095Y-96.798
X123.7Y-143.6
X123.85Y-115.0
X124.3Y-137.6
X124.35Y-96.75
X124.4Y-109.45
X124.4Y-129.0
X124.7Y-105.95
X124.7Y-116.2
X125.1Y-122.725
X125.5Y-148.8
X125.6Y-93.2
X125.6Y-98.6
X125.6Y-99.6
X125.6Y-100.6
X125.7Y-125.6
X126.1Y-104.5
X126.1Y-124.3
X126.2Y-140.1
X126.3Y-116.2
X126.4Y-130.2
X126.4Y-135.6
X126.5Y-117.3
X126.721Y-119.0
X126.8Y-104.5
X126.8Y-108.2
X127.0Y-126.4
X127.025Y-119.925
X127.1Y-129.0
X127.1Y-147.0
X127.2Y-124.7
X127.3Y-146.1
X127.4Y-147.9
X127.5Y-97.3
X127.6Y-100.1
X127.725Y-122.075
X127.8Y-115.4
X127.8Y-117.1
X127.925Y-110.0
X128.1Y-149.0
X128.2Y-104.5
X128.3Y-145.5
X128.3Y-147.9
X128.5Y-94.2
X128.675Y-115.7
X128.675Y-117.7
X128.725Y-113.2
X128.775Y-124.05
X128.9Y-104.5
X129.1Y-138.7
X129.2Y-145.4
X129.4Y-91.0
X129.4Y-98.6
X129.4Y-99.6
X129.4Y-100.6
X129.6Y-93.6
X129.6Y-118.675
X129.8Y-108.2
X129.8Y-121.7
X129.8Y-136.0
X129.8Y-145.9
X129.8Y-146.8
X129.825Y-111.9
X129.9Y-148.0
X130.0Y-149.1
X130.425Y-114.825
X130.425Y-116.975
X130.688Y-116.087
X130.7Y-110.6
X130.7Y-144.7
X130.8Y-147.9
X130.899Y-127.199
X131.0Y-106.1
X131.0Y-133.1
X131.037Y-112.062
X131.1Y-132.36
X131.2Y-119.325
X131.3Y-100.0
X131.4Y-97.3
X131.4Y-101.8
X131.6Y-113.6
X131.7Y-144.2
X131.9Y-104.6
X132.3Y-125.8
X132.4Y-135.8
X132.6Y-139.3
X132.8Y-90.9
X132.8Y-93.0
X133.0Y-105.7
X133.0Y-133.6
X133.1Y-121.5
X133.2Y-108.175
X133.3Y-124.7
X133.4Y-111.6
X133.5Y-146.5
X133.525Y-134.925
X133.55Y-113.45
X133.55Y-115.575
X133.6Y-95.3
X133.6Y-129.5
X133.8Y-96.8
X133.9Y-143.6
X134.0Y-108.7
X134.1Y-149.2
X134.3Y-113.2
X134.5Y-99.8
X134.7Y-97.7
X134.7Y-134.8
X134.7Y-146.8
X134.8Y-105.8
X135.1Y-127.7
X135.3Y-140.4
X135.4Y-90.9
X135.4Y-112.6
X135.4Y-115.2
X135.4Y-143.4
X135.5Y-93.5
X135.7Y-96.787
X135.7Y-101.6
X135.7Y-146.6
X135.9Y-103.3
X135.9Y-149.0
X136.157Y-132.17
X136.2Y-94.4
X136.2Y-105.6
X136.2Y-108.5
X136.2Y-126.8
X136.62Y-114.91
X136.675Y-123.225
X136.8Y-145.7
X136.9Y-144.6
X137.2Y-102.1
X137.2Y-109.9
X137.2Y-133.6
X137.4Y-119.6
X137.525Y-121.475
X137.6Y-105.6
X137.65Y-124.4
X137.933Y-133.443
X138.1Y-95.3
X138.3Y-100.08
X138.4Y-119.1
X138.659Y-98.2
X139.0Y-102.3
X139.2Y-139.2
X139.3Y-132.8
X139.4Y-118.225
X139.4Y-149.1
X139.463Y-134.838
X139.7Y-104.4
X139.9Y-95.1
X139.9Y-111.4
X139.9Y-122.1
X139.9Y-136.4
X140.0Y-108.0
X140.1Y-106.8
X140.2Y-99.0
X140.3Y-101.1
X140.4Y-93.0
X140.5Y-90.8
X141.1Y-114.3
X141.1Y-128.0
X141.3Y-124.2
X141.4Y-103.7
X141.607Y-102.14
X141.7Y-110.2
X141.7Y-137.8
X141.8Y-148.9
X142.0Y-93.8
X142.4Y-145.1
X142.5Y-129.7
X142.5Y-133.4
X142.5Y-136.2
X142.6Y-117.7
X142.6Y-121.6
X142.8Y-141.1
X143.0Y-90.9
X143.409Y-100.477
X143.7Y-97.7
X143.9Y-113.5
X144.7Y-99.7
X145.1Y-142.2
X145.3Y-104.0
X145.4Y-106.6
X145.6Y-126.2
X145.7Y-121.3
X145.8Y-116.3
X146.0Y-130.9
X146.1Y-134.9
X146.5Y-97.7
X146.6Y-108.9
X146.7Y-99.8
X148.6Y-138.6
X148.7Y-104.0
X148.7Y-113.6
X148.7Y-115.2
X148.8Y-126.4
X148.8Y-142.8
X148.9Y-99.4
X148.9Y-108.5
X148.9Y-123.7
X148.9Y-135.4
X149.0Y-96.6
X149.0Y-119.2
X149.0Y-128.0
X149.0Y-129.6
X149.0Y-132.1
X149.0Y-140.8
T4
X105.2Y-124.7
X106.47Y-124.7
X108.93Y-124.7
X110.2Y-124.7
X129.8Y-95.3
X131.07Y-95.3
X136.305Y-137.85
X137.38Y-125.9
X137.575Y-137.85
X138.65Y-125.9
T5
X112.8Y-91.5
X114.8Y-91.5
X123.8Y-91.5
X125.8Y-91.5
X127.8Y-91.5
X136.8Y-91.5
X138.8Y-91.5
T6
X102.06Y-91.65
X104.56Y-91.65
T7
X105.0Y-145.0
X135.0Y-145.0
T8
X102.46Y-142.46
X102.46Y-147.54
X107.54Y-142.46
X107.54Y-147.54
X132.46Y-142.46
X132.46Y-147.54
X137.54Y-142.46
X137.54Y-147.54
T9
X93.5Y-93.5
X93.5Y-146.5
X146.5Y-93.5
X146.5Y-146.5
T3
G00X142.9Y-102.0
M15
G01X143.5Y-102.0
M16
G05
G00X142.9Y-111.79
M15
G01X143.5Y-111.79
M16
G05
G00X145.9Y-102.0
M15
G01X146.5Y-102.0
M16
G05
G00X145.9Y-111.79
M15
G01X146.5Y-111.79
M16
G05
M30
