M48
; DRILL file {KiCad 7.0.8} date Wed Feb 14 15:59:44 2024
; FORMAT={-:-/ absolute / metric / decimal}
; #@! TF.CreationDate,2024-02-14T15:59:44+09:00
; #@! TF.GenerationSoftware,Kicad,Pcbnew,7.0.8
; #@! TF.FileFunction,MixedPlating,1,2
FMAT,2
METRIC
; #@! TA.AperFunction,Plated,PTH,ViaDrill
T1C0.400
; #@! TA.AperFunction,Plated,PTH,ComponentDrill
T2C0.750
; #@! TA.AperFunction,Plated,PTH,ComponentDrill
T3C0.800
; #@! TA.AperFunction,Plated,PTH,ComponentDrill
T4C1.000
; #@! TA.AperFunction,Plated,PTH,ComponentDrill
T5C1.200
; #@! TA.AperFunction,NonPlated,NPTH,ComponentDrill
T6C3.200
%
G90
G05
T1
X30.8Y-40.8
X30.8Y-60.8
X30.8Y-96.68
X30.8Y-101.68
X30.8Y-111.68
X30.8Y-116.68
X35.8Y-40.8
X35.8Y-45.8
X35.8Y-96.68
X35.8Y-101.68
X35.8Y-106.68
X39.014Y-109.418
X40.755Y-38.215
X40.8Y-30.8
X40.8Y-45.8
X40.8Y-86.68
X40.8Y-91.68
X40.8Y-96.68
X40.8Y-101.68
X40.8Y-126.68
X41.554Y-122.372
X43.041Y-59.043
X45.8Y-45.8
X45.8Y-65.8
X45.8Y-70.8
X45.8Y-91.68
X45.8Y-106.68
X50.8Y-45.8
X50.8Y-91.68
X50.8Y-106.68
X50.8Y-111.68
X50.8Y-121.68
X55.233Y-44.057
X55.27Y-123.134
X55.8Y-45.8
X55.8Y-70.8
X55.8Y-91.68
X55.8Y-106.68
X55.8Y-111.68
X55.8Y-121.68
X55.8Y-128.68
X60.8Y-30.8
X60.8Y-35.8
X60.8Y-45.8
X60.8Y-60.8
X60.8Y-70.8
X60.8Y-86.68
X60.8Y-91.68
X60.8Y-106.68
X60.8Y-111.68
X60.8Y-121.68
X60.8Y-126.68
X61.075Y-66.663
X65.8Y-40.8
X65.8Y-45.8
X65.8Y-60.8
X65.8Y-106.68
X65.8Y-116.68
X70.473Y-43.803
X70.8Y-40.8
X70.8Y-60.8
X70.8Y-111.68
X70.8Y-116.68
X86.68Y-96.68
X86.68Y-101.68
X86.68Y-111.68
X86.68Y-116.68
X91.68Y-55.8
X91.68Y-96.68
X91.68Y-116.68
X96.68Y-30.8
X96.68Y-55.8
X96.68Y-60.8
X96.68Y-86.68
X96.68Y-91.68
X96.68Y-106.68
X96.68Y-111.68
X96.68Y-121.68
X96.68Y-126.68
X100.73Y-42.418
X101.68Y-101.68
X101.68Y-106.68
X101.68Y-111.68
X101.68Y-116.68
X101.68Y-126.68
X102.0Y-47.244
X102.0Y-63.754
X103.27Y-47.244
X104.372Y-64.938
X105.556Y-45.466
X106.318Y-44.196
X106.68Y-60.8
X106.68Y-65.8
X106.68Y-96.68
X106.68Y-101.68
X106.68Y-106.68
X106.68Y-111.68
X106.68Y-116.68
X106.68Y-121.68
X108.604Y-39.624
X109.112Y-51.816
X109.112Y-54.102
X111.14Y-44.192
X111.144Y-39.624
X111.68Y-91.68
X111.68Y-96.68
X111.68Y-101.68
X111.68Y-106.68
X111.68Y-111.68
X111.68Y-116.68
X111.68Y-121.68
X111.68Y-126.68
X112.922Y-34.544
X114.376Y-70.942
X115.716Y-60.706
X115.785Y-59.219
X116.68Y-30.8
X116.68Y-35.8
X116.68Y-70.8
X116.68Y-86.68
X116.68Y-91.68
X116.68Y-96.68
X116.68Y-101.68
X116.68Y-106.68
X116.68Y-111.68
X116.68Y-116.68
X116.68Y-121.68
X116.68Y-126.68
X119.272Y-60.198
X121.68Y-50.8
X121.68Y-60.8
X121.68Y-96.68
X121.68Y-101.68
X121.68Y-106.68
X121.68Y-111.68
X121.68Y-116.68
X126.68Y-40.8
X126.68Y-45.8
X126.68Y-50.8
X126.68Y-55.8
X126.68Y-60.8
X126.68Y-96.68
X126.68Y-101.68
X126.68Y-106.68
X126.68Y-111.68
X126.68Y-116.68
T2
X43.549Y-41.263
X43.549Y-42.533
X43.549Y-43.803
X44.26Y-117.68
X45.53Y-117.68
X46.8Y-117.68
T3
X57.99Y-113.68
X58.18Y-108.68
X65.61Y-113.68
X65.8Y-108.68
T4
X30.613Y-47.903
X30.613Y-50.443
X30.613Y-52.983
X46.99Y-30.463
X46.99Y-86.68
X46.99Y-124.41
X46.99Y-126.95
X47.0Y-97.68
X48.121Y-36.691
X49.53Y-30.463
X49.53Y-86.68
X49.53Y-124.41
X49.53Y-126.95
X50.661Y-36.691
X52.07Y-30.463
X52.07Y-86.68
X52.07Y-124.41
X52.07Y-126.95
X53.201Y-36.691
X54.6Y-97.68
X54.61Y-30.463
X54.61Y-86.68
X54.61Y-124.41
X54.61Y-126.95
X88.016Y-42.878
X88.016Y-45.418
X88.016Y-47.958
X88.016Y-50.498
X88.016Y-53.038
X88.016Y-55.578
X88.016Y-58.118
X88.68Y-105.41
X88.68Y-107.95
X102.206Y-30.498
X102.87Y-68.53
X102.87Y-71.07
X102.87Y-86.68
X104.746Y-30.498
X105.41Y-68.53
X105.41Y-71.07
X105.41Y-86.68
X105.41Y-128.68
X107.286Y-30.498
X107.95Y-68.53
X107.95Y-71.07
X107.95Y-86.68
X107.95Y-128.68
X109.826Y-30.498
X110.49Y-68.53
X110.49Y-71.07
X110.49Y-86.68
T5
X109.112Y-42.164
X109.112Y-56.388
X111.652Y-42.164
X111.652Y-56.388
X114.192Y-42.164
X114.192Y-56.388
X116.732Y-42.164
X116.732Y-56.388
X119.272Y-42.164
X119.272Y-56.388
X121.812Y-42.164
X121.812Y-56.388
X124.352Y-42.164
X124.352Y-56.388
T6
X36.658Y-36.658
X36.658Y-64.942
X36.658Y-92.538
X36.658Y-120.822
X64.942Y-36.658
X64.942Y-64.942
X64.942Y-92.538
X64.942Y-120.822
X92.538Y-36.658
X92.538Y-64.942
X92.538Y-92.538
X92.538Y-120.822
X120.822Y-36.658
X120.822Y-64.942
X120.822Y-92.538
X120.822Y-120.822
T0
M30
