G04 #@! TF.GenerationSoftware,KiCad,Pcbnew,7.0.8*
G04 #@! TF.CreationDate,2024-02-14T15:59:42+09:00*
G04 #@! TF.ProjectId,_______FMver2,2d098bb9-6bc5-46e4-964d-766572322e6b,rev?*
G04 #@! TF.SameCoordinates,Original*
G04 #@! TF.FileFunction,Copper,L2,Bot*
G04 #@! TF.FilePolarity,Positive*
%FSLAX46Y46*%
G04 Gerber Fmt 4.6, Leading zero omitted, Abs format (unit mm)*
G04 Created by KiCad (PCBNEW 7.0.8) date 2024-02-14 15:59:42*
%MOMM*%
%LPD*%
G01*
G04 APERTURE LIST*
G04 #@! TA.AperFunction,ComponentPad*
%ADD10R,2.000000X2.000000*%
G04 #@! TD*
G04 #@! TA.AperFunction,ComponentPad*
%ADD11C,2.000000*%
G04 #@! TD*
G04 #@! TA.AperFunction,ComponentPad*
%ADD12C,1.500000*%
G04 #@! TD*
G04 #@! TA.AperFunction,ComponentPad*
%ADD13R,1.600000X1.600000*%
G04 #@! TD*
G04 #@! TA.AperFunction,ComponentPad*
%ADD14O,1.600000X1.600000*%
G04 #@! TD*
G04 #@! TA.AperFunction,ComponentPad*
%ADD15O,1.500000X1.050000*%
G04 #@! TD*
G04 #@! TA.AperFunction,ComponentPad*
%ADD16R,1.500000X1.050000*%
G04 #@! TD*
G04 #@! TA.AperFunction,ComponentPad*
%ADD17R,1.050000X1.500000*%
G04 #@! TD*
G04 #@! TA.AperFunction,ComponentPad*
%ADD18O,1.050000X1.500000*%
G04 #@! TD*
G04 #@! TA.AperFunction,ComponentPad*
%ADD19C,1.700000*%
G04 #@! TD*
G04 #@! TA.AperFunction,ViaPad*
%ADD20C,0.800000*%
G04 #@! TD*
G04 #@! TA.AperFunction,Conductor*
%ADD21C,0.250000*%
G04 #@! TD*
G04 #@! TA.AperFunction,Conductor*
%ADD22C,0.200000*%
G04 #@! TD*
G04 APERTURE END LIST*
D10*
X54600000Y-97680000D03*
D11*
X47000000Y-97680000D03*
D12*
X53200554Y-36691429D03*
X50660554Y-36691429D03*
X48120554Y-36691429D03*
X102870000Y-71070000D03*
X105410000Y-71070000D03*
X107950000Y-71070000D03*
X110490000Y-71070000D03*
X110490000Y-68530000D03*
X107950000Y-68530000D03*
X105410000Y-68530000D03*
X102870000Y-68530000D03*
X102870000Y-86680000D03*
X105410000Y-86680000D03*
X107950000Y-86680000D03*
X110490000Y-86680000D03*
X46990000Y-86680000D03*
X49530000Y-86680000D03*
X52070000Y-86680000D03*
X54610000Y-86680000D03*
X88680000Y-105410000D03*
X88680000Y-107950000D03*
X30612554Y-50443429D03*
X30612554Y-47903429D03*
X30612554Y-52983429D03*
D13*
X65610000Y-113680000D03*
D14*
X57990000Y-113680000D03*
D12*
X54610000Y-30463429D03*
X52070000Y-30463429D03*
X49530000Y-30463429D03*
X46990000Y-30463429D03*
X105410000Y-128680000D03*
X107950000Y-128680000D03*
D13*
X65800000Y-108680000D03*
D14*
X58180000Y-108680000D03*
D15*
X43548554Y-41263429D03*
X43548554Y-42533429D03*
D16*
X43548554Y-43803429D03*
D12*
X109826000Y-30498000D03*
X107286000Y-30498000D03*
X104746000Y-30498000D03*
X102206000Y-30498000D03*
X46990000Y-124410000D03*
X49530000Y-124410000D03*
X52070000Y-124410000D03*
X54610000Y-124410000D03*
X54610000Y-126950000D03*
X52070000Y-126950000D03*
X49530000Y-126950000D03*
X46990000Y-126950000D03*
D17*
X44260000Y-117680000D03*
D18*
X45530000Y-117680000D03*
X46800000Y-117680000D03*
D19*
X109112000Y-56388000D03*
X111652000Y-56388000D03*
X114192000Y-56388000D03*
X116732000Y-56388000D03*
X119272000Y-56388000D03*
X121812000Y-56388000D03*
X124352000Y-56388000D03*
X124352000Y-42164000D03*
X121812000Y-42164000D03*
X119272000Y-42164000D03*
X116732000Y-42164000D03*
X114192000Y-42164000D03*
X111652000Y-42164000D03*
X109112000Y-42164000D03*
D12*
X88016000Y-58118000D03*
X88016000Y-55578000D03*
X88016000Y-53038000D03*
X88016000Y-50498000D03*
X88016000Y-47958000D03*
X88016000Y-45418000D03*
X88016000Y-42878000D03*
D20*
X43040554Y-59043429D03*
X50800000Y-45800000D03*
X60800000Y-70800000D03*
X60800000Y-60800000D03*
X60800000Y-35800000D03*
X40800000Y-30800000D03*
X65800000Y-40800000D03*
X65800000Y-45800000D03*
X45800000Y-65800000D03*
X60800000Y-30800000D03*
X45800000Y-70800000D03*
X30800000Y-40800000D03*
X35800000Y-40800000D03*
X65800000Y-60800000D03*
X60800000Y-45800000D03*
X40800000Y-45800000D03*
X55232554Y-44057429D03*
X55800000Y-70800000D03*
X55800000Y-45800000D03*
X35800000Y-45800000D03*
X30800000Y-60800000D03*
X45800000Y-45800000D03*
X40754554Y-38215429D03*
X70800000Y-60800000D03*
X61074554Y-66663429D03*
X70800000Y-40800000D03*
X70472554Y-43803429D03*
X115784675Y-59219500D03*
X111144000Y-39624000D03*
X109112000Y-51816000D03*
X115716000Y-60706000D03*
X112922000Y-34544000D03*
X119272000Y-60198000D03*
X105556000Y-45466000D03*
X39014000Y-109418000D03*
X41554000Y-122372000D03*
X96680000Y-30800000D03*
X126680000Y-45800000D03*
X121680000Y-60800000D03*
X96680000Y-60800000D03*
X116680000Y-30800000D03*
X126680000Y-60800000D03*
X116680000Y-35800000D03*
X126680000Y-40800000D03*
X96680000Y-55800000D03*
X126680000Y-50800000D03*
X91680000Y-55800000D03*
X106680000Y-65800000D03*
X116680000Y-70800000D03*
X121680000Y-50800000D03*
X126680000Y-55800000D03*
X106680000Y-60800000D03*
X104372000Y-64938000D03*
X108604000Y-39624000D03*
X109112000Y-54102000D03*
X111139701Y-44191701D03*
X106318000Y-44196000D03*
X100730000Y-42418000D03*
X40800000Y-126680000D03*
X50800000Y-111680000D03*
X40800000Y-91680000D03*
X60800000Y-91680000D03*
X70800000Y-116680000D03*
X60800000Y-106680000D03*
X35800000Y-106680000D03*
X70800000Y-111680000D03*
X45800000Y-106680000D03*
X55800000Y-121680000D03*
X45800000Y-91680000D03*
X50800000Y-106680000D03*
X55800000Y-91680000D03*
X60800000Y-126680000D03*
X65800000Y-106680000D03*
X30800000Y-116680000D03*
X40800000Y-101680000D03*
X55800000Y-106680000D03*
X60800000Y-86680000D03*
X60800000Y-111680000D03*
X60800000Y-121680000D03*
X40800000Y-86680000D03*
X30800000Y-111680000D03*
X35800000Y-101680000D03*
X35800000Y-96680000D03*
X50800000Y-121680000D03*
X65800000Y-116680000D03*
X40800000Y-96680000D03*
X50800000Y-91680000D03*
X30800000Y-96680000D03*
X30800000Y-101680000D03*
X55800000Y-111680000D03*
X102000000Y-63754000D03*
X102000000Y-47244000D03*
X114376000Y-70942000D03*
X103270000Y-47244000D03*
X55800000Y-128680000D03*
X55270000Y-123134000D03*
X126680000Y-111680000D03*
X111680000Y-116680000D03*
X111680000Y-91680000D03*
X106680000Y-121680000D03*
X101680000Y-101680000D03*
X106680000Y-111680000D03*
X116680000Y-96680000D03*
X116680000Y-86680000D03*
X96680000Y-86680000D03*
X96680000Y-126680000D03*
X126680000Y-101680000D03*
X116680000Y-101680000D03*
X116680000Y-91680000D03*
X86680000Y-116680000D03*
X121680000Y-106680000D03*
X106680000Y-101680000D03*
X106680000Y-106680000D03*
X96680000Y-106680000D03*
X111680000Y-121680000D03*
X126680000Y-96680000D03*
X86680000Y-96680000D03*
X121680000Y-111680000D03*
X96680000Y-121680000D03*
X121680000Y-116680000D03*
X96680000Y-111680000D03*
X126680000Y-116680000D03*
X111680000Y-106680000D03*
X111680000Y-101680000D03*
X86680000Y-111680000D03*
X116680000Y-121680000D03*
X101680000Y-126680000D03*
X121680000Y-96680000D03*
X106680000Y-116680000D03*
X126680000Y-106680000D03*
X101680000Y-116680000D03*
X86680000Y-101680000D03*
X91680000Y-116680000D03*
X106680000Y-96680000D03*
X116680000Y-106680000D03*
X101680000Y-111680000D03*
X111680000Y-126680000D03*
X121680000Y-101680000D03*
X116680000Y-126680000D03*
X101680000Y-106680000D03*
X116680000Y-116680000D03*
X91680000Y-96680000D03*
X111680000Y-96680000D03*
X111680000Y-111680000D03*
X116680000Y-111680000D03*
X96680000Y-91680000D03*
D21*
X28562554Y-55487429D02*
X33896554Y-60821429D01*
X33896554Y-60821429D02*
X40246554Y-60821429D01*
X30612554Y-47903429D02*
X29796554Y-47903429D01*
X29796554Y-47903429D02*
X28562554Y-49137429D01*
X42786554Y-72505429D02*
X57772554Y-72505429D01*
X55232554Y-40755429D02*
X53708554Y-39231429D01*
X42532554Y-72505429D02*
X42786554Y-72505429D01*
X61074554Y-69203429D02*
X61074554Y-66663429D01*
X41770554Y-39231429D02*
X40754554Y-38215429D01*
X43040554Y-59043429D02*
X42024554Y-59043429D01*
X53708554Y-39231429D02*
X41770554Y-39231429D01*
X41008554Y-70981429D02*
X42532554Y-72505429D01*
X42024554Y-59043429D02*
X40246554Y-60821429D01*
X41008554Y-61583429D02*
X41008554Y-70981429D01*
X28562554Y-49137429D02*
X28562554Y-55487429D01*
X40246554Y-60821429D02*
X41008554Y-61583429D01*
X57772554Y-72505429D02*
X61074554Y-69203429D01*
X55232554Y-44057429D02*
X55232554Y-40755429D01*
X50660554Y-37961429D02*
X50660554Y-36691429D01*
X70472554Y-43803429D02*
X65646554Y-43803429D01*
X59804554Y-37961429D02*
X50660554Y-37961429D01*
X65646554Y-43803429D02*
X59804554Y-37961429D01*
X110128000Y-39624000D02*
X109112000Y-40640000D01*
X115784675Y-59219500D02*
X115716000Y-59288175D01*
X109112000Y-51816000D02*
X109112000Y-42164000D01*
X109112000Y-40640000D02*
X109112000Y-42164000D01*
X111144000Y-39624000D02*
X110128000Y-39624000D01*
X115716000Y-59288175D02*
X115716000Y-60706000D01*
X44260000Y-104426000D02*
X54610000Y-94076000D01*
X44260000Y-117680000D02*
X44260000Y-104426000D01*
X54610000Y-94076000D02*
X54610000Y-86680000D01*
X95904000Y-41402000D02*
X97936000Y-39370000D01*
X99460000Y-34544000D02*
X112922000Y-34544000D01*
X86252000Y-54864000D02*
X86252000Y-43128390D01*
X86252000Y-42418000D02*
X87268000Y-41402000D01*
X97936000Y-39370000D02*
X97936000Y-36068000D01*
X88016000Y-55578000D02*
X86966000Y-55578000D01*
X87268000Y-41402000D02*
X95904000Y-41402000D01*
X97936000Y-36068000D02*
X99460000Y-34544000D01*
X86252000Y-43128390D02*
X86252000Y-42418000D01*
X86966000Y-55578000D02*
X86252000Y-54864000D01*
X119272000Y-60198000D02*
X119272000Y-56388000D01*
X105508000Y-45418000D02*
X105556000Y-45466000D01*
X88016000Y-45418000D02*
X105508000Y-45418000D01*
X39014000Y-109418000D02*
X40792000Y-109418000D01*
X48768000Y-121610000D02*
X51568000Y-124410000D01*
X40792000Y-109418000D02*
X41554000Y-110180000D01*
X42316000Y-121610000D02*
X48768000Y-121610000D01*
X51568000Y-124410000D02*
X52070000Y-124410000D01*
X41554000Y-110180000D02*
X41554000Y-118308000D01*
X41554000Y-118308000D02*
X42316000Y-119070000D01*
X42316000Y-119070000D02*
X42316000Y-121610000D01*
X47492000Y-122372000D02*
X49530000Y-124410000D01*
X41554000Y-122372000D02*
X47492000Y-122372000D01*
X96920000Y-39116000D02*
X95650000Y-40386000D01*
X87094000Y-40386000D02*
X84728000Y-42752000D01*
X105410000Y-72070000D02*
X104680000Y-72800000D01*
X105410000Y-71070000D02*
X105410000Y-72070000D01*
X87681000Y-60960000D02*
X93364000Y-60960000D01*
X104794000Y-33528000D02*
X99206000Y-33528000D01*
X84728000Y-58007000D02*
X87681000Y-60960000D01*
X96920000Y-35814000D02*
X96920000Y-39116000D01*
X100124000Y-72800000D02*
X104680000Y-72800000D01*
X84728000Y-42752000D02*
X84728000Y-58007000D01*
X102086000Y-64938000D02*
X99714000Y-67310000D01*
X96412000Y-64008000D02*
X96412000Y-69088000D01*
X104372000Y-64938000D02*
X102086000Y-64938000D01*
X93364000Y-60960000D02*
X96412000Y-64008000D01*
X99714000Y-72390000D02*
X99714000Y-71766000D01*
X104746000Y-30498000D02*
X104746000Y-33480000D01*
X99206000Y-33528000D02*
X96920000Y-35814000D01*
X104746000Y-33480000D02*
X104794000Y-33528000D01*
X96412000Y-69088000D02*
X100124000Y-72800000D01*
X100124000Y-72800000D02*
X99714000Y-72390000D01*
X95650000Y-40386000D02*
X87094000Y-40386000D01*
X99714000Y-67310000D02*
X99714000Y-71766000D01*
X107080000Y-52070000D02*
X107080000Y-39624000D01*
X109112000Y-54102000D02*
X107080000Y-52070000D01*
X107080000Y-39624000D02*
X108604000Y-39624000D01*
X111139701Y-44191701D02*
X111652000Y-44704000D01*
X102508000Y-44196000D02*
X100730000Y-42418000D01*
X111652000Y-44704000D02*
X111652000Y-56388000D01*
X106318000Y-44196000D02*
X102508000Y-44196000D01*
D22*
X102000000Y-63754000D02*
X102000000Y-47244000D01*
D21*
X56794000Y-128711305D02*
X56100305Y-129405000D01*
X50082000Y-129680000D02*
X49530000Y-129128000D01*
X56075000Y-129405000D02*
X55800000Y-129680000D01*
X56100305Y-129405000D02*
X56075000Y-129405000D01*
X49530000Y-129128000D02*
X49530000Y-126950000D01*
X55800000Y-129680000D02*
X50082000Y-129680000D01*
X56794000Y-110066000D02*
X56794000Y-128711305D01*
X58180000Y-108680000D02*
X56794000Y-110066000D01*
X116509675Y-58705675D02*
X114192000Y-56388000D01*
X116509675Y-68808325D02*
X116509675Y-58705675D01*
X114376000Y-70942000D02*
X116509675Y-68808325D01*
X108614000Y-72800000D02*
X107950000Y-72136000D01*
X112090000Y-58420000D02*
X112090000Y-71444000D01*
X112090000Y-71444000D02*
X110734000Y-72800000D01*
X103270000Y-47244000D02*
X103270000Y-58420000D01*
X103270000Y-58420000D02*
X112090000Y-58420000D01*
X107950000Y-72136000D02*
X107950000Y-71070000D01*
X110734000Y-72800000D02*
X108614000Y-72800000D01*
X55800000Y-128680000D02*
X56032000Y-128448000D01*
X56032000Y-123896000D02*
X55270000Y-123134000D01*
X56032000Y-128448000D02*
X56032000Y-123896000D01*
G04 #@! TA.AperFunction,Conductor*
G36*
X109038194Y-26533177D02*
G01*
X114009871Y-27527512D01*
X114041006Y-27538195D01*
X118022698Y-29529041D01*
X118029368Y-29532912D01*
X119803963Y-30715975D01*
X124010137Y-33520091D01*
X124038178Y-33545799D01*
X127559901Y-37947952D01*
X128014676Y-38516421D01*
X128032978Y-38547829D01*
X128279609Y-39164406D01*
X130021925Y-43520198D01*
X130028386Y-43541932D01*
X131023746Y-48518729D01*
X131026154Y-48543047D01*
X131026154Y-51520506D01*
X131024467Y-51540891D01*
X130029219Y-57512377D01*
X130017815Y-57547446D01*
X127032590Y-63517896D01*
X127016940Y-63541825D01*
X122042759Y-69510843D01*
X122002954Y-69542369D01*
X116038330Y-72524681D01*
X116012950Y-72534070D01*
X108040962Y-74527067D01*
X108010888Y-74530769D01*
X106035165Y-74530769D01*
X106017232Y-74529465D01*
X101043502Y-73802535D01*
X101010189Y-73792754D01*
X100723001Y-73662415D01*
X100670090Y-73616785D01*
X100650247Y-73549792D01*
X100669774Y-73482706D01*
X100722470Y-73436827D01*
X100774247Y-73425500D01*
X104597257Y-73425500D01*
X104612877Y-73427224D01*
X104612904Y-73426939D01*
X104620660Y-73427671D01*
X104620667Y-73427673D01*
X104689814Y-73425500D01*
X104719350Y-73425500D01*
X104726228Y-73424630D01*
X104732041Y-73424172D01*
X104778627Y-73422709D01*
X104797869Y-73417117D01*
X104816912Y-73413174D01*
X104836792Y-73410664D01*
X104880122Y-73393507D01*
X104885646Y-73391617D01*
X104889396Y-73390527D01*
X104930390Y-73378618D01*
X104947629Y-73368422D01*
X104965103Y-73359862D01*
X104983727Y-73352488D01*
X104983727Y-73352487D01*
X104983732Y-73352486D01*
X105021449Y-73325082D01*
X105026305Y-73321892D01*
X105066420Y-73298170D01*
X105080589Y-73283999D01*
X105095379Y-73271368D01*
X105111587Y-73259594D01*
X105141299Y-73223676D01*
X105145212Y-73219376D01*
X105793787Y-72570802D01*
X105806042Y-72560986D01*
X105805859Y-72560764D01*
X105811866Y-72555792D01*
X105811877Y-72555786D01*
X105843206Y-72522424D01*
X105859227Y-72505364D01*
X105869671Y-72494918D01*
X105880120Y-72484471D01*
X105884379Y-72478978D01*
X105888152Y-72474561D01*
X105920062Y-72440582D01*
X105929715Y-72423020D01*
X105940389Y-72406770D01*
X105952673Y-72390936D01*
X105971180Y-72348167D01*
X105973749Y-72342924D01*
X105996196Y-72302093D01*
X105996197Y-72302092D01*
X106001177Y-72282691D01*
X106007478Y-72264288D01*
X106015438Y-72245896D01*
X106020252Y-72215498D01*
X106050179Y-72152365D01*
X106071597Y-72133323D01*
X106216877Y-72031598D01*
X106371598Y-71876877D01*
X106497102Y-71697639D01*
X106567618Y-71546414D01*
X106613790Y-71493977D01*
X106680984Y-71474825D01*
X106747865Y-71495041D01*
X106792381Y-71546414D01*
X106862898Y-71697639D01*
X106988402Y-71876877D01*
X107143123Y-72031598D01*
X107274046Y-72123271D01*
X107317670Y-72177847D01*
X107326860Y-72220944D01*
X107327290Y-72234624D01*
X107327291Y-72234627D01*
X107332880Y-72253867D01*
X107336824Y-72272911D01*
X107339336Y-72292792D01*
X107356490Y-72336119D01*
X107358382Y-72341647D01*
X107360278Y-72348174D01*
X107371382Y-72386390D01*
X107374070Y-72390936D01*
X107381580Y-72403634D01*
X107390138Y-72421103D01*
X107397514Y-72439732D01*
X107424898Y-72477423D01*
X107428106Y-72482307D01*
X107451827Y-72522416D01*
X107451833Y-72522424D01*
X107465990Y-72536580D01*
X107478628Y-72551376D01*
X107490405Y-72567586D01*
X107490406Y-72567587D01*
X107526309Y-72597288D01*
X107530620Y-72601210D01*
X108103891Y-73174482D01*
X108113197Y-73183788D01*
X108123022Y-73196051D01*
X108123243Y-73195869D01*
X108128214Y-73201878D01*
X108149043Y-73221437D01*
X108178635Y-73249226D01*
X108199529Y-73270120D01*
X108205011Y-73274373D01*
X108209443Y-73278157D01*
X108243418Y-73310062D01*
X108260976Y-73319714D01*
X108277233Y-73330393D01*
X108293064Y-73342673D01*
X108312737Y-73351186D01*
X108335833Y-73361182D01*
X108341077Y-73363750D01*
X108381908Y-73386197D01*
X108394523Y-73389435D01*
X108401305Y-73391177D01*
X108419719Y-73397481D01*
X108438104Y-73405438D01*
X108484157Y-73412732D01*
X108489826Y-73413906D01*
X108534981Y-73425500D01*
X108555016Y-73425500D01*
X108574413Y-73427026D01*
X108594196Y-73430160D01*
X108640584Y-73425775D01*
X108646422Y-73425500D01*
X110651257Y-73425500D01*
X110666877Y-73427224D01*
X110666904Y-73426939D01*
X110674660Y-73427671D01*
X110674667Y-73427673D01*
X110743814Y-73425500D01*
X110773350Y-73425500D01*
X110780228Y-73424630D01*
X110786041Y-73424172D01*
X110832627Y-73422709D01*
X110851869Y-73417117D01*
X110870912Y-73413174D01*
X110890792Y-73410664D01*
X110934122Y-73393507D01*
X110939646Y-73391617D01*
X110943396Y-73390527D01*
X110984390Y-73378618D01*
X111001629Y-73368422D01*
X111019103Y-73359862D01*
X111037727Y-73352488D01*
X111037727Y-73352487D01*
X111037732Y-73352486D01*
X111075449Y-73325082D01*
X111080305Y-73321892D01*
X111120420Y-73298170D01*
X111134589Y-73283999D01*
X111149379Y-73271368D01*
X111165587Y-73259594D01*
X111195299Y-73223676D01*
X111199212Y-73219376D01*
X112473786Y-71944802D01*
X112486048Y-71934980D01*
X112485865Y-71934759D01*
X112491867Y-71929792D01*
X112491877Y-71929786D01*
X112539241Y-71879348D01*
X112560120Y-71858470D01*
X112564373Y-71852986D01*
X112568150Y-71848563D01*
X112600062Y-71814582D01*
X112609714Y-71797023D01*
X112620389Y-71780772D01*
X112632674Y-71764936D01*
X112651186Y-71722152D01*
X112653742Y-71716935D01*
X112676197Y-71676092D01*
X112681180Y-71656680D01*
X112687477Y-71638291D01*
X112695438Y-71619895D01*
X112702729Y-71573853D01*
X112703908Y-71568162D01*
X112715500Y-71523019D01*
X112715500Y-71502983D01*
X112717027Y-71483582D01*
X112718414Y-71474825D01*
X112720160Y-71463804D01*
X112715775Y-71417415D01*
X112715500Y-71411577D01*
X112715500Y-58490844D01*
X112717697Y-58467606D01*
X112719227Y-58459588D01*
X112715621Y-58402275D01*
X112715500Y-58398403D01*
X112715500Y-58380650D01*
X112713270Y-58363002D01*
X112712910Y-58359191D01*
X112709304Y-58301862D01*
X112706779Y-58294092D01*
X112701687Y-58271314D01*
X112700664Y-58263208D01*
X112679520Y-58209806D01*
X112678211Y-58206170D01*
X112660467Y-58151559D01*
X112656089Y-58144661D01*
X112645495Y-58123868D01*
X112642486Y-58116268D01*
X112608736Y-58069815D01*
X112606545Y-58066592D01*
X112575785Y-58018122D01*
X112569834Y-58012534D01*
X112554398Y-57995025D01*
X112549594Y-57988413D01*
X112549591Y-57988411D01*
X112549591Y-57988410D01*
X112505361Y-57951820D01*
X112502438Y-57949243D01*
X112460585Y-57909940D01*
X112460577Y-57909934D01*
X112453415Y-57905997D01*
X112434114Y-57892880D01*
X112427824Y-57887676D01*
X112375878Y-57863232D01*
X112372417Y-57861469D01*
X112322092Y-57833803D01*
X112322089Y-57833802D01*
X112322085Y-57833800D01*
X112314174Y-57831769D01*
X112292222Y-57823866D01*
X112284829Y-57820387D01*
X112284206Y-57820185D01*
X112283780Y-57819894D01*
X112277770Y-57817066D01*
X112278226Y-57816095D01*
X112226533Y-57780743D01*
X112199339Y-57716383D01*
X112211258Y-57647537D01*
X112258506Y-57596065D01*
X112270104Y-57589885D01*
X112329830Y-57562035D01*
X112523401Y-57426495D01*
X112690495Y-57259401D01*
X112820425Y-57073842D01*
X112875002Y-57030217D01*
X112944500Y-57023023D01*
X113006855Y-57054546D01*
X113023575Y-57073842D01*
X113153500Y-57259395D01*
X113153505Y-57259401D01*
X113320599Y-57426495D01*
X113411803Y-57490357D01*
X113514165Y-57562032D01*
X113514167Y-57562033D01*
X113514170Y-57562035D01*
X113728337Y-57661903D01*
X113728343Y-57661904D01*
X113728344Y-57661905D01*
X113760422Y-57670500D01*
X113956592Y-57723063D01*
X114144918Y-57739539D01*
X114191999Y-57743659D01*
X114192000Y-57743659D01*
X114192001Y-57743659D01*
X114231234Y-57740226D01*
X114427408Y-57723063D01*
X114527873Y-57696143D01*
X114597722Y-57697806D01*
X114647647Y-57728237D01*
X115242497Y-58323087D01*
X115275982Y-58384410D01*
X115270998Y-58454102D01*
X115229126Y-58510035D01*
X115227701Y-58511086D01*
X115178804Y-58546611D01*
X115052141Y-58687285D01*
X114957496Y-58851215D01*
X114957493Y-58851222D01*
X114899008Y-59031223D01*
X114899001Y-59031244D01*
X114879215Y-59219500D01*
X114899001Y-59407756D01*
X114899002Y-59407759D01*
X114957493Y-59587777D01*
X114957496Y-59587784D01*
X115052141Y-59751715D01*
X115052144Y-59751719D01*
X115058647Y-59758941D01*
X115088879Y-59821931D01*
X115090500Y-59841916D01*
X115090500Y-60007312D01*
X115070815Y-60074351D01*
X115058650Y-60090284D01*
X114983466Y-60173784D01*
X114888821Y-60337715D01*
X114888818Y-60337722D01*
X114830327Y-60517740D01*
X114830326Y-60517744D01*
X114810540Y-60706000D01*
X114830326Y-60894256D01*
X114830327Y-60894259D01*
X114888818Y-61074277D01*
X114888821Y-61074284D01*
X114983467Y-61238216D01*
X115078521Y-61343784D01*
X115110129Y-61378888D01*
X115263265Y-61490148D01*
X115263270Y-61490151D01*
X115436192Y-61567142D01*
X115436197Y-61567144D01*
X115621354Y-61606500D01*
X115621355Y-61606500D01*
X115760175Y-61606500D01*
X115827214Y-61626185D01*
X115872969Y-61678989D01*
X115884175Y-61730500D01*
X115884175Y-68497872D01*
X115864490Y-68564911D01*
X115847856Y-68585553D01*
X114428228Y-70005181D01*
X114366905Y-70038666D01*
X114340547Y-70041500D01*
X114281354Y-70041500D01*
X114248897Y-70048398D01*
X114096197Y-70080855D01*
X114096192Y-70080857D01*
X113923270Y-70157848D01*
X113923265Y-70157851D01*
X113770129Y-70269111D01*
X113643466Y-70409785D01*
X113548821Y-70573715D01*
X113548818Y-70573722D01*
X113495051Y-70739202D01*
X113490326Y-70753744D01*
X113470540Y-70942000D01*
X113490326Y-71130256D01*
X113490327Y-71130259D01*
X113548818Y-71310277D01*
X113548821Y-71310284D01*
X113643467Y-71474216D01*
X113728044Y-71568148D01*
X113770129Y-71614888D01*
X113923265Y-71726148D01*
X113923270Y-71726151D01*
X114096192Y-71803142D01*
X114096197Y-71803144D01*
X114281354Y-71842500D01*
X114281355Y-71842500D01*
X114470644Y-71842500D01*
X114470646Y-71842500D01*
X114655803Y-71803144D01*
X114828730Y-71726151D01*
X114981871Y-71614888D01*
X115108533Y-71474216D01*
X115203179Y-71310284D01*
X115261674Y-71130256D01*
X115279321Y-70962344D01*
X115305904Y-70897734D01*
X115314951Y-70887638D01*
X116893463Y-69309126D01*
X116905717Y-69299311D01*
X116905534Y-69299089D01*
X116911541Y-69294117D01*
X116911552Y-69294111D01*
X116942450Y-69261207D01*
X116958902Y-69243689D01*
X116969346Y-69233243D01*
X116979795Y-69222796D01*
X116984054Y-69217303D01*
X116987827Y-69212886D01*
X117019737Y-69178907D01*
X117029388Y-69161349D01*
X117040071Y-69145086D01*
X117052348Y-69129261D01*
X117070860Y-69086478D01*
X117073413Y-69081266D01*
X117095872Y-69040417D01*
X117100855Y-69021005D01*
X117107156Y-69002605D01*
X117115112Y-68984221D01*
X117122404Y-68938177D01*
X117123581Y-68932496D01*
X117135175Y-68887344D01*
X117135175Y-68867308D01*
X117136702Y-68847907D01*
X117139835Y-68828129D01*
X117135450Y-68781740D01*
X117135175Y-68775902D01*
X117135175Y-65030814D01*
X117717836Y-65030814D01*
X117748180Y-65384097D01*
X117748183Y-65384119D01*
X117818595Y-65731615D01*
X117818601Y-65731637D01*
X117928174Y-66068865D01*
X118075469Y-66391397D01*
X118075474Y-66391407D01*
X118258570Y-66695037D01*
X118258574Y-66695042D01*
X118258579Y-66695051D01*
X118258584Y-66695057D01*
X118475099Y-66975840D01*
X118475111Y-66975854D01*
X118679191Y-67185846D01*
X118722231Y-67230133D01*
X118996731Y-67454591D01*
X118996733Y-67454592D01*
X119295011Y-67646286D01*
X119295017Y-67646289D01*
X119295019Y-67646290D01*
X119295027Y-67646295D01*
X119613232Y-67802745D01*
X119947197Y-67921904D01*
X120292568Y-68002216D01*
X120579089Y-68035091D01*
X120644841Y-68042636D01*
X120644843Y-68042636D01*
X120910714Y-68042636D01*
X120999189Y-68037576D01*
X121176144Y-68027458D01*
X121525536Y-67966993D01*
X121865759Y-67867095D01*
X122192377Y-67729065D01*
X122501131Y-67554704D01*
X122787997Y-67346283D01*
X123049235Y-67106521D01*
X123281440Y-66838543D01*
X123481584Y-66545842D01*
X123647057Y-66232234D01*
X123775704Y-65901808D01*
X123819491Y-65735227D01*
X123842573Y-65647412D01*
X123865846Y-65558872D01*
X123916309Y-65207895D01*
X123926435Y-64853453D01*
X123896091Y-64500168D01*
X123891099Y-64475532D01*
X123825676Y-64152656D01*
X123825670Y-64152634D01*
X123765891Y-63968654D01*
X123716100Y-63815413D01*
X123689702Y-63757610D01*
X123568802Y-63492874D01*
X123568797Y-63492864D01*
X123385701Y-63189234D01*
X123385699Y-63189232D01*
X123385693Y-63189221D01*
X123294717Y-63071242D01*
X123169172Y-62908431D01*
X123169160Y-62908417D01*
X122922049Y-62654147D01*
X122922046Y-62654144D01*
X122922041Y-62654139D01*
X122647541Y-62429681D01*
X122647538Y-62429679D01*
X122349260Y-62237985D01*
X122349254Y-62237982D01*
X122349248Y-62237979D01*
X122349245Y-62237977D01*
X122031040Y-62081527D01*
X122031036Y-62081525D01*
X122031035Y-62081525D01*
X121697076Y-61962368D01*
X121503167Y-61917277D01*
X121351704Y-61882056D01*
X121190130Y-61863517D01*
X120999431Y-61841636D01*
X120999429Y-61841636D01*
X120733560Y-61841636D01*
X120733558Y-61841636D01*
X120468131Y-61856813D01*
X120118744Y-61917277D01*
X120118727Y-61917281D01*
X119778516Y-62017176D01*
X119778513Y-62017177D01*
X119626243Y-62081527D01*
X119451902Y-62155204D01*
X119451897Y-62155206D01*
X119143141Y-62329567D01*
X119143138Y-62329569D01*
X118856274Y-62537989D01*
X118595037Y-62777751D01*
X118595036Y-62777752D01*
X118362831Y-63045729D01*
X118162691Y-63338424D01*
X118162684Y-63338435D01*
X117997221Y-63652025D01*
X117997211Y-63652047D01*
X117868565Y-63982469D01*
X117778426Y-64325396D01*
X117727964Y-64676369D01*
X117727962Y-64676389D01*
X117717836Y-65030807D01*
X117717836Y-65030814D01*
X117135175Y-65030814D01*
X117135175Y-58788412D01*
X117136899Y-58772798D01*
X117136613Y-58772771D01*
X117137347Y-58765008D01*
X117135175Y-58695877D01*
X117135175Y-58666326D01*
X117135175Y-58666325D01*
X117134304Y-58659434D01*
X117133847Y-58653620D01*
X117132384Y-58607049D01*
X117132384Y-58607047D01*
X117126795Y-58587812D01*
X117122849Y-58568759D01*
X117120339Y-58548883D01*
X117103176Y-58505534D01*
X117101289Y-58500021D01*
X117088292Y-58455285D01*
X117088291Y-58455283D01*
X117078096Y-58438044D01*
X117069535Y-58420568D01*
X117062161Y-58401944D01*
X117062161Y-58401942D01*
X117052149Y-58388163D01*
X117034758Y-58364225D01*
X117031575Y-58359380D01*
X117007845Y-58319254D01*
X117007840Y-58319248D01*
X116993680Y-58305088D01*
X116981045Y-58290295D01*
X116969268Y-58274087D01*
X116933368Y-58244388D01*
X116929056Y-58240465D01*
X116643931Y-57955340D01*
X116610446Y-57894017D01*
X116615430Y-57824325D01*
X116657302Y-57768392D01*
X116722766Y-57743975D01*
X116731612Y-57743659D01*
X116732001Y-57743659D01*
X116771234Y-57740226D01*
X116967408Y-57723063D01*
X117195663Y-57661903D01*
X117409830Y-57562035D01*
X117603401Y-57426495D01*
X117770495Y-57259401D01*
X117900425Y-57073842D01*
X117955002Y-57030217D01*
X118024500Y-57023023D01*
X118086855Y-57054546D01*
X118103575Y-57073842D01*
X118233500Y-57259395D01*
X118233505Y-57259401D01*
X118400599Y-57426495D01*
X118593624Y-57561653D01*
X118637248Y-57616228D01*
X118646500Y-57663226D01*
X118646500Y-59499312D01*
X118626815Y-59566351D01*
X118614650Y-59582284D01*
X118539466Y-59665784D01*
X118444821Y-59829715D01*
X118444818Y-59829722D01*
X118387116Y-60007312D01*
X118386326Y-60009744D01*
X118366540Y-60198000D01*
X118386326Y-60386256D01*
X118386327Y-60386259D01*
X118444818Y-60566277D01*
X118444821Y-60566284D01*
X118539467Y-60730216D01*
X118666129Y-60870888D01*
X118819265Y-60982148D01*
X118819270Y-60982151D01*
X118992192Y-61059142D01*
X118992197Y-61059144D01*
X119177354Y-61098500D01*
X119177355Y-61098500D01*
X119366644Y-61098500D01*
X119366646Y-61098500D01*
X119551803Y-61059144D01*
X119724730Y-60982151D01*
X119877871Y-60870888D01*
X120004533Y-60730216D01*
X120099179Y-60566284D01*
X120157674Y-60386256D01*
X120177460Y-60198000D01*
X120157674Y-60009744D01*
X120099179Y-59829716D01*
X120004533Y-59665784D01*
X119929350Y-59582284D01*
X119899120Y-59519292D01*
X119897500Y-59499312D01*
X119897500Y-57663226D01*
X119917185Y-57596187D01*
X119950374Y-57561654D01*
X120143401Y-57426495D01*
X120310495Y-57259401D01*
X120440425Y-57073842D01*
X120495002Y-57030217D01*
X120564500Y-57023023D01*
X120626855Y-57054546D01*
X120643575Y-57073842D01*
X120773500Y-57259395D01*
X120773505Y-57259401D01*
X120940599Y-57426495D01*
X121031803Y-57490357D01*
X121134165Y-57562032D01*
X121134167Y-57562033D01*
X121134170Y-57562035D01*
X121348337Y-57661903D01*
X121348343Y-57661904D01*
X121348344Y-57661905D01*
X121380422Y-57670500D01*
X121576592Y-57723063D01*
X121764918Y-57739539D01*
X121811999Y-57743659D01*
X121812000Y-57743659D01*
X121812001Y-57743659D01*
X121851234Y-57740226D01*
X122047408Y-57723063D01*
X122275663Y-57661903D01*
X122489830Y-57562035D01*
X122683401Y-57426495D01*
X122850495Y-57259401D01*
X122980425Y-57073842D01*
X123035002Y-57030217D01*
X123104500Y-57023023D01*
X123166855Y-57054546D01*
X123183575Y-57073842D01*
X123313500Y-57259395D01*
X123313505Y-57259401D01*
X123480599Y-57426495D01*
X123571803Y-57490357D01*
X123674165Y-57562032D01*
X123674167Y-57562033D01*
X123674170Y-57562035D01*
X123888337Y-57661903D01*
X123888343Y-57661904D01*
X123888344Y-57661905D01*
X123920422Y-57670500D01*
X124116592Y-57723063D01*
X124304918Y-57739539D01*
X124351999Y-57743659D01*
X124352000Y-57743659D01*
X124352001Y-57743659D01*
X124391234Y-57740226D01*
X124587408Y-57723063D01*
X124815663Y-57661903D01*
X125029830Y-57562035D01*
X125223401Y-57426495D01*
X125390495Y-57259401D01*
X125526035Y-57065830D01*
X125625903Y-56851663D01*
X125687063Y-56623408D01*
X125707659Y-56388000D01*
X125687063Y-56152592D01*
X125625903Y-55924337D01*
X125526035Y-55710171D01*
X125520425Y-55702158D01*
X125390494Y-55516597D01*
X125223402Y-55349506D01*
X125223395Y-55349501D01*
X125029834Y-55213967D01*
X125029830Y-55213965D01*
X124977500Y-55189563D01*
X124815663Y-55114097D01*
X124815659Y-55114096D01*
X124815655Y-55114094D01*
X124587413Y-55052938D01*
X124587403Y-55052936D01*
X124352001Y-55032341D01*
X124351999Y-55032341D01*
X124116596Y-55052936D01*
X124116586Y-55052938D01*
X123888344Y-55114094D01*
X123888335Y-55114098D01*
X123674171Y-55213964D01*
X123674169Y-55213965D01*
X123480597Y-55349505D01*
X123313505Y-55516597D01*
X123183575Y-55702158D01*
X123128998Y-55745783D01*
X123059500Y-55752977D01*
X122997145Y-55721454D01*
X122980425Y-55702158D01*
X122850494Y-55516597D01*
X122683402Y-55349506D01*
X122683395Y-55349501D01*
X122489834Y-55213967D01*
X122489830Y-55213965D01*
X122437500Y-55189563D01*
X122275663Y-55114097D01*
X122275659Y-55114096D01*
X122275655Y-55114094D01*
X122047413Y-55052938D01*
X122047403Y-55052936D01*
X121812001Y-55032341D01*
X121811999Y-55032341D01*
X121576596Y-55052936D01*
X121576586Y-55052938D01*
X121348344Y-55114094D01*
X121348335Y-55114098D01*
X121134171Y-55213964D01*
X121134169Y-55213965D01*
X120940597Y-55349505D01*
X120773505Y-55516597D01*
X120643575Y-55702158D01*
X120588998Y-55745783D01*
X120519500Y-55752977D01*
X120457145Y-55721454D01*
X120440425Y-55702158D01*
X120310494Y-55516597D01*
X120143402Y-55349506D01*
X120143395Y-55349501D01*
X119949834Y-55213967D01*
X119949830Y-55213965D01*
X119897500Y-55189563D01*
X119735663Y-55114097D01*
X119735659Y-55114096D01*
X119735655Y-55114094D01*
X119507413Y-55052938D01*
X119507403Y-55052936D01*
X119272001Y-55032341D01*
X119271999Y-55032341D01*
X119036596Y-55052936D01*
X119036586Y-55052938D01*
X118808344Y-55114094D01*
X118808335Y-55114098D01*
X118594171Y-55213964D01*
X118594169Y-55213965D01*
X118400597Y-55349505D01*
X118233505Y-55516597D01*
X118103575Y-55702158D01*
X118048998Y-55745783D01*
X117979500Y-55752977D01*
X117917145Y-55721454D01*
X117900425Y-55702158D01*
X117770494Y-55516597D01*
X117603402Y-55349506D01*
X117603395Y-55349501D01*
X117409834Y-55213967D01*
X117409830Y-55213965D01*
X117357500Y-55189563D01*
X117195663Y-55114097D01*
X117195659Y-55114096D01*
X117195655Y-55114094D01*
X116967413Y-55052938D01*
X116967403Y-55052936D01*
X116732001Y-55032341D01*
X116731999Y-55032341D01*
X116496596Y-55052936D01*
X116496586Y-55052938D01*
X116268344Y-55114094D01*
X116268335Y-55114098D01*
X116054171Y-55213964D01*
X116054169Y-55213965D01*
X115860597Y-55349505D01*
X115693505Y-55516597D01*
X115563575Y-55702158D01*
X115508998Y-55745783D01*
X115439500Y-55752977D01*
X115377145Y-55721454D01*
X115360425Y-55702158D01*
X115230494Y-55516597D01*
X115063402Y-55349506D01*
X115063395Y-55349501D01*
X114869834Y-55213967D01*
X114869830Y-55213965D01*
X114817500Y-55189563D01*
X114655663Y-55114097D01*
X114655659Y-55114096D01*
X114655655Y-55114094D01*
X114427413Y-55052938D01*
X114427403Y-55052936D01*
X114192001Y-55032341D01*
X114191999Y-55032341D01*
X113956596Y-55052936D01*
X113956586Y-55052938D01*
X113728344Y-55114094D01*
X113728335Y-55114098D01*
X113514171Y-55213964D01*
X113514169Y-55213965D01*
X113320597Y-55349505D01*
X113153505Y-55516597D01*
X113023575Y-55702158D01*
X112968998Y-55745783D01*
X112899500Y-55752977D01*
X112837145Y-55721454D01*
X112820425Y-55702158D01*
X112690494Y-55516597D01*
X112523402Y-55349506D01*
X112523401Y-55349505D01*
X112330376Y-55214347D01*
X112286751Y-55159770D01*
X112277500Y-55112772D01*
X112277500Y-44786737D01*
X112279224Y-44771123D01*
X112278938Y-44771096D01*
X112279672Y-44763333D01*
X112278323Y-44720413D01*
X112277500Y-44694203D01*
X112277500Y-44664650D01*
X112276629Y-44657759D01*
X112276172Y-44651945D01*
X112275961Y-44645241D01*
X112274709Y-44605373D01*
X112274555Y-44604844D01*
X112269122Y-44586144D01*
X112265174Y-44567084D01*
X112264655Y-44562972D01*
X112262664Y-44547208D01*
X112245507Y-44503875D01*
X112243619Y-44498359D01*
X112230619Y-44453612D01*
X112220418Y-44436363D01*
X112211860Y-44418894D01*
X112204486Y-44400268D01*
X112204483Y-44400264D01*
X112204483Y-44400263D01*
X112177098Y-44362571D01*
X112173890Y-44357687D01*
X112150172Y-44317582D01*
X112150163Y-44317571D01*
X112136005Y-44303413D01*
X112123370Y-44288620D01*
X112111593Y-44272412D01*
X112087116Y-44252163D01*
X112048008Y-44194264D01*
X112042837Y-44169590D01*
X112025375Y-44003445D01*
X111966880Y-43823417D01*
X111874596Y-43663577D01*
X111858124Y-43595678D01*
X111880977Y-43529651D01*
X111935898Y-43486460D01*
X111949891Y-43481803D01*
X112115483Y-43437433D01*
X112115492Y-43437429D01*
X112329578Y-43337600D01*
X112329582Y-43337598D01*
X112413373Y-43278926D01*
X112413373Y-43278925D01*
X111861220Y-42726772D01*
X111954588Y-42688099D01*
X112079925Y-42591925D01*
X112176099Y-42466589D01*
X112214772Y-42373220D01*
X112766925Y-42925373D01*
X112820119Y-42849405D01*
X112874696Y-42805781D01*
X112944195Y-42798588D01*
X113006549Y-42830110D01*
X113023269Y-42849405D01*
X113153505Y-43035401D01*
X113320599Y-43202495D01*
X113329601Y-43208798D01*
X113514165Y-43338032D01*
X113514167Y-43338033D01*
X113514170Y-43338035D01*
X113728337Y-43437903D01*
X113728343Y-43437904D01*
X113728344Y-43437905D01*
X113783285Y-43452626D01*
X113956592Y-43499063D01*
X114144918Y-43515539D01*
X114191999Y-43519659D01*
X114192000Y-43519659D01*
X114192001Y-43519659D01*
X114231234Y-43516226D01*
X114427408Y-43499063D01*
X114655663Y-43437903D01*
X114869830Y-43338035D01*
X115063401Y-43202495D01*
X115230495Y-43035401D01*
X115360425Y-42849842D01*
X115415002Y-42806217D01*
X115484500Y-42799023D01*
X115546855Y-42830546D01*
X115563575Y-42849842D01*
X115693500Y-43035395D01*
X115693505Y-43035401D01*
X115860599Y-43202495D01*
X115869601Y-43208798D01*
X116054165Y-43338032D01*
X116054167Y-43338033D01*
X116054170Y-43338035D01*
X116268337Y-43437903D01*
X116268343Y-43437904D01*
X116268344Y-43437905D01*
X116323285Y-43452626D01*
X116496592Y-43499063D01*
X116684918Y-43515539D01*
X116731999Y-43519659D01*
X116732000Y-43519659D01*
X116732001Y-43519659D01*
X116771234Y-43516226D01*
X116967408Y-43499063D01*
X117195663Y-43437903D01*
X117409830Y-43338035D01*
X117603401Y-43202495D01*
X117770495Y-43035401D01*
X117900425Y-42849842D01*
X117955002Y-42806217D01*
X118024500Y-42799023D01*
X118086855Y-42830546D01*
X118103575Y-42849842D01*
X118233500Y-43035395D01*
X118233505Y-43035401D01*
X118400599Y-43202495D01*
X118409601Y-43208798D01*
X118594165Y-43338032D01*
X118594167Y-43338033D01*
X118594170Y-43338035D01*
X118808337Y-43437903D01*
X118808343Y-43437904D01*
X118808344Y-43437905D01*
X118863285Y-43452626D01*
X119036592Y-43499063D01*
X119224918Y-43515539D01*
X119271999Y-43519659D01*
X119272000Y-43519659D01*
X119272001Y-43519659D01*
X119311234Y-43516226D01*
X119507408Y-43499063D01*
X119735663Y-43437903D01*
X119949830Y-43338035D01*
X120143401Y-43202495D01*
X120310495Y-43035401D01*
X120440425Y-42849842D01*
X120495002Y-42806217D01*
X120564500Y-42799023D01*
X120626855Y-42830546D01*
X120643575Y-42849842D01*
X120773500Y-43035395D01*
X120773505Y-43035401D01*
X120940599Y-43202495D01*
X120949601Y-43208798D01*
X121134165Y-43338032D01*
X121134167Y-43338033D01*
X121134170Y-43338035D01*
X121348337Y-43437903D01*
X121348343Y-43437904D01*
X121348344Y-43437905D01*
X121403285Y-43452626D01*
X121576592Y-43499063D01*
X121764918Y-43515539D01*
X121811999Y-43519659D01*
X121812000Y-43519659D01*
X121812001Y-43519659D01*
X121851234Y-43516226D01*
X122047408Y-43499063D01*
X122275663Y-43437903D01*
X122489830Y-43338035D01*
X122683401Y-43202495D01*
X122850495Y-43035401D01*
X122980425Y-42849842D01*
X123035002Y-42806217D01*
X123104500Y-42799023D01*
X123166855Y-42830546D01*
X123183575Y-42849842D01*
X123313500Y-43035395D01*
X123313505Y-43035401D01*
X123480599Y-43202495D01*
X123489601Y-43208798D01*
X123674165Y-43338032D01*
X123674167Y-43338033D01*
X123674170Y-43338035D01*
X123888337Y-43437903D01*
X123888343Y-43437904D01*
X123888344Y-43437905D01*
X123943285Y-43452626D01*
X124116592Y-43499063D01*
X124304918Y-43515539D01*
X124351999Y-43519659D01*
X124352000Y-43519659D01*
X124352001Y-43519659D01*
X124391234Y-43516226D01*
X124587408Y-43499063D01*
X124815663Y-43437903D01*
X125029830Y-43338035D01*
X125223401Y-43202495D01*
X125390495Y-43035401D01*
X125526035Y-42841830D01*
X125625903Y-42627663D01*
X125687063Y-42399408D01*
X125707659Y-42164000D01*
X125706995Y-42156416D01*
X125696883Y-42040836D01*
X125687063Y-41928592D01*
X125625903Y-41700337D01*
X125526035Y-41486171D01*
X125520731Y-41478595D01*
X125390494Y-41292597D01*
X125223402Y-41125506D01*
X125223395Y-41125501D01*
X125029834Y-40989967D01*
X125029830Y-40989965D01*
X124968083Y-40961172D01*
X124815663Y-40890097D01*
X124815659Y-40890096D01*
X124815655Y-40890094D01*
X124587413Y-40828938D01*
X124587403Y-40828936D01*
X124352001Y-40808341D01*
X124351999Y-40808341D01*
X124116596Y-40828936D01*
X124116586Y-40828938D01*
X123888344Y-40890094D01*
X123888335Y-40890098D01*
X123674171Y-40989964D01*
X123674169Y-40989965D01*
X123480597Y-41125505D01*
X123313505Y-41292597D01*
X123183575Y-41478158D01*
X123128998Y-41521783D01*
X123059500Y-41528977D01*
X122997145Y-41497454D01*
X122980425Y-41478158D01*
X122850494Y-41292597D01*
X122683402Y-41125506D01*
X122683395Y-41125501D01*
X122489834Y-40989967D01*
X122489830Y-40989965D01*
X122428083Y-40961172D01*
X122275663Y-40890097D01*
X122275659Y-40890096D01*
X122275655Y-40890094D01*
X122047413Y-40828938D01*
X122047403Y-40828936D01*
X121812001Y-40808341D01*
X121811999Y-40808341D01*
X121576596Y-40828936D01*
X121576586Y-40828938D01*
X121348344Y-40890094D01*
X121348335Y-40890098D01*
X121134171Y-40989964D01*
X121134169Y-40989965D01*
X120940597Y-41125505D01*
X120773505Y-41292597D01*
X120643575Y-41478158D01*
X120588998Y-41521783D01*
X120519500Y-41528977D01*
X120457145Y-41497454D01*
X120440425Y-41478158D01*
X120310494Y-41292597D01*
X120143402Y-41125506D01*
X120143395Y-41125501D01*
X119949834Y-40989967D01*
X119949830Y-40989965D01*
X119888083Y-40961172D01*
X119735663Y-40890097D01*
X119735659Y-40890096D01*
X119735655Y-40890094D01*
X119507413Y-40828938D01*
X119507403Y-40828936D01*
X119272001Y-40808341D01*
X119271999Y-40808341D01*
X119036596Y-40828936D01*
X119036586Y-40828938D01*
X118808344Y-40890094D01*
X118808335Y-40890098D01*
X118594171Y-40989964D01*
X118594169Y-40989965D01*
X118400597Y-41125505D01*
X118233505Y-41292597D01*
X118103575Y-41478158D01*
X118048998Y-41521783D01*
X117979500Y-41528977D01*
X117917145Y-41497454D01*
X117900425Y-41478158D01*
X117770494Y-41292597D01*
X117603402Y-41125506D01*
X117603395Y-41125501D01*
X117409834Y-40989967D01*
X117409830Y-40989965D01*
X117348083Y-40961172D01*
X117195663Y-40890097D01*
X117195659Y-40890096D01*
X117195655Y-40890094D01*
X116967413Y-40828938D01*
X116967403Y-40828936D01*
X116732001Y-40808341D01*
X116731999Y-40808341D01*
X116496596Y-40828936D01*
X116496586Y-40828938D01*
X116268344Y-40890094D01*
X116268335Y-40890098D01*
X116054171Y-40989964D01*
X116054169Y-40989965D01*
X115860597Y-41125505D01*
X115693505Y-41292597D01*
X115563575Y-41478158D01*
X115508998Y-41521783D01*
X115439500Y-41528977D01*
X115377145Y-41497454D01*
X115360425Y-41478158D01*
X115230494Y-41292597D01*
X115063402Y-41125506D01*
X115063395Y-41125501D01*
X114869834Y-40989967D01*
X114869830Y-40989965D01*
X114808083Y-40961172D01*
X114655663Y-40890097D01*
X114655659Y-40890096D01*
X114655655Y-40890094D01*
X114427413Y-40828938D01*
X114427403Y-40828936D01*
X114192001Y-40808341D01*
X114191999Y-40808341D01*
X113956596Y-40828936D01*
X113956586Y-40828938D01*
X113728344Y-40890094D01*
X113728335Y-40890098D01*
X113514171Y-40989964D01*
X113514169Y-40989965D01*
X113320597Y-41125505D01*
X113153505Y-41292597D01*
X113023269Y-41478595D01*
X112968692Y-41522220D01*
X112899194Y-41529414D01*
X112836839Y-41497891D01*
X112820119Y-41478595D01*
X112766925Y-41402626D01*
X112766925Y-41402625D01*
X112214772Y-41954778D01*
X112176099Y-41861412D01*
X112079925Y-41736075D01*
X111954588Y-41639901D01*
X111861220Y-41601227D01*
X112413373Y-41049073D01*
X112413373Y-41049072D01*
X112329583Y-40990402D01*
X112329579Y-40990400D01*
X112115492Y-40890570D01*
X112115483Y-40890566D01*
X111887326Y-40829432D01*
X111887315Y-40829430D01*
X111652002Y-40808843D01*
X111651998Y-40808843D01*
X111416684Y-40829430D01*
X111416673Y-40829432D01*
X111188516Y-40890566D01*
X111188507Y-40890570D01*
X110974419Y-40990401D01*
X110890625Y-41049072D01*
X111442779Y-41601226D01*
X111349412Y-41639901D01*
X111224075Y-41736075D01*
X111127901Y-41861411D01*
X111089226Y-41954779D01*
X110537073Y-41402626D01*
X110483881Y-41478594D01*
X110429304Y-41522219D01*
X110359806Y-41529413D01*
X110297451Y-41497891D01*
X110280730Y-41478594D01*
X110150494Y-41292597D01*
X109983402Y-41125506D01*
X109983401Y-41125505D01*
X109826652Y-41015748D01*
X109783029Y-40961172D01*
X109775836Y-40891673D01*
X109807358Y-40829319D01*
X109810061Y-40826528D01*
X110350772Y-40285819D01*
X110412095Y-40252334D01*
X110438453Y-40249500D01*
X110440252Y-40249500D01*
X110507291Y-40269185D01*
X110532400Y-40290526D01*
X110538126Y-40296885D01*
X110538130Y-40296889D01*
X110691265Y-40408148D01*
X110691270Y-40408151D01*
X110864192Y-40485142D01*
X110864197Y-40485144D01*
X111049354Y-40524500D01*
X111049355Y-40524500D01*
X111238644Y-40524500D01*
X111238646Y-40524500D01*
X111423803Y-40485144D01*
X111596730Y-40408151D01*
X111749871Y-40296888D01*
X111876533Y-40156216D01*
X111971179Y-39992284D01*
X112029674Y-39812256D01*
X112049460Y-39624000D01*
X112029674Y-39435744D01*
X111971179Y-39255716D01*
X111876533Y-39091784D01*
X111749871Y-38951112D01*
X111749870Y-38951111D01*
X111596734Y-38839851D01*
X111596729Y-38839848D01*
X111423807Y-38762857D01*
X111423802Y-38762855D01*
X111278001Y-38731865D01*
X111238646Y-38723500D01*
X111049354Y-38723500D01*
X111016897Y-38730398D01*
X110864197Y-38762855D01*
X110864192Y-38762857D01*
X110691270Y-38839848D01*
X110691265Y-38839851D01*
X110538130Y-38951110D01*
X110538126Y-38951114D01*
X110532400Y-38957474D01*
X110472913Y-38994121D01*
X110440252Y-38998500D01*
X110210743Y-38998500D01*
X110195122Y-38996775D01*
X110195096Y-38997061D01*
X110187334Y-38996327D01*
X110187333Y-38996327D01*
X110118186Y-38998500D01*
X110088649Y-38998500D01*
X110081766Y-38999369D01*
X110075949Y-38999826D01*
X110029373Y-39001290D01*
X110010129Y-39006881D01*
X109991079Y-39010825D01*
X109971211Y-39013334D01*
X109927884Y-39030488D01*
X109922358Y-39032379D01*
X109877614Y-39045379D01*
X109877610Y-39045381D01*
X109860366Y-39055579D01*
X109842905Y-39064133D01*
X109824274Y-39071510D01*
X109824262Y-39071517D01*
X109786570Y-39098902D01*
X109781687Y-39102109D01*
X109741580Y-39125829D01*
X109727414Y-39139995D01*
X109712624Y-39152627D01*
X109696414Y-39164404D01*
X109696411Y-39164407D01*
X109666710Y-39200309D01*
X109662777Y-39204631D01*
X109611519Y-39255889D01*
X109550196Y-39289374D01*
X109480504Y-39284390D01*
X109424571Y-39242518D01*
X109416461Y-39230224D01*
X109336533Y-39091784D01*
X109209871Y-38951112D01*
X109209870Y-38951111D01*
X109056734Y-38839851D01*
X109056729Y-38839848D01*
X108883807Y-38762857D01*
X108883802Y-38762855D01*
X108738001Y-38731865D01*
X108698646Y-38723500D01*
X108509354Y-38723500D01*
X108476897Y-38730398D01*
X108324197Y-38762855D01*
X108324192Y-38762857D01*
X108151270Y-38839848D01*
X108151265Y-38839851D01*
X107998130Y-38951110D01*
X107998126Y-38951114D01*
X107992400Y-38957474D01*
X107932913Y-38994121D01*
X107900252Y-38998500D01*
X107150847Y-38998500D01*
X107127615Y-38996304D01*
X107119588Y-38994773D01*
X107119586Y-38994773D01*
X107110633Y-38995336D01*
X107062275Y-38998378D01*
X107058403Y-38998500D01*
X107040643Y-38998500D01*
X107023032Y-39000725D01*
X107019164Y-39001090D01*
X106987375Y-39003090D01*
X106961859Y-39004696D01*
X106954085Y-39007222D01*
X106931320Y-39012310D01*
X106923218Y-39013333D01*
X106923205Y-39013337D01*
X106869810Y-39034477D01*
X106866154Y-39035792D01*
X106836647Y-39045381D01*
X106811556Y-39053534D01*
X106804652Y-39057915D01*
X106783880Y-39068499D01*
X106776273Y-39071511D01*
X106776262Y-39071517D01*
X106729814Y-39105263D01*
X106726595Y-39107451D01*
X106678123Y-39138213D01*
X106678120Y-39138216D01*
X106672529Y-39144170D01*
X106655029Y-39159599D01*
X106648413Y-39164405D01*
X106648412Y-39164406D01*
X106611812Y-39208646D01*
X106609238Y-39211565D01*
X106569937Y-39253417D01*
X106569935Y-39253420D01*
X106565994Y-39260589D01*
X106552889Y-39279873D01*
X106547677Y-39286173D01*
X106547674Y-39286178D01*
X106523231Y-39338121D01*
X106521464Y-39341589D01*
X106493804Y-39391903D01*
X106493803Y-39391908D01*
X106491769Y-39399828D01*
X106483870Y-39421768D01*
X106480386Y-39429172D01*
X106480384Y-39429178D01*
X106469629Y-39485561D01*
X106468779Y-39489361D01*
X106454500Y-39544976D01*
X106454500Y-39553152D01*
X106452305Y-39576379D01*
X106450773Y-39584412D01*
X106454378Y-39641724D01*
X106454500Y-39645595D01*
X106454500Y-43171500D01*
X106434815Y-43238539D01*
X106382011Y-43284294D01*
X106330500Y-43295500D01*
X106223354Y-43295500D01*
X106190897Y-43302398D01*
X106038197Y-43334855D01*
X106038192Y-43334857D01*
X105865270Y-43411848D01*
X105865265Y-43411851D01*
X105712130Y-43523110D01*
X105712126Y-43523114D01*
X105706400Y-43529474D01*
X105646913Y-43566121D01*
X105614252Y-43570500D01*
X102818452Y-43570500D01*
X102751413Y-43550815D01*
X102730771Y-43534181D01*
X101668960Y-42472369D01*
X101635475Y-42411046D01*
X101633323Y-42397668D01*
X101615674Y-42229744D01*
X101557179Y-42049716D01*
X101462533Y-41885784D01*
X101335871Y-41745112D01*
X101323433Y-41736075D01*
X101182734Y-41633851D01*
X101182729Y-41633848D01*
X101009807Y-41556857D01*
X101009802Y-41556855D01*
X100844796Y-41521783D01*
X100824646Y-41517500D01*
X100635354Y-41517500D01*
X100615204Y-41521783D01*
X100450197Y-41556855D01*
X100450192Y-41556857D01*
X100277270Y-41633848D01*
X100277265Y-41633851D01*
X100124129Y-41745111D01*
X99997466Y-41885785D01*
X99902821Y-42049715D01*
X99902818Y-42049722D01*
X99865687Y-42164001D01*
X99844326Y-42229744D01*
X99824540Y-42418000D01*
X99844326Y-42606256D01*
X99844327Y-42606259D01*
X99902818Y-42786277D01*
X99902821Y-42786284D01*
X99997467Y-42950216D01*
X100074168Y-43035401D01*
X100124129Y-43090888D01*
X100277265Y-43202148D01*
X100277270Y-43202151D01*
X100450192Y-43279142D01*
X100450197Y-43279144D01*
X100635354Y-43318500D01*
X100694548Y-43318500D01*
X100761587Y-43338185D01*
X100782229Y-43354819D01*
X102007194Y-44579784D01*
X102024202Y-44601010D01*
X102024859Y-44602045D01*
X102044168Y-44669194D01*
X102024109Y-44736122D01*
X101971050Y-44781581D01*
X101920170Y-44792500D01*
X89169150Y-44792500D01*
X89102111Y-44772815D01*
X89067575Y-44739623D01*
X88977599Y-44611124D01*
X88913681Y-44547206D01*
X88822877Y-44456402D01*
X88643639Y-44330898D01*
X88643640Y-44330898D01*
X88643638Y-44330897D01*
X88491824Y-44260105D01*
X88439385Y-44213932D01*
X88420233Y-44146739D01*
X88440449Y-44079858D01*
X88491825Y-44035341D01*
X88643384Y-43964668D01*
X88643386Y-43964667D01*
X88705572Y-43921124D01*
X88148534Y-43364086D01*
X88158315Y-43362680D01*
X88289100Y-43302952D01*
X88397761Y-43208798D01*
X88475493Y-43087844D01*
X88499076Y-43007524D01*
X89059124Y-43567572D01*
X89102666Y-43505387D01*
X89195101Y-43307159D01*
X89195105Y-43307150D01*
X89251710Y-43095894D01*
X89251712Y-43095884D01*
X89270775Y-42878000D01*
X89270775Y-42877999D01*
X89251712Y-42660115D01*
X89251710Y-42660105D01*
X89195105Y-42448849D01*
X89195101Y-42448840D01*
X89102666Y-42250612D01*
X89102665Y-42250610D01*
X89083068Y-42222622D01*
X89060741Y-42156416D01*
X89077753Y-42088649D01*
X89128701Y-42040836D01*
X89184644Y-42027500D01*
X95821257Y-42027500D01*
X95836877Y-42029224D01*
X95836904Y-42028939D01*
X95844660Y-42029671D01*
X95844667Y-42029673D01*
X95913814Y-42027500D01*
X95943350Y-42027500D01*
X95950228Y-42026630D01*
X95956041Y-42026172D01*
X96002627Y-42024709D01*
X96021869Y-42019117D01*
X96040912Y-42015174D01*
X96060792Y-42012664D01*
X96104122Y-41995507D01*
X96109646Y-41993617D01*
X96113396Y-41992527D01*
X96154390Y-41980618D01*
X96171629Y-41970422D01*
X96189103Y-41961862D01*
X96207727Y-41954488D01*
X96207727Y-41954487D01*
X96207732Y-41954486D01*
X96245449Y-41927082D01*
X96250305Y-41923892D01*
X96290420Y-41900170D01*
X96304589Y-41885999D01*
X96319379Y-41873368D01*
X96335587Y-41861594D01*
X96365299Y-41825676D01*
X96369212Y-41821376D01*
X98319788Y-39870801D01*
X98332042Y-39860986D01*
X98331859Y-39860764D01*
X98337866Y-39855792D01*
X98337877Y-39855786D01*
X98373754Y-39817581D01*
X98385227Y-39805364D01*
X98395671Y-39794918D01*
X98406120Y-39784471D01*
X98410379Y-39778978D01*
X98414152Y-39774561D01*
X98446062Y-39740582D01*
X98455715Y-39723020D01*
X98466389Y-39706770D01*
X98478673Y-39690936D01*
X98497180Y-39648167D01*
X98499749Y-39642924D01*
X98522196Y-39602093D01*
X98522197Y-39602092D01*
X98527177Y-39582691D01*
X98533478Y-39564288D01*
X98541438Y-39545896D01*
X98548730Y-39499849D01*
X98549911Y-39494152D01*
X98561500Y-39449019D01*
X98561500Y-39428983D01*
X98563027Y-39409582D01*
X98564572Y-39399828D01*
X98566160Y-39389804D01*
X98561775Y-39343415D01*
X98561500Y-39337577D01*
X98561500Y-36746542D01*
X117717836Y-36746542D01*
X117748180Y-37099825D01*
X117748183Y-37099847D01*
X117818595Y-37447343D01*
X117818601Y-37447365D01*
X117928174Y-37784593D01*
X118075469Y-38107125D01*
X118075474Y-38107135D01*
X118258570Y-38410765D01*
X118258574Y-38410770D01*
X118258579Y-38410779D01*
X118258584Y-38410785D01*
X118475099Y-38691568D01*
X118475111Y-38691582D01*
X118651019Y-38872586D01*
X118722231Y-38945861D01*
X118996731Y-39170319D01*
X118996733Y-39170320D01*
X119295011Y-39362014D01*
X119295017Y-39362017D01*
X119295019Y-39362018D01*
X119295027Y-39362023D01*
X119613232Y-39518473D01*
X119947197Y-39637632D01*
X120292568Y-39717944D01*
X120579089Y-39750819D01*
X120644841Y-39758364D01*
X120644843Y-39758364D01*
X120910714Y-39758364D01*
X120999189Y-39753304D01*
X121176144Y-39743186D01*
X121525536Y-39682721D01*
X121865759Y-39582823D01*
X122192377Y-39444793D01*
X122501131Y-39270432D01*
X122787997Y-39062011D01*
X123049235Y-38822249D01*
X123281440Y-38554271D01*
X123481584Y-38261570D01*
X123647057Y-37947962D01*
X123775704Y-37617536D01*
X123811612Y-37480930D01*
X123865845Y-37274603D01*
X123865846Y-37274600D01*
X123916309Y-36923623D01*
X123926435Y-36569181D01*
X123896091Y-36215896D01*
X123896088Y-36215880D01*
X123825676Y-35868384D01*
X123825670Y-35868362D01*
X123797657Y-35782149D01*
X123716100Y-35531141D01*
X123676038Y-35443418D01*
X123568802Y-35208602D01*
X123568797Y-35208592D01*
X123385701Y-34904962D01*
X123385699Y-34904960D01*
X123385693Y-34904949D01*
X123252527Y-34732256D01*
X123169172Y-34624159D01*
X123169160Y-34624145D01*
X122922049Y-34369875D01*
X122922046Y-34369872D01*
X122922041Y-34369867D01*
X122904764Y-34355740D01*
X122684605Y-34175716D01*
X122647541Y-34145409D01*
X122647538Y-34145407D01*
X122349260Y-33953713D01*
X122349254Y-33953710D01*
X122349248Y-33953707D01*
X122349245Y-33953705D01*
X122031040Y-33797255D01*
X122031036Y-33797253D01*
X122031035Y-33797253D01*
X121697076Y-33678096D01*
X121503167Y-33633005D01*
X121351704Y-33597784D01*
X121193172Y-33579594D01*
X120999431Y-33557364D01*
X120999429Y-33557364D01*
X120733560Y-33557364D01*
X120733558Y-33557364D01*
X120468131Y-33572541D01*
X120118744Y-33633005D01*
X120118727Y-33633009D01*
X119778516Y-33732904D01*
X119778513Y-33732905D01*
X119451895Y-33870935D01*
X119451582Y-33871112D01*
X119143141Y-34045295D01*
X119143138Y-34045297D01*
X118856274Y-34253717D01*
X118595037Y-34493479D01*
X118595036Y-34493480D01*
X118362831Y-34761457D01*
X118162691Y-35054152D01*
X118162684Y-35054163D01*
X117997221Y-35367753D01*
X117997211Y-35367775D01*
X117868565Y-35698197D01*
X117778426Y-36041124D01*
X117727964Y-36392097D01*
X117727962Y-36392117D01*
X117717836Y-36746535D01*
X117717836Y-36746542D01*
X98561500Y-36746542D01*
X98561500Y-36378452D01*
X98581185Y-36311413D01*
X98597819Y-36290771D01*
X99682772Y-35205819D01*
X99744095Y-35172334D01*
X99770453Y-35169500D01*
X112218252Y-35169500D01*
X112285291Y-35189185D01*
X112310400Y-35210526D01*
X112316126Y-35216885D01*
X112316130Y-35216889D01*
X112469265Y-35328148D01*
X112469270Y-35328151D01*
X112642192Y-35405142D01*
X112642197Y-35405144D01*
X112827354Y-35444500D01*
X112827355Y-35444500D01*
X113016644Y-35444500D01*
X113016646Y-35444500D01*
X113201803Y-35405144D01*
X113374730Y-35328151D01*
X113527871Y-35216888D01*
X113654533Y-35076216D01*
X113749179Y-34912284D01*
X113807674Y-34732256D01*
X113827460Y-34544000D01*
X113807674Y-34355744D01*
X113749179Y-34175716D01*
X113654533Y-34011784D01*
X113527871Y-33871112D01*
X113527870Y-33871111D01*
X113374734Y-33759851D01*
X113374729Y-33759848D01*
X113201807Y-33682857D01*
X113201802Y-33682855D01*
X113056001Y-33651865D01*
X113016646Y-33643500D01*
X112827354Y-33643500D01*
X112794897Y-33650398D01*
X112642197Y-33682855D01*
X112642192Y-33682857D01*
X112469270Y-33759848D01*
X112469265Y-33759851D01*
X112316130Y-33871110D01*
X112316126Y-33871114D01*
X112310400Y-33877474D01*
X112250913Y-33914121D01*
X112218252Y-33918500D01*
X105499393Y-33918500D01*
X105432354Y-33898815D01*
X105386599Y-33846011D01*
X105376655Y-33776853D01*
X105385417Y-33749220D01*
X105384553Y-33748909D01*
X105389838Y-33734227D01*
X105390109Y-33734324D01*
X105391474Y-33730336D01*
X105391202Y-33730248D01*
X105393611Y-33722830D01*
X105393614Y-33722826D01*
X105406587Y-33654816D01*
X105421672Y-33587332D01*
X105421671Y-33587326D01*
X105422406Y-33579567D01*
X105422692Y-33579594D01*
X105423023Y-33575392D01*
X105422737Y-33575374D01*
X105423227Y-33567587D01*
X105418881Y-33498514D01*
X105416709Y-33429374D01*
X105415488Y-33421667D01*
X105415772Y-33421621D01*
X105415048Y-33417472D01*
X105414766Y-33417526D01*
X105413305Y-33409866D01*
X105391923Y-33344061D01*
X105376423Y-33290709D01*
X105371500Y-33256115D01*
X105371500Y-31651149D01*
X105391185Y-31584110D01*
X105424374Y-31549576D01*
X105552877Y-31459598D01*
X105707598Y-31304877D01*
X105833102Y-31125639D01*
X105903618Y-30974414D01*
X105949790Y-30921977D01*
X106016984Y-30902825D01*
X106083865Y-30923041D01*
X106128381Y-30974414D01*
X106198898Y-31125639D01*
X106324402Y-31304877D01*
X106479123Y-31459598D01*
X106658361Y-31585102D01*
X106856670Y-31677575D01*
X107068023Y-31734207D01*
X107250926Y-31750208D01*
X107285998Y-31753277D01*
X107286000Y-31753277D01*
X107286002Y-31753277D01*
X107314254Y-31750805D01*
X107503977Y-31734207D01*
X107715330Y-31677575D01*
X107913639Y-31585102D01*
X108092877Y-31459598D01*
X108247598Y-31304877D01*
X108373102Y-31125639D01*
X108443618Y-30974414D01*
X108489790Y-30921977D01*
X108556984Y-30902825D01*
X108623865Y-30923041D01*
X108668381Y-30974414D01*
X108738898Y-31125639D01*
X108864402Y-31304877D01*
X109019123Y-31459598D01*
X109198361Y-31585102D01*
X109396670Y-31677575D01*
X109608023Y-31734207D01*
X109790926Y-31750208D01*
X109825998Y-31753277D01*
X109826000Y-31753277D01*
X109826002Y-31753277D01*
X109854254Y-31750805D01*
X110043977Y-31734207D01*
X110255330Y-31677575D01*
X110453639Y-31585102D01*
X110632877Y-31459598D01*
X110787598Y-31304877D01*
X110913102Y-31125639D01*
X111005575Y-30927330D01*
X111062207Y-30715977D01*
X111081277Y-30498000D01*
X111062207Y-30280023D01*
X111025879Y-30144447D01*
X111005577Y-30068677D01*
X111005576Y-30068676D01*
X111005575Y-30068670D01*
X110913102Y-29870362D01*
X110913099Y-29870358D01*
X110913099Y-29870357D01*
X110787599Y-29691124D01*
X110766482Y-29670007D01*
X110632877Y-29536402D01*
X110494978Y-29439844D01*
X110453638Y-29410897D01*
X110354484Y-29364661D01*
X110255330Y-29318425D01*
X110255326Y-29318424D01*
X110255322Y-29318422D01*
X110043977Y-29261793D01*
X109826002Y-29242723D01*
X109825998Y-29242723D01*
X109680682Y-29255436D01*
X109608023Y-29261793D01*
X109608020Y-29261793D01*
X109396677Y-29318422D01*
X109396670Y-29318424D01*
X109396670Y-29318425D01*
X109371631Y-29330100D01*
X109198361Y-29410898D01*
X109198357Y-29410900D01*
X109019121Y-29536402D01*
X108864402Y-29691121D01*
X108738900Y-29870357D01*
X108738898Y-29870361D01*
X108668382Y-30021583D01*
X108622209Y-30074022D01*
X108555016Y-30093174D01*
X108488135Y-30072958D01*
X108443618Y-30021583D01*
X108429118Y-29990488D01*
X108373102Y-29870362D01*
X108373099Y-29870358D01*
X108373099Y-29870357D01*
X108247599Y-29691124D01*
X108226482Y-29670007D01*
X108092877Y-29536402D01*
X107954978Y-29439844D01*
X107913638Y-29410897D01*
X107814484Y-29364661D01*
X107715330Y-29318425D01*
X107715326Y-29318424D01*
X107715322Y-29318422D01*
X107503977Y-29261793D01*
X107286002Y-29242723D01*
X107285998Y-29242723D01*
X107140682Y-29255436D01*
X107068023Y-29261793D01*
X107068020Y-29261793D01*
X106856677Y-29318422D01*
X106856670Y-29318424D01*
X106856670Y-29318425D01*
X106831631Y-29330100D01*
X106658361Y-29410898D01*
X106658357Y-29410900D01*
X106479121Y-29536402D01*
X106324402Y-29691121D01*
X106198900Y-29870357D01*
X106198898Y-29870361D01*
X106128382Y-30021583D01*
X106082209Y-30074022D01*
X106015016Y-30093174D01*
X105948135Y-30072958D01*
X105903618Y-30021583D01*
X105889118Y-29990488D01*
X105833102Y-29870362D01*
X105833099Y-29870358D01*
X105833099Y-29870357D01*
X105707599Y-29691124D01*
X105686482Y-29670007D01*
X105552877Y-29536402D01*
X105414978Y-29439844D01*
X105373638Y-29410897D01*
X105274484Y-29364661D01*
X105175330Y-29318425D01*
X105175326Y-29318424D01*
X105175322Y-29318422D01*
X104963977Y-29261793D01*
X104746002Y-29242723D01*
X104745998Y-29242723D01*
X104600682Y-29255436D01*
X104528023Y-29261793D01*
X104528020Y-29261793D01*
X104316677Y-29318422D01*
X104316670Y-29318424D01*
X104316670Y-29318425D01*
X104291631Y-29330100D01*
X104118361Y-29410898D01*
X104118357Y-29410900D01*
X103939121Y-29536402D01*
X103784402Y-29691121D01*
X103658900Y-29870357D01*
X103658900Y-29870358D01*
X103658898Y-29870361D01*
X103658898Y-29870362D01*
X103658779Y-29870617D01*
X103588105Y-30022176D01*
X103541932Y-30074615D01*
X103474738Y-30093766D01*
X103407857Y-30073550D01*
X103363341Y-30022174D01*
X103292669Y-29870617D01*
X103249123Y-29808428D01*
X102689076Y-30368475D01*
X102665493Y-30288156D01*
X102587761Y-30167202D01*
X102479100Y-30073048D01*
X102348315Y-30013320D01*
X102338534Y-30011913D01*
X102895572Y-29454875D01*
X102895571Y-29454873D01*
X102833391Y-29411335D01*
X102635159Y-29318898D01*
X102635150Y-29318894D01*
X102423894Y-29262289D01*
X102423884Y-29262287D01*
X102206001Y-29243225D01*
X102205999Y-29243225D01*
X101988115Y-29262287D01*
X101988105Y-29262289D01*
X101776849Y-29318894D01*
X101776840Y-29318898D01*
X101578614Y-29411332D01*
X101578612Y-29411333D01*
X101516428Y-29454875D01*
X101516427Y-29454875D01*
X102073466Y-30011913D01*
X102063685Y-30013320D01*
X101932900Y-30073048D01*
X101824239Y-30167202D01*
X101746507Y-30288156D01*
X101722923Y-30368475D01*
X101162875Y-29808427D01*
X101162875Y-29808428D01*
X101119333Y-29870612D01*
X101119332Y-29870614D01*
X101026898Y-30068840D01*
X101026894Y-30068849D01*
X100970289Y-30280105D01*
X100970287Y-30280115D01*
X100951225Y-30497999D01*
X100951225Y-30498000D01*
X100970287Y-30715884D01*
X100970289Y-30715894D01*
X101026894Y-30927150D01*
X101026898Y-30927159D01*
X101119335Y-31125391D01*
X101162873Y-31187571D01*
X101162875Y-31187572D01*
X101722923Y-30627523D01*
X101746507Y-30707844D01*
X101824239Y-30828798D01*
X101932900Y-30922952D01*
X102063685Y-30982680D01*
X102073466Y-30984086D01*
X101516426Y-31541124D01*
X101578611Y-31584666D01*
X101578613Y-31584667D01*
X101776840Y-31677101D01*
X101776849Y-31677105D01*
X101988105Y-31733710D01*
X101988115Y-31733712D01*
X102205999Y-31752775D01*
X102206001Y-31752775D01*
X102423884Y-31733712D01*
X102423894Y-31733710D01*
X102635150Y-31677105D01*
X102635159Y-31677101D01*
X102833387Y-31584666D01*
X102895572Y-31541124D01*
X102338534Y-30984086D01*
X102348315Y-30982680D01*
X102479100Y-30922952D01*
X102587761Y-30828798D01*
X102665493Y-30707844D01*
X102689076Y-30627524D01*
X103249124Y-31187572D01*
X103292667Y-31125386D01*
X103292668Y-31125384D01*
X103363341Y-30973825D01*
X103409513Y-30921385D01*
X103476706Y-30902233D01*
X103543587Y-30922448D01*
X103588105Y-30973824D01*
X103658897Y-31125638D01*
X103658898Y-31125639D01*
X103784402Y-31304877D01*
X103939123Y-31459598D01*
X104067624Y-31549575D01*
X104111248Y-31604151D01*
X104120500Y-31651149D01*
X104120500Y-32778500D01*
X104100815Y-32845539D01*
X104048011Y-32891294D01*
X103996500Y-32902500D01*
X99288737Y-32902500D01*
X99273120Y-32900776D01*
X99273093Y-32901062D01*
X99265331Y-32900327D01*
X99196203Y-32902500D01*
X99166650Y-32902500D01*
X99165929Y-32902590D01*
X99159757Y-32903369D01*
X99153945Y-32903826D01*
X99107373Y-32905290D01*
X99107372Y-32905290D01*
X99088129Y-32910881D01*
X99069079Y-32914825D01*
X99049211Y-32917334D01*
X99049209Y-32917335D01*
X99005884Y-32934488D01*
X99000357Y-32936380D01*
X98955610Y-32949381D01*
X98955609Y-32949382D01*
X98938367Y-32959579D01*
X98920899Y-32968137D01*
X98902269Y-32975513D01*
X98902267Y-32975514D01*
X98864576Y-33002898D01*
X98859694Y-33006105D01*
X98819579Y-33029830D01*
X98805408Y-33044000D01*
X98790623Y-33056628D01*
X98774412Y-33068407D01*
X98744709Y-33104310D01*
X98740777Y-33108631D01*
X96536208Y-35313199D01*
X96523951Y-35323020D01*
X96524134Y-35323241D01*
X96518123Y-35328213D01*
X96470772Y-35378636D01*
X96449889Y-35399519D01*
X96449877Y-35399532D01*
X96445621Y-35405017D01*
X96441837Y-35409447D01*
X96409937Y-35443418D01*
X96409936Y-35443420D01*
X96400284Y-35460976D01*
X96389610Y-35477226D01*
X96377329Y-35493061D01*
X96377324Y-35493068D01*
X96358815Y-35535838D01*
X96356245Y-35541084D01*
X96333803Y-35581906D01*
X96328822Y-35601307D01*
X96322521Y-35619710D01*
X96314562Y-35638102D01*
X96314561Y-35638105D01*
X96307271Y-35684127D01*
X96306087Y-35689846D01*
X96294501Y-35734972D01*
X96294500Y-35734982D01*
X96294500Y-35755016D01*
X96292973Y-35774415D01*
X96289840Y-35794194D01*
X96289840Y-35794195D01*
X96294225Y-35840583D01*
X96294500Y-35846421D01*
X96294500Y-38805547D01*
X96274815Y-38872586D01*
X96258181Y-38893228D01*
X95427228Y-39724181D01*
X95365905Y-39757666D01*
X95339547Y-39760500D01*
X93773015Y-39760500D01*
X93705976Y-39740815D01*
X93660221Y-39688011D01*
X93650277Y-39618853D01*
X93679302Y-39555297D01*
X93724746Y-39522281D01*
X93908105Y-39444793D01*
X94216859Y-39270432D01*
X94503725Y-39062011D01*
X94764963Y-38822249D01*
X94997168Y-38554271D01*
X95197312Y-38261570D01*
X95362785Y-37947962D01*
X95491432Y-37617536D01*
X95527340Y-37480930D01*
X95581573Y-37274603D01*
X95581574Y-37274600D01*
X95632037Y-36923623D01*
X95642163Y-36569181D01*
X95611819Y-36215896D01*
X95611816Y-36215880D01*
X95541404Y-35868384D01*
X95541398Y-35868362D01*
X95513385Y-35782149D01*
X95431828Y-35531141D01*
X95391766Y-35443418D01*
X95284530Y-35208602D01*
X95284525Y-35208592D01*
X95101429Y-34904962D01*
X95101427Y-34904960D01*
X95101421Y-34904949D01*
X94968255Y-34732256D01*
X94884900Y-34624159D01*
X94884888Y-34624145D01*
X94637777Y-34369875D01*
X94637774Y-34369872D01*
X94637769Y-34369867D01*
X94620492Y-34355740D01*
X94400333Y-34175716D01*
X94363269Y-34145409D01*
X94363266Y-34145407D01*
X94064988Y-33953713D01*
X94064982Y-33953710D01*
X94064976Y-33953707D01*
X94064973Y-33953705D01*
X93746768Y-33797255D01*
X93746764Y-33797253D01*
X93746763Y-33797253D01*
X93412804Y-33678096D01*
X93218895Y-33633005D01*
X93067432Y-33597784D01*
X92908900Y-33579594D01*
X92715159Y-33557364D01*
X92715157Y-33557364D01*
X92449288Y-33557364D01*
X92449286Y-33557364D01*
X92183859Y-33572541D01*
X91834472Y-33633005D01*
X91834455Y-33633009D01*
X91494244Y-33732904D01*
X91494241Y-33732905D01*
X91167623Y-33870935D01*
X91167310Y-33871112D01*
X90858869Y-34045295D01*
X90858866Y-34045297D01*
X90572002Y-34253717D01*
X90310765Y-34493479D01*
X90310764Y-34493480D01*
X90078559Y-34761457D01*
X89878419Y-35054152D01*
X89878412Y-35054163D01*
X89712949Y-35367753D01*
X89712939Y-35367775D01*
X89584293Y-35698197D01*
X89494154Y-36041124D01*
X89443692Y-36392097D01*
X89443690Y-36392117D01*
X89433564Y-36746535D01*
X89433564Y-36746542D01*
X89463908Y-37099825D01*
X89463911Y-37099847D01*
X89534323Y-37447343D01*
X89534329Y-37447365D01*
X89643902Y-37784593D01*
X89791197Y-38107125D01*
X89791202Y-38107135D01*
X89974298Y-38410765D01*
X89974302Y-38410770D01*
X89974307Y-38410779D01*
X89974312Y-38410785D01*
X90190827Y-38691568D01*
X90190839Y-38691582D01*
X90366747Y-38872586D01*
X90437959Y-38945861D01*
X90712459Y-39170319D01*
X90712461Y-39170320D01*
X91010739Y-39362014D01*
X91010745Y-39362017D01*
X91010747Y-39362018D01*
X91010755Y-39362023D01*
X91328960Y-39518473D01*
X91332430Y-39519711D01*
X91388956Y-39560779D01*
X91414306Y-39625887D01*
X91400431Y-39694365D01*
X91351737Y-39744472D01*
X91290761Y-39760500D01*
X87176737Y-39760500D01*
X87161120Y-39758776D01*
X87161093Y-39759062D01*
X87153331Y-39758327D01*
X87084203Y-39760500D01*
X87054650Y-39760500D01*
X87053929Y-39760590D01*
X87047757Y-39761369D01*
X87041945Y-39761826D01*
X86995378Y-39763290D01*
X86995367Y-39763292D01*
X86976134Y-39768879D01*
X86957094Y-39772822D01*
X86937217Y-39775334D01*
X86937210Y-39775335D01*
X86937208Y-39775336D01*
X86937206Y-39775336D01*
X86937205Y-39775337D01*
X86893868Y-39792494D01*
X86888342Y-39794386D01*
X86843611Y-39807382D01*
X86843608Y-39807383D01*
X86826363Y-39817581D01*
X86808901Y-39826135D01*
X86790272Y-39833511D01*
X86790267Y-39833513D01*
X86752564Y-39860906D01*
X86747682Y-39864112D01*
X86707580Y-39887828D01*
X86693408Y-39902000D01*
X86678623Y-39914628D01*
X86662412Y-39926407D01*
X86632709Y-39962310D01*
X86628777Y-39966631D01*
X84982050Y-41613357D01*
X84920727Y-41646842D01*
X84851035Y-41641858D01*
X84795102Y-41599986D01*
X84770685Y-41534522D01*
X84785537Y-41466249D01*
X84786524Y-41464477D01*
X87021327Y-37539246D01*
X87032249Y-37523149D01*
X91009143Y-32552032D01*
X91050510Y-32518590D01*
X102999972Y-26543860D01*
X103055426Y-26530769D01*
X109013876Y-26530769D01*
X109038194Y-26533177D01*
G37*
G04 #@! TD.AperFunction*
G04 #@! TA.AperFunction,Conductor*
G36*
X102804201Y-58846848D02*
G01*
X102804395Y-58846614D01*
X102805265Y-58847334D01*
X102805703Y-58847534D01*
X102806913Y-58848697D01*
X102854647Y-58888187D01*
X102857567Y-58890761D01*
X102899418Y-58930062D01*
X102906578Y-58933998D01*
X102925879Y-58947114D01*
X102932177Y-58952324D01*
X102932178Y-58952324D01*
X102932179Y-58952325D01*
X102984125Y-58976769D01*
X102987597Y-58978538D01*
X103037903Y-59006195D01*
X103037905Y-59006195D01*
X103037908Y-59006197D01*
X103043205Y-59007556D01*
X103045814Y-59008227D01*
X103067777Y-59016133D01*
X103075174Y-59019614D01*
X103131576Y-59030373D01*
X103135362Y-59031219D01*
X103190981Y-59045500D01*
X103199153Y-59045500D01*
X103222385Y-59047696D01*
X103223989Y-59048001D01*
X103230412Y-59049227D01*
X103287724Y-59045621D01*
X103291597Y-59045500D01*
X111340500Y-59045500D01*
X111407539Y-59065185D01*
X111453294Y-59117989D01*
X111464500Y-59169500D01*
X111464500Y-67447571D01*
X111444815Y-67514610D01*
X111392011Y-67560365D01*
X111322853Y-67570309D01*
X111269377Y-67549146D01*
X111117639Y-67442898D01*
X110919330Y-67350425D01*
X110919326Y-67350424D01*
X110919322Y-67350422D01*
X110707977Y-67293793D01*
X110490002Y-67274723D01*
X110489998Y-67274723D01*
X110344682Y-67287436D01*
X110272023Y-67293793D01*
X110272020Y-67293793D01*
X110060677Y-67350422D01*
X110060668Y-67350426D01*
X109862361Y-67442898D01*
X109862357Y-67442900D01*
X109683121Y-67568402D01*
X109528402Y-67723121D01*
X109402900Y-67902357D01*
X109402898Y-67902361D01*
X109332382Y-68053583D01*
X109286209Y-68106022D01*
X109219016Y-68125174D01*
X109152135Y-68104958D01*
X109107618Y-68053583D01*
X109072941Y-67979218D01*
X109037102Y-67902362D01*
X109037100Y-67902359D01*
X109037099Y-67902357D01*
X108911599Y-67723124D01*
X108834761Y-67646286D01*
X108756877Y-67568402D01*
X108594340Y-67454592D01*
X108577638Y-67442897D01*
X108473219Y-67394206D01*
X108379330Y-67350425D01*
X108379326Y-67350424D01*
X108379322Y-67350422D01*
X108167977Y-67293793D01*
X107950002Y-67274723D01*
X107949998Y-67274723D01*
X107804682Y-67287436D01*
X107732023Y-67293793D01*
X107732020Y-67293793D01*
X107520677Y-67350422D01*
X107520668Y-67350426D01*
X107322361Y-67442898D01*
X107322357Y-67442900D01*
X107143121Y-67568402D01*
X106988402Y-67723121D01*
X106862900Y-67902357D01*
X106862898Y-67902361D01*
X106792382Y-68053583D01*
X106746209Y-68106022D01*
X106679016Y-68125174D01*
X106612135Y-68104958D01*
X106567618Y-68053583D01*
X106532941Y-67979218D01*
X106497102Y-67902362D01*
X106497100Y-67902359D01*
X106497099Y-67902357D01*
X106371599Y-67723124D01*
X106294761Y-67646286D01*
X106216877Y-67568402D01*
X106054340Y-67454592D01*
X106037638Y-67442897D01*
X105933219Y-67394206D01*
X105839330Y-67350425D01*
X105839326Y-67350424D01*
X105839322Y-67350422D01*
X105627977Y-67293793D01*
X105410002Y-67274723D01*
X105409998Y-67274723D01*
X105264682Y-67287436D01*
X105192023Y-67293793D01*
X105192020Y-67293793D01*
X104980677Y-67350422D01*
X104980668Y-67350426D01*
X104782361Y-67442898D01*
X104782357Y-67442900D01*
X104603121Y-67568402D01*
X104448402Y-67723121D01*
X104322900Y-67902357D01*
X104322898Y-67902361D01*
X104252382Y-68053583D01*
X104206209Y-68106022D01*
X104139016Y-68125174D01*
X104072135Y-68104958D01*
X104027618Y-68053583D01*
X103992941Y-67979218D01*
X103957102Y-67902362D01*
X103957100Y-67902359D01*
X103957099Y-67902357D01*
X103831599Y-67723124D01*
X103754761Y-67646286D01*
X103676877Y-67568402D01*
X103514340Y-67454592D01*
X103497638Y-67442897D01*
X103393219Y-67394206D01*
X103299330Y-67350425D01*
X103299326Y-67350424D01*
X103299322Y-67350422D01*
X103087977Y-67293793D01*
X102870002Y-67274723D01*
X102869998Y-67274723D01*
X102724682Y-67287436D01*
X102652023Y-67293793D01*
X102652020Y-67293793D01*
X102440677Y-67350422D01*
X102440668Y-67350426D01*
X102242361Y-67442898D01*
X102242357Y-67442900D01*
X102063121Y-67568402D01*
X101908402Y-67723121D01*
X101782900Y-67902357D01*
X101782898Y-67902361D01*
X101690426Y-68100668D01*
X101690422Y-68100677D01*
X101633793Y-68312020D01*
X101633793Y-68312024D01*
X101614723Y-68529997D01*
X101614723Y-68530002D01*
X101633793Y-68747975D01*
X101633793Y-68747979D01*
X101690422Y-68959322D01*
X101690424Y-68959326D01*
X101690425Y-68959330D01*
X101728238Y-69040420D01*
X101782897Y-69157638D01*
X101803196Y-69186627D01*
X101908402Y-69336877D01*
X102063123Y-69491598D01*
X102235686Y-69612428D01*
X102242361Y-69617102D01*
X102394175Y-69687894D01*
X102446614Y-69734066D01*
X102465766Y-69801260D01*
X102445550Y-69868141D01*
X102394175Y-69912658D01*
X102242614Y-69983332D01*
X102242612Y-69983333D01*
X102180428Y-70026875D01*
X102180427Y-70026875D01*
X102737466Y-70583913D01*
X102727685Y-70585320D01*
X102596900Y-70645048D01*
X102488239Y-70739202D01*
X102410507Y-70860156D01*
X102386923Y-70940475D01*
X101826875Y-70380427D01*
X101826875Y-70380428D01*
X101783333Y-70442612D01*
X101783332Y-70442614D01*
X101690898Y-70640840D01*
X101690894Y-70640849D01*
X101634289Y-70852105D01*
X101634287Y-70852115D01*
X101615225Y-71069999D01*
X101615225Y-71070000D01*
X101634287Y-71287884D01*
X101634289Y-71287894D01*
X101690894Y-71499150D01*
X101690898Y-71499159D01*
X101783335Y-71697391D01*
X101826873Y-71759571D01*
X101826875Y-71759572D01*
X102386923Y-71199523D01*
X102410507Y-71279844D01*
X102488239Y-71400798D01*
X102596900Y-71494952D01*
X102727685Y-71554680D01*
X102737466Y-71556086D01*
X102155370Y-72138181D01*
X102094047Y-72171666D01*
X102067689Y-72174500D01*
X100463500Y-72174500D01*
X100396461Y-72154815D01*
X100350706Y-72102011D01*
X100339500Y-72050500D01*
X100339500Y-67620452D01*
X100359185Y-67553413D01*
X100375819Y-67532771D01*
X102308771Y-65599819D01*
X102370094Y-65566334D01*
X102396452Y-65563500D01*
X103668252Y-65563500D01*
X103735291Y-65583185D01*
X103760400Y-65604526D01*
X103766126Y-65610885D01*
X103766130Y-65610889D01*
X103919265Y-65722148D01*
X103919270Y-65722151D01*
X104092192Y-65799142D01*
X104092197Y-65799144D01*
X104277354Y-65838500D01*
X104277355Y-65838500D01*
X104466644Y-65838500D01*
X104466646Y-65838500D01*
X104651803Y-65799144D01*
X104824730Y-65722151D01*
X104977871Y-65610888D01*
X105104533Y-65470216D01*
X105199179Y-65306284D01*
X105257674Y-65126256D01*
X105277460Y-64938000D01*
X105257674Y-64749744D01*
X105199179Y-64569716D01*
X105104533Y-64405784D01*
X104977871Y-64265112D01*
X104977870Y-64265111D01*
X104824734Y-64153851D01*
X104824729Y-64153848D01*
X104651807Y-64076857D01*
X104651802Y-64076855D01*
X104506001Y-64045865D01*
X104466646Y-64037500D01*
X104277354Y-64037500D01*
X104244897Y-64044398D01*
X104092197Y-64076855D01*
X104092192Y-64076857D01*
X103919270Y-64153848D01*
X103919265Y-64153851D01*
X103766130Y-64265110D01*
X103766126Y-64265114D01*
X103760400Y-64271474D01*
X103700913Y-64308121D01*
X103668252Y-64312500D01*
X102932132Y-64312500D01*
X102865093Y-64292815D01*
X102819338Y-64240011D01*
X102809394Y-64170853D01*
X102824743Y-64126504D01*
X102825654Y-64124925D01*
X102827179Y-64122284D01*
X102885674Y-63942256D01*
X102905460Y-63754000D01*
X102885674Y-63565744D01*
X102827179Y-63385716D01*
X102732533Y-63221784D01*
X102677628Y-63160806D01*
X102632350Y-63110519D01*
X102602120Y-63047527D01*
X102600500Y-63027547D01*
X102600500Y-58941247D01*
X102620185Y-58874208D01*
X102672989Y-58828453D01*
X102742147Y-58818509D01*
X102804201Y-58846848D01*
G37*
G04 #@! TD.AperFunction*
G04 #@! TA.AperFunction,Conductor*
G36*
X103913124Y-71759572D02*
G01*
X103956667Y-71697386D01*
X103956668Y-71697384D01*
X104027341Y-71545825D01*
X104073513Y-71493385D01*
X104140706Y-71474233D01*
X104207587Y-71494448D01*
X104252105Y-71545824D01*
X104322897Y-71697638D01*
X104338191Y-71719480D01*
X104448402Y-71876877D01*
X104448406Y-71876881D01*
X104495786Y-71924261D01*
X104529271Y-71985584D01*
X104524287Y-72055276D01*
X104495786Y-72099623D01*
X104457228Y-72138181D01*
X104395905Y-72171666D01*
X104369547Y-72174500D01*
X103672310Y-72174500D01*
X103605271Y-72154815D01*
X103584629Y-72138181D01*
X103002534Y-71556086D01*
X103012315Y-71554680D01*
X103143100Y-71494952D01*
X103251761Y-71400798D01*
X103329493Y-71279844D01*
X103353076Y-71199524D01*
X103913124Y-71759572D01*
G37*
G04 #@! TD.AperFunction*
G04 #@! TA.AperFunction,Conductor*
G36*
X104207865Y-68955041D02*
G01*
X104252381Y-69006414D01*
X104322898Y-69157639D01*
X104448402Y-69336877D01*
X104603123Y-69491598D01*
X104775686Y-69612428D01*
X104782361Y-69617102D01*
X104933583Y-69687618D01*
X104986022Y-69733790D01*
X105005174Y-69800984D01*
X104984958Y-69867865D01*
X104933583Y-69912382D01*
X104782361Y-69982898D01*
X104782357Y-69982900D01*
X104603121Y-70108402D01*
X104448402Y-70263121D01*
X104322900Y-70442357D01*
X104322900Y-70442358D01*
X104322898Y-70442361D01*
X104322898Y-70442362D01*
X104322779Y-70442617D01*
X104252105Y-70594176D01*
X104205932Y-70646615D01*
X104138738Y-70665766D01*
X104071857Y-70645550D01*
X104027341Y-70594174D01*
X103956669Y-70442617D01*
X103913123Y-70380428D01*
X103353076Y-70940475D01*
X103329493Y-70860156D01*
X103251761Y-70739202D01*
X103143100Y-70645048D01*
X103012315Y-70585320D01*
X103002534Y-70583913D01*
X103559572Y-70026875D01*
X103559571Y-70026873D01*
X103497391Y-69983335D01*
X103345824Y-69912658D01*
X103293385Y-69866486D01*
X103274233Y-69799292D01*
X103294449Y-69732411D01*
X103345822Y-69687895D01*
X103497639Y-69617102D01*
X103676877Y-69491598D01*
X103831598Y-69336877D01*
X103957102Y-69157639D01*
X104027618Y-69006414D01*
X104073790Y-68953977D01*
X104140984Y-68934825D01*
X104207865Y-68955041D01*
G37*
G04 #@! TD.AperFunction*
G04 #@! TA.AperFunction,Conductor*
G36*
X85545834Y-42921270D02*
G01*
X85601767Y-42963142D01*
X85626184Y-43028606D01*
X85626500Y-43037452D01*
X85626500Y-54781255D01*
X85624775Y-54796872D01*
X85625061Y-54796899D01*
X85624326Y-54804665D01*
X85626500Y-54873814D01*
X85626500Y-54903343D01*
X85626501Y-54903360D01*
X85627368Y-54910231D01*
X85627826Y-54916050D01*
X85629290Y-54962624D01*
X85629291Y-54962627D01*
X85634880Y-54981867D01*
X85638824Y-55000911D01*
X85641336Y-55020792D01*
X85654063Y-55052937D01*
X85658490Y-55064119D01*
X85660382Y-55069647D01*
X85673381Y-55114388D01*
X85683580Y-55131634D01*
X85692136Y-55149100D01*
X85699514Y-55167732D01*
X85726898Y-55205423D01*
X85730106Y-55210307D01*
X85753827Y-55250416D01*
X85753833Y-55250424D01*
X85767990Y-55264580D01*
X85780628Y-55279376D01*
X85792405Y-55295586D01*
X85792406Y-55295587D01*
X85828309Y-55325288D01*
X85832620Y-55329210D01*
X86419376Y-55915967D01*
X86465197Y-55961788D01*
X86475022Y-55974051D01*
X86475243Y-55973869D01*
X86480214Y-55979878D01*
X86506217Y-56004295D01*
X86530635Y-56027226D01*
X86551529Y-56048120D01*
X86557011Y-56052373D01*
X86561443Y-56056157D01*
X86595418Y-56088062D01*
X86612976Y-56097714D01*
X86629235Y-56108395D01*
X86645064Y-56120673D01*
X86687838Y-56139182D01*
X86693056Y-56141738D01*
X86733908Y-56164197D01*
X86753316Y-56169180D01*
X86771717Y-56175480D01*
X86790104Y-56183437D01*
X86833488Y-56190308D01*
X86836119Y-56190725D01*
X86841839Y-56191909D01*
X86886981Y-56203500D01*
X86886982Y-56203500D01*
X86891831Y-56204745D01*
X86951869Y-56240483D01*
X86962563Y-56253717D01*
X87054402Y-56384877D01*
X87209123Y-56539598D01*
X87388360Y-56665101D01*
X87388361Y-56665102D01*
X87539583Y-56735618D01*
X87592022Y-56781790D01*
X87611174Y-56848984D01*
X87590958Y-56915865D01*
X87539583Y-56960382D01*
X87388361Y-57030898D01*
X87388357Y-57030900D01*
X87209121Y-57156402D01*
X87054402Y-57311121D01*
X86928900Y-57490357D01*
X86928898Y-57490361D01*
X86836426Y-57688668D01*
X86836422Y-57688677D01*
X86779793Y-57900020D01*
X86779793Y-57900024D01*
X86760723Y-58117997D01*
X86760723Y-58118002D01*
X86763659Y-58151559D01*
X86778329Y-58319248D01*
X86779793Y-58335975D01*
X86779793Y-58335979D01*
X86836422Y-58547322D01*
X86836424Y-58547326D01*
X86836425Y-58547330D01*
X86875904Y-58631992D01*
X86928897Y-58745638D01*
X86928898Y-58745639D01*
X87054402Y-58924877D01*
X87209123Y-59079598D01*
X87388361Y-59205102D01*
X87586670Y-59297575D01*
X87798023Y-59354207D01*
X87980926Y-59370208D01*
X88015998Y-59373277D01*
X88016000Y-59373277D01*
X88016002Y-59373277D01*
X88044254Y-59370805D01*
X88233977Y-59354207D01*
X88445330Y-59297575D01*
X88643639Y-59205102D01*
X88822877Y-59079598D01*
X88977598Y-58924877D01*
X89103102Y-58745639D01*
X89195575Y-58547330D01*
X89252207Y-58335977D01*
X89271277Y-58118000D01*
X89271125Y-58116268D01*
X89266923Y-58068235D01*
X89252207Y-57900023D01*
X89197686Y-57696547D01*
X89195577Y-57688677D01*
X89195576Y-57688676D01*
X89195575Y-57688670D01*
X89103102Y-57490362D01*
X89103100Y-57490359D01*
X89103099Y-57490357D01*
X88977599Y-57311124D01*
X88925870Y-57259395D01*
X88822877Y-57156402D01*
X88643639Y-57030898D01*
X88492414Y-56960381D01*
X88439977Y-56914210D01*
X88420825Y-56847016D01*
X88441041Y-56780135D01*
X88492414Y-56735618D01*
X88643639Y-56665102D01*
X88822877Y-56539598D01*
X88977598Y-56384877D01*
X89103102Y-56205639D01*
X89195575Y-56007330D01*
X89252207Y-55795977D01*
X89271277Y-55578000D01*
X89252207Y-55360023D01*
X89206532Y-55189563D01*
X89195577Y-55148677D01*
X89195576Y-55148676D01*
X89195575Y-55148670D01*
X89103102Y-54950362D01*
X89103100Y-54950359D01*
X89103099Y-54950357D01*
X88977599Y-54771124D01*
X88923760Y-54717285D01*
X88822877Y-54616402D01*
X88643639Y-54490898D01*
X88492414Y-54420381D01*
X88439977Y-54374210D01*
X88420825Y-54307016D01*
X88441041Y-54240135D01*
X88492414Y-54195618D01*
X88643639Y-54125102D01*
X88822877Y-53999598D01*
X88977598Y-53844877D01*
X89103102Y-53665639D01*
X89195575Y-53467330D01*
X89252207Y-53255977D01*
X89271277Y-53038000D01*
X89252207Y-52820023D01*
X89195575Y-52608670D01*
X89103102Y-52410362D01*
X89103100Y-52410359D01*
X89103099Y-52410357D01*
X88977599Y-52231124D01*
X88905167Y-52158692D01*
X88822877Y-52076402D01*
X88643639Y-51950898D01*
X88492414Y-51880381D01*
X88439977Y-51834210D01*
X88420825Y-51767016D01*
X88441041Y-51700135D01*
X88492414Y-51655618D01*
X88643639Y-51585102D01*
X88822877Y-51459598D01*
X88977598Y-51304877D01*
X89103102Y-51125639D01*
X89195575Y-50927330D01*
X89252207Y-50715977D01*
X89271277Y-50498000D01*
X89252207Y-50280023D01*
X89195575Y-50068670D01*
X89103102Y-49870362D01*
X89103100Y-49870359D01*
X89103099Y-49870357D01*
X88977599Y-49691124D01*
X88929447Y-49642972D01*
X88822877Y-49536402D01*
X88643639Y-49410898D01*
X88492414Y-49340381D01*
X88439977Y-49294210D01*
X88420825Y-49227016D01*
X88441041Y-49160135D01*
X88492414Y-49115618D01*
X88643639Y-49045102D01*
X88822877Y-48919598D01*
X88977598Y-48764877D01*
X89103102Y-48585639D01*
X89195575Y-48387330D01*
X89252207Y-48175977D01*
X89271277Y-47958000D01*
X89270618Y-47950471D01*
X89262678Y-47859715D01*
X89252207Y-47740023D01*
X89195575Y-47528670D01*
X89103102Y-47330362D01*
X89103100Y-47330359D01*
X89103099Y-47330357D01*
X88977599Y-47151124D01*
X88929447Y-47102972D01*
X88822877Y-46996402D01*
X88643639Y-46870898D01*
X88492414Y-46800381D01*
X88439977Y-46754210D01*
X88420825Y-46687016D01*
X88441041Y-46620135D01*
X88492414Y-46575618D01*
X88643639Y-46505102D01*
X88822877Y-46379598D01*
X88977598Y-46224877D01*
X89067575Y-46096375D01*
X89122151Y-46052752D01*
X89169149Y-46043500D01*
X104809033Y-46043500D01*
X104876072Y-46063185D01*
X104901183Y-46084528D01*
X104950129Y-46138888D01*
X105103265Y-46250148D01*
X105103270Y-46250151D01*
X105276192Y-46327142D01*
X105276197Y-46327144D01*
X105461354Y-46366500D01*
X105461355Y-46366500D01*
X105650644Y-46366500D01*
X105650646Y-46366500D01*
X105835803Y-46327144D01*
X106008730Y-46250151D01*
X106161871Y-46138888D01*
X106238351Y-46053948D01*
X106297836Y-46017300D01*
X106367693Y-46018630D01*
X106425742Y-46057517D01*
X106453552Y-46121614D01*
X106454500Y-46136921D01*
X106454500Y-51987255D01*
X106452775Y-52002872D01*
X106453061Y-52002899D01*
X106452326Y-52010665D01*
X106454500Y-52079814D01*
X106454500Y-52109343D01*
X106454501Y-52109360D01*
X106455368Y-52116231D01*
X106455826Y-52122050D01*
X106457290Y-52168624D01*
X106457291Y-52168627D01*
X106462880Y-52187867D01*
X106466824Y-52206911D01*
X106469090Y-52224844D01*
X106469336Y-52226791D01*
X106486490Y-52270119D01*
X106488382Y-52275647D01*
X106501381Y-52320388D01*
X106511580Y-52337634D01*
X106520136Y-52355100D01*
X106527514Y-52373732D01*
X106554123Y-52410357D01*
X106554898Y-52411423D01*
X106558106Y-52416307D01*
X106581827Y-52456416D01*
X106581833Y-52456424D01*
X106595990Y-52470580D01*
X106608628Y-52485376D01*
X106620405Y-52501586D01*
X106620406Y-52501587D01*
X106656309Y-52531288D01*
X106660620Y-52535210D01*
X107859124Y-53733715D01*
X108173038Y-54047629D01*
X108206523Y-54108952D01*
X108208678Y-54122348D01*
X108216379Y-54195618D01*
X108226326Y-54290256D01*
X108226327Y-54290259D01*
X108284818Y-54470277D01*
X108284821Y-54470284D01*
X108379467Y-54634216D01*
X108502739Y-54771123D01*
X108506129Y-54774888D01*
X108659265Y-54886148D01*
X108664893Y-54889397D01*
X108663734Y-54891403D01*
X108708905Y-54929796D01*
X108729228Y-54996644D01*
X108710184Y-55063868D01*
X108657819Y-55110125D01*
X108649025Y-55113776D01*
X108434171Y-55213964D01*
X108434169Y-55213965D01*
X108240597Y-55349505D01*
X108073505Y-55516597D01*
X107937965Y-55710169D01*
X107937964Y-55710171D01*
X107838098Y-55924335D01*
X107838094Y-55924344D01*
X107776938Y-56152586D01*
X107776936Y-56152596D01*
X107756341Y-56387999D01*
X107756341Y-56388000D01*
X107776936Y-56623403D01*
X107776938Y-56623413D01*
X107838094Y-56851655D01*
X107838096Y-56851659D01*
X107838097Y-56851663D01*
X107868035Y-56915865D01*
X107937965Y-57065830D01*
X107937967Y-57065834D01*
X108001384Y-57156402D01*
X108073505Y-57259401D01*
X108240599Y-57426495D01*
X108434170Y-57562035D01*
X108434179Y-57562039D01*
X108436036Y-57563112D01*
X108436695Y-57563803D01*
X108438604Y-57565140D01*
X108438335Y-57565523D01*
X108484252Y-57613679D01*
X108497476Y-57682285D01*
X108471509Y-57747151D01*
X108414595Y-57787680D01*
X108374037Y-57794500D01*
X104019500Y-57794500D01*
X103952461Y-57774815D01*
X103906706Y-57722011D01*
X103895500Y-57670500D01*
X103895500Y-47942687D01*
X103915185Y-47875648D01*
X103927350Y-47859715D01*
X103945891Y-47839122D01*
X104002533Y-47776216D01*
X104097179Y-47612284D01*
X104155674Y-47432256D01*
X104175460Y-47244000D01*
X104155674Y-47055744D01*
X104097179Y-46875716D01*
X104002533Y-46711784D01*
X103875871Y-46571112D01*
X103864432Y-46562801D01*
X103722734Y-46459851D01*
X103722729Y-46459848D01*
X103549807Y-46382857D01*
X103549802Y-46382855D01*
X103404001Y-46351865D01*
X103364646Y-46343500D01*
X103175354Y-46343500D01*
X103142897Y-46350398D01*
X102990197Y-46382855D01*
X102990192Y-46382857D01*
X102817270Y-46459848D01*
X102817265Y-46459851D01*
X102707885Y-46539321D01*
X102642079Y-46562801D01*
X102574025Y-46546975D01*
X102562115Y-46539321D01*
X102452734Y-46459851D01*
X102452729Y-46459848D01*
X102279807Y-46382857D01*
X102279802Y-46382855D01*
X102134001Y-46351865D01*
X102094646Y-46343500D01*
X101905354Y-46343500D01*
X101872897Y-46350398D01*
X101720197Y-46382855D01*
X101720192Y-46382857D01*
X101547270Y-46459848D01*
X101547265Y-46459851D01*
X101394129Y-46571111D01*
X101267466Y-46711785D01*
X101172821Y-46875715D01*
X101172818Y-46875722D01*
X101120251Y-47037508D01*
X101114326Y-47055744D01*
X101094540Y-47244000D01*
X101114326Y-47432256D01*
X101114327Y-47432259D01*
X101172818Y-47612277D01*
X101172821Y-47612284D01*
X101267467Y-47776216D01*
X101298563Y-47810751D01*
X101367650Y-47887480D01*
X101397880Y-47950471D01*
X101399500Y-47970452D01*
X101399500Y-63027547D01*
X101379815Y-63094586D01*
X101367650Y-63110519D01*
X101267466Y-63221785D01*
X101172821Y-63385715D01*
X101172818Y-63385722D01*
X101121116Y-63544847D01*
X101114326Y-63565744D01*
X101094540Y-63754000D01*
X101114326Y-63942256D01*
X101114327Y-63942259D01*
X101172818Y-64122277D01*
X101172821Y-64122284D01*
X101267467Y-64286216D01*
X101394129Y-64426888D01*
X101461082Y-64475532D01*
X101503747Y-64530862D01*
X101509726Y-64600476D01*
X101477120Y-64662271D01*
X101475877Y-64663531D01*
X99330208Y-66809199D01*
X99317951Y-66819020D01*
X99318134Y-66819241D01*
X99312123Y-66824213D01*
X99264772Y-66874636D01*
X99243889Y-66895519D01*
X99243877Y-66895532D01*
X99239621Y-66901017D01*
X99235837Y-66905447D01*
X99203937Y-66939418D01*
X99203936Y-66939420D01*
X99194284Y-66956976D01*
X99183610Y-66973226D01*
X99171329Y-66989061D01*
X99171324Y-66989068D01*
X99152815Y-67031838D01*
X99150245Y-67037084D01*
X99127803Y-67077906D01*
X99122822Y-67097307D01*
X99116521Y-67115710D01*
X99108562Y-67134102D01*
X99108561Y-67134105D01*
X99101271Y-67180127D01*
X99100087Y-67185846D01*
X99088501Y-67230972D01*
X99088500Y-67230982D01*
X99088500Y-67251016D01*
X99086973Y-67270415D01*
X99083840Y-67290194D01*
X99083840Y-67290195D01*
X99088225Y-67336583D01*
X99088500Y-67342421D01*
X99088500Y-70580547D01*
X99068815Y-70647586D01*
X99016011Y-70693341D01*
X98946853Y-70703285D01*
X98883297Y-70674260D01*
X98876819Y-70668228D01*
X97073819Y-68865228D01*
X97040334Y-68803905D01*
X97037500Y-68777547D01*
X97037500Y-64090742D01*
X97039224Y-64075122D01*
X97038939Y-64075096D01*
X97039671Y-64067340D01*
X97039673Y-64067333D01*
X97037500Y-63998185D01*
X97037500Y-63968650D01*
X97036631Y-63961772D01*
X97036172Y-63955943D01*
X97034709Y-63909372D01*
X97029122Y-63890144D01*
X97025174Y-63871084D01*
X97022663Y-63851204D01*
X97005512Y-63807887D01*
X97003619Y-63802358D01*
X96990618Y-63757609D01*
X96990616Y-63757606D01*
X96980423Y-63740371D01*
X96971861Y-63722894D01*
X96964487Y-63704270D01*
X96964486Y-63704268D01*
X96937079Y-63666545D01*
X96933888Y-63661686D01*
X96928182Y-63652038D01*
X96910170Y-63621580D01*
X96910168Y-63621578D01*
X96910165Y-63621574D01*
X96896006Y-63607415D01*
X96883368Y-63592619D01*
X96871594Y-63576413D01*
X96858697Y-63565744D01*
X96835688Y-63546709D01*
X96831376Y-63542786D01*
X93864803Y-60576212D01*
X93854980Y-60563950D01*
X93854759Y-60564134D01*
X93849786Y-60558123D01*
X93837807Y-60546874D01*
X93799364Y-60510773D01*
X93788919Y-60500328D01*
X93778475Y-60489883D01*
X93772986Y-60485625D01*
X93768561Y-60481847D01*
X93734582Y-60449938D01*
X93734580Y-60449936D01*
X93734577Y-60449935D01*
X93717029Y-60440288D01*
X93700763Y-60429604D01*
X93684933Y-60417325D01*
X93642168Y-60398818D01*
X93636922Y-60396248D01*
X93596093Y-60373803D01*
X93596092Y-60373802D01*
X93576693Y-60368822D01*
X93558281Y-60362518D01*
X93539898Y-60354562D01*
X93539892Y-60354560D01*
X93493874Y-60347272D01*
X93488152Y-60346087D01*
X93443021Y-60334500D01*
X93443019Y-60334500D01*
X93422984Y-60334500D01*
X93403586Y-60332973D01*
X93396162Y-60331797D01*
X93383805Y-60329840D01*
X93383804Y-60329840D01*
X93337416Y-60334225D01*
X93331578Y-60334500D01*
X87991452Y-60334500D01*
X87924413Y-60314815D01*
X87903771Y-60298181D01*
X85389819Y-57784228D01*
X85356334Y-57722905D01*
X85353500Y-57696547D01*
X85353500Y-43062452D01*
X85373185Y-42995413D01*
X85389819Y-42974771D01*
X85414819Y-42949771D01*
X85476142Y-42916286D01*
X85545834Y-42921270D01*
G37*
G04 #@! TD.AperFunction*
G04 #@! TA.AperFunction,Conductor*
G36*
X111127901Y-42466588D02*
G01*
X111224075Y-42591925D01*
X111349412Y-42688099D01*
X111442779Y-42726772D01*
X110849739Y-43319812D01*
X110849426Y-43319499D01*
X110823721Y-43346030D01*
X110813020Y-43351428D01*
X110686971Y-43407549D01*
X110686966Y-43407552D01*
X110533830Y-43518812D01*
X110407167Y-43659486D01*
X110312522Y-43823416D01*
X110312519Y-43823423D01*
X110266626Y-43964668D01*
X110254027Y-44003445D01*
X110234241Y-44191701D01*
X110254027Y-44379957D01*
X110254028Y-44379960D01*
X110312519Y-44559978D01*
X110312522Y-44559985D01*
X110407168Y-44723917D01*
X110459644Y-44782197D01*
X110533830Y-44864589D01*
X110686966Y-44975849D01*
X110686971Y-44975852D01*
X110859893Y-45052843D01*
X110859894Y-45052843D01*
X110859898Y-45052845D01*
X110915241Y-45064608D01*
X110928280Y-45067380D01*
X110989762Y-45100572D01*
X111023539Y-45161735D01*
X111026500Y-45188670D01*
X111026500Y-55112773D01*
X111006815Y-55179812D01*
X110973623Y-55214348D01*
X110780597Y-55349505D01*
X110613505Y-55516597D01*
X110483575Y-55702158D01*
X110428998Y-55745783D01*
X110359500Y-55752977D01*
X110297145Y-55721454D01*
X110280425Y-55702158D01*
X110150494Y-55516597D01*
X109983402Y-55349506D01*
X109983395Y-55349501D01*
X109789834Y-55213967D01*
X109789830Y-55213965D01*
X109649805Y-55148670D01*
X109575663Y-55114097D01*
X109575662Y-55114096D01*
X109570756Y-55111809D01*
X109571305Y-55110631D01*
X109520091Y-55072923D01*
X109495155Y-55007654D01*
X109509465Y-54939266D01*
X109558476Y-54889470D01*
X109562219Y-54887599D01*
X109564724Y-54886153D01*
X109564730Y-54886151D01*
X109717871Y-54774888D01*
X109844533Y-54634216D01*
X109939179Y-54470284D01*
X109997674Y-54290256D01*
X110017460Y-54102000D01*
X109997674Y-53913744D01*
X109939179Y-53733716D01*
X109844533Y-53569784D01*
X109717871Y-53429112D01*
X109717870Y-53429111D01*
X109564734Y-53317851D01*
X109564729Y-53317848D01*
X109391807Y-53240857D01*
X109391802Y-53240855D01*
X109246001Y-53209865D01*
X109206646Y-53201500D01*
X109206645Y-53201500D01*
X109147452Y-53201500D01*
X109080413Y-53181815D01*
X109059771Y-53165181D01*
X108797432Y-52902842D01*
X108763947Y-52841519D01*
X108768931Y-52771827D01*
X108810803Y-52715894D01*
X108876267Y-52691477D01*
X108910891Y-52693870D01*
X109017354Y-52716500D01*
X109017355Y-52716500D01*
X109206644Y-52716500D01*
X109206646Y-52716500D01*
X109391803Y-52677144D01*
X109564730Y-52600151D01*
X109717871Y-52488888D01*
X109844533Y-52348216D01*
X109939179Y-52184284D01*
X109997674Y-52004256D01*
X110017460Y-51816000D01*
X109997674Y-51627744D01*
X109939179Y-51447716D01*
X109844533Y-51283784D01*
X109769350Y-51200284D01*
X109739120Y-51137292D01*
X109737500Y-51117312D01*
X109737500Y-43439226D01*
X109757185Y-43372187D01*
X109790374Y-43337654D01*
X109983401Y-43202495D01*
X110150495Y-43035401D01*
X110280732Y-42849403D01*
X110335307Y-42805780D01*
X110404805Y-42798586D01*
X110467160Y-42830109D01*
X110483880Y-42849405D01*
X110537073Y-42925373D01*
X111089226Y-42373219D01*
X111127901Y-42466588D01*
G37*
G04 #@! TD.AperFunction*
G04 #@! TA.AperFunction,Conductor*
G36*
X87556507Y-43087844D02*
G01*
X87634239Y-43208798D01*
X87742900Y-43302952D01*
X87873685Y-43362680D01*
X87883466Y-43364086D01*
X87326426Y-43921124D01*
X87388611Y-43964666D01*
X87388617Y-43964669D01*
X87540174Y-44035341D01*
X87592614Y-44081513D01*
X87611766Y-44148706D01*
X87591551Y-44215588D01*
X87540176Y-44260105D01*
X87388358Y-44330900D01*
X87388357Y-44330900D01*
X87209121Y-44456402D01*
X87089181Y-44576343D01*
X87027858Y-44609828D01*
X86958166Y-44604844D01*
X86902233Y-44562972D01*
X86877816Y-44497508D01*
X86877500Y-44488662D01*
X86877500Y-43694550D01*
X86897185Y-43627511D01*
X86949989Y-43581756D01*
X86960501Y-43579945D01*
X87532922Y-43007523D01*
X87556507Y-43087844D01*
G37*
G04 #@! TD.AperFunction*
G04 #@! TA.AperFunction,Conductor*
G36*
X52812040Y-26802408D02*
G01*
X57783717Y-27796743D01*
X57814852Y-27807426D01*
X61796544Y-29798272D01*
X61803214Y-29802143D01*
X63736222Y-31090815D01*
X67783983Y-33789322D01*
X67812024Y-33815030D01*
X71713255Y-38691568D01*
X71788522Y-38785652D01*
X71806825Y-38817062D01*
X73795771Y-43789429D01*
X73802232Y-43811163D01*
X74797592Y-48787960D01*
X74800000Y-48812278D01*
X74800000Y-51789737D01*
X74798313Y-51810122D01*
X73803065Y-57781608D01*
X73791661Y-57816677D01*
X70806436Y-63787127D01*
X70790786Y-63811056D01*
X65816605Y-69780074D01*
X65776800Y-69811600D01*
X59812176Y-72793912D01*
X59786796Y-72803301D01*
X51814808Y-74796298D01*
X51784734Y-74800000D01*
X49812278Y-74800000D01*
X49787960Y-74797592D01*
X44811163Y-73802232D01*
X44789429Y-73795771D01*
X39813870Y-71805548D01*
X39787848Y-71791320D01*
X37000000Y-69800000D01*
X32818490Y-66813207D01*
X32787394Y-66781091D01*
X31620543Y-65030814D01*
X33553564Y-65030814D01*
X33583908Y-65384097D01*
X33583911Y-65384119D01*
X33654323Y-65731615D01*
X33654329Y-65731637D01*
X33763902Y-66068865D01*
X33911197Y-66391397D01*
X33911202Y-66391407D01*
X34094298Y-66695037D01*
X34094302Y-66695042D01*
X34094307Y-66695051D01*
X34094312Y-66695057D01*
X34310827Y-66975840D01*
X34310839Y-66975854D01*
X34557950Y-67230124D01*
X34557959Y-67230133D01*
X34832459Y-67454591D01*
X34832461Y-67454592D01*
X35130739Y-67646286D01*
X35130745Y-67646289D01*
X35130747Y-67646290D01*
X35130755Y-67646295D01*
X35448960Y-67802745D01*
X35782925Y-67921904D01*
X36128296Y-68002216D01*
X36414817Y-68035091D01*
X36480569Y-68042636D01*
X36480571Y-68042636D01*
X36746442Y-68042636D01*
X36834917Y-68037576D01*
X37011872Y-68027458D01*
X37361264Y-67966993D01*
X37701487Y-67867095D01*
X38028105Y-67729065D01*
X38336859Y-67554704D01*
X38623725Y-67346283D01*
X38884963Y-67106521D01*
X39117168Y-66838543D01*
X39317312Y-66545842D01*
X39482785Y-66232234D01*
X39611432Y-65901808D01*
X39656165Y-65731628D01*
X39701573Y-65558875D01*
X39701574Y-65558872D01*
X39752037Y-65207895D01*
X39757096Y-65030814D01*
X61837836Y-65030814D01*
X61868180Y-65384097D01*
X61868183Y-65384119D01*
X61938595Y-65731615D01*
X61938601Y-65731637D01*
X62048174Y-66068865D01*
X62195469Y-66391397D01*
X62195474Y-66391407D01*
X62378570Y-66695037D01*
X62378574Y-66695042D01*
X62378579Y-66695051D01*
X62378584Y-66695057D01*
X62595099Y-66975840D01*
X62595111Y-66975854D01*
X62842222Y-67230124D01*
X62842231Y-67230133D01*
X63116731Y-67454591D01*
X63116733Y-67454592D01*
X63415011Y-67646286D01*
X63415017Y-67646289D01*
X63415019Y-67646290D01*
X63415027Y-67646295D01*
X63733232Y-67802745D01*
X64067197Y-67921904D01*
X64412568Y-68002216D01*
X64699089Y-68035091D01*
X64764841Y-68042636D01*
X64764843Y-68042636D01*
X65030714Y-68042636D01*
X65119189Y-68037576D01*
X65296144Y-68027458D01*
X65645536Y-67966993D01*
X65985759Y-67867095D01*
X66312377Y-67729065D01*
X66621131Y-67554704D01*
X66907997Y-67346283D01*
X67169235Y-67106521D01*
X67401440Y-66838543D01*
X67601584Y-66545842D01*
X67767057Y-66232234D01*
X67895704Y-65901808D01*
X67940437Y-65731628D01*
X67985845Y-65558875D01*
X67985846Y-65558872D01*
X68036309Y-65207895D01*
X68046435Y-64853453D01*
X68016091Y-64500168D01*
X68016088Y-64500152D01*
X67945676Y-64152656D01*
X67945670Y-64152634D01*
X67890378Y-63982464D01*
X67836100Y-63815413D01*
X67761493Y-63652047D01*
X67688802Y-63492874D01*
X67688797Y-63492864D01*
X67505701Y-63189234D01*
X67505699Y-63189232D01*
X67505693Y-63189221D01*
X67395044Y-63045729D01*
X67289172Y-62908431D01*
X67289160Y-62908417D01*
X67042049Y-62654147D01*
X67042046Y-62654144D01*
X67042041Y-62654139D01*
X66767541Y-62429681D01*
X66767538Y-62429679D01*
X66469260Y-62237985D01*
X66469254Y-62237982D01*
X66469248Y-62237979D01*
X66469245Y-62237977D01*
X66151040Y-62081527D01*
X66151036Y-62081525D01*
X66151035Y-62081525D01*
X65817076Y-61962368D01*
X65623167Y-61917277D01*
X65471704Y-61882056D01*
X65354279Y-61868582D01*
X65119431Y-61841636D01*
X65119429Y-61841636D01*
X64853560Y-61841636D01*
X64853558Y-61841636D01*
X64588131Y-61856813D01*
X64238744Y-61917277D01*
X64238727Y-61917281D01*
X63898516Y-62017176D01*
X63898513Y-62017177D01*
X63746243Y-62081527D01*
X63571902Y-62155204D01*
X63571897Y-62155206D01*
X63263141Y-62329567D01*
X63263138Y-62329569D01*
X62976274Y-62537989D01*
X62715037Y-62777751D01*
X62715036Y-62777752D01*
X62482831Y-63045729D01*
X62282691Y-63338424D01*
X62282684Y-63338435D01*
X62117221Y-63652025D01*
X62117211Y-63652047D01*
X61988565Y-63982469D01*
X61898426Y-64325396D01*
X61847964Y-64676369D01*
X61847962Y-64676389D01*
X61837836Y-65030807D01*
X61837836Y-65030814D01*
X39757096Y-65030814D01*
X39762163Y-64853453D01*
X39731819Y-64500168D01*
X39731816Y-64500152D01*
X39661404Y-64152656D01*
X39661398Y-64152634D01*
X39606106Y-63982464D01*
X39551828Y-63815413D01*
X39477221Y-63652047D01*
X39404530Y-63492874D01*
X39404525Y-63492864D01*
X39221429Y-63189234D01*
X39221427Y-63189232D01*
X39221421Y-63189221D01*
X39110772Y-63045729D01*
X39004900Y-62908431D01*
X39004888Y-62908417D01*
X38757777Y-62654147D01*
X38757774Y-62654144D01*
X38757769Y-62654139D01*
X38483269Y-62429681D01*
X38483266Y-62429679D01*
X38184988Y-62237985D01*
X38184982Y-62237982D01*
X38184976Y-62237979D01*
X38184973Y-62237977D01*
X37866768Y-62081527D01*
X37866764Y-62081525D01*
X37866763Y-62081525D01*
X37532804Y-61962368D01*
X37338895Y-61917277D01*
X37187432Y-61882056D01*
X37070007Y-61868582D01*
X36835159Y-61841636D01*
X36835157Y-61841636D01*
X36569288Y-61841636D01*
X36569286Y-61841636D01*
X36303859Y-61856813D01*
X35954472Y-61917277D01*
X35954455Y-61917281D01*
X35614244Y-62017176D01*
X35614241Y-62017177D01*
X35461971Y-62081527D01*
X35287630Y-62155204D01*
X35287625Y-62155206D01*
X34978869Y-62329567D01*
X34978866Y-62329569D01*
X34692002Y-62537989D01*
X34430765Y-62777751D01*
X34430764Y-62777752D01*
X34198559Y-63045729D01*
X33998419Y-63338424D01*
X33998412Y-63338435D01*
X33832949Y-63652025D01*
X33832939Y-63652047D01*
X33704293Y-63982469D01*
X33614154Y-64325396D01*
X33563692Y-64676369D01*
X33563690Y-64676389D01*
X33553564Y-65030807D01*
X33553564Y-65030814D01*
X31620543Y-65030814D01*
X28810737Y-60816105D01*
X28794682Y-60781387D01*
X27288341Y-55509192D01*
X32953946Y-55509192D01*
X32957939Y-55517483D01*
X32967106Y-55543682D01*
X32969156Y-55552660D01*
X32969157Y-55552662D01*
X32969158Y-55552663D01*
X32974895Y-55559857D01*
X32989664Y-55583360D01*
X32993657Y-55591652D01*
X32993658Y-55591653D01*
X33000852Y-55597390D01*
X33020484Y-55617022D01*
X33026222Y-55624217D01*
X33034511Y-55628208D01*
X33058016Y-55642978D01*
X33065215Y-55648719D01*
X33074189Y-55650767D01*
X33100390Y-55659935D01*
X33108683Y-55663929D01*
X68700208Y-55663929D01*
X68700209Y-55663929D01*
X68708495Y-55659937D01*
X68734708Y-55650766D01*
X68736892Y-55650267D01*
X68743677Y-55648719D01*
X68750868Y-55642983D01*
X68774379Y-55628209D01*
X68782670Y-55624217D01*
X68788401Y-55617029D01*
X68808047Y-55597384D01*
X68815234Y-55591653D01*
X68819228Y-55583360D01*
X68834002Y-55559849D01*
X68839736Y-55552660D01*
X68841783Y-55543691D01*
X68850956Y-55517476D01*
X68854946Y-55509191D01*
X68854946Y-46417666D01*
X68850953Y-46409375D01*
X68841784Y-46383172D01*
X68839736Y-46374198D01*
X68833992Y-46366995D01*
X68819225Y-46343494D01*
X68815234Y-46335205D01*
X68808039Y-46329467D01*
X68788405Y-46309833D01*
X68782669Y-46302640D01*
X68774377Y-46298647D01*
X68750874Y-46283878D01*
X68743680Y-46278141D01*
X68743679Y-46278140D01*
X68743677Y-46278139D01*
X68734699Y-46276089D01*
X68708503Y-46266923D01*
X68700209Y-46262929D01*
X68677036Y-46262929D01*
X33200209Y-46262929D01*
X33108683Y-46262929D01*
X33108681Y-46262929D01*
X33108679Y-46262930D01*
X33100385Y-46266924D01*
X33074191Y-46276089D01*
X33065215Y-46278138D01*
X33058012Y-46283882D01*
X33034516Y-46298646D01*
X33026222Y-46302640D01*
X33026221Y-46302642D01*
X33020482Y-46309838D01*
X33000855Y-46329465D01*
X32993659Y-46335204D01*
X32993657Y-46335205D01*
X32989663Y-46343499D01*
X32974899Y-46366995D01*
X32969155Y-46374198D01*
X32967106Y-46383174D01*
X32957941Y-46409368D01*
X32953947Y-46417662D01*
X32953946Y-46417665D01*
X32953946Y-46417666D01*
X32953946Y-46440839D01*
X32953946Y-55417666D01*
X32953946Y-55509192D01*
X27288341Y-55509192D01*
X26804771Y-53816698D01*
X26800000Y-53782633D01*
X26800000Y-52983431D01*
X29357277Y-52983431D01*
X29376347Y-53201404D01*
X29376347Y-53201408D01*
X29432976Y-53412751D01*
X29432978Y-53412755D01*
X29432979Y-53412759D01*
X29479215Y-53511913D01*
X29525451Y-53611067D01*
X29525452Y-53611068D01*
X29650956Y-53790306D01*
X29805677Y-53945027D01*
X29984915Y-54070531D01*
X30183224Y-54163004D01*
X30394577Y-54219636D01*
X30577480Y-54235637D01*
X30612552Y-54238706D01*
X30612554Y-54238706D01*
X30612556Y-54238706D01*
X30640808Y-54236234D01*
X30830531Y-54219636D01*
X31041884Y-54163004D01*
X31240193Y-54070531D01*
X31419431Y-53945027D01*
X31574152Y-53790306D01*
X31699656Y-53611068D01*
X31792129Y-53412759D01*
X31848761Y-53201406D01*
X31867831Y-52983429D01*
X31848761Y-52765452D01*
X31792129Y-52554099D01*
X31699656Y-52355791D01*
X31699654Y-52355788D01*
X31699653Y-52355786D01*
X31574153Y-52176553D01*
X31574150Y-52176550D01*
X31419431Y-52021831D01*
X31240193Y-51896327D01*
X31088968Y-51825810D01*
X31036531Y-51779639D01*
X31017379Y-51712445D01*
X31037595Y-51645564D01*
X31088968Y-51601047D01*
X31240193Y-51530531D01*
X31419431Y-51405027D01*
X31574152Y-51250306D01*
X31699656Y-51071068D01*
X31792129Y-50872759D01*
X31848761Y-50661406D01*
X31867831Y-50443429D01*
X31848761Y-50225452D01*
X31792129Y-50014099D01*
X31699656Y-49815791D01*
X31699654Y-49815788D01*
X31699653Y-49815786D01*
X31574153Y-49636553D01*
X31574150Y-49636550D01*
X31419431Y-49481831D01*
X31240193Y-49356327D01*
X31240194Y-49356327D01*
X31240192Y-49356326D01*
X31088378Y-49285534D01*
X31035939Y-49239361D01*
X31016787Y-49172168D01*
X31037003Y-49105287D01*
X31088379Y-49060770D01*
X31239938Y-48990097D01*
X31239940Y-48990096D01*
X31302126Y-48946553D01*
X30745088Y-48389515D01*
X30754869Y-48388109D01*
X30885654Y-48328381D01*
X30994315Y-48234227D01*
X31072047Y-48113273D01*
X31095630Y-48032953D01*
X31655678Y-48593001D01*
X31699220Y-48530816D01*
X31791655Y-48332588D01*
X31791659Y-48332579D01*
X31848264Y-48121323D01*
X31848266Y-48121313D01*
X31867329Y-47903429D01*
X31867329Y-47903428D01*
X31848266Y-47685544D01*
X31848264Y-47685534D01*
X31791659Y-47474278D01*
X31791655Y-47474269D01*
X31699222Y-47276044D01*
X31655677Y-47213857D01*
X31095630Y-47773904D01*
X31072047Y-47693585D01*
X30994315Y-47572631D01*
X30885654Y-47478477D01*
X30754869Y-47418749D01*
X30745088Y-47417342D01*
X31302126Y-46860304D01*
X31302125Y-46860302D01*
X31239945Y-46816764D01*
X31041713Y-46724327D01*
X31041704Y-46724323D01*
X30830448Y-46667718D01*
X30830438Y-46667716D01*
X30612555Y-46648654D01*
X30612553Y-46648654D01*
X30394669Y-46667716D01*
X30394659Y-46667718D01*
X30183403Y-46724323D01*
X30183394Y-46724327D01*
X29985168Y-46816761D01*
X29985166Y-46816762D01*
X29922982Y-46860304D01*
X29922981Y-46860304D01*
X30480020Y-47417342D01*
X30470239Y-47418749D01*
X30339454Y-47478477D01*
X30230793Y-47572631D01*
X30153061Y-47693585D01*
X30129477Y-47773904D01*
X29569429Y-47213856D01*
X29569429Y-47213857D01*
X29525887Y-47276041D01*
X29525886Y-47276043D01*
X29433452Y-47474269D01*
X29433448Y-47474278D01*
X29376843Y-47685534D01*
X29376841Y-47685544D01*
X29357779Y-47903428D01*
X29357779Y-47903429D01*
X29376841Y-48121313D01*
X29376843Y-48121323D01*
X29433448Y-48332579D01*
X29433452Y-48332588D01*
X29525889Y-48530820D01*
X29569427Y-48593000D01*
X29569429Y-48593001D01*
X30129477Y-48032952D01*
X30153061Y-48113273D01*
X30230793Y-48234227D01*
X30339454Y-48328381D01*
X30470239Y-48388109D01*
X30480020Y-48389515D01*
X29922980Y-48946553D01*
X29985165Y-48990095D01*
X29985171Y-48990098D01*
X30136728Y-49060770D01*
X30189168Y-49106942D01*
X30208320Y-49174135D01*
X30188105Y-49241017D01*
X30136730Y-49285534D01*
X29984912Y-49356329D01*
X29984911Y-49356329D01*
X29805675Y-49481831D01*
X29650956Y-49636550D01*
X29525454Y-49815786D01*
X29525452Y-49815790D01*
X29432980Y-50014097D01*
X29432976Y-50014106D01*
X29376347Y-50225449D01*
X29376347Y-50225453D01*
X29357277Y-50443426D01*
X29357277Y-50443431D01*
X29376347Y-50661404D01*
X29376347Y-50661408D01*
X29432976Y-50872751D01*
X29432978Y-50872755D01*
X29432979Y-50872759D01*
X29479215Y-50971913D01*
X29525451Y-51071067D01*
X29525452Y-51071068D01*
X29650956Y-51250306D01*
X29805677Y-51405027D01*
X29984914Y-51530530D01*
X29984915Y-51530531D01*
X30136137Y-51601047D01*
X30188576Y-51647219D01*
X30207728Y-51714413D01*
X30187512Y-51781294D01*
X30136137Y-51825811D01*
X29984915Y-51896327D01*
X29984911Y-51896329D01*
X29805675Y-52021831D01*
X29650956Y-52176550D01*
X29525454Y-52355786D01*
X29525452Y-52355790D01*
X29432980Y-52554097D01*
X29432976Y-52554106D01*
X29376347Y-52765449D01*
X29376347Y-52765452D01*
X29373099Y-52802580D01*
X29357277Y-52983426D01*
X29357277Y-52983431D01*
X26800000Y-52983431D01*
X26800000Y-48812278D01*
X26802408Y-48787960D01*
X27104792Y-47276041D01*
X27796743Y-43816280D01*
X27807426Y-43785147D01*
X27892416Y-43615169D01*
X28433286Y-42533429D01*
X42293092Y-42533429D01*
X42312891Y-42734460D01*
X42339526Y-42822264D01*
X42367903Y-42915811D01*
X42371860Y-42928853D01*
X42372483Y-42998720D01*
X42358084Y-43027815D01*
X42359006Y-43028319D01*
X42354756Y-43036100D01*
X42304462Y-43170946D01*
X42298055Y-43230545D01*
X42298055Y-43230552D01*
X42298054Y-43230564D01*
X42298054Y-44376299D01*
X42298055Y-44376305D01*
X42304462Y-44435912D01*
X42354756Y-44570757D01*
X42354760Y-44570764D01*
X42441006Y-44685973D01*
X42441009Y-44685976D01*
X42556218Y-44772222D01*
X42556225Y-44772226D01*
X42691071Y-44822520D01*
X42691070Y-44822520D01*
X42697998Y-44823264D01*
X42750681Y-44828929D01*
X44346426Y-44828928D01*
X44406037Y-44822520D01*
X44540885Y-44772225D01*
X44656100Y-44685975D01*
X44742350Y-44570760D01*
X44792645Y-44435912D01*
X44799054Y-44376302D01*
X44799053Y-43230557D01*
X44792645Y-43170946D01*
X44787907Y-43158244D01*
X44742351Y-43036100D01*
X44738100Y-43028315D01*
X44740175Y-43027181D01*
X44720225Y-42973703D01*
X44725248Y-42928852D01*
X44725575Y-42927773D01*
X44725577Y-42927770D01*
X44784216Y-42734462D01*
X44804016Y-42533429D01*
X44784216Y-42332396D01*
X44725577Y-42139088D01*
X44630352Y-41960935D01*
X44630348Y-41960931D01*
X44628185Y-41956883D01*
X44613943Y-41888480D01*
X44628185Y-41839975D01*
X44630348Y-41835927D01*
X44630352Y-41835923D01*
X44725577Y-41657770D01*
X44784216Y-41464462D01*
X44804016Y-41263429D01*
X44784216Y-41062396D01*
X44725577Y-40869088D01*
X44725575Y-40869085D01*
X44725575Y-40869083D01*
X44630355Y-40690940D01*
X44630353Y-40690938D01*
X44630352Y-40690935D01*
X44591378Y-40643445D01*
X44502201Y-40534781D01*
X44346049Y-40406632D01*
X44346042Y-40406627D01*
X44167899Y-40311407D01*
X43974585Y-40252766D01*
X43864454Y-40241919D01*
X43823934Y-40237929D01*
X43273174Y-40237929D01*
X43235987Y-40241591D01*
X43122522Y-40252766D01*
X42929208Y-40311407D01*
X42751065Y-40406627D01*
X42751058Y-40406632D01*
X42594906Y-40534781D01*
X42466757Y-40690933D01*
X42466752Y-40690940D01*
X42371532Y-40869083D01*
X42312891Y-41062397D01*
X42293092Y-41263429D01*
X42312891Y-41464460D01*
X42371532Y-41657774D01*
X42468921Y-41839976D01*
X42483163Y-41908379D01*
X42468921Y-41956882D01*
X42371532Y-42139083D01*
X42312891Y-42332397D01*
X42293092Y-42533429D01*
X28433286Y-42533429D01*
X30794126Y-37811747D01*
X30808202Y-37789746D01*
X31642765Y-36746542D01*
X33553564Y-36746542D01*
X33583908Y-37099825D01*
X33583911Y-37099847D01*
X33654323Y-37447343D01*
X33654329Y-37447365D01*
X33763902Y-37784593D01*
X33911197Y-38107125D01*
X33911202Y-38107135D01*
X34094298Y-38410765D01*
X34094302Y-38410770D01*
X34094307Y-38410779D01*
X34110819Y-38432192D01*
X34310827Y-38691568D01*
X34310839Y-38691582D01*
X34557950Y-38945852D01*
X34557959Y-38945861D01*
X34832459Y-39170319D01*
X34832461Y-39170320D01*
X35130739Y-39362014D01*
X35130745Y-39362017D01*
X35130747Y-39362018D01*
X35130755Y-39362023D01*
X35448960Y-39518473D01*
X35782925Y-39637632D01*
X36128296Y-39717944D01*
X36414817Y-39750819D01*
X36480569Y-39758364D01*
X36480571Y-39758364D01*
X36746442Y-39758364D01*
X36834917Y-39753304D01*
X37011872Y-39743186D01*
X37361264Y-39682721D01*
X37701487Y-39582823D01*
X38028105Y-39444793D01*
X38336859Y-39270432D01*
X38623725Y-39062011D01*
X38884963Y-38822249D01*
X39117168Y-38554271D01*
X39317312Y-38261570D01*
X39482785Y-37947962D01*
X39611432Y-37617536D01*
X39624464Y-37567959D01*
X39671526Y-37388912D01*
X39701574Y-37274600D01*
X39752037Y-36923623D01*
X39758075Y-36712278D01*
X39758671Y-36691431D01*
X46865277Y-36691431D01*
X46884347Y-36909404D01*
X46884347Y-36909408D01*
X46940976Y-37120751D01*
X46940978Y-37120755D01*
X46940979Y-37120759D01*
X46959055Y-37159523D01*
X47033451Y-37319067D01*
X47053881Y-37348243D01*
X47158956Y-37498306D01*
X47313677Y-37653027D01*
X47492915Y-37778531D01*
X47691224Y-37871004D01*
X47902577Y-37927636D01*
X48085480Y-37943637D01*
X48120552Y-37946706D01*
X48120554Y-37946706D01*
X48120556Y-37946706D01*
X48148808Y-37944234D01*
X48338531Y-37927636D01*
X48549884Y-37871004D01*
X48748193Y-37778531D01*
X48927431Y-37653027D01*
X49082152Y-37498306D01*
X49207656Y-37319068D01*
X49278172Y-37167843D01*
X49324344Y-37115406D01*
X49391538Y-37096254D01*
X49458419Y-37116470D01*
X49502935Y-37167843D01*
X49573452Y-37319068D01*
X49698956Y-37498306D01*
X49853677Y-37653027D01*
X49982178Y-37743004D01*
X50025802Y-37797580D01*
X50035054Y-37844578D01*
X50035054Y-37890581D01*
X50032859Y-37913811D01*
X50031327Y-37921843D01*
X50031692Y-37927636D01*
X50034932Y-37979153D01*
X50035054Y-37983024D01*
X50035054Y-38000785D01*
X50037279Y-38018397D01*
X50037645Y-38022272D01*
X50041250Y-38079567D01*
X50043776Y-38087343D01*
X50048863Y-38110101D01*
X50049888Y-38118213D01*
X50049890Y-38118221D01*
X50071023Y-38171599D01*
X50072342Y-38175262D01*
X50090086Y-38229869D01*
X50094461Y-38236762D01*
X50105057Y-38257558D01*
X50108065Y-38265155D01*
X50108067Y-38265160D01*
X50141819Y-38311616D01*
X50144009Y-38314838D01*
X50174767Y-38363305D01*
X50180718Y-38368893D01*
X50196158Y-38386407D01*
X50200957Y-38393014D01*
X50245201Y-38429616D01*
X50248121Y-38432190D01*
X50289972Y-38471491D01*
X50297132Y-38475427D01*
X50316433Y-38488543D01*
X50322731Y-38493753D01*
X50322732Y-38493753D01*
X50322733Y-38493754D01*
X50374679Y-38518198D01*
X50378151Y-38519967D01*
X50428457Y-38547624D01*
X50428459Y-38547624D01*
X50428462Y-38547626D01*
X50433759Y-38548985D01*
X50436368Y-38549656D01*
X50458331Y-38557562D01*
X50465728Y-38561043D01*
X50522130Y-38571802D01*
X50525916Y-38572648D01*
X50581535Y-38586929D01*
X50589707Y-38586929D01*
X50612939Y-38589125D01*
X50614543Y-38589430D01*
X50620966Y-38590656D01*
X50678278Y-38587050D01*
X50682151Y-38586929D01*
X59494102Y-38586929D01*
X59561141Y-38606614D01*
X59581783Y-38623248D01*
X65145748Y-44187213D01*
X65155573Y-44199477D01*
X65155794Y-44199295D01*
X65160764Y-44205302D01*
X65160767Y-44205305D01*
X65160768Y-44205306D01*
X65211205Y-44252670D01*
X65232084Y-44273549D01*
X65237558Y-44277795D01*
X65241996Y-44281585D01*
X65275972Y-44313491D01*
X65275976Y-44313493D01*
X65293527Y-44323142D01*
X65309785Y-44333821D01*
X65325618Y-44346103D01*
X65347569Y-44355601D01*
X65368391Y-44364612D01*
X65373635Y-44367181D01*
X65414462Y-44389626D01*
X65433866Y-44394608D01*
X65452264Y-44400907D01*
X65470659Y-44408867D01*
X65516683Y-44416155D01*
X65522386Y-44417336D01*
X65567535Y-44428929D01*
X65587570Y-44428929D01*
X65606967Y-44430455D01*
X65626750Y-44433589D01*
X65673138Y-44429204D01*
X65678976Y-44428929D01*
X69768806Y-44428929D01*
X69835845Y-44448614D01*
X69860954Y-44469955D01*
X69866680Y-44476314D01*
X69866684Y-44476318D01*
X70019819Y-44587577D01*
X70019824Y-44587580D01*
X70192746Y-44664571D01*
X70192751Y-44664573D01*
X70377908Y-44703929D01*
X70377909Y-44703929D01*
X70567198Y-44703929D01*
X70567200Y-44703929D01*
X70752357Y-44664573D01*
X70925284Y-44587580D01*
X71078425Y-44476317D01*
X71205087Y-44335645D01*
X71299733Y-44171713D01*
X71358228Y-43991685D01*
X71378014Y-43803429D01*
X71358228Y-43615173D01*
X71299733Y-43435145D01*
X71205087Y-43271213D01*
X71078425Y-43130541D01*
X71078424Y-43130540D01*
X70925288Y-43019280D01*
X70925283Y-43019277D01*
X70752361Y-42942286D01*
X70752356Y-42942284D01*
X70606555Y-42911294D01*
X70567200Y-42902929D01*
X70377908Y-42902929D01*
X70345451Y-42909827D01*
X70192751Y-42942284D01*
X70192746Y-42942286D01*
X70019824Y-43019277D01*
X70019819Y-43019280D01*
X69866684Y-43130539D01*
X69866680Y-43130543D01*
X69860954Y-43136903D01*
X69801467Y-43173550D01*
X69768806Y-43177929D01*
X65957006Y-43177929D01*
X65889967Y-43158244D01*
X65869325Y-43141610D01*
X60305357Y-37577641D01*
X60295534Y-37565379D01*
X60295313Y-37565563D01*
X60290340Y-37559552D01*
X60275392Y-37545515D01*
X60239918Y-37512202D01*
X60226022Y-37498306D01*
X60219029Y-37491312D01*
X60213540Y-37487054D01*
X60209115Y-37483276D01*
X60175136Y-37451367D01*
X60175134Y-37451365D01*
X60175131Y-37451364D01*
X60157583Y-37441717D01*
X60141317Y-37431033D01*
X60125487Y-37418754D01*
X60082722Y-37400247D01*
X60077476Y-37397677D01*
X60036647Y-37375232D01*
X60036646Y-37375231D01*
X60017247Y-37370251D01*
X59998835Y-37363947D01*
X59980452Y-37355991D01*
X59980446Y-37355989D01*
X59934428Y-37348701D01*
X59928706Y-37347516D01*
X59883575Y-37335929D01*
X59883573Y-37335929D01*
X59863538Y-37335929D01*
X59844140Y-37334402D01*
X59836716Y-37333226D01*
X59824359Y-37331269D01*
X59824358Y-37331269D01*
X59777970Y-37335654D01*
X59772132Y-37335929D01*
X54474434Y-37335929D01*
X54407395Y-37316244D01*
X54361640Y-37263440D01*
X54351696Y-37194282D01*
X54362050Y-37159529D01*
X54380129Y-37120759D01*
X54436761Y-36909406D01*
X54451009Y-36746542D01*
X61837836Y-36746542D01*
X61868180Y-37099825D01*
X61868183Y-37099847D01*
X61938595Y-37447343D01*
X61938601Y-37447365D01*
X62048174Y-37784593D01*
X62195469Y-38107125D01*
X62195474Y-38107135D01*
X62378570Y-38410765D01*
X62378574Y-38410770D01*
X62378579Y-38410779D01*
X62395091Y-38432192D01*
X62595099Y-38691568D01*
X62595111Y-38691582D01*
X62842222Y-38945852D01*
X62842231Y-38945861D01*
X63116731Y-39170319D01*
X63116733Y-39170320D01*
X63415011Y-39362014D01*
X63415017Y-39362017D01*
X63415019Y-39362018D01*
X63415027Y-39362023D01*
X63733232Y-39518473D01*
X64067197Y-39637632D01*
X64412568Y-39717944D01*
X64699089Y-39750819D01*
X64764841Y-39758364D01*
X64764843Y-39758364D01*
X65030714Y-39758364D01*
X65119189Y-39753304D01*
X65296144Y-39743186D01*
X65645536Y-39682721D01*
X65985759Y-39582823D01*
X66312377Y-39444793D01*
X66621131Y-39270432D01*
X66907997Y-39062011D01*
X67169235Y-38822249D01*
X67401440Y-38554271D01*
X67601584Y-38261570D01*
X67767057Y-37947962D01*
X67895704Y-37617536D01*
X67908736Y-37567959D01*
X67955798Y-37388912D01*
X67985846Y-37274600D01*
X68036309Y-36923623D01*
X68042347Y-36712278D01*
X68046435Y-36569192D01*
X68046435Y-36569181D01*
X68020519Y-36267451D01*
X68016091Y-36215896D01*
X68015912Y-36215012D01*
X67945676Y-35868384D01*
X67945670Y-35868362D01*
X67917657Y-35782149D01*
X67836100Y-35531141D01*
X67827292Y-35511855D01*
X67688802Y-35208602D01*
X67688797Y-35208592D01*
X67505701Y-34904962D01*
X67505699Y-34904960D01*
X67505693Y-34904949D01*
X67395044Y-34761457D01*
X67289172Y-34624159D01*
X67289160Y-34624145D01*
X67042049Y-34369875D01*
X67042046Y-34369872D01*
X67042041Y-34369867D01*
X66767541Y-34145409D01*
X66767538Y-34145407D01*
X66469260Y-33953713D01*
X66469254Y-33953710D01*
X66469248Y-33953707D01*
X66469245Y-33953705D01*
X66151040Y-33797255D01*
X66151036Y-33797253D01*
X66151035Y-33797253D01*
X65817076Y-33678096D01*
X65623167Y-33633005D01*
X65471704Y-33597784D01*
X65354279Y-33584310D01*
X65119431Y-33557364D01*
X65119429Y-33557364D01*
X64853560Y-33557364D01*
X64853558Y-33557364D01*
X64588131Y-33572541D01*
X64238744Y-33633005D01*
X64238727Y-33633009D01*
X63898516Y-33732904D01*
X63898513Y-33732905D01*
X63746243Y-33797255D01*
X63571902Y-33870932D01*
X63571897Y-33870934D01*
X63263141Y-34045295D01*
X63263138Y-34045297D01*
X62976274Y-34253717D01*
X62715037Y-34493479D01*
X62715036Y-34493480D01*
X62482831Y-34761457D01*
X62282691Y-35054152D01*
X62282684Y-35054163D01*
X62117221Y-35367753D01*
X62117211Y-35367775D01*
X61988565Y-35698197D01*
X61898426Y-36041124D01*
X61847964Y-36392097D01*
X61847962Y-36392117D01*
X61837836Y-36746535D01*
X61837836Y-36746542D01*
X54451009Y-36746542D01*
X54455831Y-36691429D01*
X54436761Y-36473452D01*
X54380129Y-36262099D01*
X54287656Y-36063791D01*
X54287654Y-36063788D01*
X54287653Y-36063786D01*
X54162153Y-35884553D01*
X54100477Y-35822877D01*
X54007431Y-35729831D01*
X53828193Y-35604327D01*
X53828194Y-35604327D01*
X53828192Y-35604326D01*
X53729038Y-35558090D01*
X53629884Y-35511854D01*
X53629880Y-35511853D01*
X53629876Y-35511851D01*
X53418531Y-35455222D01*
X53200556Y-35436152D01*
X53200552Y-35436152D01*
X53055236Y-35448865D01*
X52982577Y-35455222D01*
X52982574Y-35455222D01*
X52771231Y-35511851D01*
X52771222Y-35511855D01*
X52572915Y-35604327D01*
X52572911Y-35604329D01*
X52393675Y-35729831D01*
X52238956Y-35884550D01*
X52113454Y-36063786D01*
X52113452Y-36063790D01*
X52042936Y-36215012D01*
X51996763Y-36267451D01*
X51929570Y-36286603D01*
X51862689Y-36266387D01*
X51818172Y-36215012D01*
X51803672Y-36183917D01*
X51747656Y-36063791D01*
X51747654Y-36063788D01*
X51747653Y-36063786D01*
X51622153Y-35884553D01*
X51560477Y-35822877D01*
X51467431Y-35729831D01*
X51288193Y-35604327D01*
X51288194Y-35604327D01*
X51288192Y-35604326D01*
X51189038Y-35558090D01*
X51089884Y-35511854D01*
X51089880Y-35511853D01*
X51089876Y-35511851D01*
X50878531Y-35455222D01*
X50660556Y-35436152D01*
X50660552Y-35436152D01*
X50515236Y-35448865D01*
X50442577Y-35455222D01*
X50442574Y-35455222D01*
X50231231Y-35511851D01*
X50231222Y-35511855D01*
X50032915Y-35604327D01*
X50032911Y-35604329D01*
X49853675Y-35729831D01*
X49698956Y-35884550D01*
X49573454Y-36063786D01*
X49573452Y-36063790D01*
X49502936Y-36215012D01*
X49456763Y-36267451D01*
X49389570Y-36286603D01*
X49322689Y-36266387D01*
X49278172Y-36215012D01*
X49263672Y-36183917D01*
X49207656Y-36063791D01*
X49207654Y-36063788D01*
X49207653Y-36063786D01*
X49082153Y-35884553D01*
X49020477Y-35822877D01*
X48927431Y-35729831D01*
X48748193Y-35604327D01*
X48748194Y-35604327D01*
X48748192Y-35604326D01*
X48649038Y-35558090D01*
X48549884Y-35511854D01*
X48549880Y-35511853D01*
X48549876Y-35511851D01*
X48338531Y-35455222D01*
X48120556Y-35436152D01*
X48120552Y-35436152D01*
X47975236Y-35448865D01*
X47902577Y-35455222D01*
X47902574Y-35455222D01*
X47691231Y-35511851D01*
X47691222Y-35511855D01*
X47492915Y-35604327D01*
X47492911Y-35604329D01*
X47313675Y-35729831D01*
X47158956Y-35884550D01*
X47033454Y-36063786D01*
X47033452Y-36063790D01*
X46940980Y-36262097D01*
X46940976Y-36262106D01*
X46884347Y-36473449D01*
X46884347Y-36473453D01*
X46865277Y-36691426D01*
X46865277Y-36691431D01*
X39758671Y-36691431D01*
X39762163Y-36569192D01*
X39762163Y-36569181D01*
X39736247Y-36267451D01*
X39731819Y-36215896D01*
X39731640Y-36215012D01*
X39661404Y-35868384D01*
X39661398Y-35868362D01*
X39633385Y-35782149D01*
X39551828Y-35531141D01*
X39543020Y-35511855D01*
X39404530Y-35208602D01*
X39404525Y-35208592D01*
X39221429Y-34904962D01*
X39221427Y-34904960D01*
X39221421Y-34904949D01*
X39110772Y-34761457D01*
X39004900Y-34624159D01*
X39004888Y-34624145D01*
X38757777Y-34369875D01*
X38757774Y-34369872D01*
X38757769Y-34369867D01*
X38483269Y-34145409D01*
X38483266Y-34145407D01*
X38184988Y-33953713D01*
X38184982Y-33953710D01*
X38184976Y-33953707D01*
X38184973Y-33953705D01*
X37866768Y-33797255D01*
X37866764Y-33797253D01*
X37866763Y-33797253D01*
X37532804Y-33678096D01*
X37338895Y-33633005D01*
X37187432Y-33597784D01*
X37070007Y-33584310D01*
X36835159Y-33557364D01*
X36835157Y-33557364D01*
X36569288Y-33557364D01*
X36569286Y-33557364D01*
X36303859Y-33572541D01*
X35954472Y-33633005D01*
X35954455Y-33633009D01*
X35614244Y-33732904D01*
X35614241Y-33732905D01*
X35461971Y-33797255D01*
X35287630Y-33870932D01*
X35287625Y-33870934D01*
X34978869Y-34045295D01*
X34978866Y-34045297D01*
X34692002Y-34253717D01*
X34430765Y-34493479D01*
X34430764Y-34493480D01*
X34198559Y-34761457D01*
X33998419Y-35054152D01*
X33998412Y-35054163D01*
X33832949Y-35367753D01*
X33832939Y-35367775D01*
X33704293Y-35698197D01*
X33614154Y-36041124D01*
X33563692Y-36392097D01*
X33563690Y-36392117D01*
X33553564Y-36746535D01*
X33553564Y-36746542D01*
X31642765Y-36746542D01*
X34782989Y-32821263D01*
X34824356Y-32787821D01*
X39473141Y-30463429D01*
X45735225Y-30463429D01*
X45754287Y-30681313D01*
X45754289Y-30681323D01*
X45810894Y-30892579D01*
X45810898Y-30892588D01*
X45903335Y-31090820D01*
X45946873Y-31153000D01*
X45946875Y-31153001D01*
X46506923Y-30592952D01*
X46530507Y-30673273D01*
X46608239Y-30794227D01*
X46716900Y-30888381D01*
X46847685Y-30948109D01*
X46857466Y-30949515D01*
X46300426Y-31506553D01*
X46362611Y-31550095D01*
X46362613Y-31550096D01*
X46560840Y-31642530D01*
X46560849Y-31642534D01*
X46772105Y-31699139D01*
X46772115Y-31699141D01*
X46989999Y-31718204D01*
X46990001Y-31718204D01*
X47207884Y-31699141D01*
X47207894Y-31699139D01*
X47419150Y-31642534D01*
X47419159Y-31642530D01*
X47617387Y-31550095D01*
X47679572Y-31506553D01*
X47122534Y-30949515D01*
X47132315Y-30948109D01*
X47263100Y-30888381D01*
X47371761Y-30794227D01*
X47449493Y-30673273D01*
X47473076Y-30592953D01*
X48033124Y-31153001D01*
X48076667Y-31090815D01*
X48076668Y-31090813D01*
X48147341Y-30939254D01*
X48193513Y-30886814D01*
X48260706Y-30867662D01*
X48327587Y-30887877D01*
X48372105Y-30939253D01*
X48442897Y-31091067D01*
X48442898Y-31091068D01*
X48568402Y-31270306D01*
X48723123Y-31425027D01*
X48902361Y-31550531D01*
X49100670Y-31643004D01*
X49312023Y-31699636D01*
X49494926Y-31715637D01*
X49529998Y-31718706D01*
X49530000Y-31718706D01*
X49530002Y-31718706D01*
X49558254Y-31716234D01*
X49747977Y-31699636D01*
X49959330Y-31643004D01*
X50157639Y-31550531D01*
X50336877Y-31425027D01*
X50491598Y-31270306D01*
X50617102Y-31091068D01*
X50687618Y-30939843D01*
X50733790Y-30887406D01*
X50800984Y-30868254D01*
X50867865Y-30888470D01*
X50912381Y-30939843D01*
X50982898Y-31091068D01*
X51108402Y-31270306D01*
X51263123Y-31425027D01*
X51442361Y-31550531D01*
X51640670Y-31643004D01*
X51852023Y-31699636D01*
X52034926Y-31715637D01*
X52069998Y-31718706D01*
X52070000Y-31718706D01*
X52070002Y-31718706D01*
X52098254Y-31716234D01*
X52287977Y-31699636D01*
X52499330Y-31643004D01*
X52697639Y-31550531D01*
X52876877Y-31425027D01*
X53031598Y-31270306D01*
X53157102Y-31091068D01*
X53227618Y-30939843D01*
X53273790Y-30887406D01*
X53340984Y-30868254D01*
X53407865Y-30888470D01*
X53452381Y-30939843D01*
X53522898Y-31091068D01*
X53648402Y-31270306D01*
X53803123Y-31425027D01*
X53982361Y-31550531D01*
X54180670Y-31643004D01*
X54392023Y-31699636D01*
X54574926Y-31715637D01*
X54609998Y-31718706D01*
X54610000Y-31718706D01*
X54610002Y-31718706D01*
X54638254Y-31716234D01*
X54827977Y-31699636D01*
X55039330Y-31643004D01*
X55237639Y-31550531D01*
X55416877Y-31425027D01*
X55571598Y-31270306D01*
X55697102Y-31091068D01*
X55789575Y-30892759D01*
X55846207Y-30681406D01*
X55865277Y-30463429D01*
X55846207Y-30245452D01*
X55809879Y-30109876D01*
X55789577Y-30034106D01*
X55789576Y-30034105D01*
X55789575Y-30034099D01*
X55697102Y-29835791D01*
X55697099Y-29835787D01*
X55697099Y-29835786D01*
X55571599Y-29656553D01*
X55571596Y-29656550D01*
X55416877Y-29501831D01*
X55278978Y-29405273D01*
X55237638Y-29376326D01*
X55123285Y-29323003D01*
X55039330Y-29283854D01*
X55039326Y-29283853D01*
X55039322Y-29283851D01*
X54827977Y-29227222D01*
X54610002Y-29208152D01*
X54609998Y-29208152D01*
X54464682Y-29220865D01*
X54392023Y-29227222D01*
X54392020Y-29227222D01*
X54180677Y-29283851D01*
X54180668Y-29283855D01*
X53982361Y-29376327D01*
X53982357Y-29376329D01*
X53803121Y-29501831D01*
X53648402Y-29656550D01*
X53522900Y-29835786D01*
X53522898Y-29835790D01*
X53452382Y-29987012D01*
X53406209Y-30039451D01*
X53339016Y-30058603D01*
X53272135Y-30038387D01*
X53227618Y-29987012D01*
X53213118Y-29955917D01*
X53157102Y-29835791D01*
X53157099Y-29835787D01*
X53157099Y-29835786D01*
X53031599Y-29656553D01*
X53031596Y-29656550D01*
X52876877Y-29501831D01*
X52738978Y-29405273D01*
X52697638Y-29376326D01*
X52583285Y-29323003D01*
X52499330Y-29283854D01*
X52499326Y-29283853D01*
X52499322Y-29283851D01*
X52287977Y-29227222D01*
X52070002Y-29208152D01*
X52069998Y-29208152D01*
X51924682Y-29220865D01*
X51852023Y-29227222D01*
X51852020Y-29227222D01*
X51640677Y-29283851D01*
X51640668Y-29283855D01*
X51442361Y-29376327D01*
X51442357Y-29376329D01*
X51263121Y-29501831D01*
X51108402Y-29656550D01*
X50982900Y-29835786D01*
X50982898Y-29835790D01*
X50912382Y-29987012D01*
X50866209Y-30039451D01*
X50799016Y-30058603D01*
X50732135Y-30038387D01*
X50687618Y-29987012D01*
X50673118Y-29955917D01*
X50617102Y-29835791D01*
X50617099Y-29835787D01*
X50617099Y-29835786D01*
X50491599Y-29656553D01*
X50491596Y-29656550D01*
X50336877Y-29501831D01*
X50198978Y-29405273D01*
X50157638Y-29376326D01*
X50043285Y-29323003D01*
X49959330Y-29283854D01*
X49959326Y-29283853D01*
X49959322Y-29283851D01*
X49747977Y-29227222D01*
X49530002Y-29208152D01*
X49529998Y-29208152D01*
X49384682Y-29220865D01*
X49312023Y-29227222D01*
X49312020Y-29227222D01*
X49100677Y-29283851D01*
X49100668Y-29283855D01*
X48902361Y-29376327D01*
X48902357Y-29376329D01*
X48723121Y-29501831D01*
X48568402Y-29656550D01*
X48442900Y-29835786D01*
X48442900Y-29835787D01*
X48442898Y-29835790D01*
X48442898Y-29835791D01*
X48430197Y-29863026D01*
X48372105Y-29987605D01*
X48325932Y-30040044D01*
X48258738Y-30059195D01*
X48191857Y-30038979D01*
X48147341Y-29987603D01*
X48076669Y-29836046D01*
X48033123Y-29773857D01*
X47473076Y-30333904D01*
X47449493Y-30253585D01*
X47371761Y-30132631D01*
X47263100Y-30038477D01*
X47132315Y-29978749D01*
X47122534Y-29977342D01*
X47679572Y-29420304D01*
X47679571Y-29420302D01*
X47617391Y-29376764D01*
X47419159Y-29284327D01*
X47419150Y-29284323D01*
X47207894Y-29227718D01*
X47207884Y-29227716D01*
X46990001Y-29208654D01*
X46989999Y-29208654D01*
X46772115Y-29227716D01*
X46772105Y-29227718D01*
X46560849Y-29284323D01*
X46560840Y-29284327D01*
X46362614Y-29376761D01*
X46362612Y-29376762D01*
X46300428Y-29420304D01*
X46300427Y-29420304D01*
X46857466Y-29977342D01*
X46847685Y-29978749D01*
X46716900Y-30038477D01*
X46608239Y-30132631D01*
X46530507Y-30253585D01*
X46506923Y-30333904D01*
X45946875Y-29773856D01*
X45946875Y-29773857D01*
X45903333Y-29836041D01*
X45903332Y-29836043D01*
X45810898Y-30034269D01*
X45810894Y-30034278D01*
X45754289Y-30245534D01*
X45754287Y-30245544D01*
X45735225Y-30463428D01*
X45735225Y-30463429D01*
X39473141Y-30463429D01*
X46773818Y-26813091D01*
X46829272Y-26800000D01*
X52787722Y-26800000D01*
X52812040Y-26802408D01*
G37*
G04 #@! TD.AperFunction*
G04 #@! TA.AperFunction,Conductor*
G36*
X53158194Y-82413177D02*
G01*
X58129871Y-83407512D01*
X58161006Y-83418195D01*
X62142698Y-85409041D01*
X62149368Y-85412912D01*
X64142957Y-86741971D01*
X68130137Y-89400091D01*
X68158178Y-89425799D01*
X72096673Y-94348917D01*
X72134676Y-94396421D01*
X72152978Y-94427829D01*
X72401973Y-95050317D01*
X74141925Y-99400198D01*
X74148386Y-99421932D01*
X75143746Y-104398729D01*
X75146154Y-104423047D01*
X75146154Y-107400506D01*
X75144467Y-107420891D01*
X74149219Y-113392377D01*
X74137815Y-113427446D01*
X71152590Y-119397896D01*
X71136940Y-119421825D01*
X66161304Y-125392587D01*
X66125374Y-125422090D01*
X60149998Y-128677905D01*
X60142048Y-128681536D01*
X56788887Y-129935955D01*
X56719200Y-129941008D01*
X56657844Y-129907583D01*
X56624299Y-129846293D01*
X56629215Y-129776597D01*
X56657755Y-129732138D01*
X57177787Y-129212107D01*
X57190042Y-129202291D01*
X57189859Y-129202069D01*
X57195866Y-129197097D01*
X57195877Y-129197091D01*
X57226775Y-129164187D01*
X57243227Y-129146669D01*
X57253671Y-129136223D01*
X57264120Y-129125776D01*
X57268379Y-129120283D01*
X57272152Y-129115866D01*
X57304062Y-129081887D01*
X57313715Y-129064325D01*
X57324389Y-129048075D01*
X57336673Y-129032241D01*
X57355180Y-128989472D01*
X57357749Y-128984229D01*
X57380196Y-128943398D01*
X57380197Y-128943397D01*
X57385177Y-128923996D01*
X57391478Y-128905593D01*
X57399438Y-128887201D01*
X57406730Y-128841154D01*
X57407911Y-128835457D01*
X57419500Y-128790324D01*
X57419500Y-128770288D01*
X57421027Y-128750887D01*
X57424160Y-128731109D01*
X57419775Y-128684720D01*
X57419500Y-128678882D01*
X57419500Y-120910814D01*
X61837836Y-120910814D01*
X61868180Y-121264097D01*
X61868183Y-121264119D01*
X61938595Y-121611615D01*
X61938601Y-121611637D01*
X62048174Y-121948865D01*
X62195469Y-122271397D01*
X62195474Y-122271407D01*
X62378570Y-122575037D01*
X62378574Y-122575042D01*
X62378579Y-122575051D01*
X62378584Y-122575057D01*
X62595099Y-122855840D01*
X62595111Y-122855854D01*
X62803217Y-123069989D01*
X62842231Y-123110133D01*
X63116731Y-123334591D01*
X63116733Y-123334592D01*
X63415011Y-123526286D01*
X63415017Y-123526289D01*
X63415019Y-123526290D01*
X63415027Y-123526295D01*
X63733232Y-123682745D01*
X64067197Y-123801904D01*
X64412568Y-123882216D01*
X64699089Y-123915091D01*
X64764841Y-123922636D01*
X64764843Y-123922636D01*
X65030714Y-123922636D01*
X65119189Y-123917576D01*
X65296144Y-123907458D01*
X65645536Y-123846993D01*
X65985759Y-123747095D01*
X66312377Y-123609065D01*
X66621131Y-123434704D01*
X66907997Y-123226283D01*
X67169235Y-122986521D01*
X67401440Y-122718543D01*
X67601584Y-122425842D01*
X67767057Y-122112234D01*
X67895704Y-121781808D01*
X67940437Y-121611628D01*
X67974931Y-121480396D01*
X67985846Y-121438872D01*
X68036309Y-121087895D01*
X68046435Y-120733453D01*
X68016091Y-120380168D01*
X68016088Y-120380152D01*
X67945676Y-120032656D01*
X67945670Y-120032634D01*
X67890378Y-119862464D01*
X67836100Y-119695413D01*
X67761493Y-119532047D01*
X67688802Y-119372874D01*
X67688797Y-119372864D01*
X67505701Y-119069234D01*
X67505699Y-119069232D01*
X67505693Y-119069221D01*
X67402549Y-118935462D01*
X67289172Y-118788431D01*
X67289160Y-118788417D01*
X67042049Y-118534147D01*
X67042046Y-118534144D01*
X67042041Y-118534139D01*
X66767541Y-118309681D01*
X66751161Y-118299154D01*
X66469260Y-118117985D01*
X66469254Y-118117982D01*
X66469248Y-118117979D01*
X66469245Y-118117977D01*
X66151040Y-117961527D01*
X66151036Y-117961525D01*
X66151035Y-117961525D01*
X65817076Y-117842368D01*
X65520186Y-117773330D01*
X65471704Y-117762056D01*
X65354279Y-117748582D01*
X65119431Y-117721636D01*
X65119429Y-117721636D01*
X64853560Y-117721636D01*
X64853558Y-117721636D01*
X64588131Y-117736813D01*
X64238744Y-117797277D01*
X64238727Y-117797281D01*
X63929968Y-117887941D01*
X63898513Y-117897177D01*
X63661009Y-117997547D01*
X63571902Y-118035204D01*
X63571897Y-118035206D01*
X63263141Y-118209567D01*
X63263138Y-118209569D01*
X62976274Y-118417989D01*
X62715037Y-118657751D01*
X62715036Y-118657752D01*
X62482831Y-118925729D01*
X62282691Y-119218424D01*
X62282684Y-119218435D01*
X62117221Y-119532025D01*
X62117211Y-119532047D01*
X61988565Y-119862469D01*
X61898426Y-120205396D01*
X61847964Y-120556369D01*
X61847962Y-120556389D01*
X61837836Y-120910807D01*
X61837836Y-120910814D01*
X57419500Y-120910814D01*
X57419500Y-115035112D01*
X57439185Y-114968073D01*
X57491989Y-114922318D01*
X57561147Y-114912374D01*
X57575590Y-114915336D01*
X57763308Y-114965635D01*
X57925230Y-114979801D01*
X57989998Y-114985468D01*
X57990000Y-114985468D01*
X57990002Y-114985468D01*
X58046807Y-114980498D01*
X58216692Y-114965635D01*
X58436496Y-114906739D01*
X58642734Y-114810568D01*
X58829139Y-114680047D01*
X58981316Y-114527870D01*
X64309500Y-114527870D01*
X64309501Y-114527876D01*
X64315908Y-114587483D01*
X64366202Y-114722328D01*
X64366206Y-114722335D01*
X64452452Y-114837544D01*
X64452455Y-114837547D01*
X64567664Y-114923793D01*
X64567671Y-114923797D01*
X64702517Y-114974091D01*
X64702516Y-114974091D01*
X64709444Y-114974835D01*
X64762127Y-114980500D01*
X66457872Y-114980499D01*
X66517483Y-114974091D01*
X66652331Y-114923796D01*
X66767546Y-114837546D01*
X66853796Y-114722331D01*
X66904091Y-114587483D01*
X66910500Y-114527873D01*
X66910499Y-112832128D01*
X66904091Y-112772517D01*
X66869567Y-112679954D01*
X66853797Y-112637671D01*
X66853793Y-112637664D01*
X66767547Y-112522455D01*
X66767544Y-112522452D01*
X66652335Y-112436206D01*
X66652328Y-112436202D01*
X66517482Y-112385908D01*
X66517483Y-112385908D01*
X66457883Y-112379501D01*
X66457881Y-112379500D01*
X66457873Y-112379500D01*
X66457864Y-112379500D01*
X64762129Y-112379500D01*
X64762123Y-112379501D01*
X64702516Y-112385908D01*
X64567671Y-112436202D01*
X64567664Y-112436206D01*
X64452455Y-112522452D01*
X64452452Y-112522455D01*
X64366206Y-112637664D01*
X64366202Y-112637671D01*
X64315908Y-112772517D01*
X64309501Y-112832116D01*
X64309501Y-112832123D01*
X64309500Y-112832135D01*
X64309500Y-114527870D01*
X58981316Y-114527870D01*
X58990047Y-114519139D01*
X59120568Y-114332734D01*
X59216739Y-114126496D01*
X59275635Y-113906692D01*
X59295468Y-113680000D01*
X59275635Y-113453308D01*
X59216739Y-113233504D01*
X59120568Y-113027266D01*
X58990047Y-112840861D01*
X58990045Y-112840858D01*
X58829141Y-112679954D01*
X58642734Y-112549432D01*
X58642732Y-112549431D01*
X58436497Y-112453261D01*
X58436488Y-112453258D01*
X58216697Y-112394366D01*
X58216693Y-112394365D01*
X58216692Y-112394365D01*
X58216691Y-112394364D01*
X58216686Y-112394364D01*
X57990002Y-112374532D01*
X57989998Y-112374532D01*
X57763313Y-112394364D01*
X57763302Y-112394366D01*
X57575593Y-112444662D01*
X57505743Y-112442999D01*
X57447881Y-112403836D01*
X57420377Y-112339607D01*
X57419500Y-112324887D01*
X57419500Y-110376452D01*
X57439185Y-110309413D01*
X57455819Y-110288771D01*
X57603940Y-110140650D01*
X57765179Y-109979410D01*
X57826500Y-109945927D01*
X57884947Y-109947317D01*
X57953308Y-109965635D01*
X58110780Y-109979412D01*
X58179998Y-109985468D01*
X58180000Y-109985468D01*
X58180002Y-109985468D01*
X58249220Y-109979412D01*
X58406692Y-109965635D01*
X58626496Y-109906739D01*
X58832734Y-109810568D01*
X59019139Y-109680047D01*
X59171316Y-109527870D01*
X64499500Y-109527870D01*
X64499501Y-109527876D01*
X64505908Y-109587483D01*
X64556202Y-109722328D01*
X64556206Y-109722335D01*
X64642452Y-109837544D01*
X64642455Y-109837547D01*
X64757664Y-109923793D01*
X64757671Y-109923797D01*
X64892517Y-109974091D01*
X64892516Y-109974091D01*
X64894935Y-109974351D01*
X64952127Y-109980500D01*
X66647872Y-109980499D01*
X66707483Y-109974091D01*
X66842331Y-109923796D01*
X66957546Y-109837546D01*
X67043796Y-109722331D01*
X67094091Y-109587483D01*
X67100500Y-109527873D01*
X67100499Y-107832128D01*
X67094091Y-107772517D01*
X67059567Y-107679954D01*
X67043797Y-107637671D01*
X67043793Y-107637664D01*
X66957547Y-107522455D01*
X66957544Y-107522452D01*
X66842335Y-107436206D01*
X66842328Y-107436202D01*
X66707482Y-107385908D01*
X66707483Y-107385908D01*
X66647883Y-107379501D01*
X66647881Y-107379500D01*
X66647873Y-107379500D01*
X66647864Y-107379500D01*
X64952129Y-107379500D01*
X64952123Y-107379501D01*
X64892516Y-107385908D01*
X64757671Y-107436202D01*
X64757664Y-107436206D01*
X64642455Y-107522452D01*
X64642452Y-107522455D01*
X64556206Y-107637664D01*
X64556202Y-107637671D01*
X64505908Y-107772517D01*
X64499501Y-107832116D01*
X64499501Y-107832123D01*
X64499500Y-107832135D01*
X64499500Y-109527870D01*
X59171316Y-109527870D01*
X59180047Y-109519139D01*
X59310568Y-109332734D01*
X59406739Y-109126496D01*
X59465635Y-108906692D01*
X59485468Y-108680000D01*
X59481430Y-108633851D01*
X59465635Y-108453313D01*
X59465635Y-108453308D01*
X59406739Y-108233504D01*
X59310568Y-108027266D01*
X59180047Y-107840861D01*
X59180045Y-107840858D01*
X59019141Y-107679954D01*
X58832734Y-107549432D01*
X58832732Y-107549431D01*
X58626497Y-107453261D01*
X58626488Y-107453258D01*
X58406697Y-107394366D01*
X58406693Y-107394365D01*
X58406692Y-107394365D01*
X58406691Y-107394364D01*
X58406686Y-107394364D01*
X58180002Y-107374532D01*
X58179998Y-107374532D01*
X57953313Y-107394364D01*
X57953302Y-107394366D01*
X57733511Y-107453258D01*
X57733502Y-107453261D01*
X57527267Y-107549431D01*
X57527265Y-107549432D01*
X57340858Y-107679954D01*
X57179954Y-107840858D01*
X57049432Y-108027265D01*
X57049431Y-108027267D01*
X56953261Y-108233502D01*
X56953258Y-108233511D01*
X56894366Y-108453302D01*
X56894364Y-108453313D01*
X56874923Y-108675531D01*
X56874532Y-108680000D01*
X56894364Y-108906686D01*
X56894365Y-108906691D01*
X56894366Y-108906697D01*
X56912680Y-108975048D01*
X56911017Y-109044897D01*
X56880586Y-109094821D01*
X56410208Y-109565199D01*
X56397951Y-109575020D01*
X56398134Y-109575241D01*
X56392123Y-109580213D01*
X56344772Y-109630636D01*
X56323889Y-109651519D01*
X56323877Y-109651532D01*
X56319621Y-109657017D01*
X56315837Y-109661447D01*
X56283937Y-109695418D01*
X56283936Y-109695420D01*
X56274284Y-109712976D01*
X56263610Y-109729226D01*
X56251329Y-109745061D01*
X56251324Y-109745068D01*
X56232815Y-109787838D01*
X56230245Y-109793084D01*
X56207803Y-109833906D01*
X56202822Y-109853307D01*
X56196521Y-109871710D01*
X56188562Y-109890102D01*
X56188561Y-109890105D01*
X56181271Y-109936127D01*
X56180087Y-109941846D01*
X56168501Y-109986972D01*
X56168500Y-109986982D01*
X56168500Y-110007016D01*
X56166973Y-110026415D01*
X56163840Y-110046194D01*
X56163840Y-110046195D01*
X56168225Y-110092583D01*
X56168500Y-110098421D01*
X56168500Y-122463078D01*
X56148815Y-122530117D01*
X56096011Y-122575872D01*
X56026853Y-122585816D01*
X55963297Y-122556791D01*
X55952350Y-122546050D01*
X55875870Y-122461111D01*
X55722734Y-122349851D01*
X55722729Y-122349848D01*
X55549807Y-122272857D01*
X55549802Y-122272855D01*
X55374055Y-122235500D01*
X55364646Y-122233500D01*
X55175354Y-122233500D01*
X55165945Y-122235500D01*
X54990197Y-122272855D01*
X54990192Y-122272857D01*
X54817270Y-122349848D01*
X54817265Y-122349851D01*
X54664129Y-122461111D01*
X54537466Y-122601785D01*
X54442821Y-122765715D01*
X54442818Y-122765722D01*
X54413533Y-122855854D01*
X54384326Y-122945744D01*
X54373906Y-123044885D01*
X54368348Y-123097767D01*
X54341763Y-123162381D01*
X54284466Y-123202366D01*
X54277123Y-123204579D01*
X54180669Y-123230425D01*
X53982361Y-123322898D01*
X53982357Y-123322900D01*
X53803121Y-123448402D01*
X53648402Y-123603121D01*
X53522900Y-123782357D01*
X53522898Y-123782361D01*
X53452382Y-123933583D01*
X53406209Y-123986022D01*
X53339016Y-124005174D01*
X53272135Y-123984958D01*
X53227618Y-123933583D01*
X53192941Y-123859218D01*
X53157102Y-123782362D01*
X53157100Y-123782359D01*
X53157099Y-123782357D01*
X53031599Y-123603124D01*
X52954761Y-123526286D01*
X52876877Y-123448402D01*
X52714340Y-123334592D01*
X52697638Y-123322897D01*
X52586468Y-123271058D01*
X52499330Y-123230425D01*
X52499326Y-123230424D01*
X52499322Y-123230422D01*
X52287977Y-123173793D01*
X52070002Y-123154723D01*
X52069998Y-123154723D01*
X51924682Y-123167436D01*
X51852023Y-123173793D01*
X51852020Y-123173793D01*
X51640677Y-123230422D01*
X51640670Y-123230424D01*
X51640670Y-123230425D01*
X51550441Y-123272500D01*
X51468626Y-123310651D01*
X51399548Y-123321143D01*
X51335764Y-123292623D01*
X51328540Y-123285950D01*
X50315447Y-122272857D01*
X49268803Y-121226212D01*
X49258980Y-121213950D01*
X49258759Y-121214134D01*
X49253786Y-121208123D01*
X49203364Y-121160773D01*
X49192919Y-121150328D01*
X49182475Y-121139883D01*
X49176986Y-121135625D01*
X49172561Y-121131847D01*
X49138582Y-121099938D01*
X49138580Y-121099936D01*
X49138577Y-121099935D01*
X49121029Y-121090288D01*
X49104763Y-121079604D01*
X49088933Y-121067325D01*
X49046168Y-121048818D01*
X49040922Y-121046248D01*
X49000093Y-121023803D01*
X49000092Y-121023802D01*
X48980693Y-121018822D01*
X48962281Y-121012518D01*
X48943898Y-121004562D01*
X48943892Y-121004560D01*
X48897874Y-120997272D01*
X48892152Y-120996087D01*
X48847021Y-120984500D01*
X48847019Y-120984500D01*
X48826984Y-120984500D01*
X48807586Y-120982973D01*
X48800162Y-120981797D01*
X48787805Y-120979840D01*
X48787804Y-120979840D01*
X48741416Y-120984225D01*
X48735578Y-120984500D01*
X43065500Y-120984500D01*
X42998461Y-120964815D01*
X42952706Y-120912011D01*
X42941500Y-120860500D01*
X42941500Y-119152742D01*
X42943224Y-119137122D01*
X42942939Y-119137095D01*
X42943673Y-119129333D01*
X42941500Y-119060172D01*
X42941500Y-119030656D01*
X42941500Y-119030650D01*
X42940631Y-119023779D01*
X42940173Y-119017952D01*
X42938710Y-118971373D01*
X42933119Y-118952130D01*
X42929173Y-118933078D01*
X42926664Y-118913208D01*
X42909504Y-118869867D01*
X42907624Y-118864379D01*
X42894618Y-118819610D01*
X42884422Y-118802370D01*
X42875861Y-118784894D01*
X42868487Y-118766270D01*
X42865238Y-118761798D01*
X42841079Y-118728545D01*
X42837888Y-118723686D01*
X42814172Y-118683583D01*
X42814165Y-118683574D01*
X42800006Y-118669415D01*
X42787368Y-118654619D01*
X42775594Y-118638413D01*
X42739688Y-118608709D01*
X42735376Y-118604786D01*
X42608460Y-118477870D01*
X43234500Y-118477870D01*
X43234501Y-118477876D01*
X43240908Y-118537483D01*
X43291202Y-118672328D01*
X43291206Y-118672335D01*
X43377452Y-118787544D01*
X43377455Y-118787547D01*
X43492664Y-118873793D01*
X43492671Y-118873797D01*
X43627517Y-118924091D01*
X43627516Y-118924091D01*
X43634444Y-118924835D01*
X43687127Y-118930500D01*
X44832872Y-118930499D01*
X44892483Y-118924091D01*
X45027331Y-118873796D01*
X45027335Y-118873792D01*
X45035118Y-118869544D01*
X45036252Y-118871621D01*
X45089715Y-118851671D01*
X45134576Y-118856694D01*
X45135656Y-118857021D01*
X45135659Y-118857023D01*
X45328967Y-118915662D01*
X45530000Y-118935462D01*
X45731033Y-118915662D01*
X45924341Y-118857023D01*
X45994343Y-118819606D01*
X46107078Y-118759348D01*
X46175480Y-118745106D01*
X46223985Y-118759348D01*
X46405848Y-118856557D01*
X46550000Y-118900285D01*
X46550000Y-118014270D01*
X46550299Y-118008190D01*
X46553073Y-117980019D01*
X46554629Y-117964220D01*
X46619052Y-118014363D01*
X46737424Y-118055000D01*
X46831073Y-118055000D01*
X46923446Y-118039586D01*
X47033514Y-117980019D01*
X47050000Y-117962110D01*
X47050000Y-118900285D01*
X47194153Y-118856557D01*
X47372209Y-118761384D01*
X47372215Y-118761379D01*
X47528292Y-118633292D01*
X47656379Y-118477215D01*
X47656384Y-118477209D01*
X47751556Y-118299154D01*
X47810170Y-118105932D01*
X47825000Y-117955357D01*
X47825000Y-117930000D01*
X47079560Y-117930000D01*
X47118278Y-117887941D01*
X47168551Y-117773330D01*
X47178886Y-117648605D01*
X47148163Y-117527281D01*
X47084606Y-117430000D01*
X47825000Y-117430000D01*
X47825000Y-117404642D01*
X47810170Y-117254067D01*
X47751556Y-117060845D01*
X47656384Y-116882790D01*
X47656379Y-116882784D01*
X47528292Y-116726707D01*
X47372215Y-116598620D01*
X47372209Y-116598615D01*
X47194150Y-116503441D01*
X47050000Y-116459712D01*
X47050000Y-117399382D01*
X46980948Y-117345637D01*
X46862576Y-117305000D01*
X46768927Y-117305000D01*
X46676554Y-117320414D01*
X46566486Y-117379981D01*
X46554369Y-117393142D01*
X46550862Y-117357525D01*
X46550299Y-117351808D01*
X46550000Y-117345728D01*
X46550000Y-116459712D01*
X46405849Y-116503441D01*
X46223983Y-116600651D01*
X46155580Y-116614893D01*
X46107077Y-116600651D01*
X45924345Y-116502978D01*
X45731031Y-116444337D01*
X45530000Y-116424538D01*
X45328968Y-116444337D01*
X45190959Y-116486202D01*
X45135659Y-116502977D01*
X45135658Y-116502977D01*
X45134575Y-116503306D01*
X45064708Y-116503929D01*
X45035618Y-116489529D01*
X45035114Y-116490454D01*
X45027328Y-116486202D01*
X44966167Y-116463391D01*
X44910233Y-116421520D01*
X44885816Y-116356056D01*
X44885500Y-116347209D01*
X44885500Y-104736452D01*
X44905185Y-104669413D01*
X44921819Y-104648771D01*
X48847765Y-100722825D01*
X52887821Y-96682768D01*
X52949142Y-96649285D01*
X53018834Y-96654269D01*
X53074767Y-96696141D01*
X53099184Y-96761605D01*
X53099500Y-96770451D01*
X53099500Y-98727870D01*
X53099501Y-98727876D01*
X53105908Y-98787483D01*
X53156202Y-98922328D01*
X53156206Y-98922335D01*
X53242452Y-99037544D01*
X53242455Y-99037547D01*
X53357664Y-99123793D01*
X53357671Y-99123797D01*
X53492517Y-99174091D01*
X53492516Y-99174091D01*
X53499444Y-99174835D01*
X53552127Y-99180500D01*
X55647872Y-99180499D01*
X55707483Y-99174091D01*
X55842331Y-99123796D01*
X55957546Y-99037546D01*
X56043796Y-98922331D01*
X56094091Y-98787483D01*
X56100500Y-98727873D01*
X56100499Y-96632128D01*
X56094091Y-96572517D01*
X56050778Y-96456390D01*
X56043797Y-96437671D01*
X56043793Y-96437664D01*
X55957547Y-96322455D01*
X55957544Y-96322452D01*
X55842335Y-96236206D01*
X55842328Y-96236202D01*
X55707482Y-96185908D01*
X55707483Y-96185908D01*
X55647883Y-96179501D01*
X55647881Y-96179500D01*
X55647873Y-96179500D01*
X55647865Y-96179500D01*
X53690451Y-96179500D01*
X53623412Y-96159815D01*
X53577657Y-96107011D01*
X53567713Y-96037853D01*
X53596738Y-95974297D01*
X53602756Y-95967833D01*
X54993788Y-94576801D01*
X55006042Y-94566986D01*
X55005859Y-94566764D01*
X55011866Y-94561792D01*
X55011877Y-94561786D01*
X55042775Y-94528882D01*
X55059227Y-94511364D01*
X55069671Y-94500918D01*
X55080120Y-94490471D01*
X55084379Y-94484978D01*
X55088152Y-94480561D01*
X55120062Y-94446582D01*
X55129713Y-94429024D01*
X55140396Y-94412761D01*
X55152673Y-94396936D01*
X55171185Y-94354153D01*
X55173738Y-94348941D01*
X55196197Y-94308092D01*
X55201180Y-94288680D01*
X55207481Y-94270280D01*
X55215437Y-94251896D01*
X55222729Y-94205852D01*
X55223906Y-94200171D01*
X55235500Y-94155019D01*
X55235500Y-94134983D01*
X55237027Y-94115582D01*
X55240160Y-94095804D01*
X55235775Y-94049415D01*
X55235500Y-94043577D01*
X55235500Y-92626542D01*
X61837836Y-92626542D01*
X61868180Y-92979825D01*
X61868183Y-92979847D01*
X61938595Y-93327343D01*
X61938601Y-93327365D01*
X62048174Y-93664593D01*
X62195469Y-93987125D01*
X62195474Y-93987135D01*
X62378570Y-94290765D01*
X62378574Y-94290770D01*
X62378579Y-94290779D01*
X62391932Y-94308095D01*
X62595099Y-94571568D01*
X62595111Y-94571582D01*
X62842222Y-94825852D01*
X62842231Y-94825861D01*
X63116731Y-95050319D01*
X63116733Y-95050320D01*
X63415011Y-95242014D01*
X63415017Y-95242017D01*
X63415019Y-95242018D01*
X63415027Y-95242023D01*
X63733232Y-95398473D01*
X64067197Y-95517632D01*
X64412568Y-95597944D01*
X64699089Y-95630819D01*
X64764841Y-95638364D01*
X64764843Y-95638364D01*
X65030714Y-95638364D01*
X65119189Y-95633304D01*
X65296144Y-95623186D01*
X65645536Y-95562721D01*
X65985759Y-95462823D01*
X66312377Y-95324793D01*
X66621131Y-95150432D01*
X66907997Y-94942011D01*
X67169235Y-94702249D01*
X67401440Y-94434271D01*
X67601584Y-94141570D01*
X67767057Y-93827962D01*
X67895704Y-93497536D01*
X67915424Y-93422516D01*
X67985845Y-93154603D01*
X67985846Y-93154600D01*
X68036309Y-92803623D01*
X68046435Y-92449181D01*
X68016091Y-92095896D01*
X68016088Y-92095880D01*
X67945676Y-91748384D01*
X67945670Y-91748362D01*
X67890378Y-91578192D01*
X67836100Y-91411141D01*
X67761493Y-91247775D01*
X67688802Y-91088602D01*
X67688797Y-91088592D01*
X67505701Y-90784962D01*
X67505699Y-90784960D01*
X67505693Y-90784949D01*
X67395044Y-90641457D01*
X67289172Y-90504159D01*
X67289160Y-90504145D01*
X67042049Y-90249875D01*
X67042046Y-90249872D01*
X67042041Y-90249867D01*
X66767541Y-90025409D01*
X66767538Y-90025407D01*
X66469260Y-89833713D01*
X66469254Y-89833710D01*
X66469248Y-89833707D01*
X66469245Y-89833705D01*
X66151040Y-89677255D01*
X66151036Y-89677253D01*
X66151035Y-89677253D01*
X65817076Y-89558096D01*
X65623167Y-89513005D01*
X65471704Y-89477784D01*
X65354279Y-89464310D01*
X65119431Y-89437364D01*
X65119429Y-89437364D01*
X64853560Y-89437364D01*
X64853558Y-89437364D01*
X64588131Y-89452541D01*
X64238744Y-89513005D01*
X64238727Y-89513009D01*
X63898516Y-89612904D01*
X63898513Y-89612905D01*
X63746243Y-89677255D01*
X63571902Y-89750932D01*
X63571897Y-89750934D01*
X63263141Y-89925295D01*
X63263138Y-89925297D01*
X62976274Y-90133717D01*
X62715037Y-90373479D01*
X62715036Y-90373480D01*
X62482831Y-90641457D01*
X62282691Y-90934152D01*
X62282684Y-90934163D01*
X62117221Y-91247753D01*
X62117211Y-91247775D01*
X61988565Y-91578197D01*
X61898426Y-91921124D01*
X61847964Y-92272097D01*
X61847962Y-92272117D01*
X61837836Y-92626535D01*
X61837836Y-92626542D01*
X55235500Y-92626542D01*
X55235500Y-87833149D01*
X55255185Y-87766110D01*
X55288374Y-87731576D01*
X55416877Y-87641598D01*
X55571598Y-87486877D01*
X55697102Y-87307639D01*
X55789575Y-87109330D01*
X55846207Y-86897977D01*
X55865277Y-86680000D01*
X55846207Y-86462023D01*
X55789575Y-86250670D01*
X55697102Y-86052362D01*
X55697100Y-86052359D01*
X55697099Y-86052357D01*
X55571599Y-85873124D01*
X55571596Y-85873121D01*
X55416877Y-85718402D01*
X55237639Y-85592898D01*
X55237640Y-85592898D01*
X55237638Y-85592897D01*
X55138484Y-85546661D01*
X55039330Y-85500425D01*
X55039326Y-85500424D01*
X55039322Y-85500422D01*
X54827977Y-85443793D01*
X54610002Y-85424723D01*
X54609998Y-85424723D01*
X54464682Y-85437436D01*
X54392023Y-85443793D01*
X54392020Y-85443793D01*
X54180677Y-85500422D01*
X54180668Y-85500426D01*
X53982361Y-85592898D01*
X53982357Y-85592900D01*
X53803121Y-85718402D01*
X53648402Y-85873121D01*
X53522900Y-86052357D01*
X53522898Y-86052361D01*
X53452382Y-86203583D01*
X53406209Y-86256022D01*
X53339016Y-86275174D01*
X53272135Y-86254958D01*
X53227618Y-86203583D01*
X53185398Y-86113043D01*
X53157102Y-86052362D01*
X53157100Y-86052359D01*
X53157099Y-86052357D01*
X53031599Y-85873124D01*
X53031596Y-85873121D01*
X52876877Y-85718402D01*
X52697639Y-85592898D01*
X52697640Y-85592898D01*
X52697638Y-85592897D01*
X52598484Y-85546661D01*
X52499330Y-85500425D01*
X52499326Y-85500424D01*
X52499322Y-85500422D01*
X52287977Y-85443793D01*
X52070002Y-85424723D01*
X52069998Y-85424723D01*
X51924682Y-85437436D01*
X51852023Y-85443793D01*
X51852020Y-85443793D01*
X51640677Y-85500422D01*
X51640668Y-85500426D01*
X51442361Y-85592898D01*
X51442357Y-85592900D01*
X51263121Y-85718402D01*
X51108402Y-85873121D01*
X50982900Y-86052357D01*
X50982898Y-86052361D01*
X50912382Y-86203583D01*
X50866209Y-86256022D01*
X50799016Y-86275174D01*
X50732135Y-86254958D01*
X50687618Y-86203583D01*
X50645398Y-86113043D01*
X50617102Y-86052362D01*
X50617100Y-86052359D01*
X50617099Y-86052357D01*
X50491599Y-85873124D01*
X50491596Y-85873121D01*
X50336877Y-85718402D01*
X50157639Y-85592898D01*
X50157640Y-85592898D01*
X50157638Y-85592897D01*
X50058484Y-85546661D01*
X49959330Y-85500425D01*
X49959326Y-85500424D01*
X49959322Y-85500422D01*
X49747977Y-85443793D01*
X49530002Y-85424723D01*
X49529998Y-85424723D01*
X49384682Y-85437436D01*
X49312023Y-85443793D01*
X49312020Y-85443793D01*
X49100677Y-85500422D01*
X49100668Y-85500426D01*
X48902361Y-85592898D01*
X48902357Y-85592900D01*
X48723121Y-85718402D01*
X48568402Y-85873121D01*
X48442900Y-86052357D01*
X48442898Y-86052361D01*
X48372382Y-86203583D01*
X48326209Y-86256022D01*
X48259016Y-86275174D01*
X48192135Y-86254958D01*
X48147618Y-86203583D01*
X48105398Y-86113043D01*
X48077102Y-86052362D01*
X48077100Y-86052359D01*
X48077099Y-86052357D01*
X47951599Y-85873124D01*
X47951596Y-85873121D01*
X47796877Y-85718402D01*
X47617639Y-85592898D01*
X47617640Y-85592898D01*
X47617638Y-85592897D01*
X47518484Y-85546661D01*
X47419330Y-85500425D01*
X47419326Y-85500424D01*
X47419322Y-85500422D01*
X47207977Y-85443793D01*
X46990002Y-85424723D01*
X46989998Y-85424723D01*
X46844682Y-85437436D01*
X46772023Y-85443793D01*
X46772020Y-85443793D01*
X46560677Y-85500422D01*
X46560668Y-85500426D01*
X46362361Y-85592898D01*
X46362357Y-85592900D01*
X46183121Y-85718402D01*
X46028402Y-85873121D01*
X45902900Y-86052357D01*
X45902898Y-86052361D01*
X45810426Y-86250668D01*
X45810422Y-86250677D01*
X45753793Y-86462020D01*
X45753793Y-86462024D01*
X45734723Y-86679997D01*
X45734723Y-86680002D01*
X45753793Y-86897975D01*
X45753793Y-86897979D01*
X45810422Y-87109322D01*
X45810424Y-87109326D01*
X45810425Y-87109330D01*
X45832382Y-87156416D01*
X45902897Y-87307638D01*
X45902898Y-87307639D01*
X46028402Y-87486877D01*
X46183123Y-87641598D01*
X46362361Y-87767102D01*
X46560670Y-87859575D01*
X46772023Y-87916207D01*
X46954926Y-87932208D01*
X46989998Y-87935277D01*
X46990000Y-87935277D01*
X46990002Y-87935277D01*
X47018254Y-87932805D01*
X47207977Y-87916207D01*
X47419330Y-87859575D01*
X47617639Y-87767102D01*
X47796877Y-87641598D01*
X47951598Y-87486877D01*
X48077102Y-87307639D01*
X48147618Y-87156414D01*
X48193790Y-87103977D01*
X48260984Y-87084825D01*
X48327865Y-87105041D01*
X48372381Y-87156414D01*
X48442898Y-87307639D01*
X48568402Y-87486877D01*
X48723123Y-87641598D01*
X48902361Y-87767102D01*
X49100670Y-87859575D01*
X49312023Y-87916207D01*
X49494926Y-87932208D01*
X49529998Y-87935277D01*
X49530000Y-87935277D01*
X49530002Y-87935277D01*
X49558254Y-87932805D01*
X49747977Y-87916207D01*
X49959330Y-87859575D01*
X50157639Y-87767102D01*
X50336877Y-87641598D01*
X50491598Y-87486877D01*
X50617102Y-87307639D01*
X50687618Y-87156414D01*
X50733790Y-87103977D01*
X50800984Y-87084825D01*
X50867865Y-87105041D01*
X50912381Y-87156414D01*
X50982898Y-87307639D01*
X51108402Y-87486877D01*
X51263123Y-87641598D01*
X51442361Y-87767102D01*
X51640670Y-87859575D01*
X51852023Y-87916207D01*
X52034926Y-87932208D01*
X52069998Y-87935277D01*
X52070000Y-87935277D01*
X52070002Y-87935277D01*
X52098254Y-87932805D01*
X52287977Y-87916207D01*
X52499330Y-87859575D01*
X52697639Y-87767102D01*
X52876877Y-87641598D01*
X53031598Y-87486877D01*
X53157102Y-87307639D01*
X53227618Y-87156414D01*
X53273790Y-87103977D01*
X53340984Y-87084825D01*
X53407865Y-87105041D01*
X53452381Y-87156414D01*
X53522898Y-87307639D01*
X53648402Y-87486877D01*
X53803123Y-87641598D01*
X53931624Y-87731575D01*
X53975248Y-87786151D01*
X53984500Y-87833149D01*
X53984500Y-93765546D01*
X53964815Y-93832585D01*
X53948181Y-93853227D01*
X43876208Y-103925199D01*
X43863951Y-103935020D01*
X43864134Y-103935241D01*
X43858123Y-103940213D01*
X43810772Y-103990636D01*
X43789889Y-104011519D01*
X43789877Y-104011532D01*
X43785621Y-104017017D01*
X43781837Y-104021447D01*
X43749937Y-104055418D01*
X43749936Y-104055420D01*
X43740284Y-104072976D01*
X43729610Y-104089226D01*
X43717329Y-104105061D01*
X43717324Y-104105068D01*
X43698815Y-104147838D01*
X43696245Y-104153084D01*
X43673803Y-104193906D01*
X43668822Y-104213307D01*
X43662521Y-104231710D01*
X43654562Y-104250102D01*
X43654561Y-104250105D01*
X43647271Y-104296127D01*
X43646087Y-104301846D01*
X43634501Y-104346972D01*
X43634500Y-104346982D01*
X43634500Y-104367016D01*
X43632973Y-104386415D01*
X43629840Y-104406194D01*
X43629840Y-104406195D01*
X43634225Y-104452583D01*
X43634500Y-104458421D01*
X43634500Y-116347209D01*
X43614815Y-116414248D01*
X43562011Y-116460003D01*
X43553833Y-116463391D01*
X43492671Y-116486202D01*
X43492664Y-116486206D01*
X43377455Y-116572452D01*
X43377452Y-116572455D01*
X43291206Y-116687664D01*
X43291202Y-116687671D01*
X43240908Y-116822517D01*
X43234501Y-116882116D01*
X43234500Y-116882135D01*
X43234500Y-118477870D01*
X42608460Y-118477870D01*
X42215819Y-118085228D01*
X42182334Y-118023905D01*
X42179500Y-117997547D01*
X42179500Y-110262742D01*
X42181224Y-110247122D01*
X42180939Y-110247095D01*
X42181673Y-110239333D01*
X42179500Y-110170172D01*
X42179500Y-110140656D01*
X42179500Y-110140650D01*
X42178631Y-110133779D01*
X42178173Y-110127952D01*
X42176710Y-110081373D01*
X42171119Y-110062130D01*
X42167173Y-110043078D01*
X42164664Y-110023208D01*
X42147504Y-109979867D01*
X42145624Y-109974379D01*
X42132618Y-109929610D01*
X42122422Y-109912370D01*
X42113861Y-109894894D01*
X42106487Y-109876270D01*
X42103174Y-109871710D01*
X42079079Y-109838545D01*
X42075888Y-109833686D01*
X42052172Y-109793583D01*
X42052165Y-109793574D01*
X42038006Y-109779415D01*
X42025368Y-109764619D01*
X42013594Y-109748413D01*
X41982062Y-109722328D01*
X41977688Y-109718709D01*
X41973376Y-109714786D01*
X41292803Y-109034212D01*
X41282980Y-109021950D01*
X41282759Y-109022134D01*
X41277786Y-109016123D01*
X41227364Y-108968773D01*
X41216919Y-108958328D01*
X41206475Y-108947883D01*
X41200986Y-108943625D01*
X41196561Y-108939847D01*
X41162582Y-108907938D01*
X41162580Y-108907936D01*
X41162577Y-108907935D01*
X41145029Y-108898288D01*
X41128763Y-108887604D01*
X41112933Y-108875325D01*
X41070168Y-108856818D01*
X41064922Y-108854248D01*
X41024093Y-108831803D01*
X41024092Y-108831802D01*
X41004693Y-108826822D01*
X40986281Y-108820518D01*
X40967898Y-108812562D01*
X40967892Y-108812560D01*
X40921874Y-108805272D01*
X40916152Y-108804087D01*
X40871021Y-108792500D01*
X40871019Y-108792500D01*
X40850984Y-108792500D01*
X40831586Y-108790973D01*
X40824162Y-108789797D01*
X40811805Y-108787840D01*
X40811804Y-108787840D01*
X40765416Y-108792225D01*
X40759578Y-108792500D01*
X39717748Y-108792500D01*
X39650709Y-108772815D01*
X39625600Y-108751474D01*
X39619873Y-108745114D01*
X39619869Y-108745110D01*
X39466734Y-108633851D01*
X39466729Y-108633848D01*
X39293807Y-108556857D01*
X39293802Y-108556855D01*
X39148001Y-108525865D01*
X39108646Y-108517500D01*
X38919354Y-108517500D01*
X38886897Y-108524398D01*
X38734197Y-108556855D01*
X38734192Y-108556857D01*
X38561270Y-108633848D01*
X38561265Y-108633851D01*
X38408129Y-108745111D01*
X38281466Y-108885785D01*
X38186821Y-109049715D01*
X38186818Y-109049722D01*
X38128327Y-109229740D01*
X38128326Y-109229744D01*
X38108540Y-109418000D01*
X38128326Y-109606256D01*
X38128327Y-109606259D01*
X38186818Y-109786277D01*
X38186821Y-109786284D01*
X38281467Y-109950216D01*
X38373799Y-110052761D01*
X38408129Y-110090888D01*
X38561265Y-110202148D01*
X38561270Y-110202151D01*
X38734192Y-110279142D01*
X38734197Y-110279144D01*
X38919354Y-110318500D01*
X38919355Y-110318500D01*
X39108644Y-110318500D01*
X39108646Y-110318500D01*
X39293803Y-110279144D01*
X39466730Y-110202151D01*
X39619871Y-110090888D01*
X39622788Y-110087647D01*
X39625600Y-110084526D01*
X39685087Y-110047879D01*
X39717748Y-110043500D01*
X40481548Y-110043500D01*
X40548587Y-110063185D01*
X40569229Y-110079819D01*
X40892181Y-110402771D01*
X40925666Y-110464094D01*
X40928500Y-110490452D01*
X40928500Y-118225255D01*
X40926775Y-118240872D01*
X40927061Y-118240899D01*
X40926326Y-118248665D01*
X40928500Y-118317814D01*
X40928500Y-118347343D01*
X40928501Y-118347360D01*
X40929368Y-118354231D01*
X40929826Y-118360050D01*
X40931290Y-118406624D01*
X40931291Y-118406627D01*
X40936880Y-118425867D01*
X40940824Y-118444911D01*
X40943336Y-118464792D01*
X40948365Y-118477494D01*
X40960490Y-118508119D01*
X40962382Y-118513647D01*
X40975381Y-118558388D01*
X40985580Y-118575634D01*
X40994138Y-118593103D01*
X41001514Y-118611732D01*
X41028898Y-118649423D01*
X41032106Y-118654307D01*
X41055827Y-118694416D01*
X41055833Y-118694424D01*
X41069990Y-118708580D01*
X41082627Y-118723375D01*
X41094406Y-118739587D01*
X41120754Y-118761384D01*
X41130309Y-118769288D01*
X41134620Y-118773210D01*
X41421581Y-119060171D01*
X41654181Y-119292771D01*
X41687666Y-119354094D01*
X41690500Y-119380452D01*
X41690500Y-121347500D01*
X41670815Y-121414539D01*
X41618011Y-121460294D01*
X41566500Y-121471500D01*
X41459354Y-121471500D01*
X41426897Y-121478398D01*
X41274197Y-121510855D01*
X41274192Y-121510857D01*
X41101270Y-121587848D01*
X41101265Y-121587851D01*
X40948129Y-121699111D01*
X40821466Y-121839785D01*
X40726821Y-122003715D01*
X40726818Y-122003722D01*
X40691564Y-122112224D01*
X40668326Y-122183744D01*
X40648540Y-122372000D01*
X40668326Y-122560256D01*
X40668327Y-122560259D01*
X40726818Y-122740277D01*
X40726821Y-122740284D01*
X40821467Y-122904216D01*
X40923185Y-123017185D01*
X40948129Y-123044888D01*
X41101265Y-123156148D01*
X41101270Y-123156151D01*
X41274192Y-123233142D01*
X41274197Y-123233144D01*
X41459354Y-123272500D01*
X41459355Y-123272500D01*
X41648644Y-123272500D01*
X41648646Y-123272500D01*
X41833803Y-123233144D01*
X42006730Y-123156151D01*
X42159871Y-123044888D01*
X42162788Y-123041647D01*
X42165600Y-123038526D01*
X42225087Y-123001879D01*
X42257748Y-122997500D01*
X46500852Y-122997500D01*
X46567891Y-123017185D01*
X46613646Y-123069989D01*
X46623590Y-123139147D01*
X46594565Y-123202703D01*
X46553257Y-123233881D01*
X46487664Y-123264468D01*
X46362361Y-123322898D01*
X46362357Y-123322900D01*
X46183121Y-123448402D01*
X46028402Y-123603121D01*
X45902900Y-123782357D01*
X45902898Y-123782361D01*
X45810426Y-123980668D01*
X45810422Y-123980677D01*
X45753793Y-124192020D01*
X45753793Y-124192024D01*
X45734723Y-124409997D01*
X45734723Y-124410002D01*
X45753793Y-124627975D01*
X45753793Y-124627979D01*
X45810422Y-124839322D01*
X45810424Y-124839326D01*
X45810425Y-124839330D01*
X45832382Y-124886416D01*
X45902897Y-125037638D01*
X45902898Y-125037639D01*
X46028402Y-125216877D01*
X46183123Y-125371598D01*
X46352400Y-125490127D01*
X46362361Y-125497102D01*
X46514175Y-125567894D01*
X46566614Y-125614066D01*
X46585766Y-125681260D01*
X46565550Y-125748141D01*
X46514175Y-125792658D01*
X46362614Y-125863332D01*
X46362612Y-125863333D01*
X46300428Y-125906875D01*
X46300427Y-125906875D01*
X46857466Y-126463913D01*
X46847685Y-126465320D01*
X46716900Y-126525048D01*
X46608239Y-126619202D01*
X46530507Y-126740156D01*
X46506923Y-126820475D01*
X45946875Y-126260427D01*
X45946875Y-126260428D01*
X45903333Y-126322612D01*
X45903332Y-126322614D01*
X45810898Y-126520840D01*
X45810894Y-126520849D01*
X45754289Y-126732105D01*
X45754287Y-126732115D01*
X45735225Y-126949999D01*
X45735225Y-126950000D01*
X45754287Y-127167884D01*
X45754289Y-127167894D01*
X45810894Y-127379150D01*
X45810898Y-127379159D01*
X45903335Y-127577391D01*
X45946873Y-127639571D01*
X45946875Y-127639572D01*
X46506923Y-127079523D01*
X46530507Y-127159844D01*
X46608239Y-127280798D01*
X46716900Y-127374952D01*
X46847685Y-127434680D01*
X46857466Y-127436086D01*
X46300426Y-127993124D01*
X46362611Y-128036666D01*
X46362613Y-128036667D01*
X46560840Y-128129101D01*
X46560849Y-128129105D01*
X46772105Y-128185710D01*
X46772115Y-128185712D01*
X46989999Y-128204775D01*
X46990001Y-128204775D01*
X47207884Y-128185712D01*
X47207894Y-128185710D01*
X47419150Y-128129105D01*
X47419159Y-128129101D01*
X47617387Y-128036666D01*
X47679572Y-127993124D01*
X47122534Y-127436086D01*
X47132315Y-127434680D01*
X47263100Y-127374952D01*
X47371761Y-127280798D01*
X47449493Y-127159844D01*
X47473076Y-127079524D01*
X48033124Y-127639572D01*
X48076667Y-127577386D01*
X48076668Y-127577384D01*
X48147341Y-127425825D01*
X48193513Y-127373385D01*
X48260706Y-127354233D01*
X48327587Y-127374448D01*
X48372105Y-127425824D01*
X48442897Y-127577638D01*
X48442898Y-127577639D01*
X48568402Y-127756877D01*
X48723123Y-127911598D01*
X48851624Y-128001575D01*
X48895248Y-128056151D01*
X48904500Y-128103149D01*
X48904500Y-129045255D01*
X48902775Y-129060872D01*
X48903061Y-129060899D01*
X48902326Y-129068665D01*
X48904500Y-129137814D01*
X48904500Y-129167343D01*
X48904501Y-129167360D01*
X48905368Y-129174231D01*
X48905826Y-129180050D01*
X48907290Y-129226624D01*
X48907291Y-129226627D01*
X48912880Y-129245867D01*
X48916824Y-129264911D01*
X48919336Y-129284792D01*
X48936490Y-129328119D01*
X48938382Y-129333647D01*
X48951381Y-129378388D01*
X48961580Y-129395634D01*
X48970138Y-129413103D01*
X48977514Y-129431732D01*
X49004898Y-129469423D01*
X49008106Y-129474307D01*
X49031827Y-129514416D01*
X49031833Y-129514424D01*
X49045990Y-129528580D01*
X49058628Y-129543376D01*
X49070405Y-129559586D01*
X49070406Y-129559587D01*
X49106309Y-129589288D01*
X49110620Y-129593210D01*
X49466746Y-129949337D01*
X49581197Y-130063788D01*
X49598206Y-130085016D01*
X49599890Y-130087669D01*
X49619198Y-130154818D01*
X49599137Y-130221746D01*
X49546077Y-130267204D01*
X49476864Y-130276759D01*
X49470882Y-130275714D01*
X45157317Y-129413001D01*
X45135583Y-129406540D01*
X40160024Y-127416317D01*
X40134002Y-127402089D01*
X35007089Y-123740008D01*
X34963979Y-123685024D01*
X34957438Y-123615461D01*
X34989544Y-123553405D01*
X35050104Y-123518558D01*
X35119889Y-123521984D01*
X35133867Y-123527825D01*
X35448960Y-123682745D01*
X35782925Y-123801904D01*
X36128296Y-123882216D01*
X36414817Y-123915091D01*
X36480569Y-123922636D01*
X36480571Y-123922636D01*
X36746442Y-123922636D01*
X36834917Y-123917576D01*
X37011872Y-123907458D01*
X37361264Y-123846993D01*
X37701487Y-123747095D01*
X38028105Y-123609065D01*
X38336859Y-123434704D01*
X38623725Y-123226283D01*
X38884963Y-122986521D01*
X39117168Y-122718543D01*
X39317312Y-122425842D01*
X39482785Y-122112234D01*
X39611432Y-121781808D01*
X39656165Y-121611628D01*
X39690659Y-121480396D01*
X39701574Y-121438872D01*
X39752037Y-121087895D01*
X39762163Y-120733453D01*
X39731819Y-120380168D01*
X39731816Y-120380152D01*
X39661404Y-120032656D01*
X39661398Y-120032634D01*
X39606106Y-119862464D01*
X39551828Y-119695413D01*
X39477221Y-119532047D01*
X39404530Y-119372874D01*
X39404525Y-119372864D01*
X39221429Y-119069234D01*
X39221427Y-119069232D01*
X39221421Y-119069221D01*
X39118277Y-118935462D01*
X39004900Y-118788431D01*
X39004888Y-118788417D01*
X38757777Y-118534147D01*
X38757774Y-118534144D01*
X38757769Y-118534139D01*
X38483269Y-118309681D01*
X38466889Y-118299154D01*
X38184988Y-118117985D01*
X38184982Y-118117982D01*
X38184976Y-118117979D01*
X38184973Y-118117977D01*
X37866768Y-117961527D01*
X37866764Y-117961525D01*
X37866763Y-117961525D01*
X37532804Y-117842368D01*
X37235914Y-117773330D01*
X37187432Y-117762056D01*
X37070007Y-117748582D01*
X36835159Y-117721636D01*
X36835157Y-117721636D01*
X36569288Y-117721636D01*
X36569286Y-117721636D01*
X36303859Y-117736813D01*
X35954472Y-117797277D01*
X35954455Y-117797281D01*
X35645696Y-117887941D01*
X35614241Y-117897177D01*
X35376737Y-117997547D01*
X35287630Y-118035204D01*
X35287625Y-118035206D01*
X34978869Y-118209567D01*
X34978866Y-118209569D01*
X34692002Y-118417989D01*
X34430765Y-118657751D01*
X34430764Y-118657752D01*
X34198559Y-118925729D01*
X33998419Y-119218424D01*
X33998412Y-119218435D01*
X33832949Y-119532025D01*
X33832939Y-119532047D01*
X33704293Y-119862469D01*
X33614154Y-120205396D01*
X33563692Y-120556369D01*
X33563690Y-120556389D01*
X33553564Y-120910807D01*
X33553564Y-120910814D01*
X33583908Y-121264097D01*
X33583911Y-121264119D01*
X33654323Y-121611615D01*
X33654329Y-121611637D01*
X33763902Y-121948865D01*
X33911197Y-122271397D01*
X33911202Y-122271407D01*
X34094298Y-122575037D01*
X34094302Y-122575042D01*
X34094307Y-122575051D01*
X34094312Y-122575057D01*
X34310827Y-122855840D01*
X34310839Y-122855854D01*
X34518945Y-123069989D01*
X34557959Y-123110133D01*
X34602667Y-123146691D01*
X34642105Y-123204365D01*
X34644100Y-123274206D01*
X34608020Y-123334039D01*
X34545320Y-123364868D01*
X34475905Y-123356904D01*
X34452101Y-123343587D01*
X33164647Y-122423978D01*
X33133548Y-122391860D01*
X29808722Y-117404621D01*
X29156891Y-116426874D01*
X29140836Y-116392156D01*
X27150925Y-109427467D01*
X27146154Y-109393402D01*
X27146154Y-104423047D01*
X27148562Y-104398729D01*
X28142897Y-99427052D01*
X28153580Y-99395916D01*
X28261289Y-99180499D01*
X29011536Y-97680005D01*
X45494859Y-97680005D01*
X45515385Y-97927729D01*
X45515387Y-97927738D01*
X45576412Y-98168717D01*
X45676266Y-98396364D01*
X45776564Y-98549882D01*
X46516923Y-97809523D01*
X46540507Y-97889844D01*
X46618239Y-98010798D01*
X46726900Y-98104952D01*
X46857685Y-98164680D01*
X46867466Y-98166086D01*
X46129942Y-98903609D01*
X46176768Y-98940055D01*
X46176770Y-98940056D01*
X46395385Y-99058364D01*
X46395396Y-99058369D01*
X46630506Y-99139083D01*
X46875707Y-99180000D01*
X47124293Y-99180000D01*
X47369493Y-99139083D01*
X47604603Y-99058369D01*
X47604614Y-99058364D01*
X47823228Y-98940057D01*
X47823231Y-98940055D01*
X47870056Y-98903609D01*
X47132533Y-98166086D01*
X47142315Y-98164680D01*
X47273100Y-98104952D01*
X47381761Y-98010798D01*
X47459493Y-97889844D01*
X47483076Y-97809524D01*
X48223434Y-98549882D01*
X48323731Y-98396369D01*
X48423587Y-98168717D01*
X48484612Y-97927738D01*
X48484614Y-97927729D01*
X48505141Y-97680005D01*
X48505141Y-97679994D01*
X48484614Y-97432270D01*
X48484612Y-97432261D01*
X48423587Y-97191282D01*
X48323731Y-96963630D01*
X48223434Y-96810116D01*
X47483076Y-97550475D01*
X47459493Y-97470156D01*
X47381761Y-97349202D01*
X47273100Y-97255048D01*
X47142315Y-97195320D01*
X47132534Y-97193913D01*
X47870057Y-96456390D01*
X47870056Y-96456389D01*
X47823229Y-96419943D01*
X47604614Y-96301635D01*
X47604603Y-96301630D01*
X47369493Y-96220916D01*
X47124293Y-96180000D01*
X46875707Y-96180000D01*
X46630506Y-96220916D01*
X46395396Y-96301630D01*
X46395390Y-96301632D01*
X46176761Y-96419949D01*
X46129942Y-96456388D01*
X46129942Y-96456390D01*
X46867466Y-97193913D01*
X46857685Y-97195320D01*
X46726900Y-97255048D01*
X46618239Y-97349202D01*
X46540507Y-97470156D01*
X46516923Y-97550475D01*
X45776564Y-96810116D01*
X45676267Y-96963632D01*
X45576412Y-97191282D01*
X45515387Y-97432261D01*
X45515385Y-97432270D01*
X45494859Y-97679994D01*
X45494859Y-97680005D01*
X29011536Y-97680005D01*
X31140280Y-93422516D01*
X31154356Y-93400515D01*
X31773534Y-92626542D01*
X33553564Y-92626542D01*
X33583908Y-92979825D01*
X33583911Y-92979847D01*
X33654323Y-93327343D01*
X33654329Y-93327365D01*
X33763902Y-93664593D01*
X33911197Y-93987125D01*
X33911202Y-93987135D01*
X34094298Y-94290765D01*
X34094302Y-94290770D01*
X34094307Y-94290779D01*
X34107660Y-94308095D01*
X34310827Y-94571568D01*
X34310839Y-94571582D01*
X34557950Y-94825852D01*
X34557959Y-94825861D01*
X34832459Y-95050319D01*
X34832461Y-95050320D01*
X35130739Y-95242014D01*
X35130745Y-95242017D01*
X35130747Y-95242018D01*
X35130755Y-95242023D01*
X35448960Y-95398473D01*
X35782925Y-95517632D01*
X36128296Y-95597944D01*
X36414817Y-95630819D01*
X36480569Y-95638364D01*
X36480571Y-95638364D01*
X36746442Y-95638364D01*
X36834917Y-95633304D01*
X37011872Y-95623186D01*
X37361264Y-95562721D01*
X37701487Y-95462823D01*
X38028105Y-95324793D01*
X38336859Y-95150432D01*
X38623725Y-94942011D01*
X38884963Y-94702249D01*
X39117168Y-94434271D01*
X39317312Y-94141570D01*
X39482785Y-93827962D01*
X39611432Y-93497536D01*
X39631152Y-93422516D01*
X39701573Y-93154603D01*
X39701574Y-93154600D01*
X39752037Y-92803623D01*
X39762163Y-92449181D01*
X39731819Y-92095896D01*
X39731816Y-92095880D01*
X39661404Y-91748384D01*
X39661398Y-91748362D01*
X39606106Y-91578192D01*
X39551828Y-91411141D01*
X39477221Y-91247775D01*
X39404530Y-91088602D01*
X39404525Y-91088592D01*
X39221429Y-90784962D01*
X39221427Y-90784960D01*
X39221421Y-90784949D01*
X39110772Y-90641457D01*
X39004900Y-90504159D01*
X39004888Y-90504145D01*
X38757777Y-90249875D01*
X38757774Y-90249872D01*
X38757769Y-90249867D01*
X38483269Y-90025409D01*
X38483266Y-90025407D01*
X38184988Y-89833713D01*
X38184982Y-89833710D01*
X38184976Y-89833707D01*
X38184973Y-89833705D01*
X37866768Y-89677255D01*
X37866764Y-89677253D01*
X37866763Y-89677253D01*
X37532804Y-89558096D01*
X37338895Y-89513005D01*
X37187432Y-89477784D01*
X37070007Y-89464310D01*
X36835159Y-89437364D01*
X36835157Y-89437364D01*
X36569288Y-89437364D01*
X36569286Y-89437364D01*
X36303859Y-89452541D01*
X35954472Y-89513005D01*
X35954455Y-89513009D01*
X35614244Y-89612904D01*
X35614241Y-89612905D01*
X35461971Y-89677255D01*
X35287630Y-89750932D01*
X35287625Y-89750934D01*
X34978869Y-89925295D01*
X34978866Y-89925297D01*
X34692002Y-90133717D01*
X34430765Y-90373479D01*
X34430764Y-90373480D01*
X34198559Y-90641457D01*
X33998419Y-90934152D01*
X33998412Y-90934163D01*
X33832949Y-91247753D01*
X33832939Y-91247775D01*
X33704293Y-91578197D01*
X33614154Y-91921124D01*
X33563692Y-92272097D01*
X33563690Y-92272117D01*
X33553564Y-92626535D01*
X33553564Y-92626542D01*
X31773534Y-92626542D01*
X35129143Y-88432032D01*
X35170510Y-88398590D01*
X47119972Y-82423860D01*
X47175426Y-82410769D01*
X53133876Y-82410769D01*
X53158194Y-82413177D01*
G37*
G04 #@! TD.AperFunction*
G04 #@! TA.AperFunction,Conductor*
G36*
X48327865Y-124835041D02*
G01*
X48372381Y-124886414D01*
X48442898Y-125037639D01*
X48568402Y-125216877D01*
X48723123Y-125371598D01*
X48892400Y-125490127D01*
X48902361Y-125497102D01*
X49053583Y-125567618D01*
X49106022Y-125613790D01*
X49125174Y-125680984D01*
X49104958Y-125747865D01*
X49053583Y-125792382D01*
X48902361Y-125862898D01*
X48902357Y-125862900D01*
X48723121Y-125988402D01*
X48568402Y-126143121D01*
X48442900Y-126322357D01*
X48442900Y-126322358D01*
X48442898Y-126322361D01*
X48442898Y-126322362D01*
X48442779Y-126322617D01*
X48372105Y-126474176D01*
X48325932Y-126526615D01*
X48258738Y-126545766D01*
X48191857Y-126525550D01*
X48147341Y-126474174D01*
X48076669Y-126322617D01*
X48033123Y-126260428D01*
X47473076Y-126820475D01*
X47449493Y-126740156D01*
X47371761Y-126619202D01*
X47263100Y-126525048D01*
X47132315Y-126465320D01*
X47122534Y-126463913D01*
X47679572Y-125906875D01*
X47679571Y-125906873D01*
X47617391Y-125863335D01*
X47465824Y-125792658D01*
X47413385Y-125746486D01*
X47394233Y-125679292D01*
X47414449Y-125612411D01*
X47465822Y-125567895D01*
X47617639Y-125497102D01*
X47796877Y-125371598D01*
X47951598Y-125216877D01*
X48077102Y-125037639D01*
X48147618Y-124886414D01*
X48193790Y-124833977D01*
X48260984Y-124814825D01*
X48327865Y-124835041D01*
G37*
G04 #@! TD.AperFunction*
G04 #@! TA.AperFunction,Conductor*
G36*
X109038194Y-82413177D02*
G01*
X114009871Y-83407512D01*
X114041006Y-83418195D01*
X118022698Y-85409041D01*
X118029368Y-85412912D01*
X120022957Y-86741971D01*
X124010137Y-89400091D01*
X124038178Y-89425799D01*
X127559901Y-93827952D01*
X128014676Y-94396421D01*
X128032978Y-94427829D01*
X128281973Y-95050317D01*
X130021925Y-99400198D01*
X130028386Y-99421932D01*
X131023746Y-104398729D01*
X131026154Y-104423047D01*
X131026154Y-107400506D01*
X131024467Y-107420891D01*
X130029219Y-113392377D01*
X130017815Y-113427446D01*
X127032590Y-119397896D01*
X127016940Y-119421825D01*
X122042759Y-125390843D01*
X122002954Y-125422369D01*
X116038330Y-128404681D01*
X116012950Y-128414070D01*
X108040962Y-130407067D01*
X108010888Y-130410769D01*
X106038432Y-130410769D01*
X106014114Y-130408361D01*
X101037317Y-129413001D01*
X101015583Y-129406540D01*
X99199232Y-128680000D01*
X104154723Y-128680000D01*
X104173081Y-128889844D01*
X104173793Y-128897975D01*
X104173793Y-128897979D01*
X104230422Y-129109322D01*
X104230424Y-129109326D01*
X104230425Y-129109330D01*
X104252106Y-129155824D01*
X104322897Y-129307638D01*
X104322898Y-129307639D01*
X104448402Y-129486877D01*
X104603123Y-129641598D01*
X104782361Y-129767102D01*
X104980670Y-129859575D01*
X105192023Y-129916207D01*
X105374926Y-129932208D01*
X105409998Y-129935277D01*
X105410000Y-129935277D01*
X105410002Y-129935277D01*
X105438254Y-129932805D01*
X105627977Y-129916207D01*
X105839330Y-129859575D01*
X106037639Y-129767102D01*
X106216877Y-129641598D01*
X106371598Y-129486877D01*
X106497102Y-129307639D01*
X106567895Y-129155822D01*
X106614066Y-129103385D01*
X106681260Y-129084233D01*
X106748141Y-129104449D01*
X106792658Y-129155824D01*
X106863335Y-129307391D01*
X106906873Y-129369571D01*
X106906875Y-129369572D01*
X107466923Y-128809523D01*
X107490507Y-128889844D01*
X107568239Y-129010798D01*
X107676900Y-129104952D01*
X107807685Y-129164680D01*
X107817466Y-129166086D01*
X107260426Y-129723124D01*
X107322611Y-129766666D01*
X107322613Y-129766667D01*
X107520840Y-129859101D01*
X107520849Y-129859105D01*
X107732105Y-129915710D01*
X107732115Y-129915712D01*
X107949999Y-129934775D01*
X107950001Y-129934775D01*
X108167884Y-129915712D01*
X108167894Y-129915710D01*
X108379150Y-129859105D01*
X108379159Y-129859101D01*
X108577387Y-129766666D01*
X108639572Y-129723124D01*
X108082534Y-129166086D01*
X108092315Y-129164680D01*
X108223100Y-129104952D01*
X108331761Y-129010798D01*
X108409493Y-128889844D01*
X108433076Y-128809524D01*
X108993124Y-129369572D01*
X109036666Y-129307387D01*
X109129101Y-129109159D01*
X109129105Y-129109150D01*
X109185710Y-128897894D01*
X109185712Y-128897884D01*
X109204775Y-128680000D01*
X109204775Y-128679999D01*
X109185712Y-128462115D01*
X109185710Y-128462105D01*
X109129105Y-128250849D01*
X109129101Y-128250840D01*
X109036668Y-128052615D01*
X108993123Y-127990428D01*
X108433076Y-128550475D01*
X108409493Y-128470156D01*
X108331761Y-128349202D01*
X108223100Y-128255048D01*
X108092315Y-128195320D01*
X108082534Y-128193913D01*
X108639572Y-127636875D01*
X108639571Y-127636873D01*
X108577391Y-127593335D01*
X108379159Y-127500898D01*
X108379150Y-127500894D01*
X108167894Y-127444289D01*
X108167884Y-127444287D01*
X107950001Y-127425225D01*
X107949999Y-127425225D01*
X107732115Y-127444287D01*
X107732105Y-127444289D01*
X107520849Y-127500894D01*
X107520840Y-127500898D01*
X107322614Y-127593332D01*
X107322612Y-127593333D01*
X107260428Y-127636875D01*
X107260427Y-127636875D01*
X107817466Y-128193913D01*
X107807685Y-128195320D01*
X107676900Y-128255048D01*
X107568239Y-128349202D01*
X107490507Y-128470156D01*
X107466923Y-128550475D01*
X106906875Y-127990427D01*
X106906875Y-127990428D01*
X106863333Y-128052612D01*
X106863332Y-128052614D01*
X106792658Y-128204175D01*
X106746485Y-128256614D01*
X106679292Y-128275766D01*
X106612411Y-128255550D01*
X106567894Y-128204175D01*
X106545894Y-128156997D01*
X106497102Y-128052362D01*
X106497100Y-128052359D01*
X106497099Y-128052357D01*
X106371599Y-127873124D01*
X106308468Y-127809993D01*
X106216877Y-127718402D01*
X106078978Y-127621844D01*
X106037638Y-127592897D01*
X105938484Y-127546661D01*
X105839330Y-127500425D01*
X105839326Y-127500424D01*
X105839322Y-127500422D01*
X105627977Y-127443793D01*
X105410002Y-127424723D01*
X105409998Y-127424723D01*
X105264682Y-127437436D01*
X105192023Y-127443793D01*
X105192020Y-127443793D01*
X104980677Y-127500422D01*
X104980668Y-127500426D01*
X104782361Y-127592898D01*
X104782357Y-127592900D01*
X104603121Y-127718402D01*
X104448402Y-127873121D01*
X104322900Y-128052357D01*
X104322898Y-128052361D01*
X104230426Y-128250668D01*
X104230422Y-128250677D01*
X104173793Y-128462020D01*
X104173793Y-128462023D01*
X104169025Y-128516517D01*
X104158322Y-128638867D01*
X104154723Y-128680000D01*
X99199232Y-128680000D01*
X96040024Y-127416317D01*
X96014002Y-127402089D01*
X90887089Y-123740008D01*
X90843979Y-123685024D01*
X90837438Y-123615461D01*
X90869544Y-123553405D01*
X90930104Y-123518558D01*
X90999889Y-123521984D01*
X91013867Y-123527825D01*
X91328960Y-123682745D01*
X91662925Y-123801904D01*
X92008296Y-123882216D01*
X92294817Y-123915091D01*
X92360569Y-123922636D01*
X92360571Y-123922636D01*
X92626442Y-123922636D01*
X92714917Y-123917576D01*
X92891872Y-123907458D01*
X93241264Y-123846993D01*
X93581487Y-123747095D01*
X93908105Y-123609065D01*
X94216859Y-123434704D01*
X94503725Y-123226283D01*
X94764963Y-122986521D01*
X94997168Y-122718543D01*
X95197312Y-122425842D01*
X95362785Y-122112234D01*
X95491432Y-121781808D01*
X95536165Y-121611628D01*
X95581573Y-121438875D01*
X95581574Y-121438872D01*
X95632037Y-121087895D01*
X95637096Y-120910814D01*
X117717836Y-120910814D01*
X117748180Y-121264097D01*
X117748183Y-121264119D01*
X117818595Y-121611615D01*
X117818601Y-121611637D01*
X117928174Y-121948865D01*
X118075469Y-122271397D01*
X118075474Y-122271407D01*
X118258570Y-122575037D01*
X118258574Y-122575042D01*
X118258579Y-122575051D01*
X118258584Y-122575057D01*
X118475099Y-122855840D01*
X118475111Y-122855854D01*
X118722222Y-123110124D01*
X118722231Y-123110133D01*
X118996731Y-123334591D01*
X118996733Y-123334592D01*
X119295011Y-123526286D01*
X119295017Y-123526289D01*
X119295019Y-123526290D01*
X119295027Y-123526295D01*
X119613232Y-123682745D01*
X119947197Y-123801904D01*
X120292568Y-123882216D01*
X120579089Y-123915091D01*
X120644841Y-123922636D01*
X120644843Y-123922636D01*
X120910714Y-123922636D01*
X120999189Y-123917576D01*
X121176144Y-123907458D01*
X121525536Y-123846993D01*
X121865759Y-123747095D01*
X122192377Y-123609065D01*
X122501131Y-123434704D01*
X122787997Y-123226283D01*
X123049235Y-122986521D01*
X123281440Y-122718543D01*
X123481584Y-122425842D01*
X123647057Y-122112234D01*
X123775704Y-121781808D01*
X123820437Y-121611628D01*
X123865845Y-121438875D01*
X123865846Y-121438872D01*
X123916309Y-121087895D01*
X123926435Y-120733453D01*
X123896091Y-120380168D01*
X123896088Y-120380152D01*
X123825676Y-120032656D01*
X123825670Y-120032634D01*
X123770378Y-119862464D01*
X123716100Y-119695413D01*
X123641493Y-119532047D01*
X123568802Y-119372874D01*
X123568797Y-119372864D01*
X123385701Y-119069234D01*
X123385699Y-119069232D01*
X123385693Y-119069221D01*
X123275044Y-118925729D01*
X123169172Y-118788431D01*
X123169160Y-118788417D01*
X122922049Y-118534147D01*
X122922046Y-118534144D01*
X122922041Y-118534139D01*
X122647541Y-118309681D01*
X122647538Y-118309679D01*
X122349260Y-118117985D01*
X122349254Y-118117982D01*
X122349248Y-118117979D01*
X122349245Y-118117977D01*
X122031040Y-117961527D01*
X122031036Y-117961525D01*
X122031035Y-117961525D01*
X121697076Y-117842368D01*
X121503167Y-117797277D01*
X121351704Y-117762056D01*
X121234279Y-117748582D01*
X120999431Y-117721636D01*
X120999429Y-117721636D01*
X120733560Y-117721636D01*
X120733558Y-117721636D01*
X120468131Y-117736813D01*
X120118744Y-117797277D01*
X120118727Y-117797281D01*
X119778516Y-117897176D01*
X119778513Y-117897177D01*
X119626243Y-117961527D01*
X119451902Y-118035204D01*
X119451897Y-118035206D01*
X119143141Y-118209567D01*
X119143138Y-118209569D01*
X118856274Y-118417989D01*
X118595037Y-118657751D01*
X118595036Y-118657752D01*
X118362831Y-118925729D01*
X118162691Y-119218424D01*
X118162684Y-119218435D01*
X117997221Y-119532025D01*
X117997211Y-119532047D01*
X117868565Y-119862469D01*
X117778426Y-120205396D01*
X117727964Y-120556369D01*
X117727962Y-120556389D01*
X117717836Y-120910807D01*
X117717836Y-120910814D01*
X95637096Y-120910814D01*
X95642163Y-120733453D01*
X95611819Y-120380168D01*
X95611816Y-120380152D01*
X95541404Y-120032656D01*
X95541398Y-120032634D01*
X95486106Y-119862464D01*
X95431828Y-119695413D01*
X95357221Y-119532047D01*
X95284530Y-119372874D01*
X95284525Y-119372864D01*
X95101429Y-119069234D01*
X95101427Y-119069232D01*
X95101421Y-119069221D01*
X94990772Y-118925729D01*
X94884900Y-118788431D01*
X94884888Y-118788417D01*
X94637777Y-118534147D01*
X94637774Y-118534144D01*
X94637769Y-118534139D01*
X94363269Y-118309681D01*
X94363266Y-118309679D01*
X94064988Y-118117985D01*
X94064982Y-118117982D01*
X94064976Y-118117979D01*
X94064973Y-118117977D01*
X93746768Y-117961527D01*
X93746764Y-117961525D01*
X93746763Y-117961525D01*
X93412804Y-117842368D01*
X93218895Y-117797277D01*
X93067432Y-117762056D01*
X92950007Y-117748582D01*
X92715159Y-117721636D01*
X92715157Y-117721636D01*
X92449288Y-117721636D01*
X92449286Y-117721636D01*
X92183859Y-117736813D01*
X91834472Y-117797277D01*
X91834455Y-117797281D01*
X91494244Y-117897176D01*
X91494241Y-117897177D01*
X91341971Y-117961527D01*
X91167630Y-118035204D01*
X91167625Y-118035206D01*
X90858869Y-118209567D01*
X90858866Y-118209569D01*
X90572002Y-118417989D01*
X90310765Y-118657751D01*
X90310764Y-118657752D01*
X90078559Y-118925729D01*
X89878419Y-119218424D01*
X89878412Y-119218435D01*
X89712949Y-119532025D01*
X89712939Y-119532047D01*
X89584293Y-119862469D01*
X89494154Y-120205396D01*
X89443692Y-120556369D01*
X89443690Y-120556389D01*
X89433564Y-120910807D01*
X89433564Y-120910814D01*
X89463908Y-121264097D01*
X89463911Y-121264119D01*
X89534323Y-121611615D01*
X89534329Y-121611637D01*
X89643902Y-121948865D01*
X89791197Y-122271397D01*
X89791202Y-122271407D01*
X89974298Y-122575037D01*
X89974302Y-122575042D01*
X89974307Y-122575051D01*
X89974312Y-122575057D01*
X90190827Y-122855840D01*
X90190839Y-122855854D01*
X90437950Y-123110124D01*
X90437959Y-123110133D01*
X90482667Y-123146691D01*
X90522105Y-123204365D01*
X90524100Y-123274206D01*
X90488020Y-123334039D01*
X90425320Y-123364868D01*
X90355905Y-123356904D01*
X90332101Y-123343587D01*
X89044647Y-122423978D01*
X89013548Y-122391860D01*
X85036891Y-116426874D01*
X85020836Y-116392156D01*
X83030925Y-109427467D01*
X83026154Y-109393402D01*
X83026154Y-105410002D01*
X87424723Y-105410002D01*
X87443793Y-105627975D01*
X87443793Y-105627979D01*
X87500422Y-105839322D01*
X87500424Y-105839326D01*
X87500425Y-105839330D01*
X87546661Y-105938484D01*
X87592897Y-106037638D01*
X87592898Y-106037639D01*
X87718402Y-106216877D01*
X87873123Y-106371598D01*
X88052360Y-106497101D01*
X88052361Y-106497102D01*
X88204175Y-106567894D01*
X88256614Y-106614066D01*
X88275766Y-106681260D01*
X88255550Y-106748141D01*
X88204175Y-106792658D01*
X88052614Y-106863332D01*
X88052612Y-106863333D01*
X87990428Y-106906875D01*
X87990427Y-106906875D01*
X88547466Y-107463913D01*
X88537685Y-107465320D01*
X88406900Y-107525048D01*
X88298239Y-107619202D01*
X88220507Y-107740156D01*
X88196923Y-107820475D01*
X87636875Y-107260427D01*
X87636875Y-107260428D01*
X87593333Y-107322612D01*
X87593332Y-107322614D01*
X87500898Y-107520840D01*
X87500894Y-107520849D01*
X87444289Y-107732105D01*
X87444287Y-107732115D01*
X87425225Y-107949999D01*
X87425225Y-107950000D01*
X87444287Y-108167884D01*
X87444289Y-108167894D01*
X87500894Y-108379150D01*
X87500898Y-108379159D01*
X87593335Y-108577391D01*
X87636873Y-108639571D01*
X87636875Y-108639572D01*
X88196923Y-108079523D01*
X88220507Y-108159844D01*
X88298239Y-108280798D01*
X88406900Y-108374952D01*
X88537685Y-108434680D01*
X88547466Y-108436086D01*
X87990426Y-108993124D01*
X88052611Y-109036666D01*
X88052613Y-109036667D01*
X88250840Y-109129101D01*
X88250849Y-109129105D01*
X88462105Y-109185710D01*
X88462115Y-109185712D01*
X88679999Y-109204775D01*
X88680001Y-109204775D01*
X88897884Y-109185712D01*
X88897894Y-109185710D01*
X89109150Y-109129105D01*
X89109159Y-109129101D01*
X89307387Y-109036666D01*
X89369572Y-108993124D01*
X88812534Y-108436086D01*
X88822315Y-108434680D01*
X88953100Y-108374952D01*
X89061761Y-108280798D01*
X89139493Y-108159844D01*
X89163076Y-108079524D01*
X89723124Y-108639572D01*
X89766666Y-108577387D01*
X89859101Y-108379159D01*
X89859105Y-108379150D01*
X89915710Y-108167894D01*
X89915712Y-108167884D01*
X89934775Y-107950000D01*
X89934775Y-107949999D01*
X89915712Y-107732115D01*
X89915710Y-107732105D01*
X89859105Y-107520849D01*
X89859101Y-107520840D01*
X89766668Y-107322615D01*
X89723123Y-107260428D01*
X89163076Y-107820475D01*
X89139493Y-107740156D01*
X89061761Y-107619202D01*
X88953100Y-107525048D01*
X88822315Y-107465320D01*
X88812534Y-107463913D01*
X89369572Y-106906875D01*
X89369571Y-106906873D01*
X89307391Y-106863335D01*
X89155824Y-106792658D01*
X89103385Y-106746486D01*
X89084233Y-106679292D01*
X89104449Y-106612411D01*
X89155822Y-106567895D01*
X89307639Y-106497102D01*
X89486877Y-106371598D01*
X89641598Y-106216877D01*
X89767102Y-106037639D01*
X89859575Y-105839330D01*
X89916207Y-105627977D01*
X89935277Y-105410000D01*
X89916207Y-105192023D01*
X89859575Y-104980670D01*
X89767102Y-104782362D01*
X89767100Y-104782359D01*
X89767099Y-104782357D01*
X89641599Y-104603124D01*
X89641596Y-104603121D01*
X89486877Y-104448402D01*
X89307639Y-104322898D01*
X89307640Y-104322898D01*
X89307638Y-104322897D01*
X89208484Y-104276661D01*
X89109330Y-104230425D01*
X89109326Y-104230424D01*
X89109322Y-104230422D01*
X88897977Y-104173793D01*
X88680002Y-104154723D01*
X88679998Y-104154723D01*
X88534682Y-104167436D01*
X88462023Y-104173793D01*
X88462020Y-104173793D01*
X88250677Y-104230422D01*
X88250668Y-104230426D01*
X88052361Y-104322898D01*
X88052357Y-104322900D01*
X87873121Y-104448402D01*
X87718402Y-104603121D01*
X87592900Y-104782357D01*
X87592898Y-104782361D01*
X87500426Y-104980668D01*
X87500422Y-104980677D01*
X87443793Y-105192020D01*
X87443793Y-105192024D01*
X87424723Y-105409997D01*
X87424723Y-105410002D01*
X83026154Y-105410002D01*
X83026154Y-104423047D01*
X83028562Y-104398729D01*
X84022897Y-99427052D01*
X84033580Y-99395916D01*
X85919946Y-95623186D01*
X87020280Y-93422516D01*
X87034356Y-93400515D01*
X87653534Y-92626542D01*
X89433564Y-92626542D01*
X89463908Y-92979825D01*
X89463911Y-92979847D01*
X89534323Y-93327343D01*
X89534329Y-93327365D01*
X89643902Y-93664593D01*
X89791197Y-93987125D01*
X89791202Y-93987135D01*
X89974298Y-94290765D01*
X89974302Y-94290770D01*
X89974307Y-94290779D01*
X89974312Y-94290785D01*
X90190827Y-94571568D01*
X90190839Y-94571582D01*
X90437950Y-94825852D01*
X90437959Y-94825861D01*
X90712459Y-95050319D01*
X90712461Y-95050320D01*
X91010739Y-95242014D01*
X91010745Y-95242017D01*
X91010747Y-95242018D01*
X91010755Y-95242023D01*
X91328960Y-95398473D01*
X91662925Y-95517632D01*
X92008296Y-95597944D01*
X92294817Y-95630819D01*
X92360569Y-95638364D01*
X92360571Y-95638364D01*
X92626442Y-95638364D01*
X92714917Y-95633304D01*
X92891872Y-95623186D01*
X93241264Y-95562721D01*
X93581487Y-95462823D01*
X93908105Y-95324793D01*
X94216859Y-95150432D01*
X94503725Y-94942011D01*
X94764963Y-94702249D01*
X94997168Y-94434271D01*
X95197312Y-94141570D01*
X95362785Y-93827962D01*
X95491432Y-93497536D01*
X95511152Y-93422516D01*
X95581573Y-93154603D01*
X95581574Y-93154600D01*
X95632037Y-92803623D01*
X95637096Y-92626542D01*
X117717836Y-92626542D01*
X117748180Y-92979825D01*
X117748183Y-92979847D01*
X117818595Y-93327343D01*
X117818601Y-93327365D01*
X117928174Y-93664593D01*
X118075469Y-93987125D01*
X118075474Y-93987135D01*
X118258570Y-94290765D01*
X118258574Y-94290770D01*
X118258579Y-94290779D01*
X118258584Y-94290785D01*
X118475099Y-94571568D01*
X118475111Y-94571582D01*
X118722222Y-94825852D01*
X118722231Y-94825861D01*
X118996731Y-95050319D01*
X118996733Y-95050320D01*
X119295011Y-95242014D01*
X119295017Y-95242017D01*
X119295019Y-95242018D01*
X119295027Y-95242023D01*
X119613232Y-95398473D01*
X119947197Y-95517632D01*
X120292568Y-95597944D01*
X120579089Y-95630819D01*
X120644841Y-95638364D01*
X120644843Y-95638364D01*
X120910714Y-95638364D01*
X120999189Y-95633304D01*
X121176144Y-95623186D01*
X121525536Y-95562721D01*
X121865759Y-95462823D01*
X122192377Y-95324793D01*
X122501131Y-95150432D01*
X122787997Y-94942011D01*
X123049235Y-94702249D01*
X123281440Y-94434271D01*
X123481584Y-94141570D01*
X123647057Y-93827962D01*
X123775704Y-93497536D01*
X123795424Y-93422516D01*
X123865845Y-93154603D01*
X123865846Y-93154600D01*
X123916309Y-92803623D01*
X123926435Y-92449181D01*
X123896091Y-92095896D01*
X123896088Y-92095880D01*
X123825676Y-91748384D01*
X123825670Y-91748362D01*
X123770378Y-91578192D01*
X123716100Y-91411141D01*
X123641493Y-91247775D01*
X123568802Y-91088602D01*
X123568797Y-91088592D01*
X123385701Y-90784962D01*
X123385699Y-90784960D01*
X123385693Y-90784949D01*
X123275044Y-90641457D01*
X123169172Y-90504159D01*
X123169160Y-90504145D01*
X122922049Y-90249875D01*
X122922046Y-90249872D01*
X122922041Y-90249867D01*
X122647541Y-90025409D01*
X122647538Y-90025407D01*
X122349260Y-89833713D01*
X122349254Y-89833710D01*
X122349248Y-89833707D01*
X122349245Y-89833705D01*
X122031040Y-89677255D01*
X122031036Y-89677253D01*
X122031035Y-89677253D01*
X121697076Y-89558096D01*
X121503167Y-89513005D01*
X121351704Y-89477784D01*
X121234279Y-89464310D01*
X120999431Y-89437364D01*
X120999429Y-89437364D01*
X120733560Y-89437364D01*
X120733558Y-89437364D01*
X120468131Y-89452541D01*
X120118744Y-89513005D01*
X120118727Y-89513009D01*
X119778516Y-89612904D01*
X119778513Y-89612905D01*
X119626243Y-89677255D01*
X119451902Y-89750932D01*
X119451897Y-89750934D01*
X119143141Y-89925295D01*
X119143138Y-89925297D01*
X118856274Y-90133717D01*
X118595037Y-90373479D01*
X118595036Y-90373480D01*
X118362831Y-90641457D01*
X118162691Y-90934152D01*
X118162684Y-90934163D01*
X117997221Y-91247753D01*
X117997211Y-91247775D01*
X117868565Y-91578197D01*
X117778426Y-91921124D01*
X117727964Y-92272097D01*
X117727962Y-92272117D01*
X117717836Y-92626535D01*
X117717836Y-92626542D01*
X95637096Y-92626542D01*
X95642163Y-92449181D01*
X95611819Y-92095896D01*
X95611816Y-92095880D01*
X95541404Y-91748384D01*
X95541398Y-91748362D01*
X95486106Y-91578192D01*
X95431828Y-91411141D01*
X95357221Y-91247775D01*
X95284530Y-91088602D01*
X95284525Y-91088592D01*
X95101429Y-90784962D01*
X95101427Y-90784960D01*
X95101421Y-90784949D01*
X94990772Y-90641457D01*
X94884900Y-90504159D01*
X94884888Y-90504145D01*
X94637777Y-90249875D01*
X94637774Y-90249872D01*
X94637769Y-90249867D01*
X94363269Y-90025409D01*
X94363266Y-90025407D01*
X94064988Y-89833713D01*
X94064982Y-89833710D01*
X94064976Y-89833707D01*
X94064973Y-89833705D01*
X93746768Y-89677255D01*
X93746764Y-89677253D01*
X93746763Y-89677253D01*
X93412804Y-89558096D01*
X93218895Y-89513005D01*
X93067432Y-89477784D01*
X92950007Y-89464310D01*
X92715159Y-89437364D01*
X92715157Y-89437364D01*
X92449288Y-89437364D01*
X92449286Y-89437364D01*
X92183859Y-89452541D01*
X91834472Y-89513005D01*
X91834455Y-89513009D01*
X91494244Y-89612904D01*
X91494241Y-89612905D01*
X91341971Y-89677255D01*
X91167630Y-89750932D01*
X91167625Y-89750934D01*
X90858869Y-89925295D01*
X90858866Y-89925297D01*
X90572002Y-90133717D01*
X90310765Y-90373479D01*
X90310764Y-90373480D01*
X90078559Y-90641457D01*
X89878419Y-90934152D01*
X89878412Y-90934163D01*
X89712949Y-91247753D01*
X89712939Y-91247775D01*
X89584293Y-91578197D01*
X89494154Y-91921124D01*
X89443692Y-92272097D01*
X89443690Y-92272117D01*
X89433564Y-92626535D01*
X89433564Y-92626542D01*
X87653534Y-92626542D01*
X91009143Y-88432032D01*
X91050510Y-88398590D01*
X94487691Y-86680000D01*
X101614723Y-86680000D01*
X101633081Y-86889844D01*
X101633793Y-86897975D01*
X101633793Y-86897979D01*
X101690422Y-87109322D01*
X101690424Y-87109326D01*
X101690425Y-87109330D01*
X101712106Y-87155824D01*
X101782897Y-87307638D01*
X101782898Y-87307639D01*
X101908402Y-87486877D01*
X102063123Y-87641598D01*
X102242361Y-87767102D01*
X102440670Y-87859575D01*
X102652023Y-87916207D01*
X102834926Y-87932208D01*
X102869998Y-87935277D01*
X102870000Y-87935277D01*
X102870002Y-87935277D01*
X102898254Y-87932805D01*
X103087977Y-87916207D01*
X103299330Y-87859575D01*
X103497639Y-87767102D01*
X103676877Y-87641598D01*
X103831598Y-87486877D01*
X103957102Y-87307639D01*
X104027618Y-87156414D01*
X104073790Y-87103977D01*
X104140984Y-87084825D01*
X104207865Y-87105041D01*
X104252381Y-87156414D01*
X104322898Y-87307639D01*
X104448402Y-87486877D01*
X104603123Y-87641598D01*
X104782361Y-87767102D01*
X104980670Y-87859575D01*
X105192023Y-87916207D01*
X105374926Y-87932208D01*
X105409998Y-87935277D01*
X105410000Y-87935277D01*
X105410002Y-87935277D01*
X105438254Y-87932805D01*
X105627977Y-87916207D01*
X105839330Y-87859575D01*
X106037639Y-87767102D01*
X106216877Y-87641598D01*
X106371598Y-87486877D01*
X106497102Y-87307639D01*
X106567618Y-87156414D01*
X106613790Y-87103977D01*
X106680984Y-87084825D01*
X106747865Y-87105041D01*
X106792381Y-87156414D01*
X106862898Y-87307639D01*
X106988402Y-87486877D01*
X107143123Y-87641598D01*
X107322361Y-87767102D01*
X107520670Y-87859575D01*
X107732023Y-87916207D01*
X107914926Y-87932208D01*
X107949998Y-87935277D01*
X107950000Y-87935277D01*
X107950002Y-87935277D01*
X107978254Y-87932805D01*
X108167977Y-87916207D01*
X108379330Y-87859575D01*
X108577639Y-87767102D01*
X108756877Y-87641598D01*
X108911598Y-87486877D01*
X109037102Y-87307639D01*
X109107895Y-87155822D01*
X109154066Y-87103385D01*
X109221260Y-87084233D01*
X109288141Y-87104449D01*
X109332658Y-87155824D01*
X109403335Y-87307391D01*
X109446873Y-87369571D01*
X109446875Y-87369572D01*
X110006923Y-86809523D01*
X110030507Y-86889844D01*
X110108239Y-87010798D01*
X110216900Y-87104952D01*
X110347685Y-87164680D01*
X110357466Y-87166086D01*
X109800426Y-87723124D01*
X109862611Y-87766666D01*
X109862613Y-87766667D01*
X110060840Y-87859101D01*
X110060849Y-87859105D01*
X110272105Y-87915710D01*
X110272115Y-87915712D01*
X110489999Y-87934775D01*
X110490001Y-87934775D01*
X110707884Y-87915712D01*
X110707894Y-87915710D01*
X110919150Y-87859105D01*
X110919159Y-87859101D01*
X111117387Y-87766666D01*
X111179572Y-87723124D01*
X110622534Y-87166086D01*
X110632315Y-87164680D01*
X110763100Y-87104952D01*
X110871761Y-87010798D01*
X110949493Y-86889844D01*
X110973076Y-86809524D01*
X111533124Y-87369572D01*
X111576666Y-87307387D01*
X111669101Y-87109159D01*
X111669105Y-87109150D01*
X111725710Y-86897894D01*
X111725712Y-86897884D01*
X111744775Y-86680000D01*
X111744775Y-86679999D01*
X111725712Y-86462115D01*
X111725710Y-86462105D01*
X111669105Y-86250849D01*
X111669101Y-86250840D01*
X111576668Y-86052615D01*
X111533123Y-85990428D01*
X110973076Y-86550475D01*
X110949493Y-86470156D01*
X110871761Y-86349202D01*
X110763100Y-86255048D01*
X110632315Y-86195320D01*
X110622534Y-86193913D01*
X111179572Y-85636875D01*
X111179571Y-85636873D01*
X111117391Y-85593335D01*
X110919159Y-85500898D01*
X110919150Y-85500894D01*
X110707894Y-85444289D01*
X110707884Y-85444287D01*
X110490001Y-85425225D01*
X110489999Y-85425225D01*
X110272115Y-85444287D01*
X110272105Y-85444289D01*
X110060849Y-85500894D01*
X110060840Y-85500898D01*
X109862614Y-85593332D01*
X109862612Y-85593333D01*
X109800428Y-85636875D01*
X109800427Y-85636875D01*
X110357466Y-86193913D01*
X110347685Y-86195320D01*
X110216900Y-86255048D01*
X110108239Y-86349202D01*
X110030507Y-86470156D01*
X110006923Y-86550475D01*
X109446875Y-85990427D01*
X109446875Y-85990428D01*
X109403333Y-86052612D01*
X109403332Y-86052614D01*
X109332658Y-86204175D01*
X109286485Y-86256614D01*
X109219292Y-86275766D01*
X109152411Y-86255550D01*
X109107894Y-86204175D01*
X109065398Y-86113043D01*
X109037102Y-86052362D01*
X109037100Y-86052359D01*
X109037099Y-86052357D01*
X108911599Y-85873124D01*
X108911596Y-85873121D01*
X108756877Y-85718402D01*
X108618978Y-85621844D01*
X108577638Y-85592897D01*
X108478484Y-85546661D01*
X108379330Y-85500425D01*
X108379326Y-85500424D01*
X108379322Y-85500422D01*
X108167977Y-85443793D01*
X107950002Y-85424723D01*
X107949998Y-85424723D01*
X107804682Y-85437436D01*
X107732023Y-85443793D01*
X107732020Y-85443793D01*
X107520677Y-85500422D01*
X107520668Y-85500426D01*
X107322361Y-85592898D01*
X107322357Y-85592900D01*
X107143121Y-85718402D01*
X106988402Y-85873121D01*
X106862900Y-86052357D01*
X106862898Y-86052361D01*
X106792382Y-86203583D01*
X106746209Y-86256022D01*
X106679016Y-86275174D01*
X106612135Y-86254958D01*
X106567618Y-86203583D01*
X106525398Y-86113043D01*
X106497102Y-86052362D01*
X106497100Y-86052359D01*
X106497099Y-86052357D01*
X106371599Y-85873124D01*
X106371596Y-85873121D01*
X106216877Y-85718402D01*
X106078978Y-85621844D01*
X106037638Y-85592897D01*
X105938484Y-85546661D01*
X105839330Y-85500425D01*
X105839326Y-85500424D01*
X105839322Y-85500422D01*
X105627977Y-85443793D01*
X105410002Y-85424723D01*
X105409998Y-85424723D01*
X105264682Y-85437436D01*
X105192023Y-85443793D01*
X105192020Y-85443793D01*
X104980677Y-85500422D01*
X104980668Y-85500426D01*
X104782361Y-85592898D01*
X104782357Y-85592900D01*
X104603121Y-85718402D01*
X104448402Y-85873121D01*
X104322900Y-86052357D01*
X104322898Y-86052361D01*
X104252382Y-86203583D01*
X104206209Y-86256022D01*
X104139016Y-86275174D01*
X104072135Y-86254958D01*
X104027618Y-86203583D01*
X103985398Y-86113043D01*
X103957102Y-86052362D01*
X103957100Y-86052359D01*
X103957099Y-86052357D01*
X103831599Y-85873124D01*
X103831596Y-85873121D01*
X103676877Y-85718402D01*
X103538978Y-85621844D01*
X103497638Y-85592897D01*
X103398484Y-85546661D01*
X103299330Y-85500425D01*
X103299326Y-85500424D01*
X103299322Y-85500422D01*
X103087977Y-85443793D01*
X102870002Y-85424723D01*
X102869998Y-85424723D01*
X102724682Y-85437436D01*
X102652023Y-85443793D01*
X102652020Y-85443793D01*
X102440677Y-85500422D01*
X102440668Y-85500426D01*
X102242361Y-85592898D01*
X102242357Y-85592900D01*
X102063121Y-85718402D01*
X101908402Y-85873121D01*
X101782900Y-86052357D01*
X101782898Y-86052361D01*
X101690426Y-86250668D01*
X101690422Y-86250677D01*
X101633793Y-86462020D01*
X101633793Y-86462023D01*
X101614723Y-86680000D01*
X94487691Y-86680000D01*
X102999972Y-82423860D01*
X103055426Y-82410769D01*
X109013876Y-82410769D01*
X109038194Y-82413177D01*
G37*
G04 #@! TD.AperFunction*
M02*
