G04 #@! TF.GenerationSoftware,KiCad,Pcbnew,7.0.8*
G04 #@! TF.CreationDate,2024-02-14T15:59:42+09:00*
G04 #@! TF.ProjectId,_______FMver2,2d098bb9-6bc5-46e4-964d-766572322e6b,rev?*
G04 #@! TF.SameCoordinates,Original*
G04 #@! TF.FileFunction,Legend,Top*
G04 #@! TF.FilePolarity,Positive*
%FSLAX46Y46*%
G04 Gerber Fmt 4.6, Leading zero omitted, Abs format (unit mm)*
G04 Created by KiCad (PCBNEW 7.0.8) date 2024-02-14 15:59:42*
%MOMM*%
%LPD*%
G01*
G04 APERTURE LIST*
%ADD10C,0.150000*%
%ADD11C,0.100000*%
%ADD12C,0.120000*%
G04 APERTURE END LIST*
D10*
X52762255Y-34759819D02*
X52952731Y-34759819D01*
X52952731Y-34759819D02*
X53047969Y-34807438D01*
X53047969Y-34807438D02*
X53143207Y-34902676D01*
X53143207Y-34902676D02*
X53190826Y-35093152D01*
X53190826Y-35093152D02*
X53190826Y-35426485D01*
X53190826Y-35426485D02*
X53143207Y-35616961D01*
X53143207Y-35616961D02*
X53047969Y-35712200D01*
X53047969Y-35712200D02*
X52952731Y-35759819D01*
X52952731Y-35759819D02*
X52762255Y-35759819D01*
X52762255Y-35759819D02*
X52667017Y-35712200D01*
X52667017Y-35712200D02*
X52571779Y-35616961D01*
X52571779Y-35616961D02*
X52524160Y-35426485D01*
X52524160Y-35426485D02*
X52524160Y-35093152D01*
X52524160Y-35093152D02*
X52571779Y-34902676D01*
X52571779Y-34902676D02*
X52667017Y-34807438D01*
X52667017Y-34807438D02*
X52762255Y-34759819D01*
X53952731Y-35236009D02*
X53619398Y-35236009D01*
X53619398Y-35759819D02*
X53619398Y-34759819D01*
X53619398Y-34759819D02*
X54095588Y-34759819D01*
X54809874Y-35236009D02*
X54476541Y-35236009D01*
X54476541Y-35759819D02*
X54476541Y-34759819D01*
X54476541Y-34759819D02*
X54952731Y-34759819D01*
X92758922Y-57318152D02*
X93139874Y-57318152D01*
X92901779Y-57984819D02*
X92901779Y-57127676D01*
X92901779Y-57127676D02*
X92949398Y-57032438D01*
X92949398Y-57032438D02*
X93044636Y-56984819D01*
X93044636Y-56984819D02*
X93139874Y-56984819D01*
X93473208Y-57984819D02*
X93473208Y-57318152D01*
X93473208Y-56984819D02*
X93425589Y-57032438D01*
X93425589Y-57032438D02*
X93473208Y-57080057D01*
X93473208Y-57080057D02*
X93520827Y-57032438D01*
X93520827Y-57032438D02*
X93473208Y-56984819D01*
X93473208Y-56984819D02*
X93473208Y-57080057D01*
X94092255Y-57984819D02*
X93997017Y-57937200D01*
X93997017Y-57937200D02*
X93949398Y-57841961D01*
X93949398Y-57841961D02*
X93949398Y-56984819D01*
X94854160Y-57937200D02*
X94758922Y-57984819D01*
X94758922Y-57984819D02*
X94568446Y-57984819D01*
X94568446Y-57984819D02*
X94473208Y-57937200D01*
X94473208Y-57937200D02*
X94425589Y-57841961D01*
X94425589Y-57841961D02*
X94425589Y-57461009D01*
X94425589Y-57461009D02*
X94473208Y-57365771D01*
X94473208Y-57365771D02*
X94568446Y-57318152D01*
X94568446Y-57318152D02*
X94758922Y-57318152D01*
X94758922Y-57318152D02*
X94854160Y-57365771D01*
X94854160Y-57365771D02*
X94901779Y-57461009D01*
X94901779Y-57461009D02*
X94901779Y-57556247D01*
X94901779Y-57556247D02*
X94425589Y-57651485D01*
X95330351Y-57889580D02*
X95377970Y-57937200D01*
X95377970Y-57937200D02*
X95330351Y-57984819D01*
X95330351Y-57984819D02*
X95282732Y-57937200D01*
X95282732Y-57937200D02*
X95330351Y-57889580D01*
X95330351Y-57889580D02*
X95330351Y-57984819D01*
X95330351Y-57365771D02*
X95377970Y-57413390D01*
X95377970Y-57413390D02*
X95330351Y-57461009D01*
X95330351Y-57461009D02*
X95282732Y-57413390D01*
X95282732Y-57413390D02*
X95330351Y-57365771D01*
X95330351Y-57365771D02*
X95330351Y-57461009D01*
X95711303Y-57318152D02*
X95949398Y-57984819D01*
X95949398Y-57984819D02*
X96187493Y-57318152D01*
X96949398Y-57937200D02*
X96854160Y-57984819D01*
X96854160Y-57984819D02*
X96663684Y-57984819D01*
X96663684Y-57984819D02*
X96568446Y-57937200D01*
X96568446Y-57937200D02*
X96520827Y-57841961D01*
X96520827Y-57841961D02*
X96520827Y-57461009D01*
X96520827Y-57461009D02*
X96568446Y-57365771D01*
X96568446Y-57365771D02*
X96663684Y-57318152D01*
X96663684Y-57318152D02*
X96854160Y-57318152D01*
X96854160Y-57318152D02*
X96949398Y-57365771D01*
X96949398Y-57365771D02*
X96997017Y-57461009D01*
X96997017Y-57461009D02*
X96997017Y-57556247D01*
X96997017Y-57556247D02*
X96520827Y-57651485D01*
X97425589Y-57984819D02*
X97425589Y-57318152D01*
X97425589Y-57508628D02*
X97473208Y-57413390D01*
X97473208Y-57413390D02*
X97520827Y-57365771D01*
X97520827Y-57365771D02*
X97616065Y-57318152D01*
X97616065Y-57318152D02*
X97711303Y-57318152D01*
X97997018Y-57080057D02*
X98044637Y-57032438D01*
X98044637Y-57032438D02*
X98139875Y-56984819D01*
X98139875Y-56984819D02*
X98377970Y-56984819D01*
X98377970Y-56984819D02*
X98473208Y-57032438D01*
X98473208Y-57032438D02*
X98520827Y-57080057D01*
X98520827Y-57080057D02*
X98568446Y-57175295D01*
X98568446Y-57175295D02*
X98568446Y-57270533D01*
X98568446Y-57270533D02*
X98520827Y-57413390D01*
X98520827Y-57413390D02*
X97949399Y-57984819D01*
X97949399Y-57984819D02*
X98568446Y-57984819D01*
X41633922Y-57953152D02*
X42014874Y-57953152D01*
X41776779Y-58619819D02*
X41776779Y-57762676D01*
X41776779Y-57762676D02*
X41824398Y-57667438D01*
X41824398Y-57667438D02*
X41919636Y-57619819D01*
X41919636Y-57619819D02*
X42014874Y-57619819D01*
X42348208Y-58619819D02*
X42348208Y-57953152D01*
X42348208Y-57619819D02*
X42300589Y-57667438D01*
X42300589Y-57667438D02*
X42348208Y-57715057D01*
X42348208Y-57715057D02*
X42395827Y-57667438D01*
X42395827Y-57667438D02*
X42348208Y-57619819D01*
X42348208Y-57619819D02*
X42348208Y-57715057D01*
X42967255Y-58619819D02*
X42872017Y-58572200D01*
X42872017Y-58572200D02*
X42824398Y-58476961D01*
X42824398Y-58476961D02*
X42824398Y-57619819D01*
X43729160Y-58572200D02*
X43633922Y-58619819D01*
X43633922Y-58619819D02*
X43443446Y-58619819D01*
X43443446Y-58619819D02*
X43348208Y-58572200D01*
X43348208Y-58572200D02*
X43300589Y-58476961D01*
X43300589Y-58476961D02*
X43300589Y-58096009D01*
X43300589Y-58096009D02*
X43348208Y-58000771D01*
X43348208Y-58000771D02*
X43443446Y-57953152D01*
X43443446Y-57953152D02*
X43633922Y-57953152D01*
X43633922Y-57953152D02*
X43729160Y-58000771D01*
X43729160Y-58000771D02*
X43776779Y-58096009D01*
X43776779Y-58096009D02*
X43776779Y-58191247D01*
X43776779Y-58191247D02*
X43300589Y-58286485D01*
X44205351Y-58524580D02*
X44252970Y-58572200D01*
X44252970Y-58572200D02*
X44205351Y-58619819D01*
X44205351Y-58619819D02*
X44157732Y-58572200D01*
X44157732Y-58572200D02*
X44205351Y-58524580D01*
X44205351Y-58524580D02*
X44205351Y-58619819D01*
X44205351Y-58000771D02*
X44252970Y-58048390D01*
X44252970Y-58048390D02*
X44205351Y-58096009D01*
X44205351Y-58096009D02*
X44157732Y-58048390D01*
X44157732Y-58048390D02*
X44205351Y-58000771D01*
X44205351Y-58000771D02*
X44205351Y-58096009D01*
X44586303Y-57953152D02*
X44824398Y-58619819D01*
X44824398Y-58619819D02*
X45062493Y-57953152D01*
X45824398Y-58572200D02*
X45729160Y-58619819D01*
X45729160Y-58619819D02*
X45538684Y-58619819D01*
X45538684Y-58619819D02*
X45443446Y-58572200D01*
X45443446Y-58572200D02*
X45395827Y-58476961D01*
X45395827Y-58476961D02*
X45395827Y-58096009D01*
X45395827Y-58096009D02*
X45443446Y-58000771D01*
X45443446Y-58000771D02*
X45538684Y-57953152D01*
X45538684Y-57953152D02*
X45729160Y-57953152D01*
X45729160Y-57953152D02*
X45824398Y-58000771D01*
X45824398Y-58000771D02*
X45872017Y-58096009D01*
X45872017Y-58096009D02*
X45872017Y-58191247D01*
X45872017Y-58191247D02*
X45395827Y-58286485D01*
X46300589Y-58619819D02*
X46300589Y-57953152D01*
X46300589Y-58143628D02*
X46348208Y-58048390D01*
X46348208Y-58048390D02*
X46395827Y-58000771D01*
X46395827Y-58000771D02*
X46491065Y-57953152D01*
X46491065Y-57953152D02*
X46586303Y-57953152D01*
X46872018Y-57715057D02*
X46919637Y-57667438D01*
X46919637Y-57667438D02*
X47014875Y-57619819D01*
X47014875Y-57619819D02*
X47252970Y-57619819D01*
X47252970Y-57619819D02*
X47348208Y-57667438D01*
X47348208Y-57667438D02*
X47395827Y-57715057D01*
X47395827Y-57715057D02*
X47443446Y-57810295D01*
X47443446Y-57810295D02*
X47443446Y-57905533D01*
X47443446Y-57905533D02*
X47395827Y-58048390D01*
X47395827Y-58048390D02*
X46824399Y-58619819D01*
X46824399Y-58619819D02*
X47443446Y-58619819D01*
X111825112Y-113255057D02*
X112587017Y-113255057D01*
X111348922Y-113397914D02*
X111825112Y-113397914D01*
X111920350Y-113588390D02*
X112539398Y-113588390D01*
X111920350Y-113778866D02*
X112539398Y-113778866D01*
X111920350Y-113969342D02*
X112587017Y-113969342D01*
X111777493Y-114159819D02*
X112634636Y-114159819D01*
X111682255Y-113112200D02*
X111682255Y-114159819D01*
X111920350Y-113445533D02*
X111920350Y-113778866D01*
X111920350Y-113445533D02*
X112539398Y-113445533D01*
X112539398Y-113445533D02*
X112539398Y-113778866D01*
X111634636Y-113540771D02*
X111825112Y-113731247D01*
X111634636Y-113397914D02*
X111396541Y-113874104D01*
X111777493Y-113064580D02*
X111348922Y-113159819D01*
X112539398Y-113064580D02*
X111920350Y-113159819D01*
X112253684Y-113112200D02*
X112253684Y-114159819D01*
X112825112Y-113636009D02*
X114063207Y-113636009D01*
X113158445Y-114159819D02*
X113444159Y-114159819D01*
X113444159Y-113397914D02*
X113444159Y-114159819D01*
X112967969Y-113159819D02*
X113920350Y-113159819D01*
X113920350Y-113159819D02*
X113777493Y-113255057D01*
X113777493Y-113255057D02*
X113444159Y-113397914D01*
X114444159Y-113302676D02*
X115301302Y-113302676D01*
X114444159Y-113493152D02*
X115301302Y-113493152D01*
X114444159Y-113636009D02*
X115539397Y-113636009D01*
X114301302Y-114064580D02*
X115110825Y-114064580D01*
X115110825Y-114159819D02*
X115396540Y-114159819D01*
X114301302Y-113921723D02*
X114301302Y-114112200D01*
X114682254Y-113826485D02*
X114682254Y-114064580D01*
X115063206Y-113874104D02*
X115063206Y-114064580D01*
X114444159Y-113159819D02*
X115301302Y-113159819D01*
X115301302Y-113159819D02*
X115301302Y-113493152D01*
X114872730Y-113016961D02*
X114777492Y-113112200D01*
X114444159Y-113159819D02*
X114444159Y-113826485D01*
X114444159Y-113826485D02*
X115491778Y-113826485D01*
X115491778Y-113826485D02*
X115396540Y-114159819D01*
X115920349Y-113255057D02*
X115920349Y-113921723D01*
X115920349Y-113255057D02*
X116491777Y-113255057D01*
X116491777Y-113255057D02*
X116491777Y-113921723D01*
X116491777Y-113921723D02*
X115920349Y-113921723D01*
X117063206Y-113397914D02*
X117587015Y-113397914D01*
X117110825Y-113064580D02*
X117063206Y-113255057D01*
X117063206Y-113255057D02*
X116967968Y-113493152D01*
X116967968Y-113493152D02*
X116920349Y-113636009D01*
X117348920Y-113397914D02*
X117348920Y-113636009D01*
X117348920Y-113636009D02*
X117301301Y-113778866D01*
X117301301Y-113778866D02*
X117206063Y-113921723D01*
X117206063Y-113921723D02*
X117063206Y-114112200D01*
X118015587Y-113445533D02*
X118110825Y-113683628D01*
X118253682Y-113397914D02*
X118301301Y-113636009D01*
X118539396Y-113445533D02*
X118539396Y-113683628D01*
X118539396Y-113683628D02*
X118491777Y-113826485D01*
X118491777Y-113826485D02*
X118348920Y-113969342D01*
X118348920Y-113969342D02*
X118206063Y-114064580D01*
X119348920Y-113064580D02*
X119348920Y-114112200D01*
X119348920Y-113493152D02*
X119634634Y-113731247D01*
X120110825Y-113302676D02*
X120682253Y-113302676D01*
X120682253Y-113302676D02*
X120682253Y-113969342D01*
X120682253Y-113969342D02*
X120110825Y-113969342D01*
X121158444Y-113255057D02*
X121348920Y-113445533D01*
X121158444Y-114016961D02*
X121396539Y-113969342D01*
X121396539Y-113969342D02*
X121539396Y-113826485D01*
X121539396Y-113826485D02*
X121634634Y-113683628D01*
X121634634Y-113683628D02*
X121729872Y-113350295D01*
X122301301Y-113207438D02*
X122682253Y-113207438D01*
X122158444Y-113493152D02*
X122825110Y-113493152D01*
X122491777Y-113493152D02*
X122491777Y-113731247D01*
X122491777Y-113731247D02*
X122396539Y-113921723D01*
X122396539Y-113921723D02*
X122253682Y-114112200D01*
X123253682Y-113159819D02*
X123682253Y-113159819D01*
X123682253Y-113159819D02*
X123634634Y-113445533D01*
X123634634Y-113445533D02*
X123539396Y-113636009D01*
X123539396Y-113636009D02*
X123444158Y-113778866D01*
X123444158Y-113778866D02*
X123348920Y-113921723D01*
X123348920Y-113921723D02*
X123206063Y-114064580D01*
X123539396Y-113683628D02*
X123634634Y-113826485D01*
X123634634Y-113826485D02*
X123777491Y-114064580D01*
X124587015Y-113064580D02*
X124587015Y-114112200D01*
X124587015Y-113493152D02*
X124872729Y-113731247D01*
X111491779Y-114865057D02*
X111491779Y-115531723D01*
X111491779Y-114865057D02*
X112063207Y-114865057D01*
X112063207Y-114865057D02*
X112063207Y-115531723D01*
X112063207Y-115531723D02*
X111491779Y-115531723D01*
X112634636Y-115007914D02*
X113158445Y-115007914D01*
X112682255Y-114674580D02*
X112634636Y-114865057D01*
X112634636Y-114865057D02*
X112539398Y-115103152D01*
X112539398Y-115103152D02*
X112491779Y-115246009D01*
X112920350Y-115007914D02*
X112920350Y-115246009D01*
X112920350Y-115246009D02*
X112872731Y-115388866D01*
X112872731Y-115388866D02*
X112777493Y-115531723D01*
X112777493Y-115531723D02*
X112634636Y-115722200D01*
X113587017Y-115055533D02*
X113682255Y-115293628D01*
X113825112Y-115007914D02*
X113872731Y-115246009D01*
X114110826Y-115055533D02*
X114110826Y-115293628D01*
X114110826Y-115293628D02*
X114063207Y-115436485D01*
X114063207Y-115436485D02*
X113920350Y-115579342D01*
X113920350Y-115579342D02*
X113777493Y-115674580D01*
X114920350Y-114674580D02*
X114920350Y-115722200D01*
X114920350Y-115103152D02*
X115206064Y-115341247D01*
X116158445Y-114817438D02*
X116729874Y-114817438D01*
X115729874Y-115388866D02*
X116634636Y-115388866D01*
X115729874Y-115055533D02*
X115729874Y-115388866D01*
X116015588Y-115579342D02*
X116015588Y-115769819D01*
X116158445Y-114626961D02*
X116158445Y-115055533D01*
X115729874Y-115055533D02*
X116634636Y-115055533D01*
X116634636Y-115055533D02*
X116634636Y-115388866D01*
X116587017Y-115531723D02*
X116777493Y-115722200D01*
X115729874Y-115579342D02*
X115539398Y-115769819D01*
X116301302Y-115579342D02*
X116396540Y-115769819D01*
X117634635Y-114674580D02*
X117634635Y-115198390D01*
X117634635Y-115198390D02*
X117777492Y-115436485D01*
X117777492Y-115436485D02*
X117920350Y-115626961D01*
X117920350Y-115626961D02*
X118253683Y-115769819D01*
X118158445Y-114912676D02*
X118015588Y-115198390D01*
X117253683Y-114912676D02*
X117110826Y-115246009D01*
X117634635Y-115150771D02*
X117491778Y-115436485D01*
X117491778Y-115436485D02*
X117301302Y-115626961D01*
X117301302Y-115626961D02*
X117015588Y-115769819D01*
X118967968Y-114722200D02*
X119729873Y-114722200D01*
X118491778Y-115150771D02*
X118872730Y-115150771D01*
X119539397Y-115579342D02*
X119682254Y-115579342D01*
X118491778Y-115674580D02*
X118872730Y-115674580D01*
X118491778Y-114817438D02*
X118491778Y-115722200D01*
X118491778Y-114817438D02*
X118872730Y-114817438D01*
X118872730Y-114817438D02*
X118872730Y-115103152D01*
X118491778Y-115341247D02*
X118872730Y-115341247D01*
X118872730Y-115341247D02*
X118872730Y-115626961D01*
X119063206Y-114960295D02*
X119063206Y-115579342D01*
X119348920Y-114722200D02*
X119348920Y-115769819D01*
X119063206Y-114960295D02*
X119682254Y-114960295D01*
X119682254Y-114960295D02*
X119682254Y-115579342D01*
X118682254Y-114626961D02*
X118587016Y-114817438D01*
X120110825Y-115007914D02*
X121063206Y-115007914D01*
X120587015Y-115579342D02*
X120825110Y-115579342D01*
X119967968Y-115722200D02*
X121206063Y-115722200D01*
X119967968Y-114722200D02*
X119967968Y-115769819D01*
X120825110Y-114817438D02*
X120825110Y-115579342D01*
X119967968Y-114722200D02*
X121206063Y-114722200D01*
X121206063Y-114722200D02*
X121206063Y-115769819D01*
X120301301Y-115150771D02*
X120491777Y-115341247D01*
X58414160Y-99285057D02*
X58461779Y-99237438D01*
X58461779Y-99237438D02*
X58557017Y-99189819D01*
X58557017Y-99189819D02*
X58795112Y-99189819D01*
X58795112Y-99189819D02*
X58890350Y-99237438D01*
X58890350Y-99237438D02*
X58937969Y-99285057D01*
X58937969Y-99285057D02*
X58985588Y-99380295D01*
X58985588Y-99380295D02*
X58985588Y-99475533D01*
X58985588Y-99475533D02*
X58937969Y-99618390D01*
X58937969Y-99618390D02*
X58366541Y-100189819D01*
X58366541Y-100189819D02*
X58985588Y-100189819D01*
X59604636Y-99189819D02*
X59699874Y-99189819D01*
X59699874Y-99189819D02*
X59795112Y-99237438D01*
X59795112Y-99237438D02*
X59842731Y-99285057D01*
X59842731Y-99285057D02*
X59890350Y-99380295D01*
X59890350Y-99380295D02*
X59937969Y-99570771D01*
X59937969Y-99570771D02*
X59937969Y-99808866D01*
X59937969Y-99808866D02*
X59890350Y-99999342D01*
X59890350Y-99999342D02*
X59842731Y-100094580D01*
X59842731Y-100094580D02*
X59795112Y-100142200D01*
X59795112Y-100142200D02*
X59699874Y-100189819D01*
X59699874Y-100189819D02*
X59604636Y-100189819D01*
X59604636Y-100189819D02*
X59509398Y-100142200D01*
X59509398Y-100142200D02*
X59461779Y-100094580D01*
X59461779Y-100094580D02*
X59414160Y-99999342D01*
X59414160Y-99999342D02*
X59366541Y-99808866D01*
X59366541Y-99808866D02*
X59366541Y-99570771D01*
X59366541Y-99570771D02*
X59414160Y-99380295D01*
X59414160Y-99380295D02*
X59461779Y-99285057D01*
X59461779Y-99285057D02*
X59509398Y-99237438D01*
X59509398Y-99237438D02*
X59604636Y-99189819D01*
X60318922Y-99285057D02*
X60366541Y-99237438D01*
X60366541Y-99237438D02*
X60461779Y-99189819D01*
X60461779Y-99189819D02*
X60699874Y-99189819D01*
X60699874Y-99189819D02*
X60795112Y-99237438D01*
X60795112Y-99237438D02*
X60842731Y-99285057D01*
X60842731Y-99285057D02*
X60890350Y-99380295D01*
X60890350Y-99380295D02*
X60890350Y-99475533D01*
X60890350Y-99475533D02*
X60842731Y-99618390D01*
X60842731Y-99618390D02*
X60271303Y-100189819D01*
X60271303Y-100189819D02*
X60890350Y-100189819D01*
X61747493Y-99523152D02*
X61747493Y-100189819D01*
X61509398Y-99142200D02*
X61271303Y-99856485D01*
X61271303Y-99856485D02*
X61890350Y-99856485D01*
X62366541Y-99285057D02*
X63271303Y-99285057D01*
X62128446Y-99523152D02*
X63366541Y-99523152D01*
X62128446Y-99856485D02*
X63366541Y-99856485D01*
X62366541Y-99189819D02*
X62366541Y-99856485D01*
X62557017Y-99999342D02*
X62557017Y-100189819D01*
X62604636Y-99237438D02*
X62604636Y-99856485D01*
X62890350Y-99237438D02*
X62890350Y-99856485D01*
X63128446Y-99237438D02*
X63128446Y-99856485D01*
X63176065Y-99999342D02*
X63366541Y-100189819D01*
X62271303Y-100046961D02*
X62128446Y-100189819D01*
X62414160Y-99142200D02*
X62128446Y-99380295D01*
X62890350Y-99999342D02*
X62937969Y-100189819D01*
X64176064Y-99380295D02*
X64747493Y-99380295D01*
X64176064Y-99570771D02*
X64747493Y-99570771D01*
X63604636Y-99666009D02*
X64033207Y-99666009D01*
X64271302Y-100189819D02*
X64461778Y-100189819D01*
X63842731Y-99618390D02*
X63842731Y-100189819D01*
X64176064Y-99189819D02*
X64176064Y-99570771D01*
X64461778Y-99570771D02*
X64461778Y-100189819D01*
X64176064Y-99189819D02*
X64747493Y-99189819D01*
X64747493Y-99189819D02*
X64795112Y-99570771D01*
X64747493Y-99713628D02*
X64604636Y-99856485D01*
X63652255Y-99285057D02*
X63842731Y-99475533D01*
X63842731Y-99475533D02*
X63652255Y-99618390D01*
X64414159Y-99046961D02*
X64366540Y-99189819D01*
X63985588Y-99808866D02*
X64033207Y-99999342D01*
X63937969Y-99475533D02*
X64033207Y-99713628D01*
X63795112Y-99046961D02*
X63699874Y-99332676D01*
X63937969Y-99189819D02*
X63842731Y-99475533D01*
X63699874Y-99808866D02*
X63604636Y-100094580D01*
X64128445Y-99808866D02*
X64366540Y-99808866D01*
X64366540Y-99808866D02*
X64271302Y-99999342D01*
X64271302Y-99999342D02*
X64080826Y-100142200D01*
X64461778Y-99666009D02*
X64604636Y-99904104D01*
X64604636Y-99904104D02*
X64795112Y-100142200D01*
X65699873Y-99237438D02*
X66271302Y-99237438D01*
X65271302Y-99808866D02*
X66176064Y-99808866D01*
X65271302Y-99475533D02*
X65271302Y-99808866D01*
X65557016Y-99999342D02*
X65557016Y-100189819D01*
X65699873Y-99046961D02*
X65699873Y-99475533D01*
X65271302Y-99475533D02*
X66176064Y-99475533D01*
X66176064Y-99475533D02*
X66176064Y-99808866D01*
X66128445Y-99951723D02*
X66318921Y-100142200D01*
X65271302Y-99999342D02*
X65080826Y-100189819D01*
X65842730Y-99999342D02*
X65937968Y-100189819D01*
X67176063Y-99094580D02*
X67176063Y-99618390D01*
X67176063Y-99618390D02*
X67318920Y-99856485D01*
X67318920Y-99856485D02*
X67461778Y-100046961D01*
X67461778Y-100046961D02*
X67795111Y-100189819D01*
X67699873Y-99332676D02*
X67557016Y-99618390D01*
X66795111Y-99332676D02*
X66652254Y-99666009D01*
X67176063Y-99570771D02*
X67033206Y-99856485D01*
X67033206Y-99856485D02*
X66842730Y-100046961D01*
X66842730Y-100046961D02*
X66557016Y-100189819D01*
X68509396Y-99285057D02*
X69271301Y-99285057D01*
X68557015Y-99570771D02*
X69223682Y-99570771D01*
X68033206Y-99761247D02*
X69271301Y-99761247D01*
X68414158Y-99904104D02*
X68414158Y-100142200D01*
X68366539Y-99046961D02*
X68366539Y-99618390D01*
X68890348Y-99046961D02*
X68890348Y-99570771D01*
X68128444Y-99142200D02*
X68223682Y-99237438D01*
X68652253Y-99761247D02*
X68890348Y-100046961D01*
X68890348Y-100046961D02*
X69271301Y-100189819D01*
X69128444Y-99856485D02*
X68842729Y-99999342D01*
X68271301Y-99427914D02*
X68033206Y-99523152D01*
X68652253Y-99618390D02*
X68652253Y-99808866D01*
X68652253Y-99808866D02*
X68318920Y-99951723D01*
X68318920Y-99951723D02*
X68033206Y-99999342D01*
X68699872Y-100142200D02*
X68271301Y-100189819D01*
X69557015Y-99332676D02*
X70652253Y-99332676D01*
X69509396Y-99427914D02*
X70699872Y-99427914D01*
X69842729Y-99713628D02*
X70557015Y-99713628D01*
X69842729Y-99856485D02*
X70557015Y-99856485D01*
X69842729Y-99999342D02*
X70557015Y-99999342D01*
X69604634Y-100142200D02*
X70747491Y-100142200D01*
X69557015Y-99094580D02*
X69557015Y-99285057D01*
X69604634Y-99618390D02*
X69604634Y-100189819D01*
X69842729Y-99570771D02*
X69842729Y-99999342D01*
X69937967Y-99094580D02*
X69937967Y-99285057D01*
X70271300Y-99094580D02*
X70271300Y-99285057D01*
X69842729Y-99570771D02*
X70557015Y-99570771D01*
X70557015Y-99570771D02*
X70557015Y-99999342D01*
X69557015Y-99094580D02*
X70652253Y-99094580D01*
X70652253Y-99094580D02*
X70652253Y-99285057D01*
X70128443Y-99332676D02*
X70128443Y-99618390D01*
X58366541Y-100799819D02*
X58985588Y-100799819D01*
X58985588Y-100799819D02*
X58652255Y-101180771D01*
X58652255Y-101180771D02*
X58795112Y-101180771D01*
X58795112Y-101180771D02*
X58890350Y-101228390D01*
X58890350Y-101228390D02*
X58937969Y-101276009D01*
X58937969Y-101276009D02*
X58985588Y-101371247D01*
X58985588Y-101371247D02*
X58985588Y-101609342D01*
X58985588Y-101609342D02*
X58937969Y-101704580D01*
X58937969Y-101704580D02*
X58890350Y-101752200D01*
X58890350Y-101752200D02*
X58795112Y-101799819D01*
X58795112Y-101799819D02*
X58509398Y-101799819D01*
X58509398Y-101799819D02*
X58414160Y-101752200D01*
X58414160Y-101752200D02*
X58366541Y-101704580D01*
X59414160Y-101799819D02*
X59414160Y-101133152D01*
X59414160Y-101323628D02*
X59461779Y-101228390D01*
X59461779Y-101228390D02*
X59509398Y-101180771D01*
X59509398Y-101180771D02*
X59604636Y-101133152D01*
X59604636Y-101133152D02*
X59699874Y-101133152D01*
X60461779Y-101799819D02*
X60461779Y-100799819D01*
X60461779Y-101752200D02*
X60366541Y-101799819D01*
X60366541Y-101799819D02*
X60176065Y-101799819D01*
X60176065Y-101799819D02*
X60080827Y-101752200D01*
X60080827Y-101752200D02*
X60033208Y-101704580D01*
X60033208Y-101704580D02*
X59985589Y-101609342D01*
X59985589Y-101609342D02*
X59985589Y-101323628D01*
X59985589Y-101323628D02*
X60033208Y-101228390D01*
X60033208Y-101228390D02*
X60080827Y-101180771D01*
X60080827Y-101180771D02*
X60176065Y-101133152D01*
X60176065Y-101133152D02*
X60366541Y-101133152D01*
X60366541Y-101133152D02*
X60461779Y-101180771D01*
X61842732Y-101799819D02*
X61747494Y-101752200D01*
X61747494Y-101752200D02*
X61699875Y-101656961D01*
X61699875Y-101656961D02*
X61699875Y-100799819D01*
X62652256Y-101799819D02*
X62652256Y-101276009D01*
X62652256Y-101276009D02*
X62604637Y-101180771D01*
X62604637Y-101180771D02*
X62509399Y-101133152D01*
X62509399Y-101133152D02*
X62318923Y-101133152D01*
X62318923Y-101133152D02*
X62223685Y-101180771D01*
X62652256Y-101752200D02*
X62557018Y-101799819D01*
X62557018Y-101799819D02*
X62318923Y-101799819D01*
X62318923Y-101799819D02*
X62223685Y-101752200D01*
X62223685Y-101752200D02*
X62176066Y-101656961D01*
X62176066Y-101656961D02*
X62176066Y-101561723D01*
X62176066Y-101561723D02*
X62223685Y-101466485D01*
X62223685Y-101466485D02*
X62318923Y-101418866D01*
X62318923Y-101418866D02*
X62557018Y-101418866D01*
X62557018Y-101418866D02*
X62652256Y-101371247D01*
X63033209Y-101133152D02*
X63271304Y-101799819D01*
X63509399Y-101133152D02*
X63271304Y-101799819D01*
X63271304Y-101799819D02*
X63176066Y-102037914D01*
X63176066Y-102037914D02*
X63128447Y-102085533D01*
X63128447Y-102085533D02*
X63033209Y-102133152D01*
X64271304Y-101752200D02*
X64176066Y-101799819D01*
X64176066Y-101799819D02*
X63985590Y-101799819D01*
X63985590Y-101799819D02*
X63890352Y-101752200D01*
X63890352Y-101752200D02*
X63842733Y-101656961D01*
X63842733Y-101656961D02*
X63842733Y-101276009D01*
X63842733Y-101276009D02*
X63890352Y-101180771D01*
X63890352Y-101180771D02*
X63985590Y-101133152D01*
X63985590Y-101133152D02*
X64176066Y-101133152D01*
X64176066Y-101133152D02*
X64271304Y-101180771D01*
X64271304Y-101180771D02*
X64318923Y-101276009D01*
X64318923Y-101276009D02*
X64318923Y-101371247D01*
X64318923Y-101371247D02*
X63842733Y-101466485D01*
X64747495Y-101799819D02*
X64747495Y-101133152D01*
X64747495Y-101323628D02*
X64795114Y-101228390D01*
X64795114Y-101228390D02*
X64842733Y-101180771D01*
X64842733Y-101180771D02*
X64937971Y-101133152D01*
X64937971Y-101133152D02*
X65033209Y-101133152D01*
X96839160Y-108175057D02*
X96886779Y-108127438D01*
X96886779Y-108127438D02*
X96982017Y-108079819D01*
X96982017Y-108079819D02*
X97220112Y-108079819D01*
X97220112Y-108079819D02*
X97315350Y-108127438D01*
X97315350Y-108127438D02*
X97362969Y-108175057D01*
X97362969Y-108175057D02*
X97410588Y-108270295D01*
X97410588Y-108270295D02*
X97410588Y-108365533D01*
X97410588Y-108365533D02*
X97362969Y-108508390D01*
X97362969Y-108508390D02*
X96791541Y-109079819D01*
X96791541Y-109079819D02*
X97410588Y-109079819D01*
X98029636Y-108079819D02*
X98124874Y-108079819D01*
X98124874Y-108079819D02*
X98220112Y-108127438D01*
X98220112Y-108127438D02*
X98267731Y-108175057D01*
X98267731Y-108175057D02*
X98315350Y-108270295D01*
X98315350Y-108270295D02*
X98362969Y-108460771D01*
X98362969Y-108460771D02*
X98362969Y-108698866D01*
X98362969Y-108698866D02*
X98315350Y-108889342D01*
X98315350Y-108889342D02*
X98267731Y-108984580D01*
X98267731Y-108984580D02*
X98220112Y-109032200D01*
X98220112Y-109032200D02*
X98124874Y-109079819D01*
X98124874Y-109079819D02*
X98029636Y-109079819D01*
X98029636Y-109079819D02*
X97934398Y-109032200D01*
X97934398Y-109032200D02*
X97886779Y-108984580D01*
X97886779Y-108984580D02*
X97839160Y-108889342D01*
X97839160Y-108889342D02*
X97791541Y-108698866D01*
X97791541Y-108698866D02*
X97791541Y-108460771D01*
X97791541Y-108460771D02*
X97839160Y-108270295D01*
X97839160Y-108270295D02*
X97886779Y-108175057D01*
X97886779Y-108175057D02*
X97934398Y-108127438D01*
X97934398Y-108127438D02*
X98029636Y-108079819D01*
X98743922Y-108175057D02*
X98791541Y-108127438D01*
X98791541Y-108127438D02*
X98886779Y-108079819D01*
X98886779Y-108079819D02*
X99124874Y-108079819D01*
X99124874Y-108079819D02*
X99220112Y-108127438D01*
X99220112Y-108127438D02*
X99267731Y-108175057D01*
X99267731Y-108175057D02*
X99315350Y-108270295D01*
X99315350Y-108270295D02*
X99315350Y-108365533D01*
X99315350Y-108365533D02*
X99267731Y-108508390D01*
X99267731Y-108508390D02*
X98696303Y-109079819D01*
X98696303Y-109079819D02*
X99315350Y-109079819D01*
X100172493Y-108413152D02*
X100172493Y-109079819D01*
X99934398Y-108032200D02*
X99696303Y-108746485D01*
X99696303Y-108746485D02*
X100315350Y-108746485D01*
X100791541Y-108175057D02*
X101696303Y-108175057D01*
X100553446Y-108413152D02*
X101791541Y-108413152D01*
X100553446Y-108746485D02*
X101791541Y-108746485D01*
X100791541Y-108079819D02*
X100791541Y-108746485D01*
X100982017Y-108889342D02*
X100982017Y-109079819D01*
X101029636Y-108127438D02*
X101029636Y-108746485D01*
X101315350Y-108127438D02*
X101315350Y-108746485D01*
X101553446Y-108127438D02*
X101553446Y-108746485D01*
X101601065Y-108889342D02*
X101791541Y-109079819D01*
X100696303Y-108936961D02*
X100553446Y-109079819D01*
X100839160Y-108032200D02*
X100553446Y-108270295D01*
X101315350Y-108889342D02*
X101362969Y-109079819D01*
X102601064Y-108270295D02*
X103172493Y-108270295D01*
X102601064Y-108460771D02*
X103172493Y-108460771D01*
X102029636Y-108556009D02*
X102458207Y-108556009D01*
X102696302Y-109079819D02*
X102886778Y-109079819D01*
X102267731Y-108508390D02*
X102267731Y-109079819D01*
X102601064Y-108079819D02*
X102601064Y-108460771D01*
X102886778Y-108460771D02*
X102886778Y-109079819D01*
X102601064Y-108079819D02*
X103172493Y-108079819D01*
X103172493Y-108079819D02*
X103220112Y-108460771D01*
X103172493Y-108603628D02*
X103029636Y-108746485D01*
X102077255Y-108175057D02*
X102267731Y-108365533D01*
X102267731Y-108365533D02*
X102077255Y-108508390D01*
X102839159Y-107936961D02*
X102791540Y-108079819D01*
X102410588Y-108698866D02*
X102458207Y-108889342D01*
X102362969Y-108365533D02*
X102458207Y-108603628D01*
X102220112Y-107936961D02*
X102124874Y-108222676D01*
X102362969Y-108079819D02*
X102267731Y-108365533D01*
X102124874Y-108698866D02*
X102029636Y-108984580D01*
X102553445Y-108698866D02*
X102791540Y-108698866D01*
X102791540Y-108698866D02*
X102696302Y-108889342D01*
X102696302Y-108889342D02*
X102505826Y-109032200D01*
X102886778Y-108556009D02*
X103029636Y-108794104D01*
X103029636Y-108794104D02*
X103220112Y-109032200D01*
X104124873Y-108127438D02*
X104696302Y-108127438D01*
X103696302Y-108698866D02*
X104601064Y-108698866D01*
X103696302Y-108365533D02*
X103696302Y-108698866D01*
X103982016Y-108889342D02*
X103982016Y-109079819D01*
X104124873Y-107936961D02*
X104124873Y-108365533D01*
X103696302Y-108365533D02*
X104601064Y-108365533D01*
X104601064Y-108365533D02*
X104601064Y-108698866D01*
X104553445Y-108841723D02*
X104743921Y-109032200D01*
X103696302Y-108889342D02*
X103505826Y-109079819D01*
X104267730Y-108889342D02*
X104362968Y-109079819D01*
X105601063Y-107984580D02*
X105601063Y-108508390D01*
X105601063Y-108508390D02*
X105743920Y-108746485D01*
X105743920Y-108746485D02*
X105886778Y-108936961D01*
X105886778Y-108936961D02*
X106220111Y-109079819D01*
X106124873Y-108222676D02*
X105982016Y-108508390D01*
X105220111Y-108222676D02*
X105077254Y-108556009D01*
X105601063Y-108460771D02*
X105458206Y-108746485D01*
X105458206Y-108746485D02*
X105267730Y-108936961D01*
X105267730Y-108936961D02*
X104982016Y-109079819D01*
X106934396Y-108175057D02*
X107696301Y-108175057D01*
X106982015Y-108460771D02*
X107648682Y-108460771D01*
X106458206Y-108651247D02*
X107696301Y-108651247D01*
X106839158Y-108794104D02*
X106839158Y-109032200D01*
X106791539Y-107936961D02*
X106791539Y-108508390D01*
X107315348Y-107936961D02*
X107315348Y-108460771D01*
X106553444Y-108032200D02*
X106648682Y-108127438D01*
X107077253Y-108651247D02*
X107315348Y-108936961D01*
X107315348Y-108936961D02*
X107696301Y-109079819D01*
X107553444Y-108746485D02*
X107267729Y-108889342D01*
X106696301Y-108317914D02*
X106458206Y-108413152D01*
X107077253Y-108508390D02*
X107077253Y-108698866D01*
X107077253Y-108698866D02*
X106743920Y-108841723D01*
X106743920Y-108841723D02*
X106458206Y-108889342D01*
X107124872Y-109032200D02*
X106696301Y-109079819D01*
X107982015Y-108222676D02*
X109077253Y-108222676D01*
X107934396Y-108317914D02*
X109124872Y-108317914D01*
X108267729Y-108603628D02*
X108982015Y-108603628D01*
X108267729Y-108746485D02*
X108982015Y-108746485D01*
X108267729Y-108889342D02*
X108982015Y-108889342D01*
X108029634Y-109032200D02*
X109172491Y-109032200D01*
X107982015Y-107984580D02*
X107982015Y-108175057D01*
X108029634Y-108508390D02*
X108029634Y-109079819D01*
X108267729Y-108460771D02*
X108267729Y-108889342D01*
X108362967Y-107984580D02*
X108362967Y-108175057D01*
X108696300Y-107984580D02*
X108696300Y-108175057D01*
X108267729Y-108460771D02*
X108982015Y-108460771D01*
X108982015Y-108460771D02*
X108982015Y-108889342D01*
X107982015Y-107984580D02*
X109077253Y-107984580D01*
X109077253Y-107984580D02*
X109077253Y-108175057D01*
X108553443Y-108222676D02*
X108553443Y-108508390D01*
X110172491Y-108413152D02*
X110553443Y-108413152D01*
X110315348Y-109079819D02*
X110315348Y-108222676D01*
X110315348Y-108222676D02*
X110362967Y-108127438D01*
X110362967Y-108127438D02*
X110458205Y-108079819D01*
X110458205Y-108079819D02*
X110553443Y-108079819D01*
X110886777Y-109079819D02*
X110886777Y-108413152D01*
X110886777Y-108079819D02*
X110839158Y-108127438D01*
X110839158Y-108127438D02*
X110886777Y-108175057D01*
X110886777Y-108175057D02*
X110934396Y-108127438D01*
X110934396Y-108127438D02*
X110886777Y-108079819D01*
X110886777Y-108079819D02*
X110886777Y-108175057D01*
X111505824Y-109079819D02*
X111410586Y-109032200D01*
X111410586Y-109032200D02*
X111362967Y-108936961D01*
X111362967Y-108936961D02*
X111362967Y-108079819D01*
X112267729Y-109032200D02*
X112172491Y-109079819D01*
X112172491Y-109079819D02*
X111982015Y-109079819D01*
X111982015Y-109079819D02*
X111886777Y-109032200D01*
X111886777Y-109032200D02*
X111839158Y-108936961D01*
X111839158Y-108936961D02*
X111839158Y-108556009D01*
X111839158Y-108556009D02*
X111886777Y-108460771D01*
X111886777Y-108460771D02*
X111982015Y-108413152D01*
X111982015Y-108413152D02*
X112172491Y-108413152D01*
X112172491Y-108413152D02*
X112267729Y-108460771D01*
X112267729Y-108460771D02*
X112315348Y-108556009D01*
X112315348Y-108556009D02*
X112315348Y-108651247D01*
X112315348Y-108651247D02*
X111839158Y-108746485D01*
X112743920Y-108984580D02*
X112791539Y-109032200D01*
X112791539Y-109032200D02*
X112743920Y-109079819D01*
X112743920Y-109079819D02*
X112696301Y-109032200D01*
X112696301Y-109032200D02*
X112743920Y-108984580D01*
X112743920Y-108984580D02*
X112743920Y-109079819D01*
X112743920Y-108460771D02*
X112791539Y-108508390D01*
X112791539Y-108508390D02*
X112743920Y-108556009D01*
X112743920Y-108556009D02*
X112696301Y-108508390D01*
X112696301Y-108508390D02*
X112743920Y-108460771D01*
X112743920Y-108460771D02*
X112743920Y-108556009D01*
X113124872Y-108413152D02*
X113362967Y-109079819D01*
X113362967Y-109079819D02*
X113601062Y-108413152D01*
X114362967Y-109032200D02*
X114267729Y-109079819D01*
X114267729Y-109079819D02*
X114077253Y-109079819D01*
X114077253Y-109079819D02*
X113982015Y-109032200D01*
X113982015Y-109032200D02*
X113934396Y-108936961D01*
X113934396Y-108936961D02*
X113934396Y-108556009D01*
X113934396Y-108556009D02*
X113982015Y-108460771D01*
X113982015Y-108460771D02*
X114077253Y-108413152D01*
X114077253Y-108413152D02*
X114267729Y-108413152D01*
X114267729Y-108413152D02*
X114362967Y-108460771D01*
X114362967Y-108460771D02*
X114410586Y-108556009D01*
X114410586Y-108556009D02*
X114410586Y-108651247D01*
X114410586Y-108651247D02*
X113934396Y-108746485D01*
X114839158Y-109079819D02*
X114839158Y-108413152D01*
X114839158Y-108603628D02*
X114886777Y-108508390D01*
X114886777Y-108508390D02*
X114934396Y-108460771D01*
X114934396Y-108460771D02*
X115029634Y-108413152D01*
X115029634Y-108413152D02*
X115124872Y-108413152D01*
X115410587Y-108175057D02*
X115458206Y-108127438D01*
X115458206Y-108127438D02*
X115553444Y-108079819D01*
X115553444Y-108079819D02*
X115791539Y-108079819D01*
X115791539Y-108079819D02*
X115886777Y-108127438D01*
X115886777Y-108127438D02*
X115934396Y-108175057D01*
X115934396Y-108175057D02*
X115982015Y-108270295D01*
X115982015Y-108270295D02*
X115982015Y-108365533D01*
X115982015Y-108365533D02*
X115934396Y-108508390D01*
X115934396Y-108508390D02*
X115362968Y-109079819D01*
X115362968Y-109079819D02*
X115982015Y-109079819D01*
X97315350Y-110023152D02*
X97315350Y-110689819D01*
X97077255Y-109642200D02*
X96839160Y-110356485D01*
X96839160Y-110356485D02*
X97458207Y-110356485D01*
X97696303Y-110023152D02*
X98077255Y-110023152D01*
X97839160Y-109689819D02*
X97839160Y-110546961D01*
X97839160Y-110546961D02*
X97886779Y-110642200D01*
X97886779Y-110642200D02*
X97982017Y-110689819D01*
X97982017Y-110689819D02*
X98077255Y-110689819D01*
X98410589Y-110689819D02*
X98410589Y-109689819D01*
X98839160Y-110689819D02*
X98839160Y-110166009D01*
X98839160Y-110166009D02*
X98791541Y-110070771D01*
X98791541Y-110070771D02*
X98696303Y-110023152D01*
X98696303Y-110023152D02*
X98553446Y-110023152D01*
X98553446Y-110023152D02*
X98458208Y-110070771D01*
X98458208Y-110070771D02*
X98410589Y-110118390D01*
X100220113Y-110689819D02*
X100124875Y-110642200D01*
X100124875Y-110642200D02*
X100077256Y-110546961D01*
X100077256Y-110546961D02*
X100077256Y-109689819D01*
X101029637Y-110689819D02*
X101029637Y-110166009D01*
X101029637Y-110166009D02*
X100982018Y-110070771D01*
X100982018Y-110070771D02*
X100886780Y-110023152D01*
X100886780Y-110023152D02*
X100696304Y-110023152D01*
X100696304Y-110023152D02*
X100601066Y-110070771D01*
X101029637Y-110642200D02*
X100934399Y-110689819D01*
X100934399Y-110689819D02*
X100696304Y-110689819D01*
X100696304Y-110689819D02*
X100601066Y-110642200D01*
X100601066Y-110642200D02*
X100553447Y-110546961D01*
X100553447Y-110546961D02*
X100553447Y-110451723D01*
X100553447Y-110451723D02*
X100601066Y-110356485D01*
X100601066Y-110356485D02*
X100696304Y-110308866D01*
X100696304Y-110308866D02*
X100934399Y-110308866D01*
X100934399Y-110308866D02*
X101029637Y-110261247D01*
X101410590Y-110023152D02*
X101648685Y-110689819D01*
X101886780Y-110023152D02*
X101648685Y-110689819D01*
X101648685Y-110689819D02*
X101553447Y-110927914D01*
X101553447Y-110927914D02*
X101505828Y-110975533D01*
X101505828Y-110975533D02*
X101410590Y-111023152D01*
X102648685Y-110642200D02*
X102553447Y-110689819D01*
X102553447Y-110689819D02*
X102362971Y-110689819D01*
X102362971Y-110689819D02*
X102267733Y-110642200D01*
X102267733Y-110642200D02*
X102220114Y-110546961D01*
X102220114Y-110546961D02*
X102220114Y-110166009D01*
X102220114Y-110166009D02*
X102267733Y-110070771D01*
X102267733Y-110070771D02*
X102362971Y-110023152D01*
X102362971Y-110023152D02*
X102553447Y-110023152D01*
X102553447Y-110023152D02*
X102648685Y-110070771D01*
X102648685Y-110070771D02*
X102696304Y-110166009D01*
X102696304Y-110166009D02*
X102696304Y-110261247D01*
X102696304Y-110261247D02*
X102220114Y-110356485D01*
X103124876Y-110689819D02*
X103124876Y-110023152D01*
X103124876Y-110213628D02*
X103172495Y-110118390D01*
X103172495Y-110118390D02*
X103220114Y-110070771D01*
X103220114Y-110070771D02*
X103315352Y-110023152D01*
X103315352Y-110023152D02*
X103410590Y-110023152D01*
X58953922Y-103673152D02*
X59334874Y-103673152D01*
X59096779Y-104339819D02*
X59096779Y-103482676D01*
X59096779Y-103482676D02*
X59144398Y-103387438D01*
X59144398Y-103387438D02*
X59239636Y-103339819D01*
X59239636Y-103339819D02*
X59334874Y-103339819D01*
X59668208Y-104339819D02*
X59668208Y-103673152D01*
X59668208Y-103339819D02*
X59620589Y-103387438D01*
X59620589Y-103387438D02*
X59668208Y-103435057D01*
X59668208Y-103435057D02*
X59715827Y-103387438D01*
X59715827Y-103387438D02*
X59668208Y-103339819D01*
X59668208Y-103339819D02*
X59668208Y-103435057D01*
X60287255Y-104339819D02*
X60192017Y-104292200D01*
X60192017Y-104292200D02*
X60144398Y-104196961D01*
X60144398Y-104196961D02*
X60144398Y-103339819D01*
X61049160Y-104292200D02*
X60953922Y-104339819D01*
X60953922Y-104339819D02*
X60763446Y-104339819D01*
X60763446Y-104339819D02*
X60668208Y-104292200D01*
X60668208Y-104292200D02*
X60620589Y-104196961D01*
X60620589Y-104196961D02*
X60620589Y-103816009D01*
X60620589Y-103816009D02*
X60668208Y-103720771D01*
X60668208Y-103720771D02*
X60763446Y-103673152D01*
X60763446Y-103673152D02*
X60953922Y-103673152D01*
X60953922Y-103673152D02*
X61049160Y-103720771D01*
X61049160Y-103720771D02*
X61096779Y-103816009D01*
X61096779Y-103816009D02*
X61096779Y-103911247D01*
X61096779Y-103911247D02*
X60620589Y-104006485D01*
X61525351Y-104244580D02*
X61572970Y-104292200D01*
X61572970Y-104292200D02*
X61525351Y-104339819D01*
X61525351Y-104339819D02*
X61477732Y-104292200D01*
X61477732Y-104292200D02*
X61525351Y-104244580D01*
X61525351Y-104244580D02*
X61525351Y-104339819D01*
X61525351Y-103720771D02*
X61572970Y-103768390D01*
X61572970Y-103768390D02*
X61525351Y-103816009D01*
X61525351Y-103816009D02*
X61477732Y-103768390D01*
X61477732Y-103768390D02*
X61525351Y-103720771D01*
X61525351Y-103720771D02*
X61525351Y-103816009D01*
X61906303Y-103673152D02*
X62144398Y-104339819D01*
X62144398Y-104339819D02*
X62382493Y-103673152D01*
X63144398Y-104292200D02*
X63049160Y-104339819D01*
X63049160Y-104339819D02*
X62858684Y-104339819D01*
X62858684Y-104339819D02*
X62763446Y-104292200D01*
X62763446Y-104292200D02*
X62715827Y-104196961D01*
X62715827Y-104196961D02*
X62715827Y-103816009D01*
X62715827Y-103816009D02*
X62763446Y-103720771D01*
X62763446Y-103720771D02*
X62858684Y-103673152D01*
X62858684Y-103673152D02*
X63049160Y-103673152D01*
X63049160Y-103673152D02*
X63144398Y-103720771D01*
X63144398Y-103720771D02*
X63192017Y-103816009D01*
X63192017Y-103816009D02*
X63192017Y-103911247D01*
X63192017Y-103911247D02*
X62715827Y-104006485D01*
X63620589Y-104339819D02*
X63620589Y-103673152D01*
X63620589Y-103863628D02*
X63668208Y-103768390D01*
X63668208Y-103768390D02*
X63715827Y-103720771D01*
X63715827Y-103720771D02*
X63811065Y-103673152D01*
X63811065Y-103673152D02*
X63906303Y-103673152D01*
X64192018Y-103435057D02*
X64239637Y-103387438D01*
X64239637Y-103387438D02*
X64334875Y-103339819D01*
X64334875Y-103339819D02*
X64572970Y-103339819D01*
X64572970Y-103339819D02*
X64668208Y-103387438D01*
X64668208Y-103387438D02*
X64715827Y-103435057D01*
X64715827Y-103435057D02*
X64763446Y-103530295D01*
X64763446Y-103530295D02*
X64763446Y-103625533D01*
X64763446Y-103625533D02*
X64715827Y-103768390D01*
X64715827Y-103768390D02*
X64144399Y-104339819D01*
X64144399Y-104339819D02*
X64763446Y-104339819D01*
X47682255Y-34759819D02*
X47872731Y-34759819D01*
X47872731Y-34759819D02*
X47967969Y-34807438D01*
X47967969Y-34807438D02*
X48063207Y-34902676D01*
X48063207Y-34902676D02*
X48110826Y-35093152D01*
X48110826Y-35093152D02*
X48110826Y-35426485D01*
X48110826Y-35426485D02*
X48063207Y-35616961D01*
X48063207Y-35616961D02*
X47967969Y-35712200D01*
X47967969Y-35712200D02*
X47872731Y-35759819D01*
X47872731Y-35759819D02*
X47682255Y-35759819D01*
X47682255Y-35759819D02*
X47587017Y-35712200D01*
X47587017Y-35712200D02*
X47491779Y-35616961D01*
X47491779Y-35616961D02*
X47444160Y-35426485D01*
X47444160Y-35426485D02*
X47444160Y-35093152D01*
X47444160Y-35093152D02*
X47491779Y-34902676D01*
X47491779Y-34902676D02*
X47587017Y-34807438D01*
X47587017Y-34807438D02*
X47682255Y-34759819D01*
X48539398Y-35759819D02*
X48539398Y-34759819D01*
X48539398Y-34759819D02*
X49110826Y-35759819D01*
X49110826Y-35759819D02*
X49110826Y-34759819D01*
X89044160Y-52295057D02*
X89091779Y-52247438D01*
X89091779Y-52247438D02*
X89187017Y-52199819D01*
X89187017Y-52199819D02*
X89425112Y-52199819D01*
X89425112Y-52199819D02*
X89520350Y-52247438D01*
X89520350Y-52247438D02*
X89567969Y-52295057D01*
X89567969Y-52295057D02*
X89615588Y-52390295D01*
X89615588Y-52390295D02*
X89615588Y-52485533D01*
X89615588Y-52485533D02*
X89567969Y-52628390D01*
X89567969Y-52628390D02*
X88996541Y-53199819D01*
X88996541Y-53199819D02*
X89615588Y-53199819D01*
X90234636Y-52199819D02*
X90329874Y-52199819D01*
X90329874Y-52199819D02*
X90425112Y-52247438D01*
X90425112Y-52247438D02*
X90472731Y-52295057D01*
X90472731Y-52295057D02*
X90520350Y-52390295D01*
X90520350Y-52390295D02*
X90567969Y-52580771D01*
X90567969Y-52580771D02*
X90567969Y-52818866D01*
X90567969Y-52818866D02*
X90520350Y-53009342D01*
X90520350Y-53009342D02*
X90472731Y-53104580D01*
X90472731Y-53104580D02*
X90425112Y-53152200D01*
X90425112Y-53152200D02*
X90329874Y-53199819D01*
X90329874Y-53199819D02*
X90234636Y-53199819D01*
X90234636Y-53199819D02*
X90139398Y-53152200D01*
X90139398Y-53152200D02*
X90091779Y-53104580D01*
X90091779Y-53104580D02*
X90044160Y-53009342D01*
X90044160Y-53009342D02*
X89996541Y-52818866D01*
X89996541Y-52818866D02*
X89996541Y-52580771D01*
X89996541Y-52580771D02*
X90044160Y-52390295D01*
X90044160Y-52390295D02*
X90091779Y-52295057D01*
X90091779Y-52295057D02*
X90139398Y-52247438D01*
X90139398Y-52247438D02*
X90234636Y-52199819D01*
X90948922Y-52295057D02*
X90996541Y-52247438D01*
X90996541Y-52247438D02*
X91091779Y-52199819D01*
X91091779Y-52199819D02*
X91329874Y-52199819D01*
X91329874Y-52199819D02*
X91425112Y-52247438D01*
X91425112Y-52247438D02*
X91472731Y-52295057D01*
X91472731Y-52295057D02*
X91520350Y-52390295D01*
X91520350Y-52390295D02*
X91520350Y-52485533D01*
X91520350Y-52485533D02*
X91472731Y-52628390D01*
X91472731Y-52628390D02*
X90901303Y-53199819D01*
X90901303Y-53199819D02*
X91520350Y-53199819D01*
X92377493Y-52533152D02*
X92377493Y-53199819D01*
X92139398Y-52152200D02*
X91901303Y-52866485D01*
X91901303Y-52866485D02*
X92520350Y-52866485D01*
X92996541Y-52295057D02*
X93901303Y-52295057D01*
X92758446Y-52533152D02*
X93996541Y-52533152D01*
X92758446Y-52866485D02*
X93996541Y-52866485D01*
X92996541Y-52199819D02*
X92996541Y-52866485D01*
X93187017Y-53009342D02*
X93187017Y-53199819D01*
X93234636Y-52247438D02*
X93234636Y-52866485D01*
X93520350Y-52247438D02*
X93520350Y-52866485D01*
X93758446Y-52247438D02*
X93758446Y-52866485D01*
X93806065Y-53009342D02*
X93996541Y-53199819D01*
X92901303Y-53056961D02*
X92758446Y-53199819D01*
X93044160Y-52152200D02*
X92758446Y-52390295D01*
X93520350Y-53009342D02*
X93567969Y-53199819D01*
X94806064Y-52390295D02*
X95377493Y-52390295D01*
X94806064Y-52580771D02*
X95377493Y-52580771D01*
X94234636Y-52676009D02*
X94663207Y-52676009D01*
X94901302Y-53199819D02*
X95091778Y-53199819D01*
X94472731Y-52628390D02*
X94472731Y-53199819D01*
X94806064Y-52199819D02*
X94806064Y-52580771D01*
X95091778Y-52580771D02*
X95091778Y-53199819D01*
X94806064Y-52199819D02*
X95377493Y-52199819D01*
X95377493Y-52199819D02*
X95425112Y-52580771D01*
X95377493Y-52723628D02*
X95234636Y-52866485D01*
X94282255Y-52295057D02*
X94472731Y-52485533D01*
X94472731Y-52485533D02*
X94282255Y-52628390D01*
X95044159Y-52056961D02*
X94996540Y-52199819D01*
X94615588Y-52818866D02*
X94663207Y-53009342D01*
X94567969Y-52485533D02*
X94663207Y-52723628D01*
X94425112Y-52056961D02*
X94329874Y-52342676D01*
X94567969Y-52199819D02*
X94472731Y-52485533D01*
X94329874Y-52818866D02*
X94234636Y-53104580D01*
X94758445Y-52818866D02*
X94996540Y-52818866D01*
X94996540Y-52818866D02*
X94901302Y-53009342D01*
X94901302Y-53009342D02*
X94710826Y-53152200D01*
X95091778Y-52676009D02*
X95234636Y-52914104D01*
X95234636Y-52914104D02*
X95425112Y-53152200D01*
X96329873Y-52247438D02*
X96901302Y-52247438D01*
X95901302Y-52818866D02*
X96806064Y-52818866D01*
X95901302Y-52485533D02*
X95901302Y-52818866D01*
X96187016Y-53009342D02*
X96187016Y-53199819D01*
X96329873Y-52056961D02*
X96329873Y-52485533D01*
X95901302Y-52485533D02*
X96806064Y-52485533D01*
X96806064Y-52485533D02*
X96806064Y-52818866D01*
X96758445Y-52961723D02*
X96948921Y-53152200D01*
X95901302Y-53009342D02*
X95710826Y-53199819D01*
X96472730Y-53009342D02*
X96567968Y-53199819D01*
X97806063Y-52104580D02*
X97806063Y-52628390D01*
X97806063Y-52628390D02*
X97948920Y-52866485D01*
X97948920Y-52866485D02*
X98091778Y-53056961D01*
X98091778Y-53056961D02*
X98425111Y-53199819D01*
X98329873Y-52342676D02*
X98187016Y-52628390D01*
X97425111Y-52342676D02*
X97282254Y-52676009D01*
X97806063Y-52580771D02*
X97663206Y-52866485D01*
X97663206Y-52866485D02*
X97472730Y-53056961D01*
X97472730Y-53056961D02*
X97187016Y-53199819D01*
X99139396Y-52295057D02*
X99901301Y-52295057D01*
X99187015Y-52580771D02*
X99853682Y-52580771D01*
X98663206Y-52771247D02*
X99901301Y-52771247D01*
X99044158Y-52914104D02*
X99044158Y-53152200D01*
X98996539Y-52056961D02*
X98996539Y-52628390D01*
X99520348Y-52056961D02*
X99520348Y-52580771D01*
X98758444Y-52152200D02*
X98853682Y-52247438D01*
X99282253Y-52771247D02*
X99520348Y-53056961D01*
X99520348Y-53056961D02*
X99901301Y-53199819D01*
X99758444Y-52866485D02*
X99472729Y-53009342D01*
X98901301Y-52437914D02*
X98663206Y-52533152D01*
X99282253Y-52628390D02*
X99282253Y-52818866D01*
X99282253Y-52818866D02*
X98948920Y-52961723D01*
X98948920Y-52961723D02*
X98663206Y-53009342D01*
X99329872Y-53152200D02*
X98901301Y-53199819D01*
X100187015Y-52342676D02*
X101282253Y-52342676D01*
X100139396Y-52437914D02*
X101329872Y-52437914D01*
X100472729Y-52723628D02*
X101187015Y-52723628D01*
X100472729Y-52866485D02*
X101187015Y-52866485D01*
X100472729Y-53009342D02*
X101187015Y-53009342D01*
X100234634Y-53152200D02*
X101377491Y-53152200D01*
X100187015Y-52104580D02*
X100187015Y-52295057D01*
X100234634Y-52628390D02*
X100234634Y-53199819D01*
X100472729Y-52580771D02*
X100472729Y-53009342D01*
X100567967Y-52104580D02*
X100567967Y-52295057D01*
X100901300Y-52104580D02*
X100901300Y-52295057D01*
X100472729Y-52580771D02*
X101187015Y-52580771D01*
X101187015Y-52580771D02*
X101187015Y-53009342D01*
X100187015Y-52104580D02*
X101282253Y-52104580D01*
X101282253Y-52104580D02*
X101282253Y-52295057D01*
X100758443Y-52342676D02*
X100758443Y-52628390D01*
X89044160Y-53905057D02*
X89091779Y-53857438D01*
X89091779Y-53857438D02*
X89187017Y-53809819D01*
X89187017Y-53809819D02*
X89425112Y-53809819D01*
X89425112Y-53809819D02*
X89520350Y-53857438D01*
X89520350Y-53857438D02*
X89567969Y-53905057D01*
X89567969Y-53905057D02*
X89615588Y-54000295D01*
X89615588Y-54000295D02*
X89615588Y-54095533D01*
X89615588Y-54095533D02*
X89567969Y-54238390D01*
X89567969Y-54238390D02*
X88996541Y-54809819D01*
X88996541Y-54809819D02*
X89615588Y-54809819D01*
X90044160Y-54143152D02*
X90044160Y-54809819D01*
X90044160Y-54238390D02*
X90091779Y-54190771D01*
X90091779Y-54190771D02*
X90187017Y-54143152D01*
X90187017Y-54143152D02*
X90329874Y-54143152D01*
X90329874Y-54143152D02*
X90425112Y-54190771D01*
X90425112Y-54190771D02*
X90472731Y-54286009D01*
X90472731Y-54286009D02*
X90472731Y-54809819D01*
X91377493Y-54809819D02*
X91377493Y-53809819D01*
X91377493Y-54762200D02*
X91282255Y-54809819D01*
X91282255Y-54809819D02*
X91091779Y-54809819D01*
X91091779Y-54809819D02*
X90996541Y-54762200D01*
X90996541Y-54762200D02*
X90948922Y-54714580D01*
X90948922Y-54714580D02*
X90901303Y-54619342D01*
X90901303Y-54619342D02*
X90901303Y-54333628D01*
X90901303Y-54333628D02*
X90948922Y-54238390D01*
X90948922Y-54238390D02*
X90996541Y-54190771D01*
X90996541Y-54190771D02*
X91091779Y-54143152D01*
X91091779Y-54143152D02*
X91282255Y-54143152D01*
X91282255Y-54143152D02*
X91377493Y-54190771D01*
X92758446Y-54809819D02*
X92663208Y-54762200D01*
X92663208Y-54762200D02*
X92615589Y-54666961D01*
X92615589Y-54666961D02*
X92615589Y-53809819D01*
X93567970Y-54809819D02*
X93567970Y-54286009D01*
X93567970Y-54286009D02*
X93520351Y-54190771D01*
X93520351Y-54190771D02*
X93425113Y-54143152D01*
X93425113Y-54143152D02*
X93234637Y-54143152D01*
X93234637Y-54143152D02*
X93139399Y-54190771D01*
X93567970Y-54762200D02*
X93472732Y-54809819D01*
X93472732Y-54809819D02*
X93234637Y-54809819D01*
X93234637Y-54809819D02*
X93139399Y-54762200D01*
X93139399Y-54762200D02*
X93091780Y-54666961D01*
X93091780Y-54666961D02*
X93091780Y-54571723D01*
X93091780Y-54571723D02*
X93139399Y-54476485D01*
X93139399Y-54476485D02*
X93234637Y-54428866D01*
X93234637Y-54428866D02*
X93472732Y-54428866D01*
X93472732Y-54428866D02*
X93567970Y-54381247D01*
X93948923Y-54143152D02*
X94187018Y-54809819D01*
X94425113Y-54143152D02*
X94187018Y-54809819D01*
X94187018Y-54809819D02*
X94091780Y-55047914D01*
X94091780Y-55047914D02*
X94044161Y-55095533D01*
X94044161Y-55095533D02*
X93948923Y-55143152D01*
X95187018Y-54762200D02*
X95091780Y-54809819D01*
X95091780Y-54809819D02*
X94901304Y-54809819D01*
X94901304Y-54809819D02*
X94806066Y-54762200D01*
X94806066Y-54762200D02*
X94758447Y-54666961D01*
X94758447Y-54666961D02*
X94758447Y-54286009D01*
X94758447Y-54286009D02*
X94806066Y-54190771D01*
X94806066Y-54190771D02*
X94901304Y-54143152D01*
X94901304Y-54143152D02*
X95091780Y-54143152D01*
X95091780Y-54143152D02*
X95187018Y-54190771D01*
X95187018Y-54190771D02*
X95234637Y-54286009D01*
X95234637Y-54286009D02*
X95234637Y-54381247D01*
X95234637Y-54381247D02*
X94758447Y-54476485D01*
X95663209Y-54809819D02*
X95663209Y-54143152D01*
X95663209Y-54333628D02*
X95710828Y-54238390D01*
X95710828Y-54238390D02*
X95758447Y-54190771D01*
X95758447Y-54190771D02*
X95853685Y-54143152D01*
X95853685Y-54143152D02*
X95948923Y-54143152D01*
D11*
X58659333Y-116357419D02*
X58326000Y-115881228D01*
X58087905Y-116357419D02*
X58087905Y-115357419D01*
X58087905Y-115357419D02*
X58468857Y-115357419D01*
X58468857Y-115357419D02*
X58564095Y-115405038D01*
X58564095Y-115405038D02*
X58611714Y-115452657D01*
X58611714Y-115452657D02*
X58659333Y-115547895D01*
X58659333Y-115547895D02*
X58659333Y-115690752D01*
X58659333Y-115690752D02*
X58611714Y-115785990D01*
X58611714Y-115785990D02*
X58564095Y-115833609D01*
X58564095Y-115833609D02*
X58468857Y-115881228D01*
X58468857Y-115881228D02*
X58087905Y-115881228D01*
X58992667Y-115357419D02*
X59611714Y-115357419D01*
X59611714Y-115357419D02*
X59278381Y-115738371D01*
X59278381Y-115738371D02*
X59421238Y-115738371D01*
X59421238Y-115738371D02*
X59516476Y-115785990D01*
X59516476Y-115785990D02*
X59564095Y-115833609D01*
X59564095Y-115833609D02*
X59611714Y-115928847D01*
X59611714Y-115928847D02*
X59611714Y-116166942D01*
X59611714Y-116166942D02*
X59564095Y-116262180D01*
X59564095Y-116262180D02*
X59516476Y-116309800D01*
X59516476Y-116309800D02*
X59421238Y-116357419D01*
X59421238Y-116357419D02*
X59135524Y-116357419D01*
X59135524Y-116357419D02*
X59040286Y-116309800D01*
X59040286Y-116309800D02*
X58992667Y-116262180D01*
X52314761Y-113277657D02*
X52219523Y-113230038D01*
X52219523Y-113230038D02*
X52124285Y-113134800D01*
X52124285Y-113134800D02*
X51981428Y-112991942D01*
X51981428Y-112991942D02*
X51886190Y-112944323D01*
X51886190Y-112944323D02*
X51790952Y-112944323D01*
X51838571Y-113182419D02*
X51743333Y-113134800D01*
X51743333Y-113134800D02*
X51648095Y-113039561D01*
X51648095Y-113039561D02*
X51600476Y-112849085D01*
X51600476Y-112849085D02*
X51600476Y-112515752D01*
X51600476Y-112515752D02*
X51648095Y-112325276D01*
X51648095Y-112325276D02*
X51743333Y-112230038D01*
X51743333Y-112230038D02*
X51838571Y-112182419D01*
X51838571Y-112182419D02*
X52029047Y-112182419D01*
X52029047Y-112182419D02*
X52124285Y-112230038D01*
X52124285Y-112230038D02*
X52219523Y-112325276D01*
X52219523Y-112325276D02*
X52267142Y-112515752D01*
X52267142Y-112515752D02*
X52267142Y-112849085D01*
X52267142Y-112849085D02*
X52219523Y-113039561D01*
X52219523Y-113039561D02*
X52124285Y-113134800D01*
X52124285Y-113134800D02*
X52029047Y-113182419D01*
X52029047Y-113182419D02*
X51838571Y-113182419D01*
X53219523Y-113182419D02*
X52648095Y-113182419D01*
X52933809Y-113182419D02*
X52933809Y-112182419D01*
X52933809Y-112182419D02*
X52838571Y-112325276D01*
X52838571Y-112325276D02*
X52743333Y-112420514D01*
X52743333Y-112420514D02*
X52648095Y-112468133D01*
D10*
X51529047Y-103766009D02*
X51671904Y-103813628D01*
X51671904Y-103813628D02*
X51719523Y-103861247D01*
X51719523Y-103861247D02*
X51767142Y-103956485D01*
X51767142Y-103956485D02*
X51767142Y-104099342D01*
X51767142Y-104099342D02*
X51719523Y-104194580D01*
X51719523Y-104194580D02*
X51671904Y-104242200D01*
X51671904Y-104242200D02*
X51576666Y-104289819D01*
X51576666Y-104289819D02*
X51195714Y-104289819D01*
X51195714Y-104289819D02*
X51195714Y-103289819D01*
X51195714Y-103289819D02*
X51529047Y-103289819D01*
X51529047Y-103289819D02*
X51624285Y-103337438D01*
X51624285Y-103337438D02*
X51671904Y-103385057D01*
X51671904Y-103385057D02*
X51719523Y-103480295D01*
X51719523Y-103480295D02*
X51719523Y-103575533D01*
X51719523Y-103575533D02*
X51671904Y-103670771D01*
X51671904Y-103670771D02*
X51624285Y-103718390D01*
X51624285Y-103718390D02*
X51529047Y-103766009D01*
X51529047Y-103766009D02*
X51195714Y-103766009D01*
X52100476Y-103289819D02*
X52767142Y-103289819D01*
X52767142Y-103289819D02*
X52100476Y-104289819D01*
X52100476Y-104289819D02*
X52767142Y-104289819D01*
X53671904Y-104289819D02*
X53100476Y-104289819D01*
X53386190Y-104289819D02*
X53386190Y-103289819D01*
X53386190Y-103289819D02*
X53290952Y-103432676D01*
X53290952Y-103432676D02*
X53195714Y-103527914D01*
X53195714Y-103527914D02*
X53100476Y-103575533D01*
X54229048Y-100293866D02*
X54990953Y-100293866D01*
X54610000Y-100674819D02*
X54610000Y-99912914D01*
D11*
X49327221Y-35029800D02*
X49470078Y-35077419D01*
X49470078Y-35077419D02*
X49708173Y-35077419D01*
X49708173Y-35077419D02*
X49803411Y-35029800D01*
X49803411Y-35029800D02*
X49851030Y-34982180D01*
X49851030Y-34982180D02*
X49898649Y-34886942D01*
X49898649Y-34886942D02*
X49898649Y-34791704D01*
X49898649Y-34791704D02*
X49851030Y-34696466D01*
X49851030Y-34696466D02*
X49803411Y-34648847D01*
X49803411Y-34648847D02*
X49708173Y-34601228D01*
X49708173Y-34601228D02*
X49517697Y-34553609D01*
X49517697Y-34553609D02*
X49422459Y-34505990D01*
X49422459Y-34505990D02*
X49374840Y-34458371D01*
X49374840Y-34458371D02*
X49327221Y-34363133D01*
X49327221Y-34363133D02*
X49327221Y-34267895D01*
X49327221Y-34267895D02*
X49374840Y-34172657D01*
X49374840Y-34172657D02*
X49422459Y-34125038D01*
X49422459Y-34125038D02*
X49517697Y-34077419D01*
X49517697Y-34077419D02*
X49755792Y-34077419D01*
X49755792Y-34077419D02*
X49898649Y-34125038D01*
X50231983Y-34077419D02*
X50470078Y-35077419D01*
X50470078Y-35077419D02*
X50660554Y-34363133D01*
X50660554Y-34363133D02*
X50851030Y-35077419D01*
X50851030Y-35077419D02*
X51089126Y-34077419D01*
X51993887Y-35077419D02*
X51422459Y-35077419D01*
X51708173Y-35077419D02*
X51708173Y-34077419D01*
X51708173Y-34077419D02*
X51612935Y-34220276D01*
X51612935Y-34220276D02*
X51517697Y-34315514D01*
X51517697Y-34315514D02*
X51422459Y-34363133D01*
D10*
X41339580Y-112891666D02*
X41387200Y-112939285D01*
X41387200Y-112939285D02*
X41434819Y-113082142D01*
X41434819Y-113082142D02*
X41434819Y-113177380D01*
X41434819Y-113177380D02*
X41387200Y-113320237D01*
X41387200Y-113320237D02*
X41291961Y-113415475D01*
X41291961Y-113415475D02*
X41196723Y-113463094D01*
X41196723Y-113463094D02*
X41006247Y-113510713D01*
X41006247Y-113510713D02*
X40863390Y-113510713D01*
X40863390Y-113510713D02*
X40672914Y-113463094D01*
X40672914Y-113463094D02*
X40577676Y-113415475D01*
X40577676Y-113415475D02*
X40482438Y-113320237D01*
X40482438Y-113320237D02*
X40434819Y-113177380D01*
X40434819Y-113177380D02*
X40434819Y-113082142D01*
X40434819Y-113082142D02*
X40482438Y-112939285D01*
X40482438Y-112939285D02*
X40530057Y-112891666D01*
X40434819Y-112558332D02*
X40434819Y-111939285D01*
X40434819Y-111939285D02*
X40815771Y-112272618D01*
X40815771Y-112272618D02*
X40815771Y-112129761D01*
X40815771Y-112129761D02*
X40863390Y-112034523D01*
X40863390Y-112034523D02*
X40911009Y-111986904D01*
X40911009Y-111986904D02*
X41006247Y-111939285D01*
X41006247Y-111939285D02*
X41244342Y-111939285D01*
X41244342Y-111939285D02*
X41339580Y-111986904D01*
X41339580Y-111986904D02*
X41387200Y-112034523D01*
X41387200Y-112034523D02*
X41434819Y-112129761D01*
X41434819Y-112129761D02*
X41434819Y-112415475D01*
X41434819Y-112415475D02*
X41387200Y-112510713D01*
X41387200Y-112510713D02*
X41339580Y-112558332D01*
D11*
X102584761Y-74352180D02*
X102537142Y-74399800D01*
X102537142Y-74399800D02*
X102394285Y-74447419D01*
X102394285Y-74447419D02*
X102299047Y-74447419D01*
X102299047Y-74447419D02*
X102156190Y-74399800D01*
X102156190Y-74399800D02*
X102060952Y-74304561D01*
X102060952Y-74304561D02*
X102013333Y-74209323D01*
X102013333Y-74209323D02*
X101965714Y-74018847D01*
X101965714Y-74018847D02*
X101965714Y-73875990D01*
X101965714Y-73875990D02*
X102013333Y-73685514D01*
X102013333Y-73685514D02*
X102060952Y-73590276D01*
X102060952Y-73590276D02*
X102156190Y-73495038D01*
X102156190Y-73495038D02*
X102299047Y-73447419D01*
X102299047Y-73447419D02*
X102394285Y-73447419D01*
X102394285Y-73447419D02*
X102537142Y-73495038D01*
X102537142Y-73495038D02*
X102584761Y-73542657D01*
X103203809Y-73447419D02*
X103394285Y-73447419D01*
X103394285Y-73447419D02*
X103489523Y-73495038D01*
X103489523Y-73495038D02*
X103584761Y-73590276D01*
X103584761Y-73590276D02*
X103632380Y-73780752D01*
X103632380Y-73780752D02*
X103632380Y-74114085D01*
X103632380Y-74114085D02*
X103584761Y-74304561D01*
X103584761Y-74304561D02*
X103489523Y-74399800D01*
X103489523Y-74399800D02*
X103394285Y-74447419D01*
X103394285Y-74447419D02*
X103203809Y-74447419D01*
X103203809Y-74447419D02*
X103108571Y-74399800D01*
X103108571Y-74399800D02*
X103013333Y-74304561D01*
X103013333Y-74304561D02*
X102965714Y-74114085D01*
X102965714Y-74114085D02*
X102965714Y-73780752D01*
X102965714Y-73780752D02*
X103013333Y-73590276D01*
X103013333Y-73590276D02*
X103108571Y-73495038D01*
X103108571Y-73495038D02*
X103203809Y-73447419D01*
X104060952Y-74447419D02*
X104060952Y-73447419D01*
X104060952Y-73447419D02*
X104632380Y-74447419D01*
X104632380Y-74447419D02*
X104632380Y-73447419D01*
X105108571Y-74447419D02*
X105108571Y-73447419D01*
X105108571Y-73447419D02*
X105679999Y-74447419D01*
X105679999Y-74447419D02*
X105679999Y-73447419D01*
X106156190Y-73923609D02*
X106489523Y-73923609D01*
X106632380Y-74447419D02*
X106156190Y-74447419D01*
X106156190Y-74447419D02*
X106156190Y-73447419D01*
X106156190Y-73447419D02*
X106632380Y-73447419D01*
X107632380Y-74352180D02*
X107584761Y-74399800D01*
X107584761Y-74399800D02*
X107441904Y-74447419D01*
X107441904Y-74447419D02*
X107346666Y-74447419D01*
X107346666Y-74447419D02*
X107203809Y-74399800D01*
X107203809Y-74399800D02*
X107108571Y-74304561D01*
X107108571Y-74304561D02*
X107060952Y-74209323D01*
X107060952Y-74209323D02*
X107013333Y-74018847D01*
X107013333Y-74018847D02*
X107013333Y-73875990D01*
X107013333Y-73875990D02*
X107060952Y-73685514D01*
X107060952Y-73685514D02*
X107108571Y-73590276D01*
X107108571Y-73590276D02*
X107203809Y-73495038D01*
X107203809Y-73495038D02*
X107346666Y-73447419D01*
X107346666Y-73447419D02*
X107441904Y-73447419D01*
X107441904Y-73447419D02*
X107584761Y-73495038D01*
X107584761Y-73495038D02*
X107632380Y-73542657D01*
X107918095Y-73447419D02*
X108489523Y-73447419D01*
X108203809Y-74447419D02*
X108203809Y-73447419D01*
X109013333Y-73447419D02*
X109203809Y-73447419D01*
X109203809Y-73447419D02*
X109299047Y-73495038D01*
X109299047Y-73495038D02*
X109394285Y-73590276D01*
X109394285Y-73590276D02*
X109441904Y-73780752D01*
X109441904Y-73780752D02*
X109441904Y-74114085D01*
X109441904Y-74114085D02*
X109394285Y-74304561D01*
X109394285Y-74304561D02*
X109299047Y-74399800D01*
X109299047Y-74399800D02*
X109203809Y-74447419D01*
X109203809Y-74447419D02*
X109013333Y-74447419D01*
X109013333Y-74447419D02*
X108918095Y-74399800D01*
X108918095Y-74399800D02*
X108822857Y-74304561D01*
X108822857Y-74304561D02*
X108775238Y-74114085D01*
X108775238Y-74114085D02*
X108775238Y-73780752D01*
X108775238Y-73780752D02*
X108822857Y-73590276D01*
X108822857Y-73590276D02*
X108918095Y-73495038D01*
X108918095Y-73495038D02*
X109013333Y-73447419D01*
X110441904Y-74447419D02*
X110108571Y-73971228D01*
X109870476Y-74447419D02*
X109870476Y-73447419D01*
X109870476Y-73447419D02*
X110251428Y-73447419D01*
X110251428Y-73447419D02*
X110346666Y-73495038D01*
X110346666Y-73495038D02*
X110394285Y-73542657D01*
X110394285Y-73542657D02*
X110441904Y-73637895D01*
X110441904Y-73637895D02*
X110441904Y-73780752D01*
X110441904Y-73780752D02*
X110394285Y-73875990D01*
X110394285Y-73875990D02*
X110346666Y-73923609D01*
X110346666Y-73923609D02*
X110251428Y-73971228D01*
X110251428Y-73971228D02*
X109870476Y-73971228D01*
X110775238Y-73447419D02*
X111394285Y-73447419D01*
X111394285Y-73447419D02*
X111060952Y-73828371D01*
X111060952Y-73828371D02*
X111203809Y-73828371D01*
X111203809Y-73828371D02*
X111299047Y-73875990D01*
X111299047Y-73875990D02*
X111346666Y-73923609D01*
X111346666Y-73923609D02*
X111394285Y-74018847D01*
X111394285Y-74018847D02*
X111394285Y-74256942D01*
X111394285Y-74256942D02*
X111346666Y-74352180D01*
X111346666Y-74352180D02*
X111299047Y-74399800D01*
X111299047Y-74399800D02*
X111203809Y-74447419D01*
X111203809Y-74447419D02*
X110918095Y-74447419D01*
X110918095Y-74447419D02*
X110822857Y-74399800D01*
X110822857Y-74399800D02*
X110775238Y-74352180D01*
X113955333Y-60477419D02*
X113622000Y-60001228D01*
X113383905Y-60477419D02*
X113383905Y-59477419D01*
X113383905Y-59477419D02*
X113764857Y-59477419D01*
X113764857Y-59477419D02*
X113860095Y-59525038D01*
X113860095Y-59525038D02*
X113907714Y-59572657D01*
X113907714Y-59572657D02*
X113955333Y-59667895D01*
X113955333Y-59667895D02*
X113955333Y-59810752D01*
X113955333Y-59810752D02*
X113907714Y-59905990D01*
X113907714Y-59905990D02*
X113860095Y-59953609D01*
X113860095Y-59953609D02*
X113764857Y-60001228D01*
X113764857Y-60001228D02*
X113383905Y-60001228D01*
X114431524Y-60477419D02*
X114622000Y-60477419D01*
X114622000Y-60477419D02*
X114717238Y-60429800D01*
X114717238Y-60429800D02*
X114764857Y-60382180D01*
X114764857Y-60382180D02*
X114860095Y-60239323D01*
X114860095Y-60239323D02*
X114907714Y-60048847D01*
X114907714Y-60048847D02*
X114907714Y-59667895D01*
X114907714Y-59667895D02*
X114860095Y-59572657D01*
X114860095Y-59572657D02*
X114812476Y-59525038D01*
X114812476Y-59525038D02*
X114717238Y-59477419D01*
X114717238Y-59477419D02*
X114526762Y-59477419D01*
X114526762Y-59477419D02*
X114431524Y-59525038D01*
X114431524Y-59525038D02*
X114383905Y-59572657D01*
X114383905Y-59572657D02*
X114336286Y-59667895D01*
X114336286Y-59667895D02*
X114336286Y-59905990D01*
X114336286Y-59905990D02*
X114383905Y-60001228D01*
X114383905Y-60001228D02*
X114431524Y-60048847D01*
X114431524Y-60048847D02*
X114526762Y-60096466D01*
X114526762Y-60096466D02*
X114717238Y-60096466D01*
X114717238Y-60096466D02*
X114812476Y-60048847D01*
X114812476Y-60048847D02*
X114860095Y-60001228D01*
X114860095Y-60001228D02*
X114907714Y-59905990D01*
X102584761Y-85147180D02*
X102537142Y-85194800D01*
X102537142Y-85194800D02*
X102394285Y-85242419D01*
X102394285Y-85242419D02*
X102299047Y-85242419D01*
X102299047Y-85242419D02*
X102156190Y-85194800D01*
X102156190Y-85194800D02*
X102060952Y-85099561D01*
X102060952Y-85099561D02*
X102013333Y-85004323D01*
X102013333Y-85004323D02*
X101965714Y-84813847D01*
X101965714Y-84813847D02*
X101965714Y-84670990D01*
X101965714Y-84670990D02*
X102013333Y-84480514D01*
X102013333Y-84480514D02*
X102060952Y-84385276D01*
X102060952Y-84385276D02*
X102156190Y-84290038D01*
X102156190Y-84290038D02*
X102299047Y-84242419D01*
X102299047Y-84242419D02*
X102394285Y-84242419D01*
X102394285Y-84242419D02*
X102537142Y-84290038D01*
X102537142Y-84290038D02*
X102584761Y-84337657D01*
X103203809Y-84242419D02*
X103394285Y-84242419D01*
X103394285Y-84242419D02*
X103489523Y-84290038D01*
X103489523Y-84290038D02*
X103584761Y-84385276D01*
X103584761Y-84385276D02*
X103632380Y-84575752D01*
X103632380Y-84575752D02*
X103632380Y-84909085D01*
X103632380Y-84909085D02*
X103584761Y-85099561D01*
X103584761Y-85099561D02*
X103489523Y-85194800D01*
X103489523Y-85194800D02*
X103394285Y-85242419D01*
X103394285Y-85242419D02*
X103203809Y-85242419D01*
X103203809Y-85242419D02*
X103108571Y-85194800D01*
X103108571Y-85194800D02*
X103013333Y-85099561D01*
X103013333Y-85099561D02*
X102965714Y-84909085D01*
X102965714Y-84909085D02*
X102965714Y-84575752D01*
X102965714Y-84575752D02*
X103013333Y-84385276D01*
X103013333Y-84385276D02*
X103108571Y-84290038D01*
X103108571Y-84290038D02*
X103203809Y-84242419D01*
X104060952Y-85242419D02*
X104060952Y-84242419D01*
X104060952Y-84242419D02*
X104632380Y-85242419D01*
X104632380Y-85242419D02*
X104632380Y-84242419D01*
X105108571Y-85242419D02*
X105108571Y-84242419D01*
X105108571Y-84242419D02*
X105679999Y-85242419D01*
X105679999Y-85242419D02*
X105679999Y-84242419D01*
X106156190Y-84718609D02*
X106489523Y-84718609D01*
X106632380Y-85242419D02*
X106156190Y-85242419D01*
X106156190Y-85242419D02*
X106156190Y-84242419D01*
X106156190Y-84242419D02*
X106632380Y-84242419D01*
X107632380Y-85147180D02*
X107584761Y-85194800D01*
X107584761Y-85194800D02*
X107441904Y-85242419D01*
X107441904Y-85242419D02*
X107346666Y-85242419D01*
X107346666Y-85242419D02*
X107203809Y-85194800D01*
X107203809Y-85194800D02*
X107108571Y-85099561D01*
X107108571Y-85099561D02*
X107060952Y-85004323D01*
X107060952Y-85004323D02*
X107013333Y-84813847D01*
X107013333Y-84813847D02*
X107013333Y-84670990D01*
X107013333Y-84670990D02*
X107060952Y-84480514D01*
X107060952Y-84480514D02*
X107108571Y-84385276D01*
X107108571Y-84385276D02*
X107203809Y-84290038D01*
X107203809Y-84290038D02*
X107346666Y-84242419D01*
X107346666Y-84242419D02*
X107441904Y-84242419D01*
X107441904Y-84242419D02*
X107584761Y-84290038D01*
X107584761Y-84290038D02*
X107632380Y-84337657D01*
X107918095Y-84242419D02*
X108489523Y-84242419D01*
X108203809Y-85242419D02*
X108203809Y-84242419D01*
X109013333Y-84242419D02*
X109203809Y-84242419D01*
X109203809Y-84242419D02*
X109299047Y-84290038D01*
X109299047Y-84290038D02*
X109394285Y-84385276D01*
X109394285Y-84385276D02*
X109441904Y-84575752D01*
X109441904Y-84575752D02*
X109441904Y-84909085D01*
X109441904Y-84909085D02*
X109394285Y-85099561D01*
X109394285Y-85099561D02*
X109299047Y-85194800D01*
X109299047Y-85194800D02*
X109203809Y-85242419D01*
X109203809Y-85242419D02*
X109013333Y-85242419D01*
X109013333Y-85242419D02*
X108918095Y-85194800D01*
X108918095Y-85194800D02*
X108822857Y-85099561D01*
X108822857Y-85099561D02*
X108775238Y-84909085D01*
X108775238Y-84909085D02*
X108775238Y-84575752D01*
X108775238Y-84575752D02*
X108822857Y-84385276D01*
X108822857Y-84385276D02*
X108918095Y-84290038D01*
X108918095Y-84290038D02*
X109013333Y-84242419D01*
X110441904Y-85242419D02*
X110108571Y-84766228D01*
X109870476Y-85242419D02*
X109870476Y-84242419D01*
X109870476Y-84242419D02*
X110251428Y-84242419D01*
X110251428Y-84242419D02*
X110346666Y-84290038D01*
X110346666Y-84290038D02*
X110394285Y-84337657D01*
X110394285Y-84337657D02*
X110441904Y-84432895D01*
X110441904Y-84432895D02*
X110441904Y-84575752D01*
X110441904Y-84575752D02*
X110394285Y-84670990D01*
X110394285Y-84670990D02*
X110346666Y-84718609D01*
X110346666Y-84718609D02*
X110251428Y-84766228D01*
X110251428Y-84766228D02*
X109870476Y-84766228D01*
X111299047Y-84242419D02*
X111108571Y-84242419D01*
X111108571Y-84242419D02*
X111013333Y-84290038D01*
X111013333Y-84290038D02*
X110965714Y-84337657D01*
X110965714Y-84337657D02*
X110870476Y-84480514D01*
X110870476Y-84480514D02*
X110822857Y-84670990D01*
X110822857Y-84670990D02*
X110822857Y-85051942D01*
X110822857Y-85051942D02*
X110870476Y-85147180D01*
X110870476Y-85147180D02*
X110918095Y-85194800D01*
X110918095Y-85194800D02*
X111013333Y-85242419D01*
X111013333Y-85242419D02*
X111203809Y-85242419D01*
X111203809Y-85242419D02*
X111299047Y-85194800D01*
X111299047Y-85194800D02*
X111346666Y-85147180D01*
X111346666Y-85147180D02*
X111394285Y-85051942D01*
X111394285Y-85051942D02*
X111394285Y-84813847D01*
X111394285Y-84813847D02*
X111346666Y-84718609D01*
X111346666Y-84718609D02*
X111299047Y-84670990D01*
X111299047Y-84670990D02*
X111203809Y-84623371D01*
X111203809Y-84623371D02*
X111013333Y-84623371D01*
X111013333Y-84623371D02*
X110918095Y-84670990D01*
X110918095Y-84670990D02*
X110870476Y-84718609D01*
X110870476Y-84718609D02*
X110822857Y-84813847D01*
D10*
X44589541Y-69653670D02*
X44252823Y-69990387D01*
X44252823Y-69990387D02*
X43545716Y-69283280D01*
X44825243Y-69417967D02*
X44118136Y-68710860D01*
X44118136Y-68710860D02*
X44858915Y-68980234D01*
X44858915Y-68980234D02*
X44589541Y-68239456D01*
X44589541Y-68239456D02*
X45296648Y-68946563D01*
X44959930Y-68003754D02*
X44959930Y-67936410D01*
X44959930Y-67936410D02*
X44993602Y-67835395D01*
X44993602Y-67835395D02*
X45161961Y-67667036D01*
X45161961Y-67667036D02*
X45262976Y-67633364D01*
X45262976Y-67633364D02*
X45330319Y-67633364D01*
X45330319Y-67633364D02*
X45431335Y-67667036D01*
X45431335Y-67667036D02*
X45498678Y-67734380D01*
X45498678Y-67734380D02*
X45566022Y-67869067D01*
X45566022Y-67869067D02*
X45566022Y-68677189D01*
X45566022Y-68677189D02*
X46003754Y-68239456D01*
X46340472Y-67902738D02*
X46475159Y-67768051D01*
X46475159Y-67768051D02*
X46508831Y-67667036D01*
X46508831Y-67667036D02*
X46508831Y-67599693D01*
X46508831Y-67599693D02*
X46475159Y-67431334D01*
X46475159Y-67431334D02*
X46374144Y-67262975D01*
X46374144Y-67262975D02*
X46104770Y-66993601D01*
X46104770Y-66993601D02*
X46003754Y-66959929D01*
X46003754Y-66959929D02*
X45936411Y-66959929D01*
X45936411Y-66959929D02*
X45835396Y-66993601D01*
X45835396Y-66993601D02*
X45700709Y-67128288D01*
X45700709Y-67128288D02*
X45667037Y-67229303D01*
X45667037Y-67229303D02*
X45667037Y-67296647D01*
X45667037Y-67296647D02*
X45700709Y-67397662D01*
X45700709Y-67397662D02*
X45869067Y-67566021D01*
X45869067Y-67566021D02*
X45970083Y-67599693D01*
X45970083Y-67599693D02*
X46037426Y-67599693D01*
X46037426Y-67599693D02*
X46138441Y-67566021D01*
X46138441Y-67566021D02*
X46273128Y-67431334D01*
X46273128Y-67431334D02*
X46306800Y-67330319D01*
X46306800Y-67330319D02*
X46306800Y-67262975D01*
X46306800Y-67262975D02*
X46273128Y-67161960D01*
X46811876Y-66488525D02*
X47283281Y-66959929D01*
X46374144Y-66387510D02*
X46710861Y-67060945D01*
X46710861Y-67060945D02*
X47148594Y-66623212D01*
X47081250Y-65747746D02*
X47148594Y-65680403D01*
X47148594Y-65680403D02*
X47249609Y-65646731D01*
X47249609Y-65646731D02*
X47316953Y-65646731D01*
X47316953Y-65646731D02*
X47417968Y-65680403D01*
X47417968Y-65680403D02*
X47586327Y-65781418D01*
X47586327Y-65781418D02*
X47754685Y-65949777D01*
X47754685Y-65949777D02*
X47855701Y-66118136D01*
X47855701Y-66118136D02*
X47889372Y-66219151D01*
X47889372Y-66219151D02*
X47889372Y-66286494D01*
X47889372Y-66286494D02*
X47855701Y-66387510D01*
X47855701Y-66387510D02*
X47788357Y-66454853D01*
X47788357Y-66454853D02*
X47687342Y-66488525D01*
X47687342Y-66488525D02*
X47619998Y-66488525D01*
X47619998Y-66488525D02*
X47518983Y-66454853D01*
X47518983Y-66454853D02*
X47350624Y-66353838D01*
X47350624Y-66353838D02*
X47182266Y-66185479D01*
X47182266Y-66185479D02*
X47081250Y-66017120D01*
X47081250Y-66017120D02*
X47047579Y-65916105D01*
X47047579Y-65916105D02*
X47047579Y-65848762D01*
X47047579Y-65848762D02*
X47081250Y-65747746D01*
D11*
X46704761Y-85147180D02*
X46657142Y-85194800D01*
X46657142Y-85194800D02*
X46514285Y-85242419D01*
X46514285Y-85242419D02*
X46419047Y-85242419D01*
X46419047Y-85242419D02*
X46276190Y-85194800D01*
X46276190Y-85194800D02*
X46180952Y-85099561D01*
X46180952Y-85099561D02*
X46133333Y-85004323D01*
X46133333Y-85004323D02*
X46085714Y-84813847D01*
X46085714Y-84813847D02*
X46085714Y-84670990D01*
X46085714Y-84670990D02*
X46133333Y-84480514D01*
X46133333Y-84480514D02*
X46180952Y-84385276D01*
X46180952Y-84385276D02*
X46276190Y-84290038D01*
X46276190Y-84290038D02*
X46419047Y-84242419D01*
X46419047Y-84242419D02*
X46514285Y-84242419D01*
X46514285Y-84242419D02*
X46657142Y-84290038D01*
X46657142Y-84290038D02*
X46704761Y-84337657D01*
X47323809Y-84242419D02*
X47514285Y-84242419D01*
X47514285Y-84242419D02*
X47609523Y-84290038D01*
X47609523Y-84290038D02*
X47704761Y-84385276D01*
X47704761Y-84385276D02*
X47752380Y-84575752D01*
X47752380Y-84575752D02*
X47752380Y-84909085D01*
X47752380Y-84909085D02*
X47704761Y-85099561D01*
X47704761Y-85099561D02*
X47609523Y-85194800D01*
X47609523Y-85194800D02*
X47514285Y-85242419D01*
X47514285Y-85242419D02*
X47323809Y-85242419D01*
X47323809Y-85242419D02*
X47228571Y-85194800D01*
X47228571Y-85194800D02*
X47133333Y-85099561D01*
X47133333Y-85099561D02*
X47085714Y-84909085D01*
X47085714Y-84909085D02*
X47085714Y-84575752D01*
X47085714Y-84575752D02*
X47133333Y-84385276D01*
X47133333Y-84385276D02*
X47228571Y-84290038D01*
X47228571Y-84290038D02*
X47323809Y-84242419D01*
X48180952Y-85242419D02*
X48180952Y-84242419D01*
X48180952Y-84242419D02*
X48752380Y-85242419D01*
X48752380Y-85242419D02*
X48752380Y-84242419D01*
X49228571Y-85242419D02*
X49228571Y-84242419D01*
X49228571Y-84242419D02*
X49799999Y-85242419D01*
X49799999Y-85242419D02*
X49799999Y-84242419D01*
X50276190Y-84718609D02*
X50609523Y-84718609D01*
X50752380Y-85242419D02*
X50276190Y-85242419D01*
X50276190Y-85242419D02*
X50276190Y-84242419D01*
X50276190Y-84242419D02*
X50752380Y-84242419D01*
X51752380Y-85147180D02*
X51704761Y-85194800D01*
X51704761Y-85194800D02*
X51561904Y-85242419D01*
X51561904Y-85242419D02*
X51466666Y-85242419D01*
X51466666Y-85242419D02*
X51323809Y-85194800D01*
X51323809Y-85194800D02*
X51228571Y-85099561D01*
X51228571Y-85099561D02*
X51180952Y-85004323D01*
X51180952Y-85004323D02*
X51133333Y-84813847D01*
X51133333Y-84813847D02*
X51133333Y-84670990D01*
X51133333Y-84670990D02*
X51180952Y-84480514D01*
X51180952Y-84480514D02*
X51228571Y-84385276D01*
X51228571Y-84385276D02*
X51323809Y-84290038D01*
X51323809Y-84290038D02*
X51466666Y-84242419D01*
X51466666Y-84242419D02*
X51561904Y-84242419D01*
X51561904Y-84242419D02*
X51704761Y-84290038D01*
X51704761Y-84290038D02*
X51752380Y-84337657D01*
X52038095Y-84242419D02*
X52609523Y-84242419D01*
X52323809Y-85242419D02*
X52323809Y-84242419D01*
X53133333Y-84242419D02*
X53323809Y-84242419D01*
X53323809Y-84242419D02*
X53419047Y-84290038D01*
X53419047Y-84290038D02*
X53514285Y-84385276D01*
X53514285Y-84385276D02*
X53561904Y-84575752D01*
X53561904Y-84575752D02*
X53561904Y-84909085D01*
X53561904Y-84909085D02*
X53514285Y-85099561D01*
X53514285Y-85099561D02*
X53419047Y-85194800D01*
X53419047Y-85194800D02*
X53323809Y-85242419D01*
X53323809Y-85242419D02*
X53133333Y-85242419D01*
X53133333Y-85242419D02*
X53038095Y-85194800D01*
X53038095Y-85194800D02*
X52942857Y-85099561D01*
X52942857Y-85099561D02*
X52895238Y-84909085D01*
X52895238Y-84909085D02*
X52895238Y-84575752D01*
X52895238Y-84575752D02*
X52942857Y-84385276D01*
X52942857Y-84385276D02*
X53038095Y-84290038D01*
X53038095Y-84290038D02*
X53133333Y-84242419D01*
X54561904Y-85242419D02*
X54228571Y-84766228D01*
X53990476Y-85242419D02*
X53990476Y-84242419D01*
X53990476Y-84242419D02*
X54371428Y-84242419D01*
X54371428Y-84242419D02*
X54466666Y-84290038D01*
X54466666Y-84290038D02*
X54514285Y-84337657D01*
X54514285Y-84337657D02*
X54561904Y-84432895D01*
X54561904Y-84432895D02*
X54561904Y-84575752D01*
X54561904Y-84575752D02*
X54514285Y-84670990D01*
X54514285Y-84670990D02*
X54466666Y-84718609D01*
X54466666Y-84718609D02*
X54371428Y-84766228D01*
X54371428Y-84766228D02*
X53990476Y-84766228D01*
X55466666Y-84242419D02*
X54990476Y-84242419D01*
X54990476Y-84242419D02*
X54942857Y-84718609D01*
X54942857Y-84718609D02*
X54990476Y-84670990D01*
X54990476Y-84670990D02*
X55085714Y-84623371D01*
X55085714Y-84623371D02*
X55323809Y-84623371D01*
X55323809Y-84623371D02*
X55419047Y-84670990D01*
X55419047Y-84670990D02*
X55466666Y-84718609D01*
X55466666Y-84718609D02*
X55514285Y-84813847D01*
X55514285Y-84813847D02*
X55514285Y-85051942D01*
X55514285Y-85051942D02*
X55466666Y-85147180D01*
X55466666Y-85147180D02*
X55419047Y-85194800D01*
X55419047Y-85194800D02*
X55323809Y-85242419D01*
X55323809Y-85242419D02*
X55085714Y-85242419D01*
X55085714Y-85242419D02*
X54990476Y-85194800D01*
X54990476Y-85194800D02*
X54942857Y-85147180D01*
X90901390Y-103037143D02*
X90901390Y-102703810D01*
X90377580Y-102703810D02*
X91377580Y-102703810D01*
X91377580Y-102703810D02*
X91377580Y-103180000D01*
X90377580Y-104037143D02*
X90377580Y-103560953D01*
X90377580Y-103560953D02*
X91377580Y-103560953D01*
X90377580Y-104370477D02*
X91377580Y-104370477D01*
X91329961Y-105370476D02*
X91377580Y-105275238D01*
X91377580Y-105275238D02*
X91377580Y-105132381D01*
X91377580Y-105132381D02*
X91329961Y-104989524D01*
X91329961Y-104989524D02*
X91234723Y-104894286D01*
X91234723Y-104894286D02*
X91139485Y-104846667D01*
X91139485Y-104846667D02*
X90949009Y-104799048D01*
X90949009Y-104799048D02*
X90806152Y-104799048D01*
X90806152Y-104799048D02*
X90615676Y-104846667D01*
X90615676Y-104846667D02*
X90520438Y-104894286D01*
X90520438Y-104894286D02*
X90425200Y-104989524D01*
X90425200Y-104989524D02*
X90377580Y-105132381D01*
X90377580Y-105132381D02*
X90377580Y-105227619D01*
X90377580Y-105227619D02*
X90425200Y-105370476D01*
X90425200Y-105370476D02*
X90472819Y-105418095D01*
X90472819Y-105418095D02*
X90806152Y-105418095D01*
X90806152Y-105418095D02*
X90806152Y-105227619D01*
X90377580Y-105846667D02*
X91377580Y-105846667D01*
X90901390Y-105846667D02*
X90901390Y-106418095D01*
X90377580Y-106418095D02*
X91377580Y-106418095D01*
X91377580Y-106751429D02*
X91377580Y-107322857D01*
X90377580Y-107037143D02*
X91377580Y-107037143D01*
X90377580Y-107656191D02*
X91377580Y-107656191D01*
X91377580Y-107656191D02*
X91377580Y-108037143D01*
X91377580Y-108037143D02*
X91329961Y-108132381D01*
X91329961Y-108132381D02*
X91282342Y-108180000D01*
X91282342Y-108180000D02*
X91187104Y-108227619D01*
X91187104Y-108227619D02*
X91044247Y-108227619D01*
X91044247Y-108227619D02*
X90949009Y-108180000D01*
X90949009Y-108180000D02*
X90901390Y-108132381D01*
X90901390Y-108132381D02*
X90853771Y-108037143D01*
X90853771Y-108037143D02*
X90853771Y-107656191D01*
X90377580Y-108656191D02*
X91377580Y-108656191D01*
X90377580Y-109132381D02*
X91377580Y-109132381D01*
X91377580Y-109132381D02*
X90377580Y-109703809D01*
X90377580Y-109703809D02*
X91377580Y-109703809D01*
X90377580Y-110703809D02*
X90377580Y-110132381D01*
X90377580Y-110418095D02*
X91377580Y-110418095D01*
X91377580Y-110418095D02*
X91234723Y-110322857D01*
X91234723Y-110322857D02*
X91139485Y-110227619D01*
X91139485Y-110227619D02*
X91091866Y-110132381D01*
X103817419Y-37250666D02*
X103341228Y-37583999D01*
X103817419Y-37822094D02*
X102817419Y-37822094D01*
X102817419Y-37822094D02*
X102817419Y-37441142D01*
X102817419Y-37441142D02*
X102865038Y-37345904D01*
X102865038Y-37345904D02*
X102912657Y-37298285D01*
X102912657Y-37298285D02*
X103007895Y-37250666D01*
X103007895Y-37250666D02*
X103150752Y-37250666D01*
X103150752Y-37250666D02*
X103245990Y-37298285D01*
X103245990Y-37298285D02*
X103293609Y-37345904D01*
X103293609Y-37345904D02*
X103341228Y-37441142D01*
X103341228Y-37441142D02*
X103341228Y-37822094D01*
X102817419Y-36917332D02*
X102817419Y-36250666D01*
X102817419Y-36250666D02*
X103817419Y-36679237D01*
X39887580Y-105037142D02*
X40363771Y-104703809D01*
X39887580Y-104465714D02*
X40887580Y-104465714D01*
X40887580Y-104465714D02*
X40887580Y-104846666D01*
X40887580Y-104846666D02*
X40839961Y-104941904D01*
X40839961Y-104941904D02*
X40792342Y-104989523D01*
X40792342Y-104989523D02*
X40697104Y-105037142D01*
X40697104Y-105037142D02*
X40554247Y-105037142D01*
X40554247Y-105037142D02*
X40459009Y-104989523D01*
X40459009Y-104989523D02*
X40411390Y-104941904D01*
X40411390Y-104941904D02*
X40363771Y-104846666D01*
X40363771Y-104846666D02*
X40363771Y-104465714D01*
X39887580Y-105989523D02*
X39887580Y-105418095D01*
X39887580Y-105703809D02*
X40887580Y-105703809D01*
X40887580Y-105703809D02*
X40744723Y-105608571D01*
X40744723Y-105608571D02*
X40649485Y-105513333D01*
X40649485Y-105513333D02*
X40601866Y-105418095D01*
X40792342Y-106370476D02*
X40839961Y-106418095D01*
X40839961Y-106418095D02*
X40887580Y-106513333D01*
X40887580Y-106513333D02*
X40887580Y-106751428D01*
X40887580Y-106751428D02*
X40839961Y-106846666D01*
X40839961Y-106846666D02*
X40792342Y-106894285D01*
X40792342Y-106894285D02*
X40697104Y-106941904D01*
X40697104Y-106941904D02*
X40601866Y-106941904D01*
X40601866Y-106941904D02*
X40459009Y-106894285D01*
X40459009Y-106894285D02*
X39887580Y-106322857D01*
X39887580Y-106322857D02*
X39887580Y-106941904D01*
D10*
X57122134Y-63330095D02*
X57169754Y-63377714D01*
X57169754Y-63377714D02*
X57217373Y-63520571D01*
X57217373Y-63520571D02*
X57217373Y-63615809D01*
X57217373Y-63615809D02*
X57169754Y-63758666D01*
X57169754Y-63758666D02*
X57074515Y-63853904D01*
X57074515Y-63853904D02*
X56979277Y-63901523D01*
X56979277Y-63901523D02*
X56788801Y-63949142D01*
X56788801Y-63949142D02*
X56645944Y-63949142D01*
X56645944Y-63949142D02*
X56455468Y-63901523D01*
X56455468Y-63901523D02*
X56360230Y-63853904D01*
X56360230Y-63853904D02*
X56264992Y-63758666D01*
X56264992Y-63758666D02*
X56217373Y-63615809D01*
X56217373Y-63615809D02*
X56217373Y-63520571D01*
X56217373Y-63520571D02*
X56264992Y-63377714D01*
X56264992Y-63377714D02*
X56312611Y-63330095D01*
X56312611Y-62949142D02*
X56264992Y-62901523D01*
X56264992Y-62901523D02*
X56217373Y-62806285D01*
X56217373Y-62806285D02*
X56217373Y-62568190D01*
X56217373Y-62568190D02*
X56264992Y-62472952D01*
X56264992Y-62472952D02*
X56312611Y-62425333D01*
X56312611Y-62425333D02*
X56407849Y-62377714D01*
X56407849Y-62377714D02*
X56503087Y-62377714D01*
X56503087Y-62377714D02*
X56645944Y-62425333D01*
X56645944Y-62425333D02*
X57217373Y-62996761D01*
X57217373Y-62996761D02*
X57217373Y-62377714D01*
D11*
X61247342Y-41704761D02*
X61294961Y-41609523D01*
X61294961Y-41609523D02*
X61390200Y-41514285D01*
X61390200Y-41514285D02*
X61533057Y-41371428D01*
X61533057Y-41371428D02*
X61580676Y-41276190D01*
X61580676Y-41276190D02*
X61580676Y-41180952D01*
X61342580Y-41228571D02*
X61390200Y-41133333D01*
X61390200Y-41133333D02*
X61485438Y-41038095D01*
X61485438Y-41038095D02*
X61675914Y-40990476D01*
X61675914Y-40990476D02*
X62009247Y-40990476D01*
X62009247Y-40990476D02*
X62199723Y-41038095D01*
X62199723Y-41038095D02*
X62294961Y-41133333D01*
X62294961Y-41133333D02*
X62342580Y-41228571D01*
X62342580Y-41228571D02*
X62342580Y-41419047D01*
X62342580Y-41419047D02*
X62294961Y-41514285D01*
X62294961Y-41514285D02*
X62199723Y-41609523D01*
X62199723Y-41609523D02*
X62009247Y-41657142D01*
X62009247Y-41657142D02*
X61675914Y-41657142D01*
X61675914Y-41657142D02*
X61485438Y-41609523D01*
X61485438Y-41609523D02*
X61390200Y-41514285D01*
X61390200Y-41514285D02*
X61342580Y-41419047D01*
X61342580Y-41419047D02*
X61342580Y-41228571D01*
X62247342Y-42038095D02*
X62294961Y-42085714D01*
X62294961Y-42085714D02*
X62342580Y-42180952D01*
X62342580Y-42180952D02*
X62342580Y-42419047D01*
X62342580Y-42419047D02*
X62294961Y-42514285D01*
X62294961Y-42514285D02*
X62247342Y-42561904D01*
X62247342Y-42561904D02*
X62152104Y-42609523D01*
X62152104Y-42609523D02*
X62056866Y-42609523D01*
X62056866Y-42609523D02*
X61914009Y-42561904D01*
X61914009Y-42561904D02*
X61342580Y-41990476D01*
X61342580Y-41990476D02*
X61342580Y-42609523D01*
X27733609Y-51657714D02*
X27781228Y-51514857D01*
X27781228Y-51514857D02*
X27828847Y-51467238D01*
X27828847Y-51467238D02*
X27924085Y-51419619D01*
X27924085Y-51419619D02*
X28066942Y-51419619D01*
X28066942Y-51419619D02*
X28162180Y-51467238D01*
X28162180Y-51467238D02*
X28209800Y-51514857D01*
X28209800Y-51514857D02*
X28257419Y-51610095D01*
X28257419Y-51610095D02*
X28257419Y-51991047D01*
X28257419Y-51991047D02*
X27257419Y-51991047D01*
X27257419Y-51991047D02*
X27257419Y-51657714D01*
X27257419Y-51657714D02*
X27305038Y-51562476D01*
X27305038Y-51562476D02*
X27352657Y-51514857D01*
X27352657Y-51514857D02*
X27447895Y-51467238D01*
X27447895Y-51467238D02*
X27543133Y-51467238D01*
X27543133Y-51467238D02*
X27638371Y-51514857D01*
X27638371Y-51514857D02*
X27685990Y-51562476D01*
X27685990Y-51562476D02*
X27733609Y-51657714D01*
X27733609Y-51657714D02*
X27733609Y-51991047D01*
X27971704Y-51038666D02*
X27971704Y-50562476D01*
X28257419Y-51133904D02*
X27257419Y-50800571D01*
X27257419Y-50800571D02*
X28257419Y-50467238D01*
X27257419Y-50276761D02*
X27257419Y-49705333D01*
X28257419Y-49991047D02*
X27257419Y-49991047D01*
X28257419Y-48848190D02*
X28257419Y-49419618D01*
X28257419Y-49133904D02*
X27257419Y-49133904D01*
X27257419Y-49133904D02*
X27400276Y-49229142D01*
X27400276Y-49229142D02*
X27495514Y-49324380D01*
X27495514Y-49324380D02*
X27543133Y-49419618D01*
D10*
X61061905Y-116254819D02*
X61061905Y-115254819D01*
X61061905Y-115254819D02*
X61300000Y-115254819D01*
X61300000Y-115254819D02*
X61442857Y-115302438D01*
X61442857Y-115302438D02*
X61538095Y-115397676D01*
X61538095Y-115397676D02*
X61585714Y-115492914D01*
X61585714Y-115492914D02*
X61633333Y-115683390D01*
X61633333Y-115683390D02*
X61633333Y-115826247D01*
X61633333Y-115826247D02*
X61585714Y-116016723D01*
X61585714Y-116016723D02*
X61538095Y-116111961D01*
X61538095Y-116111961D02*
X61442857Y-116207200D01*
X61442857Y-116207200D02*
X61300000Y-116254819D01*
X61300000Y-116254819D02*
X61061905Y-116254819D01*
X62014286Y-115350057D02*
X62061905Y-115302438D01*
X62061905Y-115302438D02*
X62157143Y-115254819D01*
X62157143Y-115254819D02*
X62395238Y-115254819D01*
X62395238Y-115254819D02*
X62490476Y-115302438D01*
X62490476Y-115302438D02*
X62538095Y-115350057D01*
X62538095Y-115350057D02*
X62585714Y-115445295D01*
X62585714Y-115445295D02*
X62585714Y-115540533D01*
X62585714Y-115540533D02*
X62538095Y-115683390D01*
X62538095Y-115683390D02*
X61966667Y-116254819D01*
X61966667Y-116254819D02*
X62585714Y-116254819D01*
X65348095Y-115934819D02*
X65348095Y-114934819D01*
X65919523Y-115934819D02*
X65490952Y-115363390D01*
X65919523Y-114934819D02*
X65348095Y-115506247D01*
D11*
X98737419Y-37250666D02*
X98261228Y-37583999D01*
X98737419Y-37822094D02*
X97737419Y-37822094D01*
X97737419Y-37822094D02*
X97737419Y-37441142D01*
X97737419Y-37441142D02*
X97785038Y-37345904D01*
X97785038Y-37345904D02*
X97832657Y-37298285D01*
X97832657Y-37298285D02*
X97927895Y-37250666D01*
X97927895Y-37250666D02*
X98070752Y-37250666D01*
X98070752Y-37250666D02*
X98165990Y-37298285D01*
X98165990Y-37298285D02*
X98213609Y-37345904D01*
X98213609Y-37345904D02*
X98261228Y-37441142D01*
X98261228Y-37441142D02*
X98261228Y-37822094D01*
X98165990Y-36679237D02*
X98118371Y-36774475D01*
X98118371Y-36774475D02*
X98070752Y-36822094D01*
X98070752Y-36822094D02*
X97975514Y-36869713D01*
X97975514Y-36869713D02*
X97927895Y-36869713D01*
X97927895Y-36869713D02*
X97832657Y-36822094D01*
X97832657Y-36822094D02*
X97785038Y-36774475D01*
X97785038Y-36774475D02*
X97737419Y-36679237D01*
X97737419Y-36679237D02*
X97737419Y-36488761D01*
X97737419Y-36488761D02*
X97785038Y-36393523D01*
X97785038Y-36393523D02*
X97832657Y-36345904D01*
X97832657Y-36345904D02*
X97927895Y-36298285D01*
X97927895Y-36298285D02*
X97975514Y-36298285D01*
X97975514Y-36298285D02*
X98070752Y-36345904D01*
X98070752Y-36345904D02*
X98118371Y-36393523D01*
X98118371Y-36393523D02*
X98165990Y-36488761D01*
X98165990Y-36488761D02*
X98165990Y-36679237D01*
X98165990Y-36679237D02*
X98213609Y-36774475D01*
X98213609Y-36774475D02*
X98261228Y-36822094D01*
X98261228Y-36822094D02*
X98356466Y-36869713D01*
X98356466Y-36869713D02*
X98546942Y-36869713D01*
X98546942Y-36869713D02*
X98642180Y-36822094D01*
X98642180Y-36822094D02*
X98689800Y-36774475D01*
X98689800Y-36774475D02*
X98737419Y-36679237D01*
X98737419Y-36679237D02*
X98737419Y-36488761D01*
X98737419Y-36488761D02*
X98689800Y-36393523D01*
X98689800Y-36393523D02*
X98642180Y-36345904D01*
X98642180Y-36345904D02*
X98546942Y-36298285D01*
X98546942Y-36298285D02*
X98356466Y-36298285D01*
X98356466Y-36298285D02*
X98261228Y-36345904D01*
X98261228Y-36345904D02*
X98213609Y-36393523D01*
X98213609Y-36393523D02*
X98165990Y-36488761D01*
X49517419Y-42406666D02*
X49041228Y-42739999D01*
X49517419Y-42978094D02*
X48517419Y-42978094D01*
X48517419Y-42978094D02*
X48517419Y-42597142D01*
X48517419Y-42597142D02*
X48565038Y-42501904D01*
X48565038Y-42501904D02*
X48612657Y-42454285D01*
X48612657Y-42454285D02*
X48707895Y-42406666D01*
X48707895Y-42406666D02*
X48850752Y-42406666D01*
X48850752Y-42406666D02*
X48945990Y-42454285D01*
X48945990Y-42454285D02*
X48993609Y-42501904D01*
X48993609Y-42501904D02*
X49041228Y-42597142D01*
X49041228Y-42597142D02*
X49041228Y-42978094D01*
X48517419Y-41549523D02*
X48517419Y-41739999D01*
X48517419Y-41739999D02*
X48565038Y-41835237D01*
X48565038Y-41835237D02*
X48612657Y-41882856D01*
X48612657Y-41882856D02*
X48755514Y-41978094D01*
X48755514Y-41978094D02*
X48945990Y-42025713D01*
X48945990Y-42025713D02*
X49326942Y-42025713D01*
X49326942Y-42025713D02*
X49422180Y-41978094D01*
X49422180Y-41978094D02*
X49469800Y-41930475D01*
X49469800Y-41930475D02*
X49517419Y-41835237D01*
X49517419Y-41835237D02*
X49517419Y-41644761D01*
X49517419Y-41644761D02*
X49469800Y-41549523D01*
X49469800Y-41549523D02*
X49422180Y-41501904D01*
X49422180Y-41501904D02*
X49326942Y-41454285D01*
X49326942Y-41454285D02*
X49088847Y-41454285D01*
X49088847Y-41454285D02*
X48993609Y-41501904D01*
X48993609Y-41501904D02*
X48945990Y-41549523D01*
X48945990Y-41549523D02*
X48898371Y-41644761D01*
X48898371Y-41644761D02*
X48898371Y-41835237D01*
X48898371Y-41835237D02*
X48945990Y-41930475D01*
X48945990Y-41930475D02*
X48993609Y-41978094D01*
X48993609Y-41978094D02*
X49088847Y-42025713D01*
X50787419Y-42446095D02*
X50311228Y-42779428D01*
X50787419Y-43017523D02*
X49787419Y-43017523D01*
X49787419Y-43017523D02*
X49787419Y-42636571D01*
X49787419Y-42636571D02*
X49835038Y-42541333D01*
X49835038Y-42541333D02*
X49882657Y-42493714D01*
X49882657Y-42493714D02*
X49977895Y-42446095D01*
X49977895Y-42446095D02*
X50120752Y-42446095D01*
X50120752Y-42446095D02*
X50215990Y-42493714D01*
X50215990Y-42493714D02*
X50263609Y-42541333D01*
X50263609Y-42541333D02*
X50311228Y-42636571D01*
X50311228Y-42636571D02*
X50311228Y-43017523D01*
X49787419Y-41541333D02*
X49787419Y-42017523D01*
X49787419Y-42017523D02*
X50263609Y-42065142D01*
X50263609Y-42065142D02*
X50215990Y-42017523D01*
X50215990Y-42017523D02*
X50168371Y-41922285D01*
X50168371Y-41922285D02*
X50168371Y-41684190D01*
X50168371Y-41684190D02*
X50215990Y-41588952D01*
X50215990Y-41588952D02*
X50263609Y-41541333D01*
X50263609Y-41541333D02*
X50358847Y-41493714D01*
X50358847Y-41493714D02*
X50596942Y-41493714D01*
X50596942Y-41493714D02*
X50692180Y-41541333D01*
X50692180Y-41541333D02*
X50739800Y-41588952D01*
X50739800Y-41588952D02*
X50787419Y-41684190D01*
X50787419Y-41684190D02*
X50787419Y-41922285D01*
X50787419Y-41922285D02*
X50739800Y-42017523D01*
X50739800Y-42017523D02*
X50692180Y-42065142D01*
X46704761Y-29267180D02*
X46657142Y-29314800D01*
X46657142Y-29314800D02*
X46514285Y-29362419D01*
X46514285Y-29362419D02*
X46419047Y-29362419D01*
X46419047Y-29362419D02*
X46276190Y-29314800D01*
X46276190Y-29314800D02*
X46180952Y-29219561D01*
X46180952Y-29219561D02*
X46133333Y-29124323D01*
X46133333Y-29124323D02*
X46085714Y-28933847D01*
X46085714Y-28933847D02*
X46085714Y-28790990D01*
X46085714Y-28790990D02*
X46133333Y-28600514D01*
X46133333Y-28600514D02*
X46180952Y-28505276D01*
X46180952Y-28505276D02*
X46276190Y-28410038D01*
X46276190Y-28410038D02*
X46419047Y-28362419D01*
X46419047Y-28362419D02*
X46514285Y-28362419D01*
X46514285Y-28362419D02*
X46657142Y-28410038D01*
X46657142Y-28410038D02*
X46704761Y-28457657D01*
X47323809Y-28362419D02*
X47514285Y-28362419D01*
X47514285Y-28362419D02*
X47609523Y-28410038D01*
X47609523Y-28410038D02*
X47704761Y-28505276D01*
X47704761Y-28505276D02*
X47752380Y-28695752D01*
X47752380Y-28695752D02*
X47752380Y-29029085D01*
X47752380Y-29029085D02*
X47704761Y-29219561D01*
X47704761Y-29219561D02*
X47609523Y-29314800D01*
X47609523Y-29314800D02*
X47514285Y-29362419D01*
X47514285Y-29362419D02*
X47323809Y-29362419D01*
X47323809Y-29362419D02*
X47228571Y-29314800D01*
X47228571Y-29314800D02*
X47133333Y-29219561D01*
X47133333Y-29219561D02*
X47085714Y-29029085D01*
X47085714Y-29029085D02*
X47085714Y-28695752D01*
X47085714Y-28695752D02*
X47133333Y-28505276D01*
X47133333Y-28505276D02*
X47228571Y-28410038D01*
X47228571Y-28410038D02*
X47323809Y-28362419D01*
X48180952Y-29362419D02*
X48180952Y-28362419D01*
X48180952Y-28362419D02*
X48752380Y-29362419D01*
X48752380Y-29362419D02*
X48752380Y-28362419D01*
X49228571Y-29362419D02*
X49228571Y-28362419D01*
X49228571Y-28362419D02*
X49799999Y-29362419D01*
X49799999Y-29362419D02*
X49799999Y-28362419D01*
X50276190Y-28838609D02*
X50609523Y-28838609D01*
X50752380Y-29362419D02*
X50276190Y-29362419D01*
X50276190Y-29362419D02*
X50276190Y-28362419D01*
X50276190Y-28362419D02*
X50752380Y-28362419D01*
X51752380Y-29267180D02*
X51704761Y-29314800D01*
X51704761Y-29314800D02*
X51561904Y-29362419D01*
X51561904Y-29362419D02*
X51466666Y-29362419D01*
X51466666Y-29362419D02*
X51323809Y-29314800D01*
X51323809Y-29314800D02*
X51228571Y-29219561D01*
X51228571Y-29219561D02*
X51180952Y-29124323D01*
X51180952Y-29124323D02*
X51133333Y-28933847D01*
X51133333Y-28933847D02*
X51133333Y-28790990D01*
X51133333Y-28790990D02*
X51180952Y-28600514D01*
X51180952Y-28600514D02*
X51228571Y-28505276D01*
X51228571Y-28505276D02*
X51323809Y-28410038D01*
X51323809Y-28410038D02*
X51466666Y-28362419D01*
X51466666Y-28362419D02*
X51561904Y-28362419D01*
X51561904Y-28362419D02*
X51704761Y-28410038D01*
X51704761Y-28410038D02*
X51752380Y-28457657D01*
X52038095Y-28362419D02*
X52609523Y-28362419D01*
X52323809Y-29362419D02*
X52323809Y-28362419D01*
X53133333Y-28362419D02*
X53323809Y-28362419D01*
X53323809Y-28362419D02*
X53419047Y-28410038D01*
X53419047Y-28410038D02*
X53514285Y-28505276D01*
X53514285Y-28505276D02*
X53561904Y-28695752D01*
X53561904Y-28695752D02*
X53561904Y-29029085D01*
X53561904Y-29029085D02*
X53514285Y-29219561D01*
X53514285Y-29219561D02*
X53419047Y-29314800D01*
X53419047Y-29314800D02*
X53323809Y-29362419D01*
X53323809Y-29362419D02*
X53133333Y-29362419D01*
X53133333Y-29362419D02*
X53038095Y-29314800D01*
X53038095Y-29314800D02*
X52942857Y-29219561D01*
X52942857Y-29219561D02*
X52895238Y-29029085D01*
X52895238Y-29029085D02*
X52895238Y-28695752D01*
X52895238Y-28695752D02*
X52942857Y-28505276D01*
X52942857Y-28505276D02*
X53038095Y-28410038D01*
X53038095Y-28410038D02*
X53133333Y-28362419D01*
X54561904Y-29362419D02*
X54228571Y-28886228D01*
X53990476Y-29362419D02*
X53990476Y-28362419D01*
X53990476Y-28362419D02*
X54371428Y-28362419D01*
X54371428Y-28362419D02*
X54466666Y-28410038D01*
X54466666Y-28410038D02*
X54514285Y-28457657D01*
X54514285Y-28457657D02*
X54561904Y-28552895D01*
X54561904Y-28552895D02*
X54561904Y-28695752D01*
X54561904Y-28695752D02*
X54514285Y-28790990D01*
X54514285Y-28790990D02*
X54466666Y-28838609D01*
X54466666Y-28838609D02*
X54371428Y-28886228D01*
X54371428Y-28886228D02*
X53990476Y-28886228D01*
X55514285Y-29362419D02*
X54942857Y-29362419D01*
X55228571Y-29362419D02*
X55228571Y-28362419D01*
X55228571Y-28362419D02*
X55133333Y-28505276D01*
X55133333Y-28505276D02*
X55038095Y-28600514D01*
X55038095Y-28600514D02*
X54942857Y-28648133D01*
X103638572Y-127152419D02*
X103638572Y-126152419D01*
X104638571Y-126200038D02*
X104543333Y-126152419D01*
X104543333Y-126152419D02*
X104400476Y-126152419D01*
X104400476Y-126152419D02*
X104257619Y-126200038D01*
X104257619Y-126200038D02*
X104162381Y-126295276D01*
X104162381Y-126295276D02*
X104114762Y-126390514D01*
X104114762Y-126390514D02*
X104067143Y-126580990D01*
X104067143Y-126580990D02*
X104067143Y-126723847D01*
X104067143Y-126723847D02*
X104114762Y-126914323D01*
X104114762Y-126914323D02*
X104162381Y-127009561D01*
X104162381Y-127009561D02*
X104257619Y-127104800D01*
X104257619Y-127104800D02*
X104400476Y-127152419D01*
X104400476Y-127152419D02*
X104495714Y-127152419D01*
X104495714Y-127152419D02*
X104638571Y-127104800D01*
X104638571Y-127104800D02*
X104686190Y-127057180D01*
X104686190Y-127057180D02*
X104686190Y-126723847D01*
X104686190Y-126723847D02*
X104495714Y-126723847D01*
X105114762Y-127152419D02*
X105114762Y-126152419D01*
X105114762Y-126152419D02*
X105686190Y-127152419D01*
X105686190Y-127152419D02*
X105686190Y-126152419D01*
X106162381Y-127152419D02*
X106162381Y-126152419D01*
X106495714Y-126152419D02*
X107067142Y-126152419D01*
X106781428Y-127152419D02*
X106781428Y-126152419D01*
X107400476Y-126628609D02*
X107733809Y-126628609D01*
X107876666Y-127152419D02*
X107400476Y-127152419D01*
X107400476Y-127152419D02*
X107400476Y-126152419D01*
X107400476Y-126152419D02*
X107876666Y-126152419D01*
X108876666Y-127152419D02*
X108543333Y-126676228D01*
X108305238Y-127152419D02*
X108305238Y-126152419D01*
X108305238Y-126152419D02*
X108686190Y-126152419D01*
X108686190Y-126152419D02*
X108781428Y-126200038D01*
X108781428Y-126200038D02*
X108829047Y-126247657D01*
X108829047Y-126247657D02*
X108876666Y-126342895D01*
X108876666Y-126342895D02*
X108876666Y-126485752D01*
X108876666Y-126485752D02*
X108829047Y-126580990D01*
X108829047Y-126580990D02*
X108781428Y-126628609D01*
X108781428Y-126628609D02*
X108686190Y-126676228D01*
X108686190Y-126676228D02*
X108305238Y-126676228D01*
X109829047Y-127152419D02*
X109257619Y-127152419D01*
X109543333Y-127152419D02*
X109543333Y-126152419D01*
X109543333Y-126152419D02*
X109448095Y-126295276D01*
X109448095Y-126295276D02*
X109352857Y-126390514D01*
X109352857Y-126390514D02*
X109257619Y-126438133D01*
D10*
X61251905Y-111254819D02*
X61251905Y-110254819D01*
X61251905Y-110254819D02*
X61490000Y-110254819D01*
X61490000Y-110254819D02*
X61632857Y-110302438D01*
X61632857Y-110302438D02*
X61728095Y-110397676D01*
X61728095Y-110397676D02*
X61775714Y-110492914D01*
X61775714Y-110492914D02*
X61823333Y-110683390D01*
X61823333Y-110683390D02*
X61823333Y-110826247D01*
X61823333Y-110826247D02*
X61775714Y-111016723D01*
X61775714Y-111016723D02*
X61728095Y-111111961D01*
X61728095Y-111111961D02*
X61632857Y-111207200D01*
X61632857Y-111207200D02*
X61490000Y-111254819D01*
X61490000Y-111254819D02*
X61251905Y-111254819D01*
X62156667Y-110254819D02*
X62775714Y-110254819D01*
X62775714Y-110254819D02*
X62442381Y-110635771D01*
X62442381Y-110635771D02*
X62585238Y-110635771D01*
X62585238Y-110635771D02*
X62680476Y-110683390D01*
X62680476Y-110683390D02*
X62728095Y-110731009D01*
X62728095Y-110731009D02*
X62775714Y-110826247D01*
X62775714Y-110826247D02*
X62775714Y-111064342D01*
X62775714Y-111064342D02*
X62728095Y-111159580D01*
X62728095Y-111159580D02*
X62680476Y-111207200D01*
X62680476Y-111207200D02*
X62585238Y-111254819D01*
X62585238Y-111254819D02*
X62299524Y-111254819D01*
X62299524Y-111254819D02*
X62204286Y-111207200D01*
X62204286Y-111207200D02*
X62156667Y-111159580D01*
X66118095Y-110934819D02*
X66118095Y-109934819D01*
X66689523Y-110934819D02*
X66260952Y-110363390D01*
X66689523Y-109934819D02*
X66118095Y-110506247D01*
X40538611Y-42628667D02*
X40490992Y-42723905D01*
X40490992Y-42723905D02*
X40395754Y-42819143D01*
X40395754Y-42819143D02*
X40252896Y-42962000D01*
X40252896Y-42962000D02*
X40205277Y-43057238D01*
X40205277Y-43057238D02*
X40205277Y-43152476D01*
X40443373Y-43104857D02*
X40395754Y-43200095D01*
X40395754Y-43200095D02*
X40300515Y-43295333D01*
X40300515Y-43295333D02*
X40110039Y-43342952D01*
X40110039Y-43342952D02*
X39776706Y-43342952D01*
X39776706Y-43342952D02*
X39586230Y-43295333D01*
X39586230Y-43295333D02*
X39490992Y-43200095D01*
X39490992Y-43200095D02*
X39443373Y-43104857D01*
X39443373Y-43104857D02*
X39443373Y-42914381D01*
X39443373Y-42914381D02*
X39490992Y-42819143D01*
X39490992Y-42819143D02*
X39586230Y-42723905D01*
X39586230Y-42723905D02*
X39776706Y-42676286D01*
X39776706Y-42676286D02*
X40110039Y-42676286D01*
X40110039Y-42676286D02*
X40300515Y-42723905D01*
X40300515Y-42723905D02*
X40395754Y-42819143D01*
X40395754Y-42819143D02*
X40443373Y-42914381D01*
X40443373Y-42914381D02*
X40443373Y-43104857D01*
X39443373Y-42342952D02*
X39443373Y-41723905D01*
X39443373Y-41723905D02*
X39824325Y-42057238D01*
X39824325Y-42057238D02*
X39824325Y-41914381D01*
X39824325Y-41914381D02*
X39871944Y-41819143D01*
X39871944Y-41819143D02*
X39919563Y-41771524D01*
X39919563Y-41771524D02*
X40014801Y-41723905D01*
X40014801Y-41723905D02*
X40252896Y-41723905D01*
X40252896Y-41723905D02*
X40348134Y-41771524D01*
X40348134Y-41771524D02*
X40395754Y-41819143D01*
X40395754Y-41819143D02*
X40443373Y-41914381D01*
X40443373Y-41914381D02*
X40443373Y-42200095D01*
X40443373Y-42200095D02*
X40395754Y-42295333D01*
X40395754Y-42295333D02*
X40348134Y-42342952D01*
X43122134Y-62630095D02*
X43169754Y-62677714D01*
X43169754Y-62677714D02*
X43217373Y-62820571D01*
X43217373Y-62820571D02*
X43217373Y-62915809D01*
X43217373Y-62915809D02*
X43169754Y-63058666D01*
X43169754Y-63058666D02*
X43074515Y-63153904D01*
X43074515Y-63153904D02*
X42979277Y-63201523D01*
X42979277Y-63201523D02*
X42788801Y-63249142D01*
X42788801Y-63249142D02*
X42645944Y-63249142D01*
X42645944Y-63249142D02*
X42455468Y-63201523D01*
X42455468Y-63201523D02*
X42360230Y-63153904D01*
X42360230Y-63153904D02*
X42264992Y-63058666D01*
X42264992Y-63058666D02*
X42217373Y-62915809D01*
X42217373Y-62915809D02*
X42217373Y-62820571D01*
X42217373Y-62820571D02*
X42264992Y-62677714D01*
X42264992Y-62677714D02*
X42312611Y-62630095D01*
X43217373Y-61677714D02*
X43217373Y-62249142D01*
X43217373Y-61963428D02*
X42217373Y-61963428D01*
X42217373Y-61963428D02*
X42360230Y-62058666D01*
X42360230Y-62058666D02*
X42455468Y-62153904D01*
X42455468Y-62153904D02*
X42503087Y-62249142D01*
D11*
X101920761Y-29162180D02*
X101873142Y-29209800D01*
X101873142Y-29209800D02*
X101730285Y-29257419D01*
X101730285Y-29257419D02*
X101635047Y-29257419D01*
X101635047Y-29257419D02*
X101492190Y-29209800D01*
X101492190Y-29209800D02*
X101396952Y-29114561D01*
X101396952Y-29114561D02*
X101349333Y-29019323D01*
X101349333Y-29019323D02*
X101301714Y-28828847D01*
X101301714Y-28828847D02*
X101301714Y-28685990D01*
X101301714Y-28685990D02*
X101349333Y-28495514D01*
X101349333Y-28495514D02*
X101396952Y-28400276D01*
X101396952Y-28400276D02*
X101492190Y-28305038D01*
X101492190Y-28305038D02*
X101635047Y-28257419D01*
X101635047Y-28257419D02*
X101730285Y-28257419D01*
X101730285Y-28257419D02*
X101873142Y-28305038D01*
X101873142Y-28305038D02*
X101920761Y-28352657D01*
X102539809Y-28257419D02*
X102730285Y-28257419D01*
X102730285Y-28257419D02*
X102825523Y-28305038D01*
X102825523Y-28305038D02*
X102920761Y-28400276D01*
X102920761Y-28400276D02*
X102968380Y-28590752D01*
X102968380Y-28590752D02*
X102968380Y-28924085D01*
X102968380Y-28924085D02*
X102920761Y-29114561D01*
X102920761Y-29114561D02*
X102825523Y-29209800D01*
X102825523Y-29209800D02*
X102730285Y-29257419D01*
X102730285Y-29257419D02*
X102539809Y-29257419D01*
X102539809Y-29257419D02*
X102444571Y-29209800D01*
X102444571Y-29209800D02*
X102349333Y-29114561D01*
X102349333Y-29114561D02*
X102301714Y-28924085D01*
X102301714Y-28924085D02*
X102301714Y-28590752D01*
X102301714Y-28590752D02*
X102349333Y-28400276D01*
X102349333Y-28400276D02*
X102444571Y-28305038D01*
X102444571Y-28305038D02*
X102539809Y-28257419D01*
X103396952Y-29257419D02*
X103396952Y-28257419D01*
X103396952Y-28257419D02*
X103968380Y-29257419D01*
X103968380Y-29257419D02*
X103968380Y-28257419D01*
X104444571Y-29257419D02*
X104444571Y-28257419D01*
X104444571Y-28257419D02*
X105015999Y-29257419D01*
X105015999Y-29257419D02*
X105015999Y-28257419D01*
X105492190Y-28733609D02*
X105825523Y-28733609D01*
X105968380Y-29257419D02*
X105492190Y-29257419D01*
X105492190Y-29257419D02*
X105492190Y-28257419D01*
X105492190Y-28257419D02*
X105968380Y-28257419D01*
X106968380Y-29162180D02*
X106920761Y-29209800D01*
X106920761Y-29209800D02*
X106777904Y-29257419D01*
X106777904Y-29257419D02*
X106682666Y-29257419D01*
X106682666Y-29257419D02*
X106539809Y-29209800D01*
X106539809Y-29209800D02*
X106444571Y-29114561D01*
X106444571Y-29114561D02*
X106396952Y-29019323D01*
X106396952Y-29019323D02*
X106349333Y-28828847D01*
X106349333Y-28828847D02*
X106349333Y-28685990D01*
X106349333Y-28685990D02*
X106396952Y-28495514D01*
X106396952Y-28495514D02*
X106444571Y-28400276D01*
X106444571Y-28400276D02*
X106539809Y-28305038D01*
X106539809Y-28305038D02*
X106682666Y-28257419D01*
X106682666Y-28257419D02*
X106777904Y-28257419D01*
X106777904Y-28257419D02*
X106920761Y-28305038D01*
X106920761Y-28305038D02*
X106968380Y-28352657D01*
X107254095Y-28257419D02*
X107825523Y-28257419D01*
X107539809Y-29257419D02*
X107539809Y-28257419D01*
X108349333Y-28257419D02*
X108539809Y-28257419D01*
X108539809Y-28257419D02*
X108635047Y-28305038D01*
X108635047Y-28305038D02*
X108730285Y-28400276D01*
X108730285Y-28400276D02*
X108777904Y-28590752D01*
X108777904Y-28590752D02*
X108777904Y-28924085D01*
X108777904Y-28924085D02*
X108730285Y-29114561D01*
X108730285Y-29114561D02*
X108635047Y-29209800D01*
X108635047Y-29209800D02*
X108539809Y-29257419D01*
X108539809Y-29257419D02*
X108349333Y-29257419D01*
X108349333Y-29257419D02*
X108254095Y-29209800D01*
X108254095Y-29209800D02*
X108158857Y-29114561D01*
X108158857Y-29114561D02*
X108111238Y-28924085D01*
X108111238Y-28924085D02*
X108111238Y-28590752D01*
X108111238Y-28590752D02*
X108158857Y-28400276D01*
X108158857Y-28400276D02*
X108254095Y-28305038D01*
X108254095Y-28305038D02*
X108349333Y-28257419D01*
X109777904Y-29257419D02*
X109444571Y-28781228D01*
X109206476Y-29257419D02*
X109206476Y-28257419D01*
X109206476Y-28257419D02*
X109587428Y-28257419D01*
X109587428Y-28257419D02*
X109682666Y-28305038D01*
X109682666Y-28305038D02*
X109730285Y-28352657D01*
X109730285Y-28352657D02*
X109777904Y-28447895D01*
X109777904Y-28447895D02*
X109777904Y-28590752D01*
X109777904Y-28590752D02*
X109730285Y-28685990D01*
X109730285Y-28685990D02*
X109682666Y-28733609D01*
X109682666Y-28733609D02*
X109587428Y-28781228D01*
X109587428Y-28781228D02*
X109206476Y-28781228D01*
X110158857Y-28352657D02*
X110206476Y-28305038D01*
X110206476Y-28305038D02*
X110301714Y-28257419D01*
X110301714Y-28257419D02*
X110539809Y-28257419D01*
X110539809Y-28257419D02*
X110635047Y-28305038D01*
X110635047Y-28305038D02*
X110682666Y-28352657D01*
X110682666Y-28352657D02*
X110730285Y-28447895D01*
X110730285Y-28447895D02*
X110730285Y-28543133D01*
X110730285Y-28543133D02*
X110682666Y-28685990D01*
X110682666Y-28685990D02*
X110111238Y-29257419D01*
X110111238Y-29257419D02*
X110730285Y-29257419D01*
D10*
X105810095Y-65150819D02*
X105810095Y-65960342D01*
X105810095Y-65960342D02*
X105857714Y-66055580D01*
X105857714Y-66055580D02*
X105905333Y-66103200D01*
X105905333Y-66103200D02*
X106000571Y-66150819D01*
X106000571Y-66150819D02*
X106191047Y-66150819D01*
X106191047Y-66150819D02*
X106286285Y-66103200D01*
X106286285Y-66103200D02*
X106333904Y-66055580D01*
X106333904Y-66055580D02*
X106381523Y-65960342D01*
X106381523Y-65960342D02*
X106381523Y-65150819D01*
X106810095Y-65246057D02*
X106857714Y-65198438D01*
X106857714Y-65198438D02*
X106952952Y-65150819D01*
X106952952Y-65150819D02*
X107191047Y-65150819D01*
X107191047Y-65150819D02*
X107286285Y-65198438D01*
X107286285Y-65198438D02*
X107333904Y-65246057D01*
X107333904Y-65246057D02*
X107381523Y-65341295D01*
X107381523Y-65341295D02*
X107381523Y-65436533D01*
X107381523Y-65436533D02*
X107333904Y-65579390D01*
X107333904Y-65579390D02*
X106762476Y-66150819D01*
X106762476Y-66150819D02*
X107381523Y-66150819D01*
D11*
X46409761Y-130232180D02*
X46362142Y-130279800D01*
X46362142Y-130279800D02*
X46219285Y-130327419D01*
X46219285Y-130327419D02*
X46124047Y-130327419D01*
X46124047Y-130327419D02*
X45981190Y-130279800D01*
X45981190Y-130279800D02*
X45885952Y-130184561D01*
X45885952Y-130184561D02*
X45838333Y-130089323D01*
X45838333Y-130089323D02*
X45790714Y-129898847D01*
X45790714Y-129898847D02*
X45790714Y-129755990D01*
X45790714Y-129755990D02*
X45838333Y-129565514D01*
X45838333Y-129565514D02*
X45885952Y-129470276D01*
X45885952Y-129470276D02*
X45981190Y-129375038D01*
X45981190Y-129375038D02*
X46124047Y-129327419D01*
X46124047Y-129327419D02*
X46219285Y-129327419D01*
X46219285Y-129327419D02*
X46362142Y-129375038D01*
X46362142Y-129375038D02*
X46409761Y-129422657D01*
X47028809Y-129327419D02*
X47219285Y-129327419D01*
X47219285Y-129327419D02*
X47314523Y-129375038D01*
X47314523Y-129375038D02*
X47409761Y-129470276D01*
X47409761Y-129470276D02*
X47457380Y-129660752D01*
X47457380Y-129660752D02*
X47457380Y-129994085D01*
X47457380Y-129994085D02*
X47409761Y-130184561D01*
X47409761Y-130184561D02*
X47314523Y-130279800D01*
X47314523Y-130279800D02*
X47219285Y-130327419D01*
X47219285Y-130327419D02*
X47028809Y-130327419D01*
X47028809Y-130327419D02*
X46933571Y-130279800D01*
X46933571Y-130279800D02*
X46838333Y-130184561D01*
X46838333Y-130184561D02*
X46790714Y-129994085D01*
X46790714Y-129994085D02*
X46790714Y-129660752D01*
X46790714Y-129660752D02*
X46838333Y-129470276D01*
X46838333Y-129470276D02*
X46933571Y-129375038D01*
X46933571Y-129375038D02*
X47028809Y-129327419D01*
X47885952Y-130327419D02*
X47885952Y-129327419D01*
X47885952Y-129327419D02*
X48457380Y-130327419D01*
X48457380Y-130327419D02*
X48457380Y-129327419D01*
X48933571Y-130327419D02*
X48933571Y-129327419D01*
X48933571Y-129327419D02*
X49504999Y-130327419D01*
X49504999Y-130327419D02*
X49504999Y-129327419D01*
X49981190Y-129803609D02*
X50314523Y-129803609D01*
X50457380Y-130327419D02*
X49981190Y-130327419D01*
X49981190Y-130327419D02*
X49981190Y-129327419D01*
X49981190Y-129327419D02*
X50457380Y-129327419D01*
X51457380Y-130232180D02*
X51409761Y-130279800D01*
X51409761Y-130279800D02*
X51266904Y-130327419D01*
X51266904Y-130327419D02*
X51171666Y-130327419D01*
X51171666Y-130327419D02*
X51028809Y-130279800D01*
X51028809Y-130279800D02*
X50933571Y-130184561D01*
X50933571Y-130184561D02*
X50885952Y-130089323D01*
X50885952Y-130089323D02*
X50838333Y-129898847D01*
X50838333Y-129898847D02*
X50838333Y-129755990D01*
X50838333Y-129755990D02*
X50885952Y-129565514D01*
X50885952Y-129565514D02*
X50933571Y-129470276D01*
X50933571Y-129470276D02*
X51028809Y-129375038D01*
X51028809Y-129375038D02*
X51171666Y-129327419D01*
X51171666Y-129327419D02*
X51266904Y-129327419D01*
X51266904Y-129327419D02*
X51409761Y-129375038D01*
X51409761Y-129375038D02*
X51457380Y-129422657D01*
X51743095Y-129327419D02*
X52314523Y-129327419D01*
X52028809Y-130327419D02*
X52028809Y-129327419D01*
X52838333Y-129327419D02*
X53028809Y-129327419D01*
X53028809Y-129327419D02*
X53124047Y-129375038D01*
X53124047Y-129375038D02*
X53219285Y-129470276D01*
X53219285Y-129470276D02*
X53266904Y-129660752D01*
X53266904Y-129660752D02*
X53266904Y-129994085D01*
X53266904Y-129994085D02*
X53219285Y-130184561D01*
X53219285Y-130184561D02*
X53124047Y-130279800D01*
X53124047Y-130279800D02*
X53028809Y-130327419D01*
X53028809Y-130327419D02*
X52838333Y-130327419D01*
X52838333Y-130327419D02*
X52743095Y-130279800D01*
X52743095Y-130279800D02*
X52647857Y-130184561D01*
X52647857Y-130184561D02*
X52600238Y-129994085D01*
X52600238Y-129994085D02*
X52600238Y-129660752D01*
X52600238Y-129660752D02*
X52647857Y-129470276D01*
X52647857Y-129470276D02*
X52743095Y-129375038D01*
X52743095Y-129375038D02*
X52838333Y-129327419D01*
X54266904Y-130327419D02*
X53933571Y-129851228D01*
X53695476Y-130327419D02*
X53695476Y-129327419D01*
X53695476Y-129327419D02*
X54076428Y-129327419D01*
X54076428Y-129327419D02*
X54171666Y-129375038D01*
X54171666Y-129375038D02*
X54219285Y-129422657D01*
X54219285Y-129422657D02*
X54266904Y-129517895D01*
X54266904Y-129517895D02*
X54266904Y-129660752D01*
X54266904Y-129660752D02*
X54219285Y-129755990D01*
X54219285Y-129755990D02*
X54171666Y-129803609D01*
X54171666Y-129803609D02*
X54076428Y-129851228D01*
X54076428Y-129851228D02*
X53695476Y-129851228D01*
X55124047Y-129660752D02*
X55124047Y-130327419D01*
X54885952Y-129279800D02*
X54647857Y-129994085D01*
X54647857Y-129994085D02*
X55266904Y-129994085D01*
D10*
X45434761Y-114670057D02*
X45339523Y-114622438D01*
X45339523Y-114622438D02*
X45244285Y-114527200D01*
X45244285Y-114527200D02*
X45101428Y-114384342D01*
X45101428Y-114384342D02*
X45006190Y-114336723D01*
X45006190Y-114336723D02*
X44910952Y-114336723D01*
X44958571Y-114574819D02*
X44863333Y-114527200D01*
X44863333Y-114527200D02*
X44768095Y-114431961D01*
X44768095Y-114431961D02*
X44720476Y-114241485D01*
X44720476Y-114241485D02*
X44720476Y-113908152D01*
X44720476Y-113908152D02*
X44768095Y-113717676D01*
X44768095Y-113717676D02*
X44863333Y-113622438D01*
X44863333Y-113622438D02*
X44958571Y-113574819D01*
X44958571Y-113574819D02*
X45149047Y-113574819D01*
X45149047Y-113574819D02*
X45244285Y-113622438D01*
X45244285Y-113622438D02*
X45339523Y-113717676D01*
X45339523Y-113717676D02*
X45387142Y-113908152D01*
X45387142Y-113908152D02*
X45387142Y-114241485D01*
X45387142Y-114241485D02*
X45339523Y-114431961D01*
X45339523Y-114431961D02*
X45244285Y-114527200D01*
X45244285Y-114527200D02*
X45149047Y-114574819D01*
X45149047Y-114574819D02*
X44958571Y-114574819D01*
X46244285Y-113908152D02*
X46244285Y-114574819D01*
X46006190Y-113527200D02*
X45768095Y-114241485D01*
X45768095Y-114241485D02*
X46387142Y-114241485D01*
D11*
X70367580Y-102941905D02*
X71367580Y-102941905D01*
X71367580Y-102941905D02*
X71367580Y-103180000D01*
X71367580Y-103180000D02*
X71319961Y-103322857D01*
X71319961Y-103322857D02*
X71224723Y-103418095D01*
X71224723Y-103418095D02*
X71129485Y-103465714D01*
X71129485Y-103465714D02*
X70939009Y-103513333D01*
X70939009Y-103513333D02*
X70796152Y-103513333D01*
X70796152Y-103513333D02*
X70605676Y-103465714D01*
X70605676Y-103465714D02*
X70510438Y-103418095D01*
X70510438Y-103418095D02*
X70415200Y-103322857D01*
X70415200Y-103322857D02*
X70367580Y-103180000D01*
X70367580Y-103180000D02*
X70367580Y-102941905D01*
X70367580Y-104465714D02*
X70367580Y-103894286D01*
X70367580Y-104180000D02*
X71367580Y-104180000D01*
X71367580Y-104180000D02*
X71224723Y-104084762D01*
X71224723Y-104084762D02*
X71129485Y-103989524D01*
X71129485Y-103989524D02*
X71081866Y-103894286D01*
X33987142Y-111912419D02*
X33653809Y-111436228D01*
X33415714Y-111912419D02*
X33415714Y-110912419D01*
X33415714Y-110912419D02*
X33796666Y-110912419D01*
X33796666Y-110912419D02*
X33891904Y-110960038D01*
X33891904Y-110960038D02*
X33939523Y-111007657D01*
X33939523Y-111007657D02*
X33987142Y-111102895D01*
X33987142Y-111102895D02*
X33987142Y-111245752D01*
X33987142Y-111245752D02*
X33939523Y-111340990D01*
X33939523Y-111340990D02*
X33891904Y-111388609D01*
X33891904Y-111388609D02*
X33796666Y-111436228D01*
X33796666Y-111436228D02*
X33415714Y-111436228D01*
X34939523Y-111912419D02*
X34368095Y-111912419D01*
X34653809Y-111912419D02*
X34653809Y-110912419D01*
X34653809Y-110912419D02*
X34558571Y-111055276D01*
X34558571Y-111055276D02*
X34463333Y-111150514D01*
X34463333Y-111150514D02*
X34368095Y-111198133D01*
X35891904Y-111912419D02*
X35320476Y-111912419D01*
X35606190Y-111912419D02*
X35606190Y-110912419D01*
X35606190Y-110912419D02*
X35510952Y-111055276D01*
X35510952Y-111055276D02*
X35415714Y-111150514D01*
X35415714Y-111150514D02*
X35320476Y-111198133D01*
X113512142Y-66192419D02*
X113178809Y-65716228D01*
X112940714Y-66192419D02*
X112940714Y-65192419D01*
X112940714Y-65192419D02*
X113321666Y-65192419D01*
X113321666Y-65192419D02*
X113416904Y-65240038D01*
X113416904Y-65240038D02*
X113464523Y-65287657D01*
X113464523Y-65287657D02*
X113512142Y-65382895D01*
X113512142Y-65382895D02*
X113512142Y-65525752D01*
X113512142Y-65525752D02*
X113464523Y-65620990D01*
X113464523Y-65620990D02*
X113416904Y-65668609D01*
X113416904Y-65668609D02*
X113321666Y-65716228D01*
X113321666Y-65716228D02*
X112940714Y-65716228D01*
X114464523Y-66192419D02*
X113893095Y-66192419D01*
X114178809Y-66192419D02*
X114178809Y-65192419D01*
X114178809Y-65192419D02*
X114083571Y-65335276D01*
X114083571Y-65335276D02*
X113988333Y-65430514D01*
X113988333Y-65430514D02*
X113893095Y-65478133D01*
X115083571Y-65192419D02*
X115178809Y-65192419D01*
X115178809Y-65192419D02*
X115274047Y-65240038D01*
X115274047Y-65240038D02*
X115321666Y-65287657D01*
X115321666Y-65287657D02*
X115369285Y-65382895D01*
X115369285Y-65382895D02*
X115416904Y-65573371D01*
X115416904Y-65573371D02*
X115416904Y-65811466D01*
X115416904Y-65811466D02*
X115369285Y-66001942D01*
X115369285Y-66001942D02*
X115321666Y-66097180D01*
X115321666Y-66097180D02*
X115274047Y-66144800D01*
X115274047Y-66144800D02*
X115178809Y-66192419D01*
X115178809Y-66192419D02*
X115083571Y-66192419D01*
X115083571Y-66192419D02*
X114988333Y-66144800D01*
X114988333Y-66144800D02*
X114940714Y-66097180D01*
X114940714Y-66097180D02*
X114893095Y-66001942D01*
X114893095Y-66001942D02*
X114845476Y-65811466D01*
X114845476Y-65811466D02*
X114845476Y-65573371D01*
X114845476Y-65573371D02*
X114893095Y-65382895D01*
X114893095Y-65382895D02*
X114940714Y-65287657D01*
X114940714Y-65287657D02*
X114988333Y-65240038D01*
X114988333Y-65240038D02*
X115083571Y-65192419D01*
X116065333Y-49233419D02*
X115732000Y-48757228D01*
X115493905Y-49233419D02*
X115493905Y-48233419D01*
X115493905Y-48233419D02*
X115874857Y-48233419D01*
X115874857Y-48233419D02*
X115970095Y-48281038D01*
X115970095Y-48281038D02*
X116017714Y-48328657D01*
X116017714Y-48328657D02*
X116065333Y-48423895D01*
X116065333Y-48423895D02*
X116065333Y-48566752D01*
X116065333Y-48566752D02*
X116017714Y-48661990D01*
X116017714Y-48661990D02*
X115970095Y-48709609D01*
X115970095Y-48709609D02*
X115874857Y-48757228D01*
X115874857Y-48757228D02*
X115493905Y-48757228D01*
X116493905Y-49233419D02*
X116493905Y-48233419D01*
X116493905Y-48233419D02*
X116874857Y-48233419D01*
X116874857Y-48233419D02*
X116970095Y-48281038D01*
X116970095Y-48281038D02*
X117017714Y-48328657D01*
X117017714Y-48328657D02*
X117065333Y-48423895D01*
X117065333Y-48423895D02*
X117065333Y-48566752D01*
X117065333Y-48566752D02*
X117017714Y-48661990D01*
X117017714Y-48661990D02*
X116970095Y-48709609D01*
X116970095Y-48709609D02*
X116874857Y-48757228D01*
X116874857Y-48757228D02*
X116493905Y-48757228D01*
X118017714Y-49233419D02*
X117446286Y-49233419D01*
X117732000Y-49233419D02*
X117732000Y-48233419D01*
X117732000Y-48233419D02*
X117636762Y-48376276D01*
X117636762Y-48376276D02*
X117541524Y-48471514D01*
X117541524Y-48471514D02*
X117446286Y-48519133D01*
X104513333Y-36257419D02*
X104180000Y-35781228D01*
X103941905Y-36257419D02*
X103941905Y-35257419D01*
X103941905Y-35257419D02*
X104322857Y-35257419D01*
X104322857Y-35257419D02*
X104418095Y-35305038D01*
X104418095Y-35305038D02*
X104465714Y-35352657D01*
X104465714Y-35352657D02*
X104513333Y-35447895D01*
X104513333Y-35447895D02*
X104513333Y-35590752D01*
X104513333Y-35590752D02*
X104465714Y-35685990D01*
X104465714Y-35685990D02*
X104418095Y-35733609D01*
X104418095Y-35733609D02*
X104322857Y-35781228D01*
X104322857Y-35781228D02*
X103941905Y-35781228D01*
X105370476Y-35590752D02*
X105370476Y-36257419D01*
X105132381Y-35209800D02*
X104894286Y-35924085D01*
X104894286Y-35924085D02*
X105513333Y-35924085D01*
X110802419Y-37250666D02*
X110326228Y-37583999D01*
X110802419Y-37822094D02*
X109802419Y-37822094D01*
X109802419Y-37822094D02*
X109802419Y-37441142D01*
X109802419Y-37441142D02*
X109850038Y-37345904D01*
X109850038Y-37345904D02*
X109897657Y-37298285D01*
X109897657Y-37298285D02*
X109992895Y-37250666D01*
X109992895Y-37250666D02*
X110135752Y-37250666D01*
X110135752Y-37250666D02*
X110230990Y-37298285D01*
X110230990Y-37298285D02*
X110278609Y-37345904D01*
X110278609Y-37345904D02*
X110326228Y-37441142D01*
X110326228Y-37441142D02*
X110326228Y-37822094D01*
X109897657Y-36869713D02*
X109850038Y-36822094D01*
X109850038Y-36822094D02*
X109802419Y-36726856D01*
X109802419Y-36726856D02*
X109802419Y-36488761D01*
X109802419Y-36488761D02*
X109850038Y-36393523D01*
X109850038Y-36393523D02*
X109897657Y-36345904D01*
X109897657Y-36345904D02*
X109992895Y-36298285D01*
X109992895Y-36298285D02*
X110088133Y-36298285D01*
X110088133Y-36298285D02*
X110230990Y-36345904D01*
X110230990Y-36345904D02*
X110802419Y-36917332D01*
X110802419Y-36917332D02*
X110802419Y-36298285D01*
X71637580Y-107478333D02*
X72113771Y-107145000D01*
X71637580Y-106906905D02*
X72637580Y-106906905D01*
X72637580Y-106906905D02*
X72637580Y-107287857D01*
X72637580Y-107287857D02*
X72589961Y-107383095D01*
X72589961Y-107383095D02*
X72542342Y-107430714D01*
X72542342Y-107430714D02*
X72447104Y-107478333D01*
X72447104Y-107478333D02*
X72304247Y-107478333D01*
X72304247Y-107478333D02*
X72209009Y-107430714D01*
X72209009Y-107430714D02*
X72161390Y-107383095D01*
X72161390Y-107383095D02*
X72113771Y-107287857D01*
X72113771Y-107287857D02*
X72113771Y-106906905D01*
X71637580Y-108430714D02*
X71637580Y-107859286D01*
X71637580Y-108145000D02*
X72637580Y-108145000D01*
X72637580Y-108145000D02*
X72494723Y-108049762D01*
X72494723Y-108049762D02*
X72399485Y-107954524D01*
X72399485Y-107954524D02*
X72351866Y-107859286D01*
X30642419Y-106322857D02*
X30166228Y-106656190D01*
X30642419Y-106894285D02*
X29642419Y-106894285D01*
X29642419Y-106894285D02*
X29642419Y-106513333D01*
X29642419Y-106513333D02*
X29690038Y-106418095D01*
X29690038Y-106418095D02*
X29737657Y-106370476D01*
X29737657Y-106370476D02*
X29832895Y-106322857D01*
X29832895Y-106322857D02*
X29975752Y-106322857D01*
X29975752Y-106322857D02*
X30070990Y-106370476D01*
X30070990Y-106370476D02*
X30118609Y-106418095D01*
X30118609Y-106418095D02*
X30166228Y-106513333D01*
X30166228Y-106513333D02*
X30166228Y-106894285D01*
X30642419Y-105370476D02*
X30642419Y-105941904D01*
X30642419Y-105656190D02*
X29642419Y-105656190D01*
X29642419Y-105656190D02*
X29785276Y-105751428D01*
X29785276Y-105751428D02*
X29880514Y-105846666D01*
X29880514Y-105846666D02*
X29928133Y-105941904D01*
X29975752Y-104513333D02*
X30642419Y-104513333D01*
X29594800Y-104751428D02*
X30309085Y-104989523D01*
X30309085Y-104989523D02*
X30309085Y-104370476D01*
X114332580Y-36517142D02*
X114808771Y-36183809D01*
X114332580Y-35945714D02*
X115332580Y-35945714D01*
X115332580Y-35945714D02*
X115332580Y-36326666D01*
X115332580Y-36326666D02*
X115284961Y-36421904D01*
X115284961Y-36421904D02*
X115237342Y-36469523D01*
X115237342Y-36469523D02*
X115142104Y-36517142D01*
X115142104Y-36517142D02*
X114999247Y-36517142D01*
X114999247Y-36517142D02*
X114904009Y-36469523D01*
X114904009Y-36469523D02*
X114856390Y-36421904D01*
X114856390Y-36421904D02*
X114808771Y-36326666D01*
X114808771Y-36326666D02*
X114808771Y-35945714D01*
X114332580Y-37469523D02*
X114332580Y-36898095D01*
X114332580Y-37183809D02*
X115332580Y-37183809D01*
X115332580Y-37183809D02*
X115189723Y-37088571D01*
X115189723Y-37088571D02*
X115094485Y-36993333D01*
X115094485Y-36993333D02*
X115046866Y-36898095D01*
X115332580Y-37802857D02*
X115332580Y-38421904D01*
X115332580Y-38421904D02*
X114951628Y-38088571D01*
X114951628Y-38088571D02*
X114951628Y-38231428D01*
X114951628Y-38231428D02*
X114904009Y-38326666D01*
X114904009Y-38326666D02*
X114856390Y-38374285D01*
X114856390Y-38374285D02*
X114761152Y-38421904D01*
X114761152Y-38421904D02*
X114523057Y-38421904D01*
X114523057Y-38421904D02*
X114427819Y-38374285D01*
X114427819Y-38374285D02*
X114380200Y-38326666D01*
X114380200Y-38326666D02*
X114332580Y-38231428D01*
X114332580Y-38231428D02*
X114332580Y-37945714D01*
X114332580Y-37945714D02*
X114380200Y-37850476D01*
X114380200Y-37850476D02*
X114427819Y-37802857D01*
D12*
X58400000Y-97680000D02*
G75*
G03*
X58400000Y-97680000I-7600000J0D01*
G01*
X39710000Y-111968748D02*
X39710000Y-113391252D01*
X37890000Y-111968748D02*
X37890000Y-113391252D01*
X48162554Y-69313429D02*
X48162554Y-62893429D01*
X55062554Y-69313429D02*
X55062554Y-62893429D01*
X48162554Y-62893429D02*
X48432554Y-62893429D01*
X48432554Y-62893429D02*
X48432554Y-61793429D01*
X54792554Y-62893429D02*
X54792554Y-60063429D01*
X55062554Y-62893429D02*
X54792554Y-62893429D01*
X59522554Y-63874681D02*
X59522554Y-62452177D01*
X57702554Y-63874681D02*
X57702554Y-62452177D01*
X98042000Y-62280748D02*
X98042000Y-63703252D01*
X99862000Y-62280748D02*
X99862000Y-63703252D01*
X64570000Y-113680000D02*
X63920000Y-113680000D01*
X63920000Y-114800000D02*
X63920000Y-112560000D01*
X63920000Y-112560000D02*
X59680000Y-112560000D01*
X63320000Y-114800000D02*
X63320000Y-112560000D01*
X63200000Y-114800000D02*
X63200000Y-112560000D01*
X63080000Y-114800000D02*
X63080000Y-112560000D01*
X59680000Y-114800000D02*
X63920000Y-114800000D01*
X59680000Y-112560000D02*
X59680000Y-114800000D01*
X59030000Y-113680000D02*
X59680000Y-113680000D01*
X64760000Y-108680000D02*
X64110000Y-108680000D01*
X64110000Y-109800000D02*
X64110000Y-107560000D01*
X64110000Y-107560000D02*
X59870000Y-107560000D01*
X63510000Y-109800000D02*
X63510000Y-107560000D01*
X63390000Y-109800000D02*
X63390000Y-107560000D01*
X63270000Y-109800000D02*
X63270000Y-107560000D01*
X59870000Y-109800000D02*
X64110000Y-109800000D01*
X59870000Y-107560000D02*
X59870000Y-109800000D01*
X59220000Y-108680000D02*
X59870000Y-108680000D01*
X45387032Y-40694951D02*
G75*
G03*
X40948554Y-42533429I-1838478J-1838478D01*
G01*
X40948554Y-42533429D02*
G75*
G03*
X45387032Y-44371907I2600000J0D01*
G01*
X45398554Y-44333429D02*
X45398554Y-40733429D01*
X45522554Y-63174681D02*
X45522554Y-61752177D01*
X43702554Y-63174681D02*
X43702554Y-61752177D01*
X106572000Y-61636000D02*
X105072000Y-61636000D01*
X106572000Y-61636000D02*
X108072000Y-61636000D01*
X106572000Y-64856000D02*
X105072000Y-64856000D01*
X106572000Y-64856000D02*
X109497000Y-64856000D01*
X43730000Y-119530000D02*
X47330000Y-119530000D01*
X45530000Y-115080000D02*
G75*
G03*
X43691522Y-119518478I0J-2600000D01*
G01*
X47368478Y-119518478D02*
G75*
G03*
X45530000Y-115080000I-1838478J1838478D01*
G01*
D11*
X127298400Y-40436800D02*
X127298400Y-58420000D01*
X106318000Y-58420000D02*
X127298400Y-58420000D01*
X106318000Y-40436800D02*
X127298400Y-40436800D01*
X106318000Y-40436800D02*
X106318000Y-58420000D01*
M02*
