G04 #@! TF.GenerationSoftware,KiCad,Pcbnew,7.0.8*
G04 #@! TF.CreationDate,2024-02-14T15:59:42+09:00*
G04 #@! TF.ProjectId,_______FMver2,2d098bb9-6bc5-46e4-964d-766572322e6b,rev?*
G04 #@! TF.SameCoordinates,Original*
G04 #@! TF.FileFunction,Paste,Top*
G04 #@! TF.FilePolarity,Positive*
%FSLAX46Y46*%
G04 Gerber Fmt 4.6, Leading zero omitted, Abs format (unit mm)*
G04 Created by KiCad (PCBNEW 7.0.8) date 2024-02-14 15:59:42*
%MOMM*%
%LPD*%
G01*
G04 APERTURE LIST*
G04 Aperture macros list*
%AMRoundRect*
0 Rectangle with rounded corners*
0 $1 Rounding radius*
0 $2 $3 $4 $5 $6 $7 $8 $9 X,Y pos of 4 corners*
0 Add a 4 corners polygon primitive as box body*
4,1,4,$2,$3,$4,$5,$6,$7,$8,$9,$2,$3,0*
0 Add four circle primitives for the rounded corners*
1,1,$1+$1,$2,$3*
1,1,$1+$1,$4,$5*
1,1,$1+$1,$6,$7*
1,1,$1+$1,$8,$9*
0 Add four rect primitives between the rounded corners*
20,1,$1+$1,$2,$3,$4,$5,0*
20,1,$1+$1,$4,$5,$6,$7,0*
20,1,$1+$1,$6,$7,$8,$9,0*
20,1,$1+$1,$8,$9,$2,$3,0*%
G04 Aperture macros list end*
%ADD10RoundRect,0.283134X-0.283133X-0.405371X0.283133X-0.405371X0.283133X0.405371X-0.283133X0.405371X0*%
%ADD11O,3.810000X2.032000*%
%ADD12R,2.298700X0.889000*%
%ADD13R,1.841500X0.901700*%
%ADD14R,1.841500X0.825500*%
%ADD15RoundRect,0.250000X-0.650000X0.412500X-0.650000X-0.412500X0.650000X-0.412500X0.650000X0.412500X0*%
%ADD16RoundRect,0.201619X0.201618X0.230384X-0.201618X0.230384X-0.201618X-0.230384X0.201618X-0.230384X0*%
%ADD17RoundRect,0.250000X-0.350000X0.850000X-0.350000X-0.850000X0.350000X-0.850000X0.350000X0.850000X0*%
%ADD18RoundRect,0.250000X-1.125000X1.275000X-1.125000X-1.275000X1.125000X-1.275000X1.125000X1.275000X0*%
%ADD19RoundRect,0.283134X0.405371X-0.283133X0.405371X0.283133X-0.405371X0.283133X-0.405371X-0.283133X0*%
%ADD20RoundRect,0.201619X-0.230384X0.201618X-0.230384X-0.201618X0.230384X-0.201618X0.230384X0.201618X0*%
%ADD21RoundRect,0.250000X0.650000X-0.412500X0.650000X0.412500X-0.650000X0.412500X-0.650000X-0.412500X0*%
%ADD22R,0.825500X1.841500*%
%ADD23R,0.901700X1.841500*%
%ADD24R,0.889000X2.298700*%
%ADD25O,2.032000X3.810000*%
%ADD26RoundRect,0.201619X0.230384X-0.201618X0.230384X0.201618X-0.230384X0.201618X-0.230384X-0.201618X0*%
%ADD27RoundRect,0.075000X0.650000X0.075000X-0.650000X0.075000X-0.650000X-0.075000X0.650000X-0.075000X0*%
%ADD28RoundRect,0.200000X-0.200000X0.200000X-0.200000X-0.200000X0.200000X-0.200000X0.200000X0.200000X0*%
%ADD29RoundRect,0.201619X-0.201618X-0.230384X0.201618X-0.230384X0.201618X0.230384X-0.201618X0.230384X0*%
%ADD30RoundRect,0.589998X0.935005X-0.589997X0.935005X0.589997X-0.935005X0.589997X-0.935005X-0.589997X0*%
G04 APERTURE END LIST*
D10*
X57810000Y-118054000D03*
X59842000Y-118054000D03*
D11*
X53492000Y-116022000D03*
D12*
X51009150Y-116022000D03*
D13*
X50786900Y-117546000D03*
D14*
X50786900Y-114498000D03*
D15*
X38800000Y-111117500D03*
X38800000Y-114242500D03*
D16*
X114884000Y-62216000D03*
X113360000Y-62216000D03*
D17*
X49332554Y-61163429D03*
D18*
X50087554Y-69138429D03*
X53137554Y-69138429D03*
X50087554Y-65788429D03*
X53137554Y-65788429D03*
D17*
X51612554Y-61163429D03*
X53892554Y-61163429D03*
D19*
X102000000Y-36068000D03*
X102000000Y-38100000D03*
D20*
X38800000Y-106442000D03*
X38800000Y-104918000D03*
D21*
X58612554Y-61600929D03*
X58612554Y-64725929D03*
D22*
X57518554Y-44222529D03*
D23*
X60566554Y-44222529D03*
D24*
X59042554Y-44000279D03*
D25*
X59042554Y-41517429D03*
D15*
X98952000Y-64554500D03*
X98952000Y-61429500D03*
D26*
X99460000Y-37846000D03*
X99460000Y-36322000D03*
X47866554Y-43549429D03*
X47866554Y-42025429D03*
D19*
X51930554Y-41263429D03*
X51930554Y-43295429D03*
D21*
X44612554Y-60900929D03*
X44612554Y-64025929D03*
D27*
X104372000Y-64246000D03*
X104372000Y-63746000D03*
X104372000Y-63246000D03*
X104372000Y-62746000D03*
X104372000Y-62246000D03*
X108772000Y-62246000D03*
X108772000Y-62746000D03*
X108772000Y-63246000D03*
X108772000Y-63746000D03*
X108772000Y-64246000D03*
D28*
X69800000Y-102455000D03*
X69800000Y-104905000D03*
D29*
X33562000Y-112680000D03*
X32038000Y-112680000D03*
D16*
X114884000Y-63754000D03*
X113360000Y-63754000D03*
D26*
X106064000Y-37846000D03*
X106064000Y-36322000D03*
D19*
X108604000Y-36068000D03*
X108604000Y-38100000D03*
D20*
X70038000Y-108442000D03*
X70038000Y-106918000D03*
D30*
X32800000Y-107712000D03*
X32800000Y-103648000D03*
D20*
X113684000Y-36322000D03*
X113684000Y-37846000D03*
M02*
